<?xml version="1.0" encoding="UTF-8" standalone="no"?>
<svg xmlns="http://www.w3.org/2000/svg" xmlns:xlink="http://www.w3.org/1999/xlink" width="310.029mm" height="95.609mm" viewBox="22.520832 -668.802307 310.029083 95.608704">
    <path transform="matrix(1,0,0,-1,21.492435,-592.391052)" style="stroke:#000000;stroke-width:0.050000mm;fill:none" d="M2.692688,17.443264L7.523298,17.443264L7.523298,16.278917L1.028396,16.278917L1.028396,17.443264C1.553192,17.987064,2.269123,18.716881,3.176187,19.632717C4.083251,20.548552,4.652999,21.139496,4.885429,21.405548C5.328363,21.902571,5.637906,22.323578,5.814056,22.668568C5.990206,23.013559,6.078281,23.352703,6.078281,23.686001C6.078281,24.229801,5.887513,24.6731,5.505976,25.0159C5.124438,25.358698,4.627417,25.530098,4.014911,25.530098C3.580748,25.530098,3.12283,25.454811,2.641158,25.304245C2.159486,25.153675,1.644557,24.9249,1.096371,24.617916L1.096371,26.016886C1.653328,26.240545,2.174104,26.409386,2.6587,26.523409C3.143296,26.637432,3.586595,26.694443,3.988598,26.694443C5.048423,26.694443,5.89336,26.429485,6.523408,25.899574C7.153456,25.369661,7.46848,24.66177,7.46848,23.775902C7.46848,23.354897,7.389907,22.956182,7.23276,22.579762C7.075613,22.203341,6.78873,21.759312,6.372109,21.247671C6.258086,21.114645,5.895187,20.731646,5.283412,20.098675C4.671637,19.465702,3.808062,18.580566,2.692688,17.443264zM13.386691,25.598072C12.674781,25.598072,12.139386,25.247599,11.780507,24.546652C11.421629,23.845705,11.242189,22.791363,11.242189,21.383621C11.242189,19.981728,11.421629,18.929943,11.780507,18.228266C12.139386,17.526588,12.674781,17.175749,13.386691,17.175749C14.104449,17.175749,14.642767,17.526588,15.001646,18.228266C15.360524,18.929943,15.539964,19.981728,15.539964,21.383621C15.539964,22.791363,15.360524,23.845705,15.001646,24.546652C14.642767,25.247599,14.104449,25.598072,13.386691,25.598072zM13.386691,26.694443C14.534226,26.694443,15.410592,26.24091,16.015789,25.333847C16.620985,24.426781,16.923584,23.110041,16.923584,21.383621C16.923584,19.661587,16.620985,18.347038,16.015789,17.439974C15.410592,16.532909,14.534226,16.079378,13.386691,16.079378C12.240618,16.079378,11.364983,16.532909,10.759786,17.439974C10.154589,18.347038,9.851991,19.661587,9.851991,21.383621C9.851991,23.110041,10.154589,24.426781,10.759786,25.333847C11.364983,26.24091,12.240618,26.694443,13.386691,26.694443zM20.545994,17.443264L25.376606,17.443264L25.376606,16.278917L18.881702,16.278917L18.881702,17.443264C19.406498,17.987064,20.122429,18.716881,21.029493,19.632717C21.93656,20.548552,22.506306,21.139496,22.738737,21.405548C23.181671,21.902571,23.491213,22.323578,23.667362,22.668568C23.843512,23.013559,23.931589,23.352703,23.931589,23.686001C23.931589,24.229801,23.74082,24.6731,23.359283,25.0159C22.977745,25.358698,22.480722,25.530098,21.868217,25.530098C21.434055,25.530098,20.976137,25.454811,20.494465,25.304245C20.012793,25.153675,19.497864,24.9249,18.949678,24.617916L18.949678,26.016886C19.506634,26.240545,20.027411,26.409386,20.512007,26.523409C20.996603,26.637432,21.439903,26.694443,21.841906,26.694443C22.90173,26.694443,23.746668,26.429485,24.376715,25.899574C25.006762,25.369661,25.321787,24.66177,25.321787,23.775902C25.321787,23.354897,25.243214,22.956182,25.086067,22.579762C24.928921,22.203341,24.642036,21.759312,24.225416,21.247671C24.111393,21.114645,23.748495,20.731646,23.136719,20.098675C22.524944,19.465702,21.661369,18.580566,20.545994,17.443264zM32.084206,25.304245L28.588972,19.842123L32.084206,19.842123L32.084206,25.304245zM31.720209,26.510252L33.461246,26.510252L33.461246,19.842123L34.921612,19.842123L34.921612,18.690933L33.461246,18.690933L33.461246,16.278917L32.084206,16.278917L32.084206,18.690933L27.46629,18.690933L27.46629,20.026314L31.720209,26.510252zM36.392941,20.684135L40.085522,20.684135L40.085522,19.561453L36.392941,19.561453L36.392941,20.684135zM42.510693,17.443264L44.771412,17.443264L44.771412,25.249426L42.311153,24.756058L42.311153,26.016886L44.758255,26.510252L46.141872,26.510252L46.141872,17.443264L48.402592,17.443264L48.402592,16.278917L42.510693,16.278917L42.510693,17.443264zM51.437347,17.443264L53.698063,17.443264L53.698063,25.249426L51.237808,24.756058L51.237808,26.016886L53.684906,26.510252L55.068527,26.510252L55.068527,17.443264L57.329243,17.443264L57.329243,16.278917L51.437347,16.278917L51.437347,17.443264zM59.309292,20.684135L63.001869,20.684135L63.001869,19.561453L59.309292,19.561453L59.309292,20.684135zM68.146042,25.598072C67.434135,25.598072,66.898735,25.247599,66.539856,24.546652C66.180984,23.845705,66.001541,22.791363,66.001541,21.383621C66.001541,19.981728,66.180984,18.929943,66.539856,18.228266C66.898735,17.526588,67.434135,17.175749,68.146042,17.175749C68.8638,17.175749,69.402122,17.526588,69.760994,18.228266C70.119873,18.929943,70.299316,19.981728,70.299316,21.383621C70.299316,22.791363,70.119873,23.845705,69.760994,24.546652C69.402122,25.247599,68.8638,25.598072,68.146042,25.598072zM68.146042,26.694443C69.293579,26.694443,70.169945,26.24091,70.775139,25.333847C71.380333,24.426781,71.682938,23.110041,71.682938,21.383621C71.682938,19.661587,71.380333,18.347038,70.775139,17.439974C70.169945,16.532909,69.293579,16.079378,68.146042,16.079378C66.999969,16.079378,66.124336,16.532909,65.519135,17.439974C64.91394,18.347038,64.611343,19.661587,64.611343,21.383621C64.611343,23.110041,64.91394,24.426781,65.519135,25.333847C66.124336,26.24091,66.999969,26.694443,68.146042,26.694443zM78.307213,21.795856C78.969414,21.654058,79.486534,21.359135,79.858574,20.911085C80.230614,20.463036,80.416626,19.910099,80.416626,19.252275C80.416626,18.243614,80.069443,17.462633,79.375076,16.90933C78.680702,16.35603,77.69397,16.079378,76.414871,16.079378C75.986557,16.079378,75.545082,16.121771,75.090454,16.206556C74.635834,16.291344,74.16658,16.418522,73.682716,16.588095L73.682716,17.923473C74.06572,17.699814,74.485626,17.530973,74.942444,17.41695C75.399261,17.302929,75.876923,17.245916,76.375404,17.245916C77.242264,17.245916,77.903015,17.41695,78.357643,17.759018C78.812271,18.101086,79.039581,18.598839,79.039581,19.252275C79.039581,19.85601,78.828354,20.327816,78.405884,20.66769C77.983414,21.007566,77.39576,21.177504,76.642921,21.177504L75.450066,21.177504L75.450066,22.315536L76.697739,22.315536C77.377487,22.315536,77.897896,22.451487,78.258972,22.723387C78.620041,22.995287,78.800575,23.387056,78.800575,23.898697C78.800575,24.423492,78.614563,24.826591,78.242523,25.107994C77.870483,25.389397,77.337288,25.530098,76.642921,25.530098C76.262848,25.530098,75.855721,25.4888,75.421562,25.406208C74.987396,25.323614,74.510109,25.196068,73.9897,25.023573L73.9897,26.255894C74.515961,26.402077,75.008598,26.511715,75.467606,26.584805C75.92662,26.657898,76.359329,26.694443,76.765709,26.694443C77.816765,26.694443,78.648178,26.455799,79.259956,25.978512C79.871727,25.501225,80.17762,24.856194,80.17762,24.043417C80.17762,23.476227,80.015358,22.997478,79.690826,22.60717C79.366302,22.216864,78.905098,21.946424,78.307213,21.795856zM90.459389,25.598072C89.747475,25.598072,89.212082,25.247599,88.853203,24.546652C88.494324,23.845705,88.314888,22.791363,88.314888,21.383621C88.314888,19.981728,88.494324,18.929943,88.853203,18.228266C89.212082,17.526588,89.747475,17.175749,90.459389,17.175749C91.177139,17.175749,91.715462,17.526588,92.074341,18.228266C92.43322,18.929943,92.612656,19.981728,92.612656,21.383621C92.612656,22.791363,92.43322,23.845705,92.074341,24.546652C91.715462,25.247599,91.177139,25.598072,90.459389,25.598072zM90.459389,26.694443C91.606918,26.694443,92.483284,26.24091,93.088486,25.333847C93.69368,24.426781,93.996277,23.110041,93.996277,21.383621C93.996277,19.661587,93.69368,18.347038,93.088486,17.439974C92.483284,16.532909,91.606918,16.079378,90.459389,16.079378C89.313309,16.079378,88.437675,16.532909,87.832481,17.439974C87.227287,18.347038,86.924683,19.661587,86.924683,21.383621C86.924683,23.110041,87.227287,24.426781,87.832481,25.333847C88.437675,26.24091,89.313309,26.694443,90.459389,26.694443zM96.667038,17.443264L98.927757,17.443264L98.927757,25.249426L96.467499,24.756058L96.467499,26.016886L98.914597,26.510252L100.298218,26.510252L100.298218,17.443264L102.558937,17.443264L102.558937,16.278917L96.667038,16.278917L96.667038,17.443264zM105.497215,18.019955L106.94223,18.019955L106.94223,16.278917L105.497215,16.278917L105.497215,18.019955zM105.497215,23.534702L106.94223,23.534702L106.94223,21.795856L105.497215,21.795856L105.497215,23.534702zM114.274757,21.795856C114.936966,21.654058,115.454086,21.359135,115.826126,20.911085C116.198166,20.463036,116.384178,19.910099,116.384178,19.252275C116.384178,18.243614,116.036995,17.462633,115.342628,16.90933C114.648254,16.35603,113.661522,16.079378,112.382423,16.079378C111.954109,16.079378,111.512634,16.121771,111.058006,16.206556C110.603378,16.291344,110.134132,16.418522,109.650269,16.588095L109.650269,17.923473C110.033264,17.699814,110.453178,17.530973,110.909996,17.41695C111.366814,17.302929,111.844475,17.245916,112.342957,17.245916C113.209816,17.245916,113.870567,17.41695,114.325195,17.759018C114.779816,18.101086,115.007133,18.598839,115.007133,19.252275C115.007133,19.85601,114.795906,20.327816,114.373436,20.66769C113.950958,21.007566,113.363304,21.177504,112.610466,21.177504L111.417618,21.177504L111.417618,22.315536L112.665283,22.315536C113.345039,22.315536,113.865448,22.451487,114.226517,22.723387C114.587593,22.995287,114.768127,23.387056,114.768127,23.898697C114.768127,24.423492,114.582115,24.826591,114.210075,25.107994C113.838036,25.389397,113.30484,25.530098,112.610466,25.530098C112.230392,25.530098,111.823273,25.4888,111.389114,25.406208C110.954948,25.323614,110.477661,25.196068,109.957253,25.023573L109.957253,26.255894C110.483505,26.402077,110.976151,26.511715,111.435158,26.584805C111.894173,26.657898,112.326874,26.694443,112.733261,26.694443C113.784309,26.694443,114.61573,26.455799,115.227509,25.978512C115.839279,25.501225,116.145172,24.856194,116.145172,24.043417C116.145172,23.476227,115.982903,22.997478,115.658379,22.60717C115.333855,22.216864,114.87265,21.946424,114.274757,21.795856zM121.966896,21.138035C121.309074,21.138035,120.791954,20.961884,120.415535,20.609583C120.039108,20.257282,119.850906,19.773418,119.850906,19.157988C119.850906,18.541096,120.039108,18.056499,120.415535,17.704201C120.791954,17.351898,121.309074,17.175749,121.966896,17.175749C122.624725,17.175749,123.143303,17.352995,123.522652,17.707489C123.901993,18.061983,124.091667,18.545483,124.091667,19.157988C124.091667,19.773418,123.903458,20.257282,123.527039,20.609583C123.150612,20.961884,122.630569,21.138035,121.966896,21.138035zM120.583275,21.725689C119.989777,21.871872,119.527473,22.148521,119.196365,22.555641C118.865265,22.962761,118.699715,23.458687,118.699715,24.043417C118.699715,24.86058,118.990982,25.506708,119.573524,25.9818C120.156059,26.456894,120.95385,26.694443,121.966896,26.694443C122.985794,26.694443,123.785408,26.456894,124.365761,25.9818C124.946106,25.506708,125.236275,24.86058,125.236275,24.043417C125.236275,23.458687,125.070724,22.962761,124.739624,22.555641C124.408516,22.148521,123.94841,21.871872,123.359291,21.725689C124.025887,21.570736,124.545197,21.26704,124.917236,20.814606C125.289268,20.362169,125.475288,19.809963,125.475288,19.157988C125.475288,18.165407,125.172691,17.40416,124.56749,16.874247C123.962296,16.344334,123.095436,16.079378,121.966896,16.079378C120.839828,16.079378,119.973328,16.344334,119.367401,16.874247C118.761475,17.40416,118.458511,18.165407,118.458511,19.157988C118.458511,19.809963,118.645988,20.362169,119.02095,20.814606C119.395912,21.26704,119.916687,21.570736,120.583275,21.725689zM120.076752,23.911854C120.076752,23.382671,120.24231,22.969704,120.57341,22.672955C120.904518,22.376202,121.369011,22.227827,121.966896,22.227827C122.561859,22.227827,123.027092,22.376202,123.362579,22.672955C123.698067,22.969704,123.865814,23.382671,123.865814,23.911854C123.865814,24.442497,123.698067,24.856194,123.362579,25.152945C123.027092,25.449696,122.561859,25.598072,121.966896,25.598072C121.369011,25.598072,120.904518,25.449696,120.57341,25.152945C120.24231,24.856194,120.076752,24.442497,120.076752,23.911854zM128.078064,18.019955L129.523087,18.019955L129.523087,16.278917L128.078064,16.278917L128.078064,18.019955zM128.078064,23.534702L129.523087,23.534702L129.523087,21.795856L128.078064,21.795856L128.078064,23.534702zM133.85376,17.443264L138.684372,17.443264L138.684372,16.278917L132.189468,16.278917L132.189468,17.443264C132.714264,17.987064,133.430191,18.716881,134.33725,19.632717C135.244324,20.548552,135.814072,21.139496,136.046494,21.405548C136.489426,21.902571,136.798981,22.323578,136.975128,22.668568C137.151276,23.013559,137.239349,23.352703,137.239349,23.686001C137.239349,24.229801,137.048584,24.6731,136.667038,25.0159C136.285507,25.358698,135.788483,25.530098,135.17598,25.530098C134.741821,25.530098,134.283905,25.454811,133.802231,25.304245C133.320557,25.153675,132.805618,24.9249,132.257431,24.617916L132.257431,26.016886C132.814392,26.240545,133.335175,26.409386,133.819763,26.523409C134.304367,26.637432,134.747665,26.694443,135.149658,26.694443C136.209488,26.694443,137.054428,26.429485,137.684479,25.899574C138.314514,25.369661,138.629547,24.66177,138.629547,23.775902C138.629547,23.354897,138.55098,22.956182,138.393829,22.579762C138.236679,22.203341,137.949799,21.759312,137.533173,21.247671C137.419159,21.114645,137.056259,20.731646,136.444473,20.098675C135.832703,19.465702,134.969131,18.580566,133.85376,17.443264zM145.391968,25.304245L141.896729,19.842123L145.391968,19.842123L145.391968,25.304245zM145.027969,26.510252L146.769012,26.510252L146.769012,19.842123L148.22937,19.842123L148.22937,18.690933L146.769012,18.690933L146.769012,16.278917L145.391968,16.278917L145.391968,18.690933L140.774048,18.690933L140.774048,20.026314L145.027969,26.510252zM154.851456,26.510252L156.914825,26.510252L159.524185,19.548296L162.148895,26.510252L164.212265,26.510252L164.212265,16.278917L162.861542,16.278917L162.861542,25.262581L160.223679,18.245808L158.833481,18.245808L156.195602,25.262581L156.195602,16.278917L154.851456,16.278917L154.851456,26.510252zM170.801453,19.95834C170.801453,19.304901,170.96373,18.792166,171.288254,18.42013C171.612778,18.048096,172.05864,17.862078,172.625824,17.862078C173.187164,17.862078,173.628998,18.049191,173.95134,18.42342C174.273666,18.797647,174.43483,19.309288,174.43483,19.95834C174.43483,20.598619,174.270386,21.10697,173.941467,21.483391C173.612549,21.859812,173.168884,22.048021,172.610474,22.048021C172.057907,22.048021,171.618256,21.860909,171.291534,21.486679C170.964813,21.112452,170.801453,20.603004,170.801453,19.95834zM174.535706,17.910318C174.262344,17.558018,173.948776,17.298542,173.595016,17.131893C173.241241,16.965246,172.82901,16.881922,172.358307,16.881922C171.571854,16.881922,170.933029,17.166246,170.441849,17.734898C169.950684,18.303549,169.705093,19.044697,169.705093,19.95834C169.705093,20.871983,169.951767,21.614225,170.445145,22.185068C170.938507,22.755913,171.576233,23.041334,172.358307,23.041334C172.82901,23.041334,173.24234,22.955818,173.598297,22.784782C173.954269,22.61375,174.266724,22.355005,174.535706,22.008553L174.535706,22.905384L175.515854,22.905384L175.515854,17.862078C176.183899,17.962944,176.706161,18.268101,177.082565,18.777548C177.458984,19.286995,177.647202,19.945913,177.647202,20.754303C177.647202,21.242554,177.575195,21.701569,177.431213,22.131346C177.287231,22.561123,177.069061,22.95874,176.776688,23.324198C176.30159,23.922085,175.722717,24.379639,175.040024,24.696854C174.357346,25.014072,173.614014,25.17268,172.810013,25.17268C172.248672,25.17268,171.70961,25.098492,171.192871,24.950115C170.676117,24.801741,170.198456,24.581371,169.759903,24.289005C169.043625,23.822681,168.483368,23.211637,168.079178,22.455872C167.674973,21.700108,167.472885,20.881483,167.472885,20C167.472885,19.273472,167.60408,18.592625,167.86647,17.957462C168.12886,17.322298,168.509308,16.762783,169.007797,16.278917C169.487274,15.803823,170.042038,15.441655,170.672089,15.192413C171.302139,14.943172,171.976028,14.818551,172.693802,14.818551C173.282913,14.818551,173.861786,14.917955,174.43045,15.116764C174.9991,15.315573,175.520981,15.599898,175.996063,15.969741L176.612228,15.208859C176.042114,14.765925,175.420105,14.426781,174.746201,14.191427C174.072296,13.956072,173.388153,13.838395,172.693802,13.838395C171.848862,13.838395,171.051788,13.988233,170.302612,14.287908C169.553436,14.587583,168.886459,15.022476,168.301727,15.592589C167.71701,16.164164,167.2715,16.825642,166.965256,17.577021C166.659012,18.3284,166.505875,19.136061,166.505875,20C166.505875,20.831781,166.661209,21.624458,166.971832,22.378029C167.282471,23.131603,167.725784,23.794176,168.301727,24.365749C168.890839,24.944633,169.571335,25.3883,170.34317,25.696745C171.115021,26.005192,171.932922,26.159412,172.79686,26.159412C173.764587,26.159412,174.663239,25.960972,175.492828,25.564083C176.322418,25.167198,177.017883,24.603298,177.579224,23.872383C177.921295,23.423603,178.182587,22.936813,178.363129,22.412018C178.543671,21.887222,178.633942,21.343422,178.633942,20.780617C178.633942,19.578995,178.270676,18.630999,177.544144,17.93663C176.817612,17.242262,175.814804,16.881922,174.535706,16.855608L174.535706,17.910318zM2.692688,1.164346L7.523298,1.164346L7.523298,0L1.028396,0L1.028396,1.164346C1.553192,1.708146,2.269123,2.437964,3.176187,3.353799C4.083251,4.269634,4.652999,4.860579,4.885429,5.126631C5.328363,5.623653,5.637906,6.04466,5.814056,6.389651C5.990206,6.734642,6.078281,7.073786,6.078281,7.407083C6.078281,7.950883,5.887513,8.394183,5.505976,8.736981C5.124438,9.079781,4.627417,9.25118,4.014911,9.25118C3.580748,9.25118,3.12283,9.175895,2.641158,9.025327C2.159486,8.874759,1.644557,8.645983,1.096371,8.338999L1.096371,9.737968C1.653328,9.961628,2.174104,10.130469,2.6587,10.244492C3.143296,10.358514,3.586595,10.415525,3.988598,10.415525C5.048423,10.415525,5.89336,10.150569,6.523408,9.620656C7.153456,9.090744,7.46848,8.382854,7.46848,7.496985C7.46848,7.075979,7.389907,6.677266,7.23276,6.300845C7.075613,5.924424,6.78873,5.480393,6.372109,4.968754C6.258086,4.835727,5.895187,4.452728,5.283412,3.819757C4.671637,3.186785,3.808062,2.301648,2.692688,1.164346zM13.386691,9.319155C12.674781,9.319155,12.139386,8.968681,11.780507,8.267735C11.421629,7.566788,11.242189,6.512444,11.242189,5.104704C11.242189,3.702811,11.421629,2.651025,11.780507,1.949348C12.139386,1.24767,12.674781,0.896832,13.386691,0.896832C14.104449,0.896832,14.642767,1.24767,15.001646,1.949348C15.360524,2.651025,15.539964,3.702811,15.539964,5.104704C15.539964,6.512444,15.360524,7.566788,15.001646,8.267735C14.642767,8.968681,14.104449,9.319155,13.386691,9.319155zM13.386691,10.415525C14.534226,10.415525,15.410592,9.961993,16.015789,9.054929C16.620985,8.147864,16.923584,6.831123,16.923584,5.104704C16.923584,3.38267,16.620985,2.068121,16.015789,1.161057C15.410592,0.253993,14.534226,-0.19954,13.386691,-0.19954C12.240618,-0.19954,11.364983,0.253993,10.759786,1.161057C10.154589,2.068121,9.851991,3.38267,9.851991,5.104704C9.851991,6.831123,10.154589,8.147864,10.759786,9.054929C11.364983,9.961993,12.240618,10.415525,13.386691,10.415525zM20.545994,1.164346L25.376606,1.164346L25.376606,0L18.881702,0L18.881702,1.164346C19.406498,1.708146,20.122429,2.437964,21.029493,3.353799C21.93656,4.269634,22.506306,4.860579,22.738737,5.126631C23.181671,5.623653,23.491213,6.04466,23.667362,6.389651C23.843512,6.734642,23.931589,7.073786,23.931589,7.407083C23.931589,7.950883,23.74082,8.394183,23.359283,8.736981C22.977745,9.079781,22.480722,9.25118,21.868217,9.25118C21.434055,9.25118,20.976137,9.175895,20.494465,9.025327C20.012793,8.874759,19.497864,8.645983,18.949678,8.338999L18.949678,9.737968C19.506634,9.961628,20.027411,10.130469,20.512007,10.244492C20.996603,10.358514,21.439903,10.415525,21.841906,10.415525C22.90173,10.415525,23.746668,10.150569,24.376715,9.620656C25.006762,9.090744,25.321787,8.382854,25.321787,7.496985C25.321787,7.075979,25.243214,6.677266,25.086067,6.300845C24.928921,5.924424,24.642036,5.480393,24.225416,4.968754C24.111393,4.835727,23.748495,4.452728,23.136719,3.819757C22.524944,3.186785,21.661369,2.301648,20.545994,1.164346zM32.084206,9.025327L28.588972,3.563206L32.084206,3.563206L32.084206,9.025327zM31.720209,10.231335L33.461246,10.231335L33.461246,3.563206L34.921612,3.563206L34.921612,2.412016L33.461246,2.412016L33.461246,0L32.084206,0L32.084206,2.412016L27.46629,2.412016L27.46629,3.747396L31.720209,10.231335zM36.392941,4.405219L40.085522,4.405219L40.085522,3.282535L36.392941,3.282535L36.392941,4.405219zM42.510693,1.164346L44.771412,1.164346L44.771412,8.970509L42.311153,8.477141L42.311153,9.737968L44.758255,10.231335L46.141872,10.231335L46.141872,1.164346L48.402592,1.164346L48.402592,0L42.510693,0L42.510693,1.164346zM51.437347,1.164346L53.698063,1.164346L53.698063,8.970509L51.237808,8.477141L51.237808,9.737968L53.684906,10.231335L55.068527,10.231335L55.068527,1.164346L57.329243,1.164346L57.329243,0L51.437347,0L51.437347,1.164346zM59.309292,4.405219L63.001869,4.405219L63.001869,3.282535L59.309292,3.282535L59.309292,4.405219zM68.146042,9.319155C67.434135,9.319155,66.898735,8.968681,66.539856,8.267735C66.180984,7.566788,66.001541,6.512444,66.001541,5.104704C66.001541,3.702811,66.180984,2.651025,66.539856,1.949348C66.898735,1.24767,67.434135,0.896832,68.146042,0.896832C68.8638,0.896832,69.402122,1.24767,69.760994,1.949348C70.119873,2.651025,70.299316,3.702811,70.299316,5.104704C70.299316,6.512444,70.119873,7.566788,69.760994,8.267735C69.402122,8.968681,68.8638,9.319155,68.146042,9.319155zM68.146042,10.415525C69.293579,10.415525,70.169945,9.961993,70.775139,9.054929C71.380333,8.147864,71.682938,6.831123,71.682938,5.104704C71.682938,3.38267,71.380333,2.068121,70.775139,1.161057C70.169945,0.253993,69.293579,-0.19954,68.146042,-0.19954C66.999969,-0.19954,66.124336,0.253993,65.519135,1.161057C64.91394,2.068121,64.611343,3.38267,64.611343,5.104704C64.611343,6.831123,64.91394,8.147864,65.519135,9.054929C66.124336,9.961993,66.999969,10.415525,68.146042,10.415525zM77.916901,9.025327L74.421669,3.563206L77.916901,3.563206L77.916901,9.025327zM77.552902,10.231335L79.293945,10.231335L79.293945,3.563206L80.754311,3.563206L80.754311,2.412016L79.293945,2.412016L79.293945,0L77.916901,0L77.916901,2.412016L73.298988,2.412016L73.298988,3.747396L77.552902,10.231335zM87.740387,1.164346L90.001106,1.164346L90.001106,8.970509L87.540848,8.477141L87.540848,9.737968L89.987946,10.231335L91.371567,10.231335L91.371567,1.164346L93.632286,1.164346L93.632286,0L87.740387,0L87.740387,1.164346zM99.38604,4.859117C98.728218,4.859117,98.211098,4.682967,97.834671,4.330666C97.458252,3.978365,97.270042,3.4945,97.270042,2.879071C97.270042,2.262179,97.458252,1.777583,97.834671,1.425282C98.211098,1.072982,98.728218,0.896832,99.38604,0.896832C100.043861,0.896832,100.562447,1.074078,100.941788,1.428572C101.321136,1.783065,101.510803,2.266564,101.510803,2.879071C101.510803,3.4945,101.322601,3.978365,100.946175,4.330666C100.569756,4.682967,100.049713,4.859117,99.38604,4.859117zM98.002419,5.446772C97.408913,5.592955,96.946617,5.869605,96.615509,6.276724C96.284409,6.683844,96.118851,7.179769,96.118851,7.7645C96.118851,8.581662,96.410118,9.227791,96.992661,9.702884C97.575203,10.177978,98.372993,10.415525,99.38604,10.415525C100.404938,10.415525,101.204552,10.177978,101.784897,9.702884C102.36525,9.227791,102.655418,8.581662,102.655418,7.7645C102.655418,7.179769,102.489868,6.683844,102.15876,6.276724C101.82766,5.869605,101.367554,5.592955,100.778435,5.446772C101.445023,5.291818,101.964333,4.988123,102.336372,4.535687C102.708412,4.083251,102.894424,3.531046,102.894424,2.879071C102.894424,1.886489,102.591827,1.125242,101.986633,0.59533C101.381432,0.065417,100.514572,-0.19954,99.38604,-0.19954C98.258972,-0.19954,97.392471,0.065417,96.786545,0.59533C96.180618,1.125242,95.877655,1.886489,95.877655,2.879071C95.877655,3.531046,96.065132,4.083251,96.440094,4.535687C96.815048,4.988123,97.335823,5.291818,98.002419,5.446772zM97.495895,7.632936C97.495895,7.103754,97.661446,6.690787,97.992554,6.394036C98.323654,6.097285,98.788147,5.94891,99.38604,5.94891C99.981003,5.94891,100.446228,6.097285,100.781723,6.394036C101.11721,6.690787,101.284958,7.103754,101.284958,7.632936C101.284958,8.163579,101.11721,8.577277,100.781723,8.874027C100.446228,9.170779,99.981003,9.319155,99.38604,9.319155C98.788147,9.319155,98.323654,9.170779,97.992554,8.874027C97.661446,8.577277,97.495895,8.163579,97.495895,7.632936zM105.497215,1.741037L106.94223,1.741037L106.94223,0L105.497215,0L105.497215,1.741037zM105.497215,7.255784L106.94223,7.255784L106.94223,5.516939L105.497215,5.516939L105.497215,7.255784zM110.321243,1.164346L112.581963,1.164346L112.581963,8.970509L110.121704,8.477141L110.121704,9.737968L112.56881,10.231335L113.952423,10.231335L113.952423,1.164346L116.213142,1.164346L116.213142,0L110.321243,0L110.321243,1.164346zM122.811104,9.025327L119.315872,3.563206L122.811104,3.563206L122.811104,9.025327zM122.447113,10.231335L124.188148,10.231335L124.188148,3.563206L125.648514,3.563206L125.648514,2.412016L124.188148,2.412016L124.188148,0L122.811104,0L122.811104,2.412016L118.193192,2.412016L118.193192,3.747396L122.447113,10.231335zM128.078064,1.741037L129.523087,1.741037L129.523087,0L128.078064,0L128.078064,1.741037zM128.078064,7.255784L129.523087,7.255784L129.523087,5.516939L128.078064,5.516939L128.078064,7.255784zM132.676254,10.231335L138.109863,10.231335L138.109863,9.064796L133.943649,9.064796L133.943649,6.558492C134.143921,6.627198,134.344559,6.678362,134.545563,6.711984C134.746567,6.745606,134.947937,6.762417,135.149658,6.762417C136.291351,6.762417,137.195862,6.449585,137.86319,5.823923C138.530502,5.198261,138.864166,4.351131,138.864166,3.282535C138.864166,2.181778,138.521378,1.326244,137.83577,0.71593C137.150177,0.105617,136.183914,-0.19954,134.936966,-0.19954C134.507187,-0.19954,134.069733,-0.162994,133.624619,-0.089902C133.179489,-0.016811,132.719376,0.092826,132.244278,0.239009L132.244278,1.6314C132.65506,1.40774,133.079712,1.241092,133.518265,1.131455C133.956818,1.021818,134.420212,0.966999,134.908463,0.966999C135.69931,0.966999,136.325348,1.174579,136.786545,1.589738C137.247757,2.004897,137.478363,2.569163,137.478363,3.282535C137.478363,3.994445,137.247757,4.558345,136.786545,4.974236C136.325348,5.390126,135.69931,5.598071,134.908463,5.598071C134.53862,5.598071,134.169876,5.557139,133.802231,5.475277C133.43457,5.393415,133.05925,5.265505,132.676254,5.091547L132.676254,10.231335zM145.782272,5.516939C146.444473,5.375142,146.961609,5.080218,147.333633,4.632168C147.705673,4.184117,147.891693,3.631181,147.891693,2.973358C147.891693,1.964697,147.544495,1.183715,146.850143,0.630413C146.155777,0.077111,145.169037,-0.19954,143.889938,-0.19954C143.461624,-0.19954,143.020142,-0.157147,142.565521,-0.07236C142.110901,0.012426,141.641647,0.139605,141.157776,0.309177L141.157776,1.644557C141.540787,1.420897,141.960693,1.252056,142.417511,1.138033C142.874329,1.024011,143.35199,0.966999,143.850464,0.966999C144.717331,0.966999,145.378067,1.138033,145.832703,1.480101C146.287338,1.822169,146.514648,2.319921,146.514648,2.973358C146.514648,3.577094,146.303406,4.048898,145.880951,4.388773C145.458481,4.728649,144.870834,4.898586,144.117981,4.898586L142.925125,4.898586L142.925125,6.036619L144.172806,6.036619C144.852554,6.036619,145.372971,6.172569,145.734024,6.444469C146.095093,6.716369,146.275635,7.10814,146.275635,7.619779C146.275635,8.144575,146.089615,8.547675,145.71759,8.829077C145.345551,9.110478,144.812347,9.25118,144.117981,9.25118C143.7379,9.25118,143.33078,9.209883,142.896622,9.12729C142.462463,9.044697,141.985168,8.917151,141.464767,8.744656L141.464767,9.976977C141.991028,10.123159,142.483658,10.232797,142.942673,10.305888C143.401688,10.37898,143.834381,10.415525,144.240768,10.415525C145.29184,10.415525,146.123245,10.176882,146.735016,9.699595C147.346786,9.222308,147.652679,8.577277,147.652679,7.7645C147.652679,7.19731,147.490417,6.718562,147.165894,6.328254C146.84137,5.937946,146.380157,5.667508,145.782272,5.516939zM160.984558,9.895845L160.984558,8.545116C160.459747,8.796551,159.964188,8.98403,159.497879,9.107554C159.031555,9.231079,158.581314,9.292841,158.147141,9.292841C157.394302,9.292841,156.813217,9.146659,156.403915,8.854293C155.994614,8.561928,155.789948,8.146037,155.789948,7.606623C155.789948,7.153456,155.925903,6.811754,156.1978,6.581516C156.469696,6.351278,156.984985,6.16526,157.743683,6.023463L158.579117,5.852429C159.61116,5.655082,160.372772,5.308629,160.863953,4.813069C161.355133,4.317509,161.600708,3.65457,161.600708,2.824252C161.600708,1.831671,161.268509,1.07956,160.604111,0.56792C159.939713,0.05628,158.965775,-0.19954,157.682281,-0.19954C157.198425,-0.19954,156.683487,-0.144721,156.137497,-0.035084C155.591507,0.074553,155.026138,0.236816,154.441406,0.451705L154.441406,1.876987C155.002747,1.562694,155.553131,1.325513,156.092545,1.165442C156.631958,1.005372,157.161865,0.925337,157.682281,0.925337C158.471664,0.925337,159.081253,1.080656,159.511032,1.391295C159.940811,1.701933,160.155701,2.145233,160.155701,2.721193C160.155701,3.2226,160.001465,3.615101,159.693024,3.898696C159.384583,4.182291,158.878784,4.394986,158.175644,4.536784L157.331451,4.701239C156.299393,4.905895,155.552765,5.227498,155.091553,5.666046C154.630341,6.104594,154.39975,6.714907,154.39975,7.496985C154.39975,8.401857,154.71843,9.114498,155.355789,9.63491C155.993134,10.15532,156.870972,10.415525,157.989273,10.415525C158.470215,10.415525,158.959549,10.372036,159.457306,10.285057C159.955063,10.198079,160.464142,10.068341,160.984558,9.895845zM163.574188,3.028177L163.574188,7.674598L164.835007,7.674598L164.835007,3.076417C164.835007,2.349889,164.97644,1.804992,165.259308,1.441728C165.542175,1.078464,165.967194,0.896832,166.534378,0.896832C167.214127,0.896832,167.751709,1.113913,168.147141,1.548076C168.542572,1.982239,168.74028,2.574279,168.74028,3.324197L168.74028,7.674598L170.001114,7.674598L170.001114,0L168.74028,0L168.74028,1.179695C168.434753,0.713372,168.07991,0.366919,167.675705,0.140336C167.2715,-0.086248,166.801895,-0.19954,166.266876,-0.19954C165.385391,-0.19954,164.716248,0.074553,164.259415,0.622739C163.802582,1.170924,163.574188,1.972737,163.574188,3.028177zM172.049133,7.674598L178.037506,7.674598L178.037506,6.523408L173.296799,1.006469L178.037506,1.006469L178.037506,0L171.878098,0L171.878098,1.15119L176.621002,6.668129L172.049133,6.668129L172.049133,7.674598zM183.155365,-0.712641C182.80014,-1.626284,182.453339,-2.222344,182.114914,-2.500823C181.776489,-2.779301,181.324432,-2.91854,180.758698,-2.91854L179.750046,-2.91854L179.750046,-1.863831L180.49118,-1.863831C180.837646,-1.863831,181.106995,-1.781603,181.29921,-1.617147C181.49144,-1.452692,181.703781,-1.064211,181.936203,-0.451705L182.162064,0.122794L179.059326,7.674598L180.394714,7.674598L182.793564,1.673062L185.192429,7.674598L186.527802,7.674598L183.155365,-0.712641zM2.692688,-15.114572L7.523298,-15.114572L7.523298,-16.278917L1.028396,-16.278917L1.028396,-15.114572C1.553192,-14.570771,2.269123,-13.840954,3.176187,-12.925118C4.083251,-12.009283,4.652999,-11.418339,4.885429,-11.152287C5.328363,-10.655264,5.637906,-10.234258,5.814056,-9.889267C5.990206,-9.544275,6.078281,-9.205132,6.078281,-8.871834C6.078281,-8.328033,5.887513,-7.884734,5.505976,-7.541936C5.124438,-7.199137,4.627417,-7.027738,4.014911,-7.027738C3.580748,-7.027738,3.12283,-7.103023,2.641158,-7.253591C2.159486,-7.404159,1.644557,-7.632935,1.096371,-7.939919L1.096371,-6.540949C1.653328,-6.317289,2.174104,-6.148448,2.6587,-6.034426C3.143296,-5.920403,3.586595,-5.863392,3.988598,-5.863392C5.048423,-5.863392,5.89336,-6.128348,6.523408,-6.658261C7.153456,-7.188173,7.46848,-7.896064,7.46848,-8.781932C7.46848,-9.202938,7.389907,-9.601652,7.23276,-9.978073C7.075613,-10.354494,6.78873,-10.798524,6.372109,-11.310163C6.258086,-11.44319,5.895187,-11.826189,5.283412,-12.45916C4.671637,-13.092132,3.808062,-13.977269,2.692688,-15.114572zM13.386691,-6.959763C12.674781,-6.959763,12.139386,-7.310236,11.780507,-8.011183C11.421629,-8.71213,11.242189,-9.766473,11.242189,-11.174213C11.242189,-12.576107,11.421629,-13.627892,11.780507,-14.32957C12.139386,-15.031247,12.674781,-15.382086,13.386691,-15.382086C14.104449,-15.382086,14.642767,-15.031247,15.001646,-14.32957C15.360524,-13.627892,15.539964,-12.576107,15.539964,-11.174213C15.539964,-9.766473,15.360524,-8.71213,15.001646,-8.011183C14.642767,-7.310236,14.104449,-6.959763,13.386691,-6.959763zM13.386691,-5.863392C14.534226,-5.863392,15.410592,-6.316924,16.015789,-7.223989C16.620985,-8.131053,16.923584,-9.447794,16.923584,-11.174213C16.923584,-12.896247,16.620985,-14.210796,16.015789,-15.117861C15.410592,-16.024925,14.534226,-16.478456,13.386691,-16.478456C12.240618,-16.478456,11.364983,-16.024925,10.759786,-15.117861C10.154589,-14.210796,9.851991,-12.896247,9.851991,-11.174213C9.851991,-9.447794,10.154589,-8.131053,10.759786,-7.223989C11.364983,-6.316924,12.240618,-5.863392,13.386691,-5.863392zM20.545994,-15.114572L25.376606,-15.114572L25.376606,-16.278917L18.881702,-16.278917L18.881702,-15.114572C19.406498,-14.570771,20.122429,-13.840954,21.029493,-12.925118C21.93656,-12.009283,22.506306,-11.418339,22.738737,-11.152287C23.181671,-10.655264,23.491213,-10.234258,23.667362,-9.889267C23.843512,-9.544275,23.931589,-9.205132,23.931589,-8.871834C23.931589,-8.328033,23.74082,-7.884734,23.359283,-7.541936C22.977745,-7.199137,22.480722,-7.027738,21.868217,-7.027738C21.434055,-7.027738,20.976137,-7.103023,20.494465,-7.253591C20.012793,-7.404159,19.497864,-7.632935,18.949678,-7.939919L18.949678,-6.540949C19.506634,-6.317289,20.027411,-6.148448,20.512007,-6.034426C20.996603,-5.920403,21.439903,-5.863392,21.841906,-5.863392C22.90173,-5.863392,23.746668,-6.128348,24.376715,-6.658261C25.006762,-7.188173,25.321787,-7.896064,25.321787,-8.781932C25.321787,-9.202938,25.243214,-9.601652,25.086067,-9.978073C24.928921,-10.354494,24.642036,-10.798524,24.225416,-11.310163C24.111393,-11.44319,23.748495,-11.826189,23.136719,-12.45916C22.524944,-13.092132,21.661369,-13.977269,20.545994,-15.114572zM32.084206,-7.253591L28.588972,-12.715712L32.084206,-12.715712L32.084206,-7.253591zM31.720209,-6.047583L33.461246,-6.047583L33.461246,-12.715712L34.921612,-12.715712L34.921612,-13.866901L33.461246,-13.866901L33.461246,-16.278917L32.084206,-16.278917L32.084206,-13.866901L27.46629,-13.866901L27.46629,-12.531521L31.720209,-6.047583zM36.392941,-11.873698L40.085522,-11.873698L40.085522,-12.996382L36.392941,-12.996382L36.392941,-11.873698zM42.510693,-15.114572L44.771412,-15.114572L44.771412,-7.308409L42.311153,-7.801776L42.311153,-6.540949L44.758255,-6.047583L46.141872,-6.047583L46.141872,-15.114572L48.402592,-15.114572L48.402592,-16.278917L42.510693,-16.278917L42.510693,-15.114572zM51.437347,-15.114572L53.698063,-15.114572L53.698063,-7.308409L51.237808,-7.801776L51.237808,-6.540949L53.684906,-6.047583L55.068527,-6.047583L55.068527,-15.114572L57.329243,-15.114572L57.329243,-16.278917L51.437347,-16.278917L51.437347,-15.114572zM59.309292,-11.873698L63.001869,-11.873698L63.001869,-12.996382L59.309292,-12.996382L59.309292,-11.873698zM68.146042,-6.959763C67.434135,-6.959763,66.898735,-7.310236,66.539856,-8.011183C66.180984,-8.71213,66.001541,-9.766473,66.001541,-11.174213C66.001541,-12.576107,66.180984,-13.627892,66.539856,-14.32957C66.898735,-15.031247,67.434135,-15.382086,68.146042,-15.382086C68.8638,-15.382086,69.402122,-15.031247,69.760994,-14.32957C70.119873,-13.627892,70.299316,-12.576107,70.299316,-11.174213C70.299316,-9.766473,70.119873,-8.71213,69.760994,-8.011183C69.402122,-7.310236,68.8638,-6.959763,68.146042,-6.959763zM68.146042,-5.863392C69.293579,-5.863392,70.169945,-6.316924,70.775139,-7.223989C71.380333,-8.131053,71.682938,-9.447794,71.682938,-11.174213C71.682938,-12.896247,71.380333,-14.210796,70.775139,-15.117861C70.169945,-16.024925,69.293579,-16.478456,68.146042,-16.478456C66.999969,-16.478456,66.124336,-16.024925,65.519135,-15.117861C64.91394,-14.210796,64.611343,-12.896247,64.611343,-11.174213C64.611343,-9.447794,64.91394,-8.131053,65.519135,-7.223989C66.124336,-6.316924,66.999969,-5.863392,68.146042,-5.863392zM77.916901,-7.253591L74.421669,-12.715712L77.916901,-12.715712L77.916901,-7.253591zM77.552902,-6.047583L79.293945,-6.047583L79.293945,-12.715712L80.754311,-12.715712L80.754311,-13.866901L79.293945,-13.866901L79.293945,-16.278917L77.916901,-16.278917L77.916901,-13.866901L73.298988,-13.866901L73.298988,-12.531521L77.552902,-6.047583zM88.692039,-15.114572L93.522644,-15.114572L93.522644,-16.278917L87.027748,-16.278917L87.027748,-15.114572C87.552536,-14.570771,88.268471,-13.840954,89.175537,-12.925118C90.082603,-12.009283,90.652351,-11.418339,90.884781,-11.152287C91.327713,-10.655264,91.63726,-10.234258,91.813408,-9.889267C91.989555,-9.544275,92.077629,-9.205132,92.077629,-8.871834C92.077629,-8.328033,91.886864,-7.884734,91.505325,-7.541936C91.123787,-7.199137,90.626762,-7.027738,90.014259,-7.027738C89.580093,-7.027738,89.122185,-7.103023,88.640503,-7.253591C88.158829,-7.404159,87.643906,-7.632935,87.095718,-7.939919L87.095718,-6.540949C87.652679,-6.317289,88.173454,-6.148448,88.658051,-6.034426C89.142647,-5.920403,89.585945,-5.863392,89.987946,-5.863392C91.047768,-5.863392,91.892715,-6.128348,92.522758,-6.658261C93.152802,-7.188173,93.467827,-7.896064,93.467827,-8.781932C93.467827,-9.202938,93.389259,-9.601652,93.232109,-9.978073C93.074959,-10.354494,92.788078,-10.798524,92.37146,-11.310163C92.257439,-11.44319,91.894539,-11.826189,91.282761,-12.45916C90.670982,-13.092132,89.807411,-13.977269,88.692039,-15.114572zM96.667038,-15.114572L98.927757,-15.114572L98.927757,-7.308409L96.467499,-7.801776L96.467499,-6.540949L98.914597,-6.047583L100.298218,-6.047583L100.298218,-15.114572L102.558937,-15.114572L102.558937,-16.278917L96.667038,-16.278917L96.667038,-15.114572zM105.497215,-14.53788L106.94223,-14.53788L106.94223,-16.278917L105.497215,-16.278917L105.497215,-14.53788zM105.497215,-9.023133L106.94223,-9.023133L106.94223,-10.761978L105.497215,-10.761978L105.497215,-9.023133zM113.884453,-7.253591L110.389221,-12.715712L113.884453,-12.715712L113.884453,-7.253591zM113.520454,-6.047583L115.26149,-6.047583L115.26149,-12.715712L116.721863,-12.715712L116.721863,-13.866901L115.26149,-13.866901L115.26149,-16.278917L113.884453,-16.278917L113.884453,-13.866901L109.266533,-13.866901L109.266533,-12.531521L113.520454,-6.047583zM119.247902,-15.114572L121.508614,-15.114572L121.508614,-7.308409L119.048363,-7.801776L119.048363,-6.540949L121.495461,-6.047583L122.879082,-6.047583L122.879082,-15.114572L125.139793,-15.114572L125.139793,-16.278917L119.247902,-16.278917L119.247902,-15.114572zM128.078064,-14.53788L129.523087,-14.53788L129.523087,-16.278917L128.078064,-16.278917L128.078064,-14.53788zM128.078064,-9.023133L129.523087,-9.023133L129.523087,-10.761978L128.078064,-10.761978L128.078064,-9.023133zM132.9021,-15.114572L135.162827,-15.114572L135.162827,-7.308409L132.70256,-7.801776L132.70256,-6.540949L135.149658,-6.047583L136.533279,-6.047583L136.533279,-15.114572L138.794006,-15.114572L138.794006,-16.278917L132.9021,-16.278917L132.9021,-15.114572zM144.720978,-10.612871C144.099701,-10.612871,143.607437,-10.825202,143.244171,-11.249863C142.880905,-11.674524,142.69928,-12.256697,142.69928,-12.996382C142.69928,-13.731682,142.880905,-14.313124,143.244171,-14.740708C143.607437,-15.168293,144.099701,-15.382086,144.720978,-15.382086C145.34227,-15.382086,145.834167,-15.168293,146.196701,-14.740708C146.559235,-14.313124,146.740494,-13.731682,146.740494,-12.996382C146.740494,-12.256697,146.559235,-11.674524,146.196701,-11.249863C145.834167,-10.825202,145.34227,-10.612871,144.720978,-10.612871zM147.468491,-6.273435L147.468491,-7.534262C147.120575,-7.370537,146.769745,-7.245185,146.41597,-7.158206C146.06221,-7.071228,145.711365,-7.027738,145.363464,-7.027738C144.449814,-7.027738,143.752151,-7.336184,143.270493,-7.953075C142.788803,-8.569966,142.513626,-9.501883,142.444916,-10.748821C142.713898,-10.351204,143.051941,-10.046413,143.459061,-9.834448C143.86618,-9.622482,144.313873,-9.5165,144.802109,-9.5165C145.829773,-9.5165,146.64183,-9.828236,147.238251,-10.451705C147.834671,-11.075174,148.132889,-11.923401,148.132889,-12.996382C148.132889,-14.047437,147.822266,-14.890546,147.200974,-15.52571C146.579697,-16.160875,145.753036,-16.478456,144.720978,-16.478456C143.536911,-16.478456,142.632034,-16.024925,142.006363,-15.117861C141.380707,-14.210796,141.067871,-12.896247,141.067871,-11.174213C141.067871,-9.557432,141.451599,-8.2681,142.21907,-7.306216C142.986526,-6.344334,144.016373,-5.863392,145.30864,-5.863392C145.656555,-5.863392,146.007385,-5.897744,146.36116,-5.966451C146.71492,-6.035157,147.08403,-6.137485,147.468491,-6.273435zM159.703995,-11.481197C160.000748,-11.582064,160.289459,-11.796952,160.570129,-12.125864C160.8508,-12.454775,161.132919,-12.907211,161.416519,-13.483171L162.822067,-16.278917L161.333206,-16.278917L160.026321,-13.654205C159.68718,-12.968608,159.358994,-12.513979,159.041779,-12.290319C158.724579,-12.06666,158.29187,-11.95483,157.743683,-11.95483L156.235077,-11.95483L156.235077,-16.278917L154.851456,-16.278917L154.851456,-6.047583L157.976105,-6.047583C159.145584,-6.047583,160.018295,-6.292073,160.594238,-6.781054C161.170197,-7.270036,161.458191,-8.007894,161.458191,-8.994628C161.458191,-9.639294,161.30835,-10.173958,161.008667,-10.598619C160.709,-11.02328,160.274109,-11.317472,159.703995,-11.481197zM156.235077,-7.185616L156.235077,-10.816796L157.976105,-10.816796C158.6427,-10.816796,159.146301,-10.662574,159.486908,-10.354128C159.827515,-10.045682,159.997818,-9.592516,159.997818,-8.994628C159.997818,-8.39674,159.827515,-7.945766,159.486908,-7.641706C159.146301,-7.337646,158.6427,-7.185616,157.976105,-7.185616L156.235077,-7.185616zM166.970734,-16.991558C166.615509,-17.905201,166.268707,-18.501261,165.930283,-18.779739C165.591858,-19.058218,165.139801,-19.197456,164.574066,-19.197456L163.565414,-19.197456L163.565414,-18.142748L164.306564,-18.142748C164.653015,-18.142748,164.922363,-18.06052,165.114578,-17.896065C165.306808,-17.731609,165.51915,-17.343128,165.751572,-16.730621L165.977432,-16.156124L162.874695,-8.60432L164.210083,-8.60432L166.608932,-14.605855L169.007797,-8.60432L170.34317,-8.60432L166.970734,-16.991558zM175.570679,-12.421884C174.551788,-12.421884,173.845718,-12.538099,173.452484,-12.77053C173.05925,-13.00296,172.86264,-13.400578,172.86264,-13.963382C172.86264,-14.410701,173.010284,-14.76556,173.305573,-15.027958C173.600861,-15.290356,174.001404,-15.421556,174.507202,-15.421556C175.207413,-15.421556,175.768753,-15.173775,176.191223,-14.678215C176.613678,-14.182655,176.824921,-13.524102,176.824921,-12.702555L176.824921,-12.421884L175.570679,-12.421884zM178.085754,-11.900011L178.085754,-16.278917L176.824921,-16.278917L176.824921,-15.114572C176.536942,-15.579432,176.17807,-15.922962,175.748291,-16.145161C175.318512,-16.367357,174.792984,-16.478456,174.171707,-16.478456C173.386703,-16.478456,172.762131,-16.257721,172.298004,-15.816249C171.833878,-15.374777,171.601807,-14.784198,171.601807,-14.044513C171.601807,-13.182034,171.8909,-12.531521,172.46904,-12.092972C173.047195,-11.654425,173.909317,-11.43515,175.055374,-11.43515L176.824921,-11.43515L176.824921,-11.310163C176.824921,-10.729817,176.634155,-10.281036,176.252625,-9.96382C175.871078,-9.646603,175.335312,-9.487995,174.64534,-9.487995C174.206787,-9.487995,173.779556,-9.540621,173.363678,-9.645872C172.9478,-9.751123,172.54834,-9.909001,172.165344,-10.119505L172.165344,-8.952966C172.625824,-8.774623,173.073135,-8.641231,173.507309,-8.55279C173.941467,-8.46435,174.363922,-8.42013,174.774704,-8.42013C175.885696,-8.42013,176.715286,-8.707745,177.263474,-9.282973C177.811661,-9.858202,178.085754,-10.730549,178.085754,-11.900011zM187.060638,-11.645653L187.060638,-16.278917L185.79982,-16.278917L185.79982,-11.687315C185.79982,-10.960787,185.65802,-10.417352,185.37442,-10.057011C185.09082,-9.696671,184.666168,-9.5165,184.100449,-9.5165C183.419235,-9.5165,182.882019,-9.733216,182.48877,-10.166649C182.095535,-10.60008,181.898926,-11.191755,181.898926,-11.941673L181.898926,-16.278917L180.631531,-16.278917L180.631531,-8.60432L181.898926,-8.60432L181.898926,-9.797172C182.201523,-9.335234,182.557114,-8.990242,182.965698,-8.762197C183.374283,-8.534152,183.846085,-8.42013,184.381119,-8.42013C185.262589,-8.42013,185.92955,-8.69276,186.381989,-9.238022C186.834427,-9.783284,187.060638,-10.585828,187.060638,-11.645653z"/>
    <path transform="matrix(1,0,0,-1,142.210831,-662.969788)" style="stroke:#000000;stroke-width:0.050000mm;fill:none" d="M161.339844,4.132813L163.67334,0.961914L165.472656,0.961914L162.30127,5.83252L160.382324,5.83252L157.210938,0.961914L159.010254,0.961914L161.339844,4.132813zM96.05127,4.771484L93.66748,4.771484L93.66748,-15.387207L96.05127,-15.387207L96.05127,4.771484zM5.223145,-6.151855L12.89209,-6.151855L12.89209,-3.950684L5.223145,-3.950684L5.223145,1.749512L13.721191,1.749512L13.721191,3.95459L2.607422,3.95459L2.607422,-15.387207L5.223145,-15.387207L5.223145,-6.151855zM133.17041,-15.381836C134.324066,-15.377813,135.466339,-15.153238,136.535645,-14.720215C137.763214,-14.228829,138.731018,-13.248451,139.206543,-12.014648C139.686646,-10.634374,139.658432,-9.128897,139.126953,-7.767578C138.608871,-6.574533,137.616562,-5.651607,136.38916,-5.221191C136.091873,-5.111586,135.787033,-5.023627,135.477051,-4.958008L135.867188,-4.881348C136.671478,-4.721417,137.395432,-4.28667,137.914551,-3.651855C138.350204,-3.074292,138.619095,-2.388234,138.691895,-1.668457C138.838196,-0.696267,138.715958,0.297341,138.338379,1.205078C137.985107,1.956339,137.412659,2.58292,136.696289,3.002441C135.84285,3.486616,134.896774,3.784613,133.919922,3.876953C133.451599,3.930025,132.980606,3.955948,132.509277,3.95459L125.82666,3.95459L125.82666,-15.387207L132.77002,-15.387207L133.17041,-15.381836zM174.787109,-13.393555C173.851776,-13.411453,172.916199,-13.408844,171.980957,-13.385742C171.529114,-13.388116,171.081772,-13.293696,170.669434,-13.108887C170.364075,-12.950544,170.144119,-12.665609,170.068359,-12.330078C169.926498,-11.767394,169.862762,-11.187973,169.878906,-10.60791L169.878906,-2.731934L174.787109,-2.731934L174.787109,-0.878906L169.878906,-0.878906L169.878906,3.241699L167.48291,3.241699L167.48291,-0.878906L165.733887,-0.878906L165.733887,-2.731934L167.48291,-2.731934L167.48291,-10.60791C167.46756,-11.381798,167.55574,-12.15427,167.745117,-12.904785C167.875992,-13.449368,168.147202,-13.950205,168.531738,-14.357422C168.949356,-14.73696,169.457474,-15.002922,170.007324,-15.129883C170.769516,-15.316643,171.552826,-15.403152,172.337402,-15.387207L174.787109,-15.387207L174.787109,-13.393555zM128.442383,-4.024902L128.442383,1.803223L132.318359,1.803223C133.000351,1.822451,133.680847,1.726699,134.331055,1.52002C134.919357,1.341313,135.42215,0.953674,135.744629,0.430176C136.052551,-0.152007,136.175385,-0.814377,136.09668,-1.468262C136.069626,-2.08419,135.819336,-2.669307,135.392578,-3.114258C134.997849,-3.478061,134.513626,-3.730278,133.989258,-3.845215C133.441696,-3.973029,132.880569,-4.033372,132.318359,-4.024902L128.442383,-4.024902zM23.493164,-15.746582C25.101746,-15.654875,26.681967,-15.283611,28.163086,-14.649414L28.163086,-12.394531C26.394695,-13.373278,24.385771,-13.833323,22.367676,-13.72168C21.524607,-13.683739,20.703131,-13.441755,19.974121,-13.016602C19.164129,-12.516788,18.543432,-11.761576,18.209961,-10.870117C17.947987,-10.175085,17.79705,-9.443144,17.762695,-8.701172L28.722656,-8.701172C28.743095,-8.050089,28.734299,-7.39835,28.696289,-6.748047C28.643126,-5.480675,28.264929,-4.248047,27.598145,-3.168945C26.675173,-1.725929,25.146515,-0.779524,23.443359,-0.59668C21.981092,-0.395577,20.491842,-0.601691,19.13916,-1.192383C17.41189,-2.03248,16.13582,-3.582873,15.643555,-5.439453C15.140713,-7.266314,15.147635,-9.195344,15.663574,-11.018555C16.388042,-13.367079,18.356829,-15.119703,20.773438,-15.567383C21.66843,-15.744623,22.582659,-15.804859,23.493164,-15.746582zM185.102539,-15.746582C186.711105,-15.65486,188.291336,-15.283596,189.772461,-14.649414L189.772461,-12.394531C188.004013,-13.373148,185.995132,-13.833185,183.977051,-13.72168C183.13382,-13.683787,182.312164,-13.441804,181.583008,-13.016602C180.773315,-12.516435,180.152725,-11.761347,179.818848,-10.870117C179.557388,-10.17496,179.406616,-9.443072,179.37207,-8.701172L190.332031,-8.701172C190.361481,-7.9235,190.341415,-7.14474,190.271973,-6.369629C190.171494,-5.125546,189.742081,-3.93031,189.027832,-2.906738C188.090179,-1.608005,186.644882,-0.768199,185.052246,-0.59668C183.589981,-0.395669,182.100754,-0.601777,180.748047,-1.192383C179.020996,-2.032643,177.745148,-3.582985,177.25293,-5.439453C176.750122,-7.266306,176.756882,-9.195269,177.272461,-11.018555C177.997238,-13.36708,179.966125,-15.119619,182.382813,-15.567383C183.277802,-15.744631,184.192032,-15.804873,185.102539,-15.746582zM149.925781,-15.756836C151.188797,-15.739861,152.41806,-15.344895,153.45459,-14.623047C154.655212,-13.719891,155.50528,-12.428211,155.859863,-10.968262C156.353287,-8.991025,156.317429,-6.919416,155.755859,-4.960449C155.310638,-3.42521,154.289963,-2.120992,152.906738,-1.319824C151.871292,-0.772902,150.712631,-0.501187,149.541992,-0.530762C148.368668,-0.500819,147.20723,-0.772513,146.168945,-1.319824C144.787354,-2.121214,143.768921,-3.425703,143.32666,-4.960449C142.688721,-7.157068,142.729721,-9.494112,143.444336,-11.666992C143.959198,-13.168444,145.04126,-14.408772,146.458984,-15.122559C147.544647,-15.616467,148.73558,-15.834355,149.925781,-15.756836zM105.42041,-15.754883C106.420921,-15.738485,107.400757,-15.467051,108.26709,-14.966309C108.976974,-14.517736,109.570724,-13.907755,110,-13.186035L110,-15.387207L112.383789,-15.387207L112.383789,-7.109375C112.417961,-5.917932,112.211357,-4.731799,111.776367,-3.62207C111.204315,-2.245644,110.019592,-1.216579,108.57666,-0.842773C107.393166,-0.531801,106.16169,-0.447151,104.946777,-0.593262C103.658745,-0.740952,102.395973,-1.058656,101.191406,-1.538086L101.191406,-3.743164C102.903221,-2.799204,104.862892,-2.402189,106.807129,-2.605469C107.577568,-2.678566,108.310883,-2.971249,108.919922,-3.44873C109.554062,-3.98744,109.938492,-4.763357,109.98291,-5.594238C109.997665,-5.805973,110.003365,-6.018245,110,-6.230469L106.658691,-6.230469C105.495399,-6.202562,104.335457,-6.366713,103.225586,-6.716309C102.294205,-7.002522,101.480019,-7.582207,100.904785,-8.368652C100.365486,-9.198413,100.094933,-10.174083,100.129883,-11.163086C100.109863,-11.957706,100.286507,-12.745158,100.644043,-13.455078C101.226761,-14.537197,102.248543,-15.314927,103.446777,-15.588379C104.093063,-15.739517,104.757935,-15.795607,105.42041,-15.754883zM76.097168,-15.746582C77.70575,-15.654872,79.285973,-15.283608,80.76709,-14.649414L80.76709,-12.394531C78.998695,-13.373281,76.989777,-13.833322,74.97168,-13.72168C74.128609,-13.683745,73.307129,-13.44176,72.578125,-13.016602C71.768135,-12.516785,71.147438,-11.761575,70.813965,-10.870117C70.551994,-10.175085,70.401054,-9.443143,70.366699,-8.701172L81.32666,-8.701172C81.347107,-8.05008,81.338303,-7.398345,81.300293,-6.748047C81.247124,-5.480674,80.868927,-4.248047,80.202148,-3.168945C79.279175,-1.725928,77.750519,-0.779522,76.047363,-0.59668C74.585098,-0.395577,73.095848,-0.601691,71.743164,-1.192383C70.015907,-2.032493,68.739838,-3.582882,68.247559,-5.439453C67.744713,-7.26632,67.75164,-9.195346,68.267578,-11.018555C68.99205,-13.367071,70.960838,-15.119692,73.377441,-15.567383C74.27243,-15.744621,75.186661,-15.804855,76.097168,-15.746582zM34.936523,-7.743652L34.953613,-7.145996C34.978043,-6.29703,35.179649,-5.462328,35.54541,-4.695801C36.048141,-3.653207,37.028446,-2.921213,38.170898,-2.735352C38.909523,-2.592725,39.671276,-2.623484,40.395996,-2.825195C40.619915,-2.894301,40.835438,-2.988142,41.038574,-3.10498L41.026367,-0.65918C39.629471,-0.373661,38.178158,-0.55334,36.893066,-1.170898C36.064964,-1.622413,35.385357,-2.304227,34.936523,-3.133789L34.936523,-0.878906L32.540527,-0.878906L32.540527,-15.387207L34.936523,-15.387207L34.936523,-7.743652zM45.378906,-7.187988L45.395508,-6.67334C45.428024,-5.777676,45.707169,-4.908308,46.202148,-4.161133C46.821812,-3.259646,47.821392,-2.692338,48.913086,-2.622559C49.517574,-2.54667,50.131676,-2.626354,50.696777,-2.854004C51.273987,-3.113323,51.72728,-3.587816,51.959961,-4.17627C52.211952,-4.821981,52.34877,-5.506742,52.364258,-6.199707L52.375977,-6.707031L52.375977,-15.387207L54.771973,-15.387207L54.771973,-7.187988C54.75193,-6.398112,54.895065,-5.612429,55.192383,-4.880371C55.71389,-3.588275,56.931633,-2.70983,58.322266,-2.622559C58.923195,-2.545748,59.534039,-2.626016,60.094727,-2.855469C60.66917,-3.119613,61.119129,-3.596002,61.350098,-4.18457C61.601563,-4.828528,61.738056,-5.511493,61.753418,-6.202637L61.765137,-6.707031L61.765137,-15.387207L64.161133,-15.387207L64.161133,-6.628418C64.173676,-5.754869,64.070404,-4.883514,63.854004,-4.037109C63.676609,-3.342205,63.363285,-2.68933,62.932129,-2.116211C62.336269,-1.335747,61.470455,-0.805671,60.504395,-0.629883C59.258385,-0.388287,57.96748,-0.558475,56.82666,-1.114746C55.900745,-1.617949,55.130318,-2.365243,54.599121,-3.275391L54.370117,-3.664551L54.228027,-3.293457C53.845417,-2.291267,53.103245,-1.467096,52.146484,-0.981934C51.368408,-0.623339,50.511162,-0.471328,49.657227,-0.540527C48.505898,-0.563898,47.398495,-0.987829,46.525879,-1.739258C46.076145,-2.144314,45.689556,-2.614341,45.378906,-3.133789L45.378906,-0.878906L42.98291,-0.878906L42.98291,-15.387207L45.378906,-15.387207L45.378906,-7.187988zM162.533691,-0.878906L160.149902,-0.878906L160.149902,-15.387207L162.533691,-15.387207L162.533691,-0.878906zM17.901855,-6.354492L17.994629,-5.885742C18.197147,-4.905021,18.742325,-4.028132,19.532227,-3.412598C20.230524,-2.901949,21.06361,-2.607839,21.927734,-2.566895C22.631065,-2.490594,23.342659,-2.584736,24.001953,-2.841309C24.973116,-3.260746,25.718643,-4.075214,26.050781,-5.07959C26.240906,-5.645514,26.338352,-6.238441,26.339355,-6.835449L17.841309,-6.852051L17.901855,-6.354492zM149.073242,-13.718262L148.629395,-13.647949C147.771103,-13.462302,147.013382,-12.96175,146.505859,-12.245117C146.019623,-11.558599,145.693924,-10.771726,145.552734,-9.942383C145.302338,-8.574562,145.344284,-7.169312,145.675781,-5.818848C145.871872,-5.029352,146.259094,-4.300018,146.803223,-3.695313C147.393417,-3.049846,148.204422,-2.649215,149.075684,-2.572754C149.819473,-2.480558,150.574326,-2.603432,151.250488,-2.926758C151.910187,-3.273783,152.455933,-3.803251,152.822754,-4.452148C153.251144,-5.213196,153.517593,-6.05444,153.605469,-6.92334C153.752121,-8.106553,153.681458,-9.306525,153.396973,-10.464355C153.199509,-11.253942,152.813248,-11.983914,152.271484,-12.591309C151.57132,-13.352093,150.5755,-13.771788,149.541992,-13.741699L149.073242,-13.718262zM179.51123,-6.354492L179.603516,-5.885742C179.80661,-4.905256,180.351669,-4.028543,181.141113,-3.412598C181.839508,-2.902136,182.672546,-2.608048,183.536621,-2.566895C184.23996,-2.490465,184.951584,-2.584612,185.61084,-2.841309C186.582214,-3.260446,187.32785,-4.075036,187.659668,-5.07959C187.850372,-5.64537,187.94783,-6.238395,187.948242,-6.835449L179.450684,-6.852051L179.51123,-6.354492zM70.505859,-6.354492L70.598633,-5.885742C70.801147,-4.90502,71.346329,-4.02813,72.13623,-3.412598C72.834526,-2.90195,73.667618,-2.607839,74.531738,-2.566895C75.235069,-2.490591,75.946663,-2.584733,76.605957,-2.841309C77.577118,-3.260749,78.322647,-4.075215,78.654785,-5.07959C78.84491,-5.645514,78.94236,-6.238442,78.943359,-6.835449L70.445313,-6.852051L70.505859,-6.354492zM128.442383,-13.23584L128.442383,-6.151855L132.641602,-6.151855C133.392822,-6.128442,134.142181,-6.242303,134.852539,-6.487793C135.7509,-6.790496,136.429016,-7.53717,136.644043,-8.460449C136.874664,-9.383645,136.836044,-10.353447,136.532715,-11.255371C136.244507,-12.024511,135.628571,-12.625413,134.852539,-12.894531C134.141464,-13.138002,133.393005,-13.25354,132.641602,-13.23584L128.442383,-13.23584zM105.272461,-13.754883L104.940918,-13.720215C104.163902,-13.639793,103.454933,-13.24048,102.983398,-12.617676C102.659798,-12.145334,102.495239,-11.582032,102.513672,-11.009766C102.486237,-10.434866,102.638519,-9.865344,102.949219,-9.380859C103.281212,-8.931382,103.756554,-8.608812,104.296875,-8.466309C105.158394,-8.233609,106.046104,-8.11251,106.938477,-8.105957C107.958893,-8.087463,108.979546,-8.084045,110,-8.095703L110,-8.626465C110.020393,-9.499736,109.861168,-10.368041,109.532227,-11.177246C109.183136,-12.024282,108.574371,-12.7387,107.793457,-13.217773C107.02639,-13.64658,106.147705,-13.833775,105.272461,-13.754883z"/>
</svg>
