<svg width="500" height="800" viewBox="0 0 500 800" xmlns="http://www.w3.org/2000/svg"><path d="M 250,780 Q 240,700 260,620 Q 240,540 250,460 Q 230,380 250,300 Q 230,220 250,140 Q 240,60 250,20" fill="none" stroke="black" stroke_width="4" /><path d="M 250,680 Q 300,630 330,600" fill="none" stroke="black" stroke_width="2" /><path d="M 275,650 L 270,640 L 275,635 L 280,640 Z" transform="rotate(0,275,650)" fill="none" stroke="black" stroke_width="1" /><path d="M 275,650 L 280,640 L 275,635 L 270,640 Z" transform="rotate(72,275,650)" fill="none" stroke="black" stroke_width="1" /><path d="M 275,650 L 270,640 L 275,635 L 280,640 Z" transform="rotate(144,275,650)" fill="none" stroke="black" stroke_width="1" /><path d="M 275,650 L 280,640 L 275,635 L 270,640 Z" transform="rotate(216,275,650)" fill="none" stroke="black" stroke_width="1" /><path d="M 275,650 L 270,640 L 275,635 L 280,640 Z" transform="rotate(288,275,650)" fill="none" stroke="black" stroke_width="1" /><path d="M 295,630 L 290,620 L 295,615 L 300,620 Z" transform="rotate(0,295,630)" fill="none" stroke="black" stroke_width="1" /><path d="M 295,630 L 300,620 L 295,615 L 290,620 Z" transform="rotate(72,295,630)" fill="none" stroke="black" stroke_width="1" /><path d="M 295,630 L 290,620 L 295,615 L 300,620 Z" transform="rotate(144,295,630)" fill="none" stroke="black" stroke_width="1" /><path d="M 295,630 L 300,620 L 295,615 L 290,620 Z" transform="rotate(216,295,630)" fill="none" stroke="black" stroke_width="1" /><path d="M 295,630 L 290,620 L 295,615 L 300,620 Z" transform="rotate(288,295,630)" fill="none" stroke="black" stroke_width="1" /><path d="M 315,610 L 310,600 L 315,595 L 320,600 Z" transform="rotate(0,315,610)" fill="none" stroke="black" stroke_width="1" /><path d="M 315,610 L 320,600 L 315,595 L 310,600 Z" transform="rotate(72,315,610)" fill="none" stroke="black" stroke_width="1" /><path d="M 315,610 L 310,600 L 315,595 L 320,600 Z" transform="rotate(144,315,610)" fill="none" stroke="black" stroke_width="1" /><path d="M 315,610 L 320,600 L 315,595 L 310,600 Z" transform="rotate(216,315,610)" fill="none" stroke="black" stroke_width="1" /><path d="M 315,610 L 310,600 L 315,595 L 320,600 Z" transform="rotate(288,315,610)" fill="none" stroke="black" stroke_width="1" /><path d="M 260,540 Q 210,490 180,460" fill="none" stroke="black" stroke_width="2" /><path d="M 235,510 L 230,500 L 235,495 L 240,500 Z" transform="rotate(0,235,510)" fill="none" stroke="black" stroke_width="1" /><path d="M 235,510 L 240,500 L 235,495 L 230,500 Z" transform="rotate(72,235,510)" fill="none" stroke="black" stroke_width="1" /><path d="M 235,510 L 230,500 L 235,495 L 240,500 Z" transform="rotate(144,235,510)" fill="none" stroke="black" stroke_width="1" /><path d="M 235,510 L 240,500 L 235,495 L 230,500 Z" transform="rotate(216,235,510)" fill="none" stroke="black" stroke_width="1" /><path d="M 235,510 L 230,500 L 235,495 L 240,500 Z" transform="rotate(288,235,510)" fill="none" stroke="black" stroke_width="1" /><path d="M 215,490 L 210,480 L 215,475 L 220,480 Z" transform="rotate(0,215,490)" fill="none" stroke="black" stroke_width="1" /><path d="M 215,490 L 220,480 L 215,475 L 210,480 Z" transform="rotate(72,215,490)" fill="none" stroke="black" stroke_width="1" /><path d="M 215,490 L 210,480 L 215,475 L 220,480 Z" transform="rotate(144,215,490)" fill="none" stroke="black" stroke_width="1" /><path d="M 215,490 L 220,480 L 215,475 L 210,480 Z" transform="rotate(216,215,490)" fill="none" stroke="black" stroke_width="1" /><path d="M 215,490 L 210,480 L 215,475 L 220,480 Z" transform="rotate(288,215,490)" fill="none" stroke="black" stroke_width="1" /><path d="M 195,470 L 190,460 L 195,455 L 200,460 Z" transform="rotate(0,195,470)" fill="none" stroke="black" stroke_width="1" /><path d="M 195,470 L 200,460 L 195,455 L 190,460 Z" transform="rotate(72,195,470)" fill="none" stroke="black" stroke_width="1" /><path d="M 195,470 L 190,460 L 195,455 L 200,460 Z" transform="rotate(144,195,470)" fill="none" stroke="black" stroke_width="1" /><path d="M 195,470 L 200,460 L 195,455 L 190,460 Z" transform="rotate(216,195,470)" fill="none" stroke="black" stroke_width="1" /><path d="M 195,470 L 190,460 L 195,455 L 200,460 Z" transform="rotate(288,195,470)" fill="none" stroke="black" stroke_width="1" /></svg>