<svg width="500" height="800" viewBox="0 0 500 800" xmlns="http://www.w3.org/2000/svg"><path d="M 250,780 Q 240,700 260,620 Q 240,540 250,460 Q 230,380 250,300 Q 230,220 250,140 Q 240,60 250,20" fill="none" stroke="black" stroke_width="4" /><path d="M 250,680 Q 300,630 330,600" fill="none" stroke="black" stroke_width="2" /><path d="M 275,650 L 270,640 L 275,635 L 280,640 Z" transform="rotate(0,275,650)" fill="none" stroke="black" stroke_width="1" /><path d="M 275,650 L 280,640 L 275,635 L 270,640 Z" transform="rotate(72,275,650)" fill="none" stroke="black" stroke_width="1" /><path d="M 275,650 L 270,640 L 275,635 L 280,640 Z" transform="rotate(144,275,650)" fill="none" stroke="black" stroke_width="1" /><path d="M 275,650 L 280,640 L 275,635 L 270,640 Z" transform="rotate(216,275,650)" fill="none" stroke="black" stroke_width="1" /><path d="M 275,650 L 270,640 L 275,635 L 280,640 Z" transform="rotate(288,275,650)" fill="none" stroke="black" stroke_width="1" /><path d="M 295,630 L 290,620 L 295,615 L 300,620 Z" transform="rotate(0,295,630)" fill="none" stroke="black" stroke_width="1" /><path d="M 295,630 L 300,620 L 295,615 L 290,620 Z" transform="rotate(72,295,630)" fill="none" stroke="black" stroke_width="1" /><path d="M 295,630 L 290,620 L 295,615 L 300,620 Z" transform="rotate(144,295,630)" fill="none" stroke="black" stroke_width="1" /><path d="M 295,630 L 300,620 L 295,615 L 290,620 Z" transform="rotate(216,295,630)" fill="none" stroke="black" stroke_width="1" /><path d="M 295,630 L 290,620 L 295,615 L 300,620 Z" transform="rotate(288,295,630)" fill="none" stroke="black" stroke_width="1" /><path d="M 315,610 L 310,600 L 315,595 L 320,600 Z" transform="rotate(0,315,610)" fill="none" stroke="black" stroke_width="1" /><path d="M 315,610 L 320,600 L 315,595 L 310,600 Z" transform="rotate(72,315,610)" fill="none" stroke="black" stroke_width="1" /><path d="M 315,610 L 310,600 L 315,595 L 320,600 Z" transform="rotate(144,315,610)" fill="none" stroke="black" stroke_width="1" /><path d="M 315,610 L 320,600 L 315,595 L 310,600 Z" transform="rotate(216,315,610)" fill="none" stroke="black" stroke_width="1" /><path d="M 315,610 L 310,600 L 315,595 L 320,600 Z" transform="rotate(288,315,610)" fill="none" stroke="black" stroke_width="1" /></svg>