<svg width="500" height="800" viewBox="0 0 500 800" xmlns="http://www.w3.org/2000/svg"><path d="M 250,780 Q 240,700 260,620 Q 240,540 250,460 Q 230,380 250,300 Q 230,220 250,140 Q 240,60 250,20" fill="none" stroke="black" stroke_width="4" /><path d="M 250,700 Q 300,650 330,620" fill="none" stroke="black" stroke_width="2" /><path d="M 275,670 L 270,660 L 275,655 L 280,660 Z" transform="rotate(0,275,670)" fill="none" stroke="black" stroke_width="1" /><path d="M 275,670 L 280,660 L 275,655 L 270,660 Z" transform="rotate(72,275,670)" fill="none" stroke="black" stroke_width="1" /><path d="M 275,670 L 270,660 L 275,655 L 280,660 Z" transform="rotate(144,275,670)" fill="none" stroke="black" stroke_width="1" /><path d="M 275,670 L 280,660 L 275,655 L 270,660 Z" transform="rotate(216,275,670)" fill="none" stroke="black" stroke_width="1" /><path d="M 275,670 L 270,660 L 275,655 L 280,660 Z" transform="rotate(288,275,670)" fill="none" stroke="black" stroke_width="1" /><path d="M 295,650 L 290,640 L 295,635 L 300,640 Z" transform="rotate(0,295,650)" fill="none" stroke="black" stroke_width="1" /><path d="M 295,650 L 300,640 L 295,635 L 290,640 Z" transform="rotate(72,295,650)" fill="none" stroke="black" stroke_width="1" /><path d="M 295,650 L 290,640 L 295,635 L 300,640 Z" transform="rotate(144,295,650)" fill="none" stroke="black" stroke_width="1" /><path d="M 295,650 L 300,640 L 295,635 L 290,640 Z" transform="rotate(216,295,650)" fill="none" stroke="black" stroke_width="1" /><path d="M 295,650 L 290,640 L 295,635 L 300,640 Z" transform="rotate(288,295,650)" fill="none" stroke="black" stroke_width="1" /><path d="M 315,630 L 310,620 L 315,615 L 320,620 Z" transform="rotate(0,315,630)" fill="none" stroke="black" stroke_width="1" /><path d="M 315,630 L 320,620 L 315,615 L 310,620 Z" transform="rotate(72,315,630)" fill="none" stroke="black" stroke_width="1" /><path d="M 315,630 L 310,620 L 315,615 L 320,620 Z" transform="rotate(144,315,630)" fill="none" stroke="black" stroke_width="1" /><path d="M 315,630 L 320,620 L 315,615 L 310,620 Z" transform="rotate(216,315,630)" fill="none" stroke="black" stroke_width="1" /><path d="M 315,630 L 310,620 L 315,615 L 320,620 Z" transform="rotate(288,315,630)" fill="none" stroke="black" stroke_width="1" /><path d="M 260,600 Q 210,550 180,520" fill="none" stroke="black" stroke_width="2" /><path d="M 235,570 L 230,560 L 235,555 L 240,560 Z" transform="rotate(0,235,570)" fill="none" stroke="black" stroke_width="1" /><path d="M 235,570 L 240,560 L 235,555 L 230,560 Z" transform="rotate(72,235,570)" fill="none" stroke="black" stroke_width="1" /><path d="M 235,570 L 230,560 L 235,555 L 240,560 Z" transform="rotate(144,235,570)" fill="none" stroke="black" stroke_width="1" /><path d="M 235,570 L 240,560 L 235,555 L 230,560 Z" transform="rotate(216,235,570)" fill="none" stroke="black" stroke_width="1" /><path d="M 235,570 L 230,560 L 235,555 L 240,560 Z" transform="rotate(288,235,570)" fill="none" stroke="black" stroke_width="1" /><path d="M 215,550 L 210,540 L 215,535 L 220,540 Z" transform="rotate(0,215,550)" fill="none" stroke="black" stroke_width="1" /><path d="M 215,550 L 220,540 L 215,535 L 210,540 Z" transform="rotate(72,215,550)" fill="none" stroke="black" stroke_width="1" /><path d="M 215,550 L 210,540 L 215,535 L 220,540 Z" transform="rotate(144,215,550)" fill="none" stroke="black" stroke_width="1" /><path d="M 215,550 L 220,540 L 215,535 L 210,540 Z" transform="rotate(216,215,550)" fill="none" stroke="black" stroke_width="1" /><path d="M 215,550 L 210,540 L 215,535 L 220,540 Z" transform="rotate(288,215,550)" fill="none" stroke="black" stroke_width="1" /><path d="M 195,530 L 190,520 L 195,515 L 200,520 Z" transform="rotate(0,195,530)" fill="none" stroke="black" stroke_width="1" /><path d="M 195,530 L 200,520 L 195,515 L 190,520 Z" transform="rotate(72,195,530)" fill="none" stroke="black" stroke_width="1" /><path d="M 195,530 L 190,520 L 195,515 L 200,520 Z" transform="rotate(144,195,530)" fill="none" stroke="black" stroke_width="1" /><path d="M 195,530 L 200,520 L 195,515 L 190,520 Z" transform="rotate(216,195,530)" fill="none" stroke="black" stroke_width="1" /><path d="M 195,530 L 190,520 L 195,515 L 200,520 Z" transform="rotate(288,195,530)" fill="none" stroke="black" stroke_width="1" /><path d="M 240,500 Q 290,450 320,420" fill="none" stroke="black" stroke_width="2" /><path d="M 265,470 L 260,460 L 265,455 L 270,460 Z" transform="rotate(0,265,470)" fill="none" stroke="black" stroke_width="1" /><path d="M 265,470 L 270,460 L 265,455 L 260,460 Z" transform="rotate(72,265,470)" fill="none" stroke="black" stroke_width="1" /><path d="M 265,470 L 260,460 L 265,455 L 270,460 Z" transform="rotate(144,265,470)" fill="none" stroke="black" stroke_width="1" /><path d="M 265,470 L 270,460 L 265,455 L 260,460 Z" transform="rotate(216,265,470)" fill="none" stroke="black" stroke_width="1" /><path d="M 265,470 L 260,460 L 265,455 L 270,460 Z" transform="rotate(288,265,470)" fill="none" stroke="black" stroke_width="1" /><path d="M 285,450 L 280,440 L 285,435 L 290,440 Z" transform="rotate(0,285,450)" fill="none" stroke="black" stroke_width="1" /><path d="M 285,450 L 290,440 L 285,435 L 280,440 Z" transform="rotate(72,285,450)" fill="none" stroke="black" stroke_width="1" /><path d="M 285,450 L 280,440 L 285,435 L 290,440 Z" transform="rotate(144,285,450)" fill="none" stroke="black" stroke_width="1" /><path d="M 285,450 L 290,440 L 285,435 L 280,440 Z" transform="rotate(216,285,450)" fill="none" stroke="black" stroke_width="1" /><path d="M 285,450 L 280,440 L 285,435 L 290,440 Z" transform="rotate(288,285,450)" fill="none" stroke="black" stroke_width="1" /><path d="M 305,430 L 300,420 L 305,415 L 310,420 Z" transform="rotate(0,305,430)" fill="none" stroke="black" stroke_width="1" /><path d="M 305,430 L 310,420 L 305,415 L 300,420 Z" transform="rotate(72,305,430)" fill="none" stroke="black" stroke_width="1" /><path d="M 305,430 L 300,420 L 305,415 L 310,420 Z" transform="rotate(144,305,430)" fill="none" stroke="black" stroke_width="1" /><path d="M 305,430 L 310,420 L 305,415 L 300,420 Z" transform="rotate(216,305,430)" fill="none" stroke="black" stroke_width="1" /><path d="M 305,430 L 300,420 L 305,415 L 310,420 Z" transform="rotate(288,305,430)" fill="none" stroke="black" stroke_width="1" /><path d="M 250,400 Q 200,350 170,320" fill="none" stroke="black" stroke_width="2" /><path d="M 225,370 L 220,360 L 225,355 L 230,360 Z" transform="rotate(0,225,370)" fill="none" stroke="black" stroke_width="1" /><path d="M 225,370 L 230,360 L 225,355 L 220,360 Z" transform="rotate(72,225,370)" fill="none" stroke="black" stroke_width="1" /><path d="M 225,370 L 220,360 L 225,355 L 230,360 Z" transform="rotate(144,225,370)" fill="none" stroke="black" stroke_width="1" /><path d="M 225,370 L 230,360 L 225,355 L 220,360 Z" transform="rotate(216,225,370)" fill="none" stroke="black" stroke_width="1" /><path d="M 225,370 L 220,360 L 225,355 L 230,360 Z" transform="rotate(288,225,370)" fill="none" stroke="black" stroke_width="1" /><path d="M 205,350 L 200,340 L 205,335 L 210,340 Z" transform="rotate(0,205,350)" fill="none" stroke="black" stroke_width="1" /><path d="M 205,350 L 210,340 L 205,335 L 200,340 Z" transform="rotate(72,205,350)" fill="none" stroke="black" stroke_width="1" /><path d="M 205,350 L 200,340 L 205,335 L 210,340 Z" transform="rotate(144,205,350)" fill="none" stroke="black" stroke_width="1" /><path d="M 205,350 L 210,340 L 205,335 L 200,340 Z" transform="rotate(216,205,350)" fill="none" stroke="black" stroke_width="1" /><path d="M 205,350 L 200,340 L 205,335 L 210,340 Z" transform="rotate(288,205,350)" fill="none" stroke="black" stroke_width="1" /><path d="M 185,330 L 180,320 L 185,315 L 190,320 Z" transform="rotate(0,185,330)" fill="none" stroke="black" stroke_width="1" /><path d="M 185,330 L 190,320 L 185,315 L 180,320 Z" transform="rotate(72,185,330)" fill="none" stroke="black" stroke_width="1" /><path d="M 185,330 L 180,320 L 185,315 L 190,320 Z" transform="rotate(144,185,330)" fill="none" stroke="black" stroke_width="1" /><path d="M 185,330 L 190,320 L 185,315 L 180,320 Z" transform="rotate(216,185,330)" fill="none" stroke="black" stroke_width="1" /><path d="M 185,330 L 180,320 L 185,315 L 190,320 Z" transform="rotate(288,185,330)" fill="none" stroke="black" stroke_width="1" /><path d="M 230,300 Q 280,250 310,220" fill="none" stroke="black" stroke_width="2" /><path d="M 255,270 L 250,260 L 255,255 L 260,260 Z" transform="rotate(0,255,270)" fill="none" stroke="black" stroke_width="1" /><path d="M 255,270 L 260,260 L 255,255 L 250,260 Z" transform="rotate(72,255,270)" fill="none" stroke="black" stroke_width="1" /><path d="M 255,270 L 250,260 L 255,255 L 260,260 Z" transform="rotate(144,255,270)" fill="none" stroke="black" stroke_width="1" /><path d="M 255,270 L 260,260 L 255,255 L 250,260 Z" transform="rotate(216,255,270)" fill="none" stroke="black" stroke_width="1" /><path d="M 255,270 L 250,260 L 255,255 L 260,260 Z" transform="rotate(288,255,270)" fill="none" stroke="black" stroke_width="1" /><path d="M 275,250 L 270,240 L 275,235 L 280,240 Z" transform="rotate(0,275,250)" fill="none" stroke="black" stroke_width="1" /><path d="M 275,250 L 280,240 L 275,235 L 270,240 Z" transform="rotate(72,275,250)" fill="none" stroke="black" stroke_width="1" /><path d="M 275,250 L 270,240 L 275,235 L 280,240 Z" transform="rotate(144,275,250)" fill="none" stroke="black" stroke_width="1" /><path d="M 275,250 L 280,240 L 275,235 L 270,240 Z" transform="rotate(216,275,250)" fill="none" stroke="black" stroke_width="1" /><path d="M 275,250 L 270,240 L 275,235 L 280,240 Z" transform="rotate(288,275,250)" fill="none" stroke="black" stroke_width="1" /><path d="M 295,230 L 290,220 L 295,215 L 300,220 Z" transform="rotate(0,295,230)" fill="none" stroke="black" stroke_width="1" /><path d="M 295,230 L 300,220 L 295,215 L 290,220 Z" transform="rotate(72,295,230)" fill="none" stroke="black" stroke_width="1" /><path d="M 295,230 L 290,220 L 295,215 L 300,220 Z" transform="rotate(144,295,230)" fill="none" stroke="black" stroke_width="1" /><path d="M 295,230 L 300,220 L 295,215 L 290,220 Z" transform="rotate(216,295,230)" fill="none" stroke="black" stroke_width="1" /><path d="M 295,230 L 290,220 L 295,215 L 300,220 Z" transform="rotate(288,295,230)" fill="none" stroke="black" stroke_width="1" /><path d="M 250,200 Q 200,150 170,120" fill="none" stroke="black" stroke_width="2" /><path d="M 225,170 L 220,160 L 225,155 L 230,160 Z" transform="rotate(0,225,170)" fill="none" stroke="black" stroke_width="1" /><path d="M 225,170 L 230,160 L 225,155 L 220,160 Z" transform="rotate(72,225,170)" fill="none" stroke="black" stroke_width="1" /><path d="M 225,170 L 220,160 L 225,155 L 230,160 Z" transform="rotate(144,225,170)" fill="none" stroke="black" stroke_width="1" /><path d="M 225,170 L 230,160 L 225,155 L 220,160 Z" transform="rotate(216,225,170)" fill="none" stroke="black" stroke_width="1" /><path d="M 225,170 L 220,160 L 225,155 L 230,160 Z" transform="rotate(288,225,170)" fill="none" stroke="black" stroke_width="1" /><path d="M 205,150 L 200,140 L 205,135 L 210,140 Z" transform="rotate(0,205,150)" fill="none" stroke="black" stroke_width="1" /><path d="M 205,150 L 210,140 L 205,135 L 200,140 Z" transform="rotate(72,205,150)" fill="none" stroke="black" stroke_width="1" /><path d="M 205,150 L 200,140 L 205,135 L 210,140 Z" transform="rotate(144,205,150)" fill="none" stroke="black" stroke_width="1" /><path d="M 205,150 L 210,140 L 205,135 L 200,140 Z" transform="rotate(216,205,150)" fill="none" stroke="black" stroke_width="1" /><path d="M 205,150 L 200,140 L 205,135 L 210,140 Z" transform="rotate(288,205,150)" fill="none" stroke="black" stroke_width="1" /><path d="M 185,130 L 180,120 L 185,115 L 190,120 Z" transform="rotate(0,185,130)" fill="none" stroke="black" stroke_width="1" /><path d="M 185,130 L 190,120 L 185,115 L 180,120 Z" transform="rotate(72,185,130)" fill="none" stroke="black" stroke_width="1" /><path d="M 185,130 L 180,120 L 185,115 L 190,120 Z" transform="rotate(144,185,130)" fill="none" stroke="black" stroke_width="1" /><path d="M 185,130 L 190,120 L 185,115 L 180,120 Z" transform="rotate(216,185,130)" fill="none" stroke="black" stroke_width="1" /><path d="M 185,130 L 180,120 L 185,115 L 190,120 Z" transform="rotate(288,185,130)" fill="none" stroke="black" stroke_width="1" /></svg>