<svg width="500" height="800" viewBox="0 0 500 800" xmlns="http://www.w3.org/2000/svg"><path d="M 250,780 Q 240,700 260,620 Q 240,540 250,460 Q 230,380 250,300 Q 230,220 250,140 Q 240,60 250,20" fill="none" stroke="black" stroke_width="4" /><path d="M 250,700 Q 300,650 330,620" fill="none" stroke="black" stroke_width="2" /><path d="M 275,670 L 270,660 L 275,655 L 280,660 Z" transform="rotate(0,275,670)" fill="none" stroke="black" stroke_width="1" /><path d="M 275,670 L 280,660 L 275,655 L 270,660 Z" transform="rotate(72,275,670)" fill="none" stroke="black" stroke_width="1" /><path d="M 275,670 L 270,660 L 275,655 L 280,660 Z" transform="rotate(144,275,670)" fill="none" stroke="black" stroke_width="1" /><path d="M 275,670 L 280,660 L 275,655 L 270,660 Z" transform="rotate(216,275,670)" fill="none" stroke="black" stroke_width="1" /><path d="M 275,670 L 270,660 L 275,655 L 280,660 Z" transform="rotate(288,275,670)" fill="none" stroke="black" stroke_width="1" /><path d="M 295,650 L 290,640 L 295,635 L 300,640 Z" transform="rotate(0,295,650)" fill="none" stroke="black" stroke_width="1" /><path d="M 295,650 L 300,640 L 295,635 L 290,640 Z" transform="rotate(72,295,650)" fill="none" stroke="black" stroke_width="1" /><path d="M 295,650 L 290,640 L 295,635 L 300,640 Z" transform="rotate(144,295,650)" fill="none" stroke="black" stroke_width="1" /><path d="M 295,650 L 300,640 L 295,635 L 290,640 Z" transform="rotate(216,295,650)" fill="none" stroke="black" stroke_width="1" /><path d="M 295,650 L 290,640 L 295,635 L 300,640 Z" transform="rotate(288,295,650)" fill="none" stroke="black" stroke_width="1" /><path d="M 315,630 L 310,620 L 315,615 L 320,620 Z" transform="rotate(0,315,630)" fill="none" stroke="black" stroke_width="1" /><path d="M 315,630 L 320,620 L 315,615 L 310,620 Z" transform="rotate(72,315,630)" fill="none" stroke="black" stroke_width="1" /><path d="M 315,630 L 310,620 L 315,615 L 320,620 Z" transform="rotate(144,315,630)" fill="none" stroke="black" stroke_width="1" /><path d="M 315,630 L 320,620 L 315,615 L 310,620 Z" transform="rotate(216,315,630)" fill="none" stroke="black" stroke_width="1" /><path d="M 315,630 L 310,620 L 315,615 L 320,620 Z" transform="rotate(288,315,630)" fill="none" stroke="black" stroke_width="1" /><path d="M 260,620 Q 210,570 180,540" fill="none" stroke="black" stroke_width="2" /><path d="M 235,590 L 230,580 L 235,575 L 240,580 Z" transform="rotate(0,235,590)" fill="none" stroke="black" stroke_width="1" /><path d="M 235,590 L 240,580 L 235,575 L 230,580 Z" transform="rotate(72,235,590)" fill="none" stroke="black" stroke_width="1" /><path d="M 235,590 L 230,580 L 235,575 L 240,580 Z" transform="rotate(144,235,590)" fill="none" stroke="black" stroke_width="1" /><path d="M 235,590 L 240,580 L 235,575 L 230,580 Z" transform="rotate(216,235,590)" fill="none" stroke="black" stroke_width="1" /><path d="M 235,590 L 230,580 L 235,575 L 240,580 Z" transform="rotate(288,235,590)" fill="none" stroke="black" stroke_width="1" /><path d="M 215,570 L 210,560 L 215,555 L 220,560 Z" transform="rotate(0,215,570)" fill="none" stroke="black" stroke_width="1" /><path d="M 215,570 L 220,560 L 215,555 L 210,560 Z" transform="rotate(72,215,570)" fill="none" stroke="black" stroke_width="1" /><path d="M 215,570 L 210,560 L 215,555 L 220,560 Z" transform="rotate(144,215,570)" fill="none" stroke="black" stroke_width="1" /><path d="M 215,570 L 220,560 L 215,555 L 210,560 Z" transform="rotate(216,215,570)" fill="none" stroke="black" stroke_width="1" /><path d="M 215,570 L 210,560 L 215,555 L 220,560 Z" transform="rotate(288,215,570)" fill="none" stroke="black" stroke_width="1" /><path d="M 195,550 L 190,540 L 195,535 L 200,540 Z" transform="rotate(0,195,550)" fill="none" stroke="black" stroke_width="1" /><path d="M 195,550 L 200,540 L 195,535 L 190,540 Z" transform="rotate(72,195,550)" fill="none" stroke="black" stroke_width="1" /><path d="M 195,550 L 190,540 L 195,535 L 200,540 Z" transform="rotate(144,195,550)" fill="none" stroke="black" stroke_width="1" /><path d="M 195,550 L 200,540 L 195,535 L 190,540 Z" transform="rotate(216,195,550)" fill="none" stroke="black" stroke_width="1" /><path d="M 195,550 L 190,540 L 195,535 L 200,540 Z" transform="rotate(288,195,550)" fill="none" stroke="black" stroke_width="1" /><path d="M 240,540 Q 290,490 320,460" fill="none" stroke="black" stroke_width="2" /><path d="M 265,510 L 260,500 L 265,495 L 270,500 Z" transform="rotate(0,265,510)" fill="none" stroke="black" stroke_width="1" /><path d="M 265,510 L 270,500 L 265,495 L 260,500 Z" transform="rotate(72,265,510)" fill="none" stroke="black" stroke_width="1" /><path d="M 265,510 L 260,500 L 265,495 L 270,500 Z" transform="rotate(144,265,510)" fill="none" stroke="black" stroke_width="1" /><path d="M 265,510 L 270,500 L 265,495 L 260,500 Z" transform="rotate(216,265,510)" fill="none" stroke="black" stroke_width="1" /><path d="M 265,510 L 260,500 L 265,495 L 270,500 Z" transform="rotate(288,265,510)" fill="none" stroke="black" stroke_width="1" /><path d="M 285,490 L 280,480 L 285,475 L 290,480 Z" transform="rotate(0,285,490)" fill="none" stroke="black" stroke_width="1" /><path d="M 285,490 L 290,480 L 285,475 L 280,480 Z" transform="rotate(72,285,490)" fill="none" stroke="black" stroke_width="1" /><path d="M 285,490 L 280,480 L 285,475 L 290,480 Z" transform="rotate(144,285,490)" fill="none" stroke="black" stroke_width="1" /><path d="M 285,490 L 290,480 L 285,475 L 280,480 Z" transform="rotate(216,285,490)" fill="none" stroke="black" stroke_width="1" /><path d="M 285,490 L 280,480 L 285,475 L 290,480 Z" transform="rotate(288,285,490)" fill="none" stroke="black" stroke_width="1" /><path d="M 305,470 L 300,460 L 305,455 L 310,460 Z" transform="rotate(0,305,470)" fill="none" stroke="black" stroke_width="1" /><path d="M 305,470 L 310,460 L 305,455 L 300,460 Z" transform="rotate(72,305,470)" fill="none" stroke="black" stroke_width="1" /><path d="M 305,470 L 300,460 L 305,455 L 310,460 Z" transform="rotate(144,305,470)" fill="none" stroke="black" stroke_width="1" /><path d="M 305,470 L 310,460 L 305,455 L 300,460 Z" transform="rotate(216,305,470)" fill="none" stroke="black" stroke_width="1" /><path d="M 305,470 L 300,460 L 305,455 L 310,460 Z" transform="rotate(288,305,470)" fill="none" stroke="black" stroke_width="1" /><path d="M 250,460 Q 200,410 170,380" fill="none" stroke="black" stroke_width="2" /><path d="M 225,430 L 220,420 L 225,415 L 230,420 Z" transform="rotate(0,225,430)" fill="none" stroke="black" stroke_width="1" /><path d="M 225,430 L 230,420 L 225,415 L 220,420 Z" transform="rotate(72,225,430)" fill="none" stroke="black" stroke_width="1" /><path d="M 225,430 L 220,420 L 225,415 L 230,420 Z" transform="rotate(144,225,430)" fill="none" stroke="black" stroke_width="1" /><path d="M 225,430 L 230,420 L 225,415 L 220,420 Z" transform="rotate(216,225,430)" fill="none" stroke="black" stroke_width="1" /><path d="M 225,430 L 220,420 L 225,415 L 230,420 Z" transform="rotate(288,225,430)" fill="none" stroke="black" stroke_width="1" /><path d="M 205,410 L 200,400 L 205,395 L 210,400 Z" transform="rotate(0,205,410)" fill="none" stroke="black" stroke_width="1" /><path d="M 205,410 L 210,400 L 205,395 L 200,400 Z" transform="rotate(72,205,410)" fill="none" stroke="black" stroke_width="1" /><path d="M 205,410 L 200,400 L 205,395 L 210,400 Z" transform="rotate(144,205,410)" fill="none" stroke="black" stroke_width="1" /><path d="M 205,410 L 210,400 L 205,395 L 200,400 Z" transform="rotate(216,205,410)" fill="none" stroke="black" stroke_width="1" /><path d="M 205,410 L 200,400 L 205,395 L 210,400 Z" transform="rotate(288,205,410)" fill="none" stroke="black" stroke_width="1" /><path d="M 185,390 L 180,380 L 185,375 L 190,380 Z" transform="rotate(0,185,390)" fill="none" stroke="black" stroke_width="1" /><path d="M 185,390 L 190,380 L 185,375 L 180,380 Z" transform="rotate(72,185,390)" fill="none" stroke="black" stroke_width="1" /><path d="M 185,390 L 180,380 L 185,375 L 190,380 Z" transform="rotate(144,185,390)" fill="none" stroke="black" stroke_width="1" /><path d="M 185,390 L 190,380 L 185,375 L 180,380 Z" transform="rotate(216,185,390)" fill="none" stroke="black" stroke_width="1" /><path d="M 185,390 L 180,380 L 185,375 L 190,380 Z" transform="rotate(288,185,390)" fill="none" stroke="black" stroke_width="1" /><path d="M 230,380 Q 280,330 310,300" fill="none" stroke="black" stroke_width="2" /><path d="M 255,350 L 250,340 L 255,335 L 260,340 Z" transform="rotate(0,255,350)" fill="none" stroke="black" stroke_width="1" /><path d="M 255,350 L 260,340 L 255,335 L 250,340 Z" transform="rotate(72,255,350)" fill="none" stroke="black" stroke_width="1" /><path d="M 255,350 L 250,340 L 255,335 L 260,340 Z" transform="rotate(144,255,350)" fill="none" stroke="black" stroke_width="1" /><path d="M 255,350 L 260,340 L 255,335 L 250,340 Z" transform="rotate(216,255,350)" fill="none" stroke="black" stroke_width="1" /><path d="M 255,350 L 250,340 L 255,335 L 260,340 Z" transform="rotate(288,255,350)" fill="none" stroke="black" stroke_width="1" /><path d="M 275,330 L 270,320 L 275,315 L 280,320 Z" transform="rotate(0,275,330)" fill="none" stroke="black" stroke_width="1" /><path d="M 275,330 L 280,320 L 275,315 L 270,320 Z" transform="rotate(72,275,330)" fill="none" stroke="black" stroke_width="1" /><path d="M 275,330 L 270,320 L 275,315 L 280,320 Z" transform="rotate(144,275,330)" fill="none" stroke="black" stroke_width="1" /><path d="M 275,330 L 280,320 L 275,315 L 270,320 Z" transform="rotate(216,275,330)" fill="none" stroke="black" stroke_width="1" /><path d="M 275,330 L 270,320 L 275,315 L 280,320 Z" transform="rotate(288,275,330)" fill="none" stroke="black" stroke_width="1" /><path d="M 295,310 L 290,300 L 295,295 L 300,300 Z" transform="rotate(0,295,310)" fill="none" stroke="black" stroke_width="1" /><path d="M 295,310 L 300,300 L 295,295 L 290,300 Z" transform="rotate(72,295,310)" fill="none" stroke="black" stroke_width="1" /><path d="M 295,310 L 290,300 L 295,295 L 300,300 Z" transform="rotate(144,295,310)" fill="none" stroke="black" stroke_width="1" /><path d="M 295,310 L 300,300 L 295,295 L 290,300 Z" transform="rotate(216,295,310)" fill="none" stroke="black" stroke_width="1" /><path d="M 295,310 L 290,300 L 295,295 L 300,300 Z" transform="rotate(288,295,310)" fill="none" stroke="black" stroke_width="1" /></svg>