<?xml version='1.0' encoding='utf-8'?>
<svg height="398.70mm" viewBox="0.0 0.0 551.90 398.70" width="551.90mm" xmlns="http://www.w3.org/2000/svg" xmlns:cc="http://creativecommons.org/ns#" xmlns:dc="http://purl.org/dc/elements/1.1/" xmlns:inkscape="http://www.inkscape.org/namespaces/inkscape" xmlns:rdf="http://www.w3.org/1999/02/22-rdf-syntax-ns#" xmlns:svg="http://www.w3.org/2000/svg" xmlns:xlink="http://www.w3.org/1999/xlink">
<!--
splitbox - A split box


Box and lid, with the intension of having an external hinge


Created with Boxes.py (https://boxes.hackerspace-bamberg.de/)
Creation date: 2024-11-23 14:31:59
Command line (remove spaces between dashes): boxes splitbox
Url: http://localhost:8000/splitbox?FingerJoint_style=rectangular&FingerJoint_surroundingspaces=2.0&FingerJoint_bottom_lip=0.0&FingerJoint_edge_width=1.0&FingerJoint_extra_length=0.0&FingerJoint_finger=2.0&FingerJoint_play=0.0&FingerJoint_space=2.0&FingerJoint_width=1.0&x=265&y=200&outside=0&outside=1&bottom_edge=h&base_h=40&lid_h=30&window_y_percent=0.8&window_x_percent=0.9&window_y_offset=0.5&window_x_offset=0&thickness=3.0&format=svg&tabs=0.0&qr_code=0&debug=0&labels=0&labels=1&reference=100.0&inner_corners=loop&burn=0.1&language=en&render=2
Url short: http://localhost:8000/splitbox
SettingsUrl: http://localhost:8000/splitbox?FingerJoint_style=rectangular&FingerJoint_surroundingspaces=2.0&FingerJoint_bottom_lip=0.0&FingerJoint_edge_width=1.0&FingerJoint_extra_length=0.0&FingerJoint_finger=2.0&FingerJoint_play=0.0&FingerJoint_space=2.0&FingerJoint_width=1.0&x=265&y=200&outside=0&outside=1&bottom_edge=h&base_h=40&lid_h=30&window_y_percent=0.8&window_x_percent=0.9&window_y_offset=0.5&window_x_offset=0&thickness=3.0&format=svg&tabs=0.0&qr_code=0&debug=0&labels=0&labels=1&reference=100.0&inner_corners=loop&burn=0.1&language=en&render=2
SettingsUrl short: http://localhost:8000/splitbox
-->
<title>splitbox</title>
<metadata>
<rdf:RDF><cc:Work>
<dc:title>Box - splitbox</dc:title>
<dc:date>2024-11-23 14:31:59</dc:date>
<dc:source>http://localhost:8000/splitbox?FingerJoint_style=rectangular&amp;FingerJoint_surroundingspaces=2.0&amp;FingerJoint_bottom_lip=0.0&amp;FingerJoint_edge_width=1.0&amp;FingerJoint_extra_length=0.0&amp;FingerJoint_finger=2.0&amp;FingerJoint_play=0.0&amp;FingerJoint_space=2.0&amp;FingerJoint_width=1.0&amp;x=265&amp;y=200&amp;outside=0&amp;outside=1&amp;bottom_edge=h&amp;base_h=40&amp;lid_h=30&amp;window_y_percent=0.8&amp;window_x_percent=0.9&amp;window_y_offset=0.5&amp;window_x_offset=0&amp;thickness=3.0&amp;format=svg&amp;tabs=0.0&amp;qr_code=0&amp;debug=0&amp;labels=0&amp;labels=1&amp;reference=100.0&amp;inner_corners=loop&amp;burn=0.1&amp;language=en&amp;render=2</dc:source>
<dc:source>http://localhost:8000/splitbox</dc:source>
<dc:description>A split box

Box and lid, with the intension of having an external hinge

Created with Boxes.py (https://boxes.hackerspace-bamberg.de/)
Command line: boxes splitbox --FingerJoint_style=rectangular --FingerJoint_surroundingspaces=2.0 --FingerJoint_bottom_lip=0.0 --FingerJoint_edge_width=1.0 --FingerJoint_extra_length=0.0 --FingerJoint_finger=2.0 --FingerJoint_play=0.0 --FingerJoint_space=2.0 --FingerJoint_width=1.0 --x=265 --y=200 --outside=0 --outside=1 --bottom_edge=h --base_h=40 --lid_h=30 --window_y_percent=0.8 --window_x_percent=0.9 --window_y_offset=0.5 --window_x_offset=0 --thickness=3.0 --format=svg --tabs=0.0 --qr_code=0 --debug=0 --labels=0 --labels=1 --reference=100.0 --inner_corners=loop --burn=0.1
Command line short: boxes splitbox
Url: http://localhost:8000/splitbox?FingerJoint_style=rectangular&amp;FingerJoint_surroundingspaces=2.0&amp;FingerJoint_bottom_lip=0.0&amp;FingerJoint_edge_width=1.0&amp;FingerJoint_extra_length=0.0&amp;FingerJoint_finger=2.0&amp;FingerJoint_play=0.0&amp;FingerJoint_space=2.0&amp;FingerJoint_width=1.0&amp;x=265&amp;y=200&amp;outside=0&amp;outside=1&amp;bottom_edge=h&amp;base_h=40&amp;lid_h=30&amp;window_y_percent=0.8&amp;window_x_percent=0.9&amp;window_y_offset=0.5&amp;window_x_offset=0&amp;thickness=3.0&amp;format=svg&amp;tabs=0.0&amp;qr_code=0&amp;debug=0&amp;labels=0&amp;labels=1&amp;reference=100.0&amp;inner_corners=loop&amp;burn=0.1&amp;language=en&amp;render=2
Url short: http://localhost:8000/splitbox
SettingsUrl: http://localhost:8000/splitbox?FingerJoint_style=rectangular&amp;FingerJoint_surroundingspaces=2.0&amp;FingerJoint_bottom_lip=0.0&amp;FingerJoint_edge_width=1.0&amp;FingerJoint_extra_length=0.0&amp;FingerJoint_finger=2.0&amp;FingerJoint_play=0.0&amp;FingerJoint_space=2.0&amp;FingerJoint_width=1.0&amp;x=265&amp;y=200&amp;outside=0&amp;outside=1&amp;bottom_edge=h&amp;base_h=40&amp;lid_h=30&amp;window_y_percent=0.8&amp;window_x_percent=0.9&amp;window_y_offset=0.5&amp;window_x_offset=0&amp;thickness=3.0&amp;format=svg&amp;tabs=0.0&amp;qr_code=0&amp;debug=0&amp;labels=0&amp;labels=1&amp;reference=100.0&amp;inner_corners=loop&amp;burn=0.1&amp;language=en&amp;render=2
SettingsUrl short: http://localhost:8000/splitbox
</dc:description>
</cc:Work></rdf:RDF></metadata>
<g id="p-0" style="fill:none;stroke-linecap:round;stroke-linejoin:round;">
  <path d="M 10.100 388.700 H 110.100 V 378.700 H 10.100 V 388.700 Z" stroke="rgb(0,0,0)" stroke-width="0.20" />
  <text dominant-baseline="hanging" font-size="6px" style="font-family: sans-serif ; font-weight: normal; font-style: normal; fill: rgb(255,0,0)" text-anchor="middle" transform="matrix( 1.000 0.000 0.000 1.000 60.100 380.700 )">100.0mm, burn:0.10mm</text>
</g>
<g id="p-1" style="fill:none;stroke-linecap:round;stroke-linejoin:round;">
  <path d="M 142.600 344.700 H 26.150 C 26.050 344.700 26.150 344.800 26.150 344.700 V 189.700 C 26.150 189.600 26.050 189.700 26.150 189.700 H 259.050 C 259.150 189.700 259.050 189.600 259.050 189.700 V 344.700 C 259.050 344.800 259.150 344.700 259.050 344.700 H 142.600 Z" stroke="rgb(0,0,255)" stroke-width="0.20" />
  <text dominant-baseline="hanging" font-size="4px" style="font-family: sans-serif ; font-weight: normal; font-style: normal; fill: rgb(255,0,0)" text-anchor="middle" transform="matrix( 1.000 0.000 0.000 1.000 142.600 275.000 )">3</text><path d="M 13.100 374.000 H 19.500 C 19.600 374.000 19.500 373.900 19.500 374.000 V 376.900 C 19.500 376.955 19.545 377.000 19.600 377.000 H 25.600 C 25.655 377.000 25.700 376.955 25.700 376.900 V 374.000 C 25.700 373.900 25.600 374.000 25.700 374.000 H 31.500 C 31.600 374.000 31.500 373.900 31.500 374.000 V 376.900 C 31.500 376.955 31.545 377.000 31.600 377.000 H 37.600 C 37.655 377.000 37.700 376.955 37.700 376.900 V 374.000 C 37.700 373.900 37.600 374.000 37.700 374.000 H 43.500 C 43.600 374.000 43.500 373.900 43.500 374.000 V 376.900 C 43.500 376.955 43.545 377.000 43.600 377.000 H 49.600 C 49.655 377.000 49.700 376.955 49.700 376.900 V 374.000 C 49.700 373.900 49.600 374.000 49.700 374.000 H 55.500 C 55.600 374.000 55.500 373.900 55.500 374.000 V 376.900 C 55.500 376.955 55.545 377.000 55.600 377.000 H 61.600 C 61.655 377.000 61.700 376.955 61.700 376.900 V 374.000 C 61.700 373.900 61.600 374.000 61.700 374.000 H 67.500 C 67.600 374.000 67.500 373.900 67.500 374.000 V 376.900 C 67.500 376.955 67.545 377.000 67.600 377.000 H 73.600 C 73.655 377.000 73.700 376.955 73.700 376.900 V 374.000 C 73.700 373.900 73.600 374.000 73.700 374.000 H 79.500 C 79.600 374.000 79.500 373.900 79.500 374.000 V 376.900 C 79.500 376.955 79.545 377.000 79.600 377.000 H 85.600 C 85.655 377.000 85.700 376.955 85.700 376.900 V 374.000 C 85.700 373.900 85.600 374.000 85.700 374.000 H 91.500 C 91.600 374.000 91.500 373.900 91.500 374.000 V 376.900 C 91.500 376.955 91.545 377.000 91.600 377.000 H 97.600 C 97.655 377.000 97.700 376.955 97.700 376.900 V 374.000 C 97.700 373.900 97.600 374.000 97.700 374.000 H 103.500 C 103.600 374.000 103.500 373.900 103.500 374.000 V 376.900 C 103.500 376.955 103.545 377.000 103.600 377.000 H 109.600 C 109.655 377.000 109.700 376.955 109.700 376.900 V 374.000 C 109.700 373.900 109.600 374.000 109.700 374.000 H 115.500 C 115.600 374.000 115.500 373.900 115.500 374.000 V 376.900 C 115.500 376.955 115.545 377.000 115.600 377.000 H 121.600 C 121.655 377.000 121.700 376.955 121.700 376.900 V 374.000 C 121.700 373.900 121.600 374.000 121.700 374.000 H 127.500 C 127.600 374.000 127.500 373.900 127.500 374.000 V 376.900 C 127.500 376.955 127.545 377.000 127.600 377.000 H 133.600 C 133.655 377.000 133.700 376.955 133.700 376.900 V 374.000 C 133.700 373.900 133.600 374.000 133.700 374.000 H 139.500 C 139.600 374.000 139.500 373.900 139.500 374.000 V 376.900 C 139.500 376.955 139.545 377.000 139.600 377.000 H 145.600 C 145.655 377.000 145.700 376.955 145.700 376.900 V 374.000 C 145.700 373.900 145.600 374.000 145.700 374.000 H 151.500 C 151.600 374.000 151.500 373.900 151.500 374.000 V 376.900 C 151.500 376.955 151.545 377.000 151.600 377.000 H 157.600 C 157.655 377.000 157.700 376.955 157.700 376.900 V 374.000 C 157.700 373.900 157.600 374.000 157.700 374.000 H 163.500 C 163.600 374.000 163.500 373.900 163.500 374.000 V 376.900 C 163.500 376.955 163.545 377.000 163.600 377.000 H 169.600 C 169.655 377.000 169.700 376.955 169.700 376.900 V 374.000 C 169.700 373.900 169.600 374.000 169.700 374.000 H 175.500 C 175.600 374.000 175.500 373.900 175.500 374.000 V 376.900 C 175.500 376.955 175.545 377.000 175.600 377.000 H 181.600 C 181.655 377.000 181.700 376.955 181.700 376.900 V 374.000 C 181.700 373.900 181.600 374.000 181.700 374.000 H 187.500 C 187.600 374.000 187.500 373.900 187.500 374.000 V 376.900 C 187.500 376.955 187.545 377.000 187.600 377.000 H 193.600 C 193.655 377.000 193.700 376.955 193.700 376.900 V 374.000 C 193.700 373.900 193.600 374.000 193.700 374.000 H 199.500 C 199.600 374.000 199.500 373.900 199.500 374.000 V 376.900 C 199.500 376.955 199.545 377.000 199.600 377.000 H 205.600 C 205.655 377.000 205.700 376.955 205.700 376.900 V 374.000 C 205.700 373.900 205.600 374.000 205.700 374.000 H 211.500 C 211.600 374.000 211.500 373.900 211.500 374.000 V 376.900 C 211.500 376.955 211.545 377.000 211.600 377.000 H 217.600 C 217.655 377.000 217.700 376.955 217.700 376.900 V 374.000 C 217.700 373.900 217.600 374.000 217.700 374.000 H 223.500 C 223.600 374.000 223.500 373.900 223.500 374.000 V 376.900 C 223.500 376.955 223.545 377.000 223.600 377.000 H 229.600 C 229.655 377.000 229.700 376.955 229.700 376.900 V 374.000 C 229.700 373.900 229.600 374.000 229.700 374.000 H 235.500 C 235.600 374.000 235.500 373.900 235.500 374.000 V 376.900 C 235.500 376.955 235.545 377.000 235.600 377.000 H 241.600 C 241.655 377.000 241.700 376.955 241.700 376.900 V 374.000 C 241.700 373.900 241.600 374.000 241.700 374.000 H 247.500 C 247.600 374.000 247.500 373.900 247.500 374.000 V 376.900 C 247.500 376.955 247.545 377.000 247.600 377.000 H 253.600 C 253.655 377.000 253.700 376.955 253.700 376.900 V 374.000 C 253.700 373.900 253.600 374.000 253.700 374.000 H 259.500 C 259.600 374.000 259.500 373.900 259.500 374.000 V 376.900 C 259.500 376.955 259.545 377.000 259.600 377.000 H 265.600 C 265.655 377.000 265.700 376.955 265.700 376.900 V 374.000 C 265.700 373.900 265.600 374.000 265.700 374.000 H 272.100 C 272.155 374.000 272.200 373.955 272.200 373.900 V 364.000 C 272.200 363.900 272.100 364.000 272.200 364.000 H 275.100 C 275.155 364.000 275.200 363.955 275.200 363.900 V 357.900 C 275.200 357.845 275.155 357.800 275.100 357.800 H 272.200 C 272.100 357.800 272.200 357.900 272.200 357.800 V 352.000 C 272.200 351.900 272.100 352.000 272.200 352.000 H 275.100 C 275.155 352.000 275.200 351.955 275.200 351.900 V 345.900 C 275.200 345.845 275.155 345.800 275.100 345.800 H 272.200 C 272.100 345.800 272.200 345.900 272.200 345.800 V 340.000 C 272.200 339.900 272.100 340.000 272.200 340.000 H 275.100 C 275.155 340.000 275.200 339.955 275.200 339.900 V 333.900 C 275.200 333.845 275.155 333.800 275.100 333.800 H 272.200 C 272.100 333.800 272.200 333.900 272.200 333.800 V 328.000 C 272.200 327.900 272.100 328.000 272.200 328.000 H 275.100 C 275.155 328.000 275.200 327.955 275.200 327.900 V 321.900 C 275.200 321.845 275.155 321.800 275.100 321.800 H 272.200 C 272.100 321.800 272.200 321.900 272.200 321.800 V 316.000 C 272.200 315.900 272.100 316.000 272.200 316.000 H 275.100 C 275.155 316.000 275.200 315.955 275.200 315.900 V 309.900 C 275.200 309.845 275.155 309.800 275.100 309.800 H 272.200 C 272.100 309.800 272.200 309.900 272.200 309.800 V 304.000 C 272.200 303.900 272.100 304.000 272.200 304.000 H 275.100 C 275.155 304.000 275.200 303.955 275.200 303.900 V 297.900 C 275.200 297.845 275.155 297.800 275.100 297.800 H 272.200 C 272.100 297.800 272.200 297.900 272.200 297.800 V 292.000 C 272.200 291.900 272.100 292.000 272.200 292.000 H 275.100 C 275.155 292.000 275.200 291.955 275.200 291.900 V 285.900 C 275.200 285.845 275.155 285.800 275.100 285.800 H 272.200 C 272.100 285.800 272.200 285.900 272.200 285.800 V 280.000 C 272.200 279.900 272.100 280.000 272.200 280.000 H 275.100 C 275.155 280.000 275.200 279.955 275.200 279.900 V 273.900 C 275.200 273.845 275.155 273.800 275.100 273.800 H 272.200 C 272.100 273.800 272.200 273.900 272.200 273.800 V 268.000 C 272.200 267.900 272.100 268.000 272.200 268.000 H 275.100 C 275.155 268.000 275.200 267.955 275.200 267.900 V 261.900 C 275.200 261.845 275.155 261.800 275.100 261.800 H 272.200 C 272.100 261.800 272.200 261.900 272.200 261.800 V 256.000 C 272.200 255.900 272.100 256.000 272.200 256.000 H 275.100 C 275.155 256.000 275.200 255.955 275.200 255.900 V 249.900 C 275.200 249.845 275.155 249.800 275.100 249.800 H 272.200 C 272.100 249.800 272.200 249.900 272.200 249.800 V 244.000 C 272.200 243.900 272.100 244.000 272.200 244.000 H 275.100 C 275.155 244.000 275.200 243.955 275.200 243.900 V 237.900 C 275.200 237.845 275.155 237.800 275.100 237.800 H 272.200 C 272.100 237.800 272.200 237.900 272.200 237.800 V 232.000 C 272.200 231.900 272.100 232.000 272.200 232.000 H 275.100 C 275.155 232.000 275.200 231.955 275.200 231.900 V 225.900 C 275.200 225.845 275.155 225.800 275.100 225.800 H 272.200 C 272.100 225.800 272.200 225.900 272.200 225.800 V 220.000 C 272.200 219.900 272.100 220.000 272.200 220.000 H 275.100 C 275.155 220.000 275.200 219.955 275.200 219.900 V 213.900 C 275.200 213.845 275.155 213.800 275.100 213.800 H 272.200 C 272.100 213.800 272.200 213.900 272.200 213.800 V 208.000 C 272.200 207.900 272.100 208.000 272.200 208.000 H 275.100 C 275.155 208.000 275.200 207.955 275.200 207.900 V 201.900 C 275.200 201.845 275.155 201.800 275.100 201.800 H 272.200 C 272.100 201.800 272.200 201.900 272.200 201.800 V 196.000 C 272.200 195.900 272.100 196.000 272.200 196.000 H 275.100 C 275.155 196.000 275.200 195.955 275.200 195.900 V 189.900 C 275.200 189.845 275.155 189.800 275.100 189.800 H 272.200 C 272.100 189.800 272.200 189.900 272.200 189.800 V 179.900 C 272.200 179.845 272.155 179.800 272.100 179.800 H 265.700 C 265.600 179.800 265.700 179.900 265.700 179.800 V 176.900 C 265.700 176.845 265.655 176.800 265.600 176.800 H 259.600 C 259.545 176.800 259.500 176.845 259.500 176.900 V 179.800 C 259.500 179.900 259.600 179.800 259.500 179.800 H 253.700 C 253.600 179.800 253.700 179.900 253.700 179.800 V 176.900 C 253.700 176.845 253.655 176.800 253.600 176.800 H 247.600 C 247.545 176.800 247.500 176.845 247.500 176.900 V 179.800 C 247.500 179.900 247.600 179.800 247.500 179.800 H 241.700 C 241.600 179.800 241.700 179.900 241.700 179.800 V 176.900 C 241.700 176.845 241.655 176.800 241.600 176.800 H 235.600 C 235.545 176.800 235.500 176.845 235.500 176.900 V 179.800 C 235.500 179.900 235.600 179.800 235.500 179.800 H 229.700 C 229.600 179.800 229.700 179.900 229.700 179.800 V 176.900 C 229.700 176.845 229.655 176.800 229.600 176.800 H 223.600 C 223.545 176.800 223.500 176.845 223.500 176.900 V 179.800 C 223.500 179.900 223.600 179.800 223.500 179.800 H 217.700 C 217.600 179.800 217.700 179.900 217.700 179.800 V 176.900 C 217.700 176.845 217.655 176.800 217.600 176.800 H 211.600 C 211.545 176.800 211.500 176.845 211.500 176.900 V 179.800 C 211.500 179.900 211.600 179.800 211.500 179.800 H 205.700 C 205.600 179.800 205.700 179.900 205.700 179.800 V 176.900 C 205.700 176.845 205.655 176.800 205.600 176.800 H 199.600 C 199.545 176.800 199.500 176.845 199.500 176.900 V 179.800 C 199.500 179.900 199.600 179.800 199.500 179.800 H 193.700 C 193.600 179.800 193.700 179.900 193.700 179.800 V 176.900 C 193.700 176.845 193.655 176.800 193.600 176.800 H 187.600 C 187.545 176.800 187.500 176.845 187.500 176.900 V 179.800 C 187.500 179.900 187.600 179.800 187.500 179.800 H 181.700 C 181.600 179.800 181.700 179.900 181.700 179.800 V 176.900 C 181.700 176.845 181.655 176.800 181.600 176.800 H 175.600 C 175.545 176.800 175.500 176.845 175.500 176.900 V 179.800 C 175.500 179.900 175.600 179.800 175.500 179.800 H 169.700 C 169.600 179.800 169.700 179.900 169.700 179.800 V 176.900 C 169.700 176.845 169.655 176.800 169.600 176.800 H 163.600 C 163.545 176.800 163.500 176.845 163.500 176.900 V 179.800 C 163.500 179.900 163.600 179.800 163.500 179.800 H 157.700 C 157.600 179.800 157.700 179.900 157.700 179.800 V 176.900 C 157.700 176.845 157.655 176.800 157.600 176.800 H 151.600 C 151.545 176.800 151.500 176.845 151.500 176.900 V 179.800 C 151.500 179.900 151.600 179.800 151.500 179.800 H 145.700 C 145.600 179.800 145.700 179.900 145.700 179.800 V 176.900 C 145.700 176.845 145.655 176.800 145.600 176.800 H 139.600 C 139.545 176.800 139.500 176.845 139.500 176.900 V 179.800 C 139.500 179.900 139.600 179.800 139.500 179.800 H 133.700 C 133.600 179.800 133.700 179.900 133.700 179.800 V 176.900 C 133.700 176.845 133.655 176.800 133.600 176.800 H 127.600 C 127.545 176.800 127.500 176.845 127.500 176.900 V 179.800 C 127.500 179.900 127.600 179.800 127.500 179.800 H 121.700 C 121.600 179.800 121.700 179.900 121.700 179.800 V 176.900 C 121.700 176.845 121.655 176.800 121.600 176.800 H 115.600 C 115.545 176.800 115.500 176.845 115.500 176.900 V 179.800 C 115.500 179.900 115.600 179.800 115.500 179.800 H 109.700 C 109.600 179.800 109.700 179.900 109.700 179.800 V 176.900 C 109.700 176.845 109.655 176.800 109.600 176.800 H 103.600 C 103.545 176.800 103.500 176.845 103.500 176.900 V 179.800 C 103.500 179.900 103.600 179.800 103.500 179.800 H 97.700 C 97.600 179.800 97.700 179.900 97.700 179.800 V 176.900 C 97.700 176.845 97.655 176.800 97.600 176.800 H 91.600 C 91.545 176.800 91.500 176.845 91.500 176.900 V 179.800 C 91.500 179.900 91.600 179.800 91.500 179.800 H 85.700 C 85.600 179.800 85.700 179.900 85.700 179.800 V 176.900 C 85.700 176.845 85.655 176.800 85.600 176.800 H 79.600 C 79.545 176.800 79.500 176.845 79.500 176.900 V 179.800 C 79.500 179.900 79.600 179.800 79.500 179.800 H 73.700 C 73.600 179.800 73.700 179.900 73.700 179.800 V 176.900 C 73.700 176.845 73.655 176.800 73.600 176.800 H 67.600 C 67.545 176.800 67.500 176.845 67.500 176.900 V 179.800 C 67.500 179.900 67.600 179.800 67.500 179.800 H 61.700 C 61.600 179.800 61.700 179.900 61.700 179.800 V 176.900 C 61.700 176.845 61.655 176.800 61.600 176.800 H 55.600 C 55.545 176.800 55.500 176.845 55.500 176.900 V 179.800 C 55.500 179.900 55.600 179.800 55.500 179.800 H 49.700 C 49.600 179.800 49.700 179.900 49.700 179.800 V 176.900 C 49.700 176.845 49.655 176.800 49.600 176.800 H 43.600 C 43.545 176.800 43.500 176.845 43.500 176.900 V 179.800 C 43.500 179.900 43.600 179.800 43.500 179.800 H 37.700 C 37.600 179.800 37.700 179.900 37.700 179.800 V 176.900 C 37.700 176.845 37.655 176.800 37.600 176.800 H 31.600 C 31.545 176.800 31.500 176.845 31.500 176.900 V 179.800 C 31.500 179.900 31.600 179.800 31.500 179.800 H 25.700 C 25.600 179.800 25.700 179.900 25.700 179.800 V 176.900 C 25.700 176.845 25.655 176.800 25.600 176.800 H 19.600 C 19.545 176.800 19.500 176.845 19.500 176.900 V 179.800 C 19.500 179.900 19.600 179.800 19.500 179.800 H 13.100 C 13.045 179.800 13.000 179.845 13.000 179.900 V 189.800 C 13.000 189.900 13.100 189.800 13.000 189.800 H 10.100 C 10.045 189.800 10.000 189.845 10.000 189.900 V 195.900 C 10.000 195.955 10.045 196.000 10.100 196.000 H 13.000 C 13.100 196.000 13.000 195.900 13.000 196.000 V 201.800 C 13.000 201.900 13.100 201.800 13.000 201.800 H 10.100 C 10.045 201.800 10.000 201.845 10.000 201.900 V 207.900 C 10.000 207.955 10.045 208.000 10.100 208.000 H 13.000 C 13.100 208.000 13.000 207.900 13.000 208.000 V 213.800 C 13.000 213.900 13.100 213.800 13.000 213.800 H 10.100 C 10.045 213.800 10.000 213.845 10.000 213.900 V 219.900 C 10.000 219.955 10.045 220.000 10.100 220.000 H 13.000 C 13.100 220.000 13.000 219.900 13.000 220.000 V 225.800 C 13.000 225.900 13.100 225.800 13.000 225.800 H 10.100 C 10.045 225.800 10.000 225.845 10.000 225.900 V 231.900 C 10.000 231.955 10.045 232.000 10.100 232.000 H 13.000 C 13.100 232.000 13.000 231.900 13.000 232.000 V 237.800 C 13.000 237.900 13.100 237.800 13.000 237.800 H 10.100 C 10.045 237.800 10.000 237.845 10.000 237.900 V 243.900 C 10.000 243.955 10.045 244.000 10.100 244.000 H 13.000 C 13.100 244.000 13.000 243.900 13.000 244.000 V 249.800 C 13.000 249.900 13.100 249.800 13.000 249.800 H 10.100 C 10.045 249.800 10.000 249.845 10.000 249.900 V 255.900 C 10.000 255.955 10.045 256.000 10.100 256.000 H 13.000 C 13.100 256.000 13.000 255.900 13.000 256.000 V 261.800 C 13.000 261.900 13.100 261.800 13.000 261.800 H 10.100 C 10.045 261.800 10.000 261.845 10.000 261.900 V 267.900 C 10.000 267.955 10.045 268.000 10.100 268.000 H 13.000 C 13.100 268.000 13.000 267.900 13.000 268.000 V 273.800 C 13.000 273.900 13.100 273.800 13.000 273.800 H 10.100 C 10.045 273.800 10.000 273.845 10.000 273.900 V 279.900 C 10.000 279.955 10.045 280.000 10.100 280.000 H 13.000 C 13.100 280.000 13.000 279.900 13.000 280.000 V 285.800 C 13.000 285.900 13.100 285.800 13.000 285.800 H 10.100 C 10.045 285.800 10.000 285.845 10.000 285.900 V 291.900 C 10.000 291.955 10.045 292.000 10.100 292.000 H 13.000 C 13.100 292.000 13.000 291.900 13.000 292.000 V 297.800 C 13.000 297.900 13.100 297.800 13.000 297.800 H 10.100 C 10.045 297.800 10.000 297.845 10.000 297.900 V 303.900 C 10.000 303.955 10.045 304.000 10.100 304.000 H 13.000 C 13.100 304.000 13.000 303.900 13.000 304.000 V 309.800 C 13.000 309.900 13.100 309.800 13.000 309.800 H 10.100 C 10.045 309.800 10.000 309.845 10.000 309.900 V 315.900 C 10.000 315.955 10.045 316.000 10.100 316.000 H 13.000 C 13.100 316.000 13.000 315.900 13.000 316.000 V 321.800 C 13.000 321.900 13.100 321.800 13.000 321.800 H 10.100 C 10.045 321.800 10.000 321.845 10.000 321.900 V 327.900 C 10.000 327.955 10.045 328.000 10.100 328.000 H 13.000 C 13.100 328.000 13.000 327.900 13.000 328.000 V 333.800 C 13.000 333.900 13.100 333.800 13.000 333.800 H 10.100 C 10.045 333.800 10.000 333.845 10.000 333.900 V 339.900 C 10.000 339.955 10.045 340.000 10.100 340.000 H 13.000 C 13.100 340.000 13.000 339.900 13.000 340.000 V 345.800 C 13.000 345.900 13.100 345.800 13.000 345.800 H 10.100 C 10.045 345.800 10.000 345.845 10.000 345.900 V 351.900 C 10.000 351.955 10.045 352.000 10.100 352.000 H 13.000 C 13.100 352.000 13.000 351.900 13.000 352.000 V 357.800 C 13.000 357.900 13.100 357.800 13.000 357.800 H 10.100 C 10.045 357.800 10.000 357.845 10.000 357.900 V 363.900 C 10.000 363.955 10.045 364.000 10.100 364.000 H 13.000 C 13.100 364.000 13.000 363.900 13.000 364.000 V 373.900 C 13.000 373.955 13.045 374.000 13.100 374.000" stroke="rgb(0,0,0)" stroke-width="0.20" />
</g>
<g id="p-2" style="fill:none;stroke-linecap:round;stroke-linejoin:round;">
  <path d="M 26.100 172.100 H 23.200 C 23.100 172.100 23.200 172.200 23.200 172.100 V 169.300 C 23.200 169.200 23.100 169.300 23.200 169.300 H 29.000 C 29.100 169.300 29.000 169.200 29.000 169.300 V 172.100 C 29.000 172.200 29.100 172.100 29.000 172.100 H 26.100 Z" stroke="rgb(0,0,255)" stroke-width="0.20" />
  <path d="M 38.100 172.100 H 35.200 C 35.100 172.100 35.200 172.200 35.200 172.100 V 169.300 C 35.200 169.200 35.100 169.300 35.200 169.300 H 41.000 C 41.100 169.300 41.000 169.200 41.000 169.300 V 172.100 C 41.000 172.200 41.100 172.100 41.000 172.100 H 38.100 Z" stroke="rgb(0,0,255)" stroke-width="0.20" />
  <path d="M 50.100 172.100 H 47.200 C 47.100 172.100 47.200 172.200 47.200 172.100 V 169.300 C 47.200 169.200 47.100 169.300 47.200 169.300 H 53.000 C 53.100 169.300 53.000 169.200 53.000 169.300 V 172.100 C 53.000 172.200 53.100 172.100 53.000 172.100 H 50.100 Z" stroke="rgb(0,0,255)" stroke-width="0.20" />
  <path d="M 62.100 172.100 H 59.200 C 59.100 172.100 59.200 172.200 59.200 172.100 V 169.300 C 59.200 169.200 59.100 169.300 59.200 169.300 H 65.000 C 65.100 169.300 65.000 169.200 65.000 169.300 V 172.100 C 65.000 172.200 65.100 172.100 65.000 172.100 H 62.100 Z" stroke="rgb(0,0,255)" stroke-width="0.20" />
  <path d="M 74.100 172.100 H 71.200 C 71.100 172.100 71.200 172.200 71.200 172.100 V 169.300 C 71.200 169.200 71.100 169.300 71.200 169.300 H 77.000 C 77.100 169.300 77.000 169.200 77.000 169.300 V 172.100 C 77.000 172.200 77.100 172.100 77.000 172.100 H 74.100 Z" stroke="rgb(0,0,255)" stroke-width="0.20" />
  <path d="M 86.100 172.100 H 83.200 C 83.100 172.100 83.200 172.200 83.200 172.100 V 169.300 C 83.200 169.200 83.100 169.300 83.200 169.300 H 89.000 C 89.100 169.300 89.000 169.200 89.000 169.300 V 172.100 C 89.000 172.200 89.100 172.100 89.000 172.100 H 86.100 Z" stroke="rgb(0,0,255)" stroke-width="0.20" />
  <path d="M 98.100 172.100 H 95.200 C 95.100 172.100 95.200 172.200 95.200 172.100 V 169.300 C 95.200 169.200 95.100 169.300 95.200 169.300 H 101.000 C 101.100 169.300 101.000 169.200 101.000 169.300 V 172.100 C 101.000 172.200 101.100 172.100 101.000 172.100 H 98.100 Z" stroke="rgb(0,0,255)" stroke-width="0.20" />
  <path d="M 110.100 172.100 H 107.200 C 107.100 172.100 107.200 172.200 107.200 172.100 V 169.300 C 107.200 169.200 107.100 169.300 107.200 169.300 H 113.000 C 113.100 169.300 113.000 169.200 113.000 169.300 V 172.100 C 113.000 172.200 113.100 172.100 113.000 172.100 H 110.100 Z" stroke="rgb(0,0,255)" stroke-width="0.20" />
  <path d="M 122.100 172.100 H 119.200 C 119.100 172.100 119.200 172.200 119.200 172.100 V 169.300 C 119.200 169.200 119.100 169.300 119.200 169.300 H 125.000 C 125.100 169.300 125.000 169.200 125.000 169.300 V 172.100 C 125.000 172.200 125.100 172.100 125.000 172.100 H 122.100 Z" stroke="rgb(0,0,255)" stroke-width="0.20" />
  <path d="M 134.100 172.100 H 131.200 C 131.100 172.100 131.200 172.200 131.200 172.100 V 169.300 C 131.200 169.200 131.100 169.300 131.200 169.300 H 137.000 C 137.100 169.300 137.000 169.200 137.000 169.300 V 172.100 C 137.000 172.200 137.100 172.100 137.000 172.100 H 134.100 Z" stroke="rgb(0,0,255)" stroke-width="0.20" />
  <path d="M 146.100 172.100 H 143.200 C 143.100 172.100 143.200 172.200 143.200 172.100 V 169.300 C 143.200 169.200 143.100 169.300 143.200 169.300 H 149.000 C 149.100 169.300 149.000 169.200 149.000 169.300 V 172.100 C 149.000 172.200 149.100 172.100 149.000 172.100 H 146.100 Z" stroke="rgb(0,0,255)" stroke-width="0.20" />
  <path d="M 158.100 172.100 H 155.200 C 155.100 172.100 155.200 172.200 155.200 172.100 V 169.300 C 155.200 169.200 155.100 169.300 155.200 169.300 H 161.000 C 161.100 169.300 161.000 169.200 161.000 169.300 V 172.100 C 161.000 172.200 161.100 172.100 161.000 172.100 H 158.100 Z" stroke="rgb(0,0,255)" stroke-width="0.20" />
  <path d="M 170.100 172.100 H 167.200 C 167.100 172.100 167.200 172.200 167.200 172.100 V 169.300 C 167.200 169.200 167.100 169.300 167.200 169.300 H 173.000 C 173.100 169.300 173.000 169.200 173.000 169.300 V 172.100 C 173.000 172.200 173.100 172.100 173.000 172.100 H 170.100 Z" stroke="rgb(0,0,255)" stroke-width="0.20" />
  <path d="M 182.100 172.100 H 179.200 C 179.100 172.100 179.200 172.200 179.200 172.100 V 169.300 C 179.200 169.200 179.100 169.300 179.200 169.300 H 185.000 C 185.100 169.300 185.000 169.200 185.000 169.300 V 172.100 C 185.000 172.200 185.100 172.100 185.000 172.100 H 182.100 Z" stroke="rgb(0,0,255)" stroke-width="0.20" />
  <path d="M 194.100 172.100 H 191.200 C 191.100 172.100 191.200 172.200 191.200 172.100 V 169.300 C 191.200 169.200 191.100 169.300 191.200 169.300 H 197.000 C 197.100 169.300 197.000 169.200 197.000 169.300 V 172.100 C 197.000 172.200 197.100 172.100 197.000 172.100 H 194.100 Z" stroke="rgb(0,0,255)" stroke-width="0.20" />
  <text dominant-baseline="hanging" font-size="4px" style="font-family: sans-serif ; font-weight: normal; font-style: normal; fill: rgb(255,0,0)" text-anchor="middle" transform="matrix( 1.000 0.000 0.000 1.000 110.100 153.300 )">4</text><path d="M 13.100 175.300 H 207.100 C 207.155 175.300 207.200 175.255 207.200 175.200 V 164.300 C 207.200 164.200 207.100 164.300 207.200 164.300 H 210.100 C 210.155 164.300 210.200 164.255 210.200 164.200 V 158.200 C 210.200 158.145 210.155 158.100 210.100 158.100 H 207.200 C 207.100 158.100 207.200 158.200 207.200 158.100 V 152.300 C 207.200 152.200 207.100 152.300 207.200 152.300 H 210.100 C 210.155 152.300 210.200 152.255 210.200 152.200 V 146.200 C 210.200 146.145 210.155 146.100 210.100 146.100 H 207.200 C 207.100 146.100 207.200 146.200 207.200 146.100 V 135.200 C 207.200 135.145 207.155 135.100 207.100 135.100 H 13.100 C 13.045 135.100 13.000 135.145 13.000 135.200 V 146.100 C 13.000 146.200 13.100 146.100 13.000 146.100 H 10.100 C 10.045 146.100 10.000 146.145 10.000 146.200 V 152.200 C 10.000 152.255 10.045 152.300 10.100 152.300 H 13.000 C 13.100 152.300 13.000 152.200 13.000 152.300 V 158.100 C 13.000 158.200 13.100 158.100 13.000 158.100 H 10.100 C 10.045 158.100 10.000 158.145 10.000 158.200 V 164.200 C 10.000 164.255 10.045 164.300 10.100 164.300 H 13.000 C 13.100 164.300 13.000 164.200 13.000 164.300 V 175.200 C 13.000 175.255 13.045 175.300 13.100 175.300" stroke="rgb(0,0,0)" stroke-width="0.20" />
</g>
<g id="p-3" style="fill:none;stroke-linecap:round;stroke-linejoin:round;">
  <path d="M 26.100 130.400 H 23.200 C 23.100 130.400 23.200 130.500 23.200 130.400 V 127.600 C 23.200 127.500 23.100 127.600 23.200 127.600 H 29.000 C 29.100 127.600 29.000 127.500 29.000 127.600 V 130.400 C 29.000 130.500 29.100 130.400 29.000 130.400 H 26.100 Z" stroke="rgb(0,0,255)" stroke-width="0.20" />
  <path d="M 38.100 130.400 H 35.200 C 35.100 130.400 35.200 130.500 35.200 130.400 V 127.600 C 35.200 127.500 35.100 127.600 35.200 127.600 H 41.000 C 41.100 127.600 41.000 127.500 41.000 127.600 V 130.400 C 41.000 130.500 41.100 130.400 41.000 130.400 H 38.100 Z" stroke="rgb(0,0,255)" stroke-width="0.20" />
  <path d="M 50.100 130.400 H 47.200 C 47.100 130.400 47.200 130.500 47.200 130.400 V 127.600 C 47.200 127.500 47.100 127.600 47.200 127.600 H 53.000 C 53.100 127.600 53.000 127.500 53.000 127.600 V 130.400 C 53.000 130.500 53.100 130.400 53.000 130.400 H 50.100 Z" stroke="rgb(0,0,255)" stroke-width="0.20" />
  <path d="M 62.100 130.400 H 59.200 C 59.100 130.400 59.200 130.500 59.200 130.400 V 127.600 C 59.200 127.500 59.100 127.600 59.200 127.600 H 65.000 C 65.100 127.600 65.000 127.500 65.000 127.600 V 130.400 C 65.000 130.500 65.100 130.400 65.000 130.400 H 62.100 Z" stroke="rgb(0,0,255)" stroke-width="0.20" />
  <path d="M 74.100 130.400 H 71.200 C 71.100 130.400 71.200 130.500 71.200 130.400 V 127.600 C 71.200 127.500 71.100 127.600 71.200 127.600 H 77.000 C 77.100 127.600 77.000 127.500 77.000 127.600 V 130.400 C 77.000 130.500 77.100 130.400 77.000 130.400 H 74.100 Z" stroke="rgb(0,0,255)" stroke-width="0.20" />
  <path d="M 86.100 130.400 H 83.200 C 83.100 130.400 83.200 130.500 83.200 130.400 V 127.600 C 83.200 127.500 83.100 127.600 83.200 127.600 H 89.000 C 89.100 127.600 89.000 127.500 89.000 127.600 V 130.400 C 89.000 130.500 89.100 130.400 89.000 130.400 H 86.100 Z" stroke="rgb(0,0,255)" stroke-width="0.20" />
  <path d="M 98.100 130.400 H 95.200 C 95.100 130.400 95.200 130.500 95.200 130.400 V 127.600 C 95.200 127.500 95.100 127.600 95.200 127.600 H 101.000 C 101.100 127.600 101.000 127.500 101.000 127.600 V 130.400 C 101.000 130.500 101.100 130.400 101.000 130.400 H 98.100 Z" stroke="rgb(0,0,255)" stroke-width="0.20" />
  <path d="M 110.100 130.400 H 107.200 C 107.100 130.400 107.200 130.500 107.200 130.400 V 127.600 C 107.200 127.500 107.100 127.600 107.200 127.600 H 113.000 C 113.100 127.600 113.000 127.500 113.000 127.600 V 130.400 C 113.000 130.500 113.100 130.400 113.000 130.400 H 110.100 Z" stroke="rgb(0,0,255)" stroke-width="0.20" />
  <path d="M 122.100 130.400 H 119.200 C 119.100 130.400 119.200 130.500 119.200 130.400 V 127.600 C 119.200 127.500 119.100 127.600 119.200 127.600 H 125.000 C 125.100 127.600 125.000 127.500 125.000 127.600 V 130.400 C 125.000 130.500 125.100 130.400 125.000 130.400 H 122.100 Z" stroke="rgb(0,0,255)" stroke-width="0.20" />
  <path d="M 134.100 130.400 H 131.200 C 131.100 130.400 131.200 130.500 131.200 130.400 V 127.600 C 131.200 127.500 131.100 127.600 131.200 127.600 H 137.000 C 137.100 127.600 137.000 127.500 137.000 127.600 V 130.400 C 137.000 130.500 137.100 130.400 137.000 130.400 H 134.100 Z" stroke="rgb(0,0,255)" stroke-width="0.20" />
  <path d="M 146.100 130.400 H 143.200 C 143.100 130.400 143.200 130.500 143.200 130.400 V 127.600 C 143.200 127.500 143.100 127.600 143.200 127.600 H 149.000 C 149.100 127.600 149.000 127.500 149.000 127.600 V 130.400 C 149.000 130.500 149.100 130.400 149.000 130.400 H 146.100 Z" stroke="rgb(0,0,255)" stroke-width="0.20" />
  <path d="M 158.100 130.400 H 155.200 C 155.100 130.400 155.200 130.500 155.200 130.400 V 127.600 C 155.200 127.500 155.100 127.600 155.200 127.600 H 161.000 C 161.100 127.600 161.000 127.500 161.000 127.600 V 130.400 C 161.000 130.500 161.100 130.400 161.000 130.400 H 158.100 Z" stroke="rgb(0,0,255)" stroke-width="0.20" />
  <path d="M 170.100 130.400 H 167.200 C 167.100 130.400 167.200 130.500 167.200 130.400 V 127.600 C 167.200 127.500 167.100 127.600 167.200 127.600 H 173.000 C 173.100 127.600 173.000 127.500 173.000 127.600 V 130.400 C 173.000 130.500 173.100 130.400 173.000 130.400 H 170.100 Z" stroke="rgb(0,0,255)" stroke-width="0.20" />
  <path d="M 182.100 130.400 H 179.200 C 179.100 130.400 179.200 130.500 179.200 130.400 V 127.600 C 179.200 127.500 179.100 127.600 179.200 127.600 H 185.000 C 185.100 127.600 185.000 127.500 185.000 127.600 V 130.400 C 185.000 130.500 185.100 130.400 185.000 130.400 H 182.100 Z" stroke="rgb(0,0,255)" stroke-width="0.20" />
  <path d="M 194.100 130.400 H 191.200 C 191.100 130.400 191.200 130.500 191.200 130.400 V 127.600 C 191.200 127.500 191.100 127.600 191.200 127.600 H 197.000 C 197.100 127.600 197.000 127.500 197.000 127.600 V 130.400 C 197.000 130.500 197.100 130.400 197.000 130.400 H 194.100 Z" stroke="rgb(0,0,255)" stroke-width="0.20" />
  <text dominant-baseline="hanging" font-size="4px" style="font-family: sans-serif ; font-weight: normal; font-style: normal; fill: rgb(255,0,0)" text-anchor="middle" transform="matrix( 1.000 0.000 0.000 1.000 110.100 111.600 )">5</text><path d="M 13.100 133.600 H 207.100 C 207.155 133.600 207.200 133.555 207.200 133.500 V 122.600 C 207.200 122.500 207.100 122.600 207.200 122.600 H 210.100 C 210.155 122.600 210.200 122.555 210.200 122.500 V 116.500 C 210.200 116.445 210.155 116.400 210.100 116.400 H 207.200 C 207.100 116.400 207.200 116.500 207.200 116.400 V 110.600 C 207.200 110.500 207.100 110.600 207.200 110.600 H 210.100 C 210.155 110.600 210.200 110.555 210.200 110.500 V 104.500 C 210.200 104.445 210.155 104.400 210.100 104.400 H 207.200 C 207.100 104.400 207.200 104.500 207.200 104.400 V 93.500 C 207.200 93.445 207.155 93.400 207.100 93.400 H 13.100 C 13.045 93.400 13.000 93.445 13.000 93.500 V 104.400 C 13.000 104.500 13.100 104.400 13.000 104.400 H 10.100 C 10.045 104.400 10.000 104.445 10.000 104.500 V 110.500 C 10.000 110.555 10.045 110.600 10.100 110.600 H 13.000 C 13.100 110.600 13.000 110.500 13.000 110.600 V 116.400 C 13.000 116.500 13.100 116.400 13.000 116.400 H 10.100 C 10.045 116.400 10.000 116.445 10.000 116.500 V 122.500 C 10.000 122.555 10.045 122.600 10.100 122.600 H 13.000 C 13.100 122.600 13.000 122.500 13.000 122.600 V 133.500 C 13.000 133.555 13.045 133.600 13.100 133.600" stroke="rgb(0,0,0)" stroke-width="0.20" />
</g>
<g id="p-4" style="fill:none;stroke-linecap:round;stroke-linejoin:round;">
  <path d="M 22.600 88.700 H 19.700 C 19.600 88.700 19.700 88.800 19.700 88.700 V 85.900 C 19.700 85.800 19.600 85.900 19.700 85.900 H 25.500 C 25.600 85.900 25.500 85.800 25.500 85.900 V 88.700 C 25.500 88.800 25.600 88.700 25.500 88.700 H 22.600 Z" stroke="rgb(0,0,255)" stroke-width="0.20" />
  <path d="M 34.600 88.700 H 31.700 C 31.600 88.700 31.700 88.800 31.700 88.700 V 85.900 C 31.700 85.800 31.600 85.900 31.700 85.900 H 37.500 C 37.600 85.900 37.500 85.800 37.500 85.900 V 88.700 C 37.500 88.800 37.600 88.700 37.500 88.700 H 34.600 Z" stroke="rgb(0,0,255)" stroke-width="0.20" />
  <path d="M 46.600 88.700 H 43.700 C 43.600 88.700 43.700 88.800 43.700 88.700 V 85.900 C 43.700 85.800 43.600 85.900 43.700 85.900 H 49.500 C 49.600 85.900 49.500 85.800 49.500 85.900 V 88.700 C 49.500 88.800 49.600 88.700 49.500 88.700 H 46.600 Z" stroke="rgb(0,0,255)" stroke-width="0.20" />
  <path d="M 58.600 88.700 H 55.700 C 55.600 88.700 55.700 88.800 55.700 88.700 V 85.900 C 55.700 85.800 55.600 85.900 55.700 85.900 H 61.500 C 61.600 85.900 61.500 85.800 61.500 85.900 V 88.700 C 61.500 88.800 61.600 88.700 61.500 88.700 H 58.600 Z" stroke="rgb(0,0,255)" stroke-width="0.20" />
  <path d="M 70.600 88.700 H 67.700 C 67.600 88.700 67.700 88.800 67.700 88.700 V 85.900 C 67.700 85.800 67.600 85.900 67.700 85.900 H 73.500 C 73.600 85.900 73.500 85.800 73.500 85.900 V 88.700 C 73.500 88.800 73.600 88.700 73.500 88.700 H 70.600 Z" stroke="rgb(0,0,255)" stroke-width="0.20" />
  <path d="M 82.600 88.700 H 79.700 C 79.600 88.700 79.700 88.800 79.700 88.700 V 85.900 C 79.700 85.800 79.600 85.900 79.700 85.900 H 85.500 C 85.600 85.900 85.500 85.800 85.500 85.900 V 88.700 C 85.500 88.800 85.600 88.700 85.500 88.700 H 82.600 Z" stroke="rgb(0,0,255)" stroke-width="0.20" />
  <path d="M 94.600 88.700 H 91.700 C 91.600 88.700 91.700 88.800 91.700 88.700 V 85.900 C 91.700 85.800 91.600 85.900 91.700 85.900 H 97.500 C 97.600 85.900 97.500 85.800 97.500 85.900 V 88.700 C 97.500 88.800 97.600 88.700 97.500 88.700 H 94.600 Z" stroke="rgb(0,0,255)" stroke-width="0.20" />
  <path d="M 106.600 88.700 H 103.700 C 103.600 88.700 103.700 88.800 103.700 88.700 V 85.900 C 103.700 85.800 103.600 85.900 103.700 85.900 H 109.500 C 109.600 85.900 109.500 85.800 109.500 85.900 V 88.700 C 109.500 88.800 109.600 88.700 109.500 88.700 H 106.600 Z" stroke="rgb(0,0,255)" stroke-width="0.20" />
  <path d="M 118.600 88.700 H 115.700 C 115.600 88.700 115.700 88.800 115.700 88.700 V 85.900 C 115.700 85.800 115.600 85.900 115.700 85.900 H 121.500 C 121.600 85.900 121.500 85.800 121.500 85.900 V 88.700 C 121.500 88.800 121.600 88.700 121.500 88.700 H 118.600 Z" stroke="rgb(0,0,255)" stroke-width="0.20" />
  <path d="M 130.600 88.700 H 127.700 C 127.600 88.700 127.700 88.800 127.700 88.700 V 85.900 C 127.700 85.800 127.600 85.900 127.700 85.900 H 133.500 C 133.600 85.900 133.500 85.800 133.500 85.900 V 88.700 C 133.500 88.800 133.600 88.700 133.500 88.700 H 130.600 Z" stroke="rgb(0,0,255)" stroke-width="0.20" />
  <path d="M 142.600 88.700 H 139.700 C 139.600 88.700 139.700 88.800 139.700 88.700 V 85.900 C 139.700 85.800 139.600 85.900 139.700 85.900 H 145.500 C 145.600 85.900 145.500 85.800 145.500 85.900 V 88.700 C 145.500 88.800 145.600 88.700 145.500 88.700 H 142.600 Z" stroke="rgb(0,0,255)" stroke-width="0.20" />
  <path d="M 154.600 88.700 H 151.700 C 151.600 88.700 151.700 88.800 151.700 88.700 V 85.900 C 151.700 85.800 151.600 85.900 151.700 85.900 H 157.500 C 157.600 85.900 157.500 85.800 157.500 85.900 V 88.700 C 157.500 88.800 157.600 88.700 157.500 88.700 H 154.600 Z" stroke="rgb(0,0,255)" stroke-width="0.20" />
  <path d="M 166.600 88.700 H 163.700 C 163.600 88.700 163.700 88.800 163.700 88.700 V 85.900 C 163.700 85.800 163.600 85.900 163.700 85.900 H 169.500 C 169.600 85.900 169.500 85.800 169.500 85.900 V 88.700 C 169.500 88.800 169.600 88.700 169.500 88.700 H 166.600 Z" stroke="rgb(0,0,255)" stroke-width="0.20" />
  <path d="M 178.600 88.700 H 175.700 C 175.600 88.700 175.700 88.800 175.700 88.700 V 85.900 C 175.700 85.800 175.600 85.900 175.700 85.900 H 181.500 C 181.600 85.900 181.500 85.800 181.500 85.900 V 88.700 C 181.500 88.800 181.600 88.700 181.500 88.700 H 178.600 Z" stroke="rgb(0,0,255)" stroke-width="0.20" />
  <path d="M 190.600 88.700 H 187.700 C 187.600 88.700 187.700 88.800 187.700 88.700 V 85.900 C 187.700 85.800 187.600 85.900 187.700 85.900 H 193.500 C 193.600 85.900 193.500 85.800 193.500 85.900 V 88.700 C 193.500 88.800 193.600 88.700 193.500 88.700 H 190.600 Z" stroke="rgb(0,0,255)" stroke-width="0.20" />
  <path d="M 202.600 88.700 H 199.700 C 199.600 88.700 199.700 88.800 199.700 88.700 V 85.900 C 199.700 85.800 199.600 85.900 199.700 85.900 H 205.500 C 205.600 85.900 205.500 85.800 205.500 85.900 V 88.700 C 205.500 88.800 205.600 88.700 205.500 88.700 H 202.600 Z" stroke="rgb(0,0,255)" stroke-width="0.20" />
  <path d="M 214.600 88.700 H 211.700 C 211.600 88.700 211.700 88.800 211.700 88.700 V 85.900 C 211.700 85.800 211.600 85.900 211.700 85.900 H 217.500 C 217.600 85.900 217.500 85.800 217.500 85.900 V 88.700 C 217.500 88.800 217.600 88.700 217.500 88.700 H 214.600 Z" stroke="rgb(0,0,255)" stroke-width="0.20" />
  <path d="M 226.600 88.700 H 223.700 C 223.600 88.700 223.700 88.800 223.700 88.700 V 85.900 C 223.700 85.800 223.600 85.900 223.700 85.900 H 229.500 C 229.600 85.900 229.500 85.800 229.500 85.900 V 88.700 C 229.500 88.800 229.600 88.700 229.500 88.700 H 226.600 Z" stroke="rgb(0,0,255)" stroke-width="0.20" />
  <path d="M 238.600 88.700 H 235.700 C 235.600 88.700 235.700 88.800 235.700 88.700 V 85.900 C 235.700 85.800 235.600 85.900 235.700 85.900 H 241.500 C 241.600 85.900 241.500 85.800 241.500 85.900 V 88.700 C 241.500 88.800 241.600 88.700 241.500 88.700 H 238.600 Z" stroke="rgb(0,0,255)" stroke-width="0.20" />
  <path d="M 250.600 88.700 H 247.700 C 247.600 88.700 247.700 88.800 247.700 88.700 V 85.900 C 247.700 85.800 247.600 85.900 247.700 85.900 H 253.500 C 253.600 85.900 253.500 85.800 253.500 85.900 V 88.700 C 253.500 88.800 253.600 88.700 253.500 88.700 H 250.600 Z" stroke="rgb(0,0,255)" stroke-width="0.20" />
  <path d="M 262.600 88.700 H 259.700 C 259.600 88.700 259.700 88.800 259.700 88.700 V 85.900 C 259.700 85.800 259.600 85.900 259.700 85.900 H 265.500 C 265.600 85.900 265.500 85.800 265.500 85.900 V 88.700 C 265.500 88.800 265.600 88.700 265.500 88.700 H 262.600 Z" stroke="rgb(0,0,255)" stroke-width="0.20" />
  <text dominant-baseline="hanging" font-size="4px" style="font-family: sans-serif ; font-weight: normal; font-style: normal; fill: rgb(255,0,0)" text-anchor="middle" transform="matrix( 1.000 0.000 0.000 1.000 142.600 69.900 )">1</text><path d="M 13.100 91.900 H 272.100 H 275.100 C 275.155 91.900 275.200 91.855 275.200 91.800 V 80.800 C 275.200 80.745 275.155 80.700 275.100 80.700 H 272.200 C 272.100 80.700 272.200 80.800 272.200 80.700 V 74.900 C 272.200 74.800 272.100 74.900 272.200 74.900 H 275.100 C 275.155 74.900 275.200 74.855 275.200 74.800 V 68.800 C 275.200 68.745 275.155 68.700 275.100 68.700 H 272.200 C 272.100 68.700 272.200 68.800 272.200 68.700 V 62.900 C 272.200 62.800 272.100 62.900 272.200 62.900 H 275.100 C 275.155 62.900 275.200 62.855 275.200 62.800 V 51.800 C 275.200 51.745 275.155 51.700 275.100 51.700 H 272.100 H 13.100 H 10.100 C 10.045 51.700 10.000 51.745 10.000 51.800 V 62.800 C 10.000 62.855 10.045 62.900 10.100 62.900 H 13.000 C 13.100 62.900 13.000 62.800 13.000 62.900 V 68.700 C 13.000 68.800 13.100 68.700 13.000 68.700 H 10.100 C 10.045 68.700 10.000 68.745 10.000 68.800 V 74.800 C 10.000 74.855 10.045 74.900 10.100 74.900 H 13.000 C 13.100 74.900 13.000 74.800 13.000 74.900 V 80.700 C 13.000 80.800 13.100 80.700 13.000 80.700 H 10.100 C 10.045 80.700 10.000 80.745 10.000 80.800 V 91.800 C 10.000 91.855 10.045 91.900 10.100 91.900 H 13.100" stroke="rgb(0,0,0)" stroke-width="0.20" />
</g>
<g id="p-5" style="fill:none;stroke-linecap:round;stroke-linejoin:round;">
  <path d="M 22.600 47.000 H 19.700 C 19.600 47.000 19.700 47.100 19.700 47.000 V 44.200 C 19.700 44.100 19.600 44.200 19.700 44.200 H 25.500 C 25.600 44.200 25.500 44.100 25.500 44.200 V 47.000 C 25.500 47.100 25.600 47.000 25.500 47.000 H 22.600 Z" stroke="rgb(0,0,255)" stroke-width="0.20" />
  <path d="M 34.600 47.000 H 31.700 C 31.600 47.000 31.700 47.100 31.700 47.000 V 44.200 C 31.700 44.100 31.600 44.200 31.700 44.200 H 37.500 C 37.600 44.200 37.500 44.100 37.500 44.200 V 47.000 C 37.500 47.100 37.600 47.000 37.500 47.000 H 34.600 Z" stroke="rgb(0,0,255)" stroke-width="0.20" />
  <path d="M 46.600 47.000 H 43.700 C 43.600 47.000 43.700 47.100 43.700 47.000 V 44.200 C 43.700 44.100 43.600 44.200 43.700 44.200 H 49.500 C 49.600 44.200 49.500 44.100 49.500 44.200 V 47.000 C 49.500 47.100 49.600 47.000 49.500 47.000 H 46.600 Z" stroke="rgb(0,0,255)" stroke-width="0.20" />
  <path d="M 58.600 47.000 H 55.700 C 55.600 47.000 55.700 47.100 55.700 47.000 V 44.200 C 55.700 44.100 55.600 44.200 55.700 44.200 H 61.500 C 61.600 44.200 61.500 44.100 61.500 44.200 V 47.000 C 61.500 47.100 61.600 47.000 61.500 47.000 H 58.600 Z" stroke="rgb(0,0,255)" stroke-width="0.20" />
  <path d="M 70.600 47.000 H 67.700 C 67.600 47.000 67.700 47.100 67.700 47.000 V 44.200 C 67.700 44.100 67.600 44.200 67.700 44.200 H 73.500 C 73.600 44.200 73.500 44.100 73.500 44.200 V 47.000 C 73.500 47.100 73.600 47.000 73.500 47.000 H 70.600 Z" stroke="rgb(0,0,255)" stroke-width="0.20" />
  <path d="M 82.600 47.000 H 79.700 C 79.600 47.000 79.700 47.100 79.700 47.000 V 44.200 C 79.700 44.100 79.600 44.200 79.700 44.200 H 85.500 C 85.600 44.200 85.500 44.100 85.500 44.200 V 47.000 C 85.500 47.100 85.600 47.000 85.500 47.000 H 82.600 Z" stroke="rgb(0,0,255)" stroke-width="0.20" />
  <path d="M 94.600 47.000 H 91.700 C 91.600 47.000 91.700 47.100 91.700 47.000 V 44.200 C 91.700 44.100 91.600 44.200 91.700 44.200 H 97.500 C 97.600 44.200 97.500 44.100 97.500 44.200 V 47.000 C 97.500 47.100 97.600 47.000 97.500 47.000 H 94.600 Z" stroke="rgb(0,0,255)" stroke-width="0.20" />
  <path d="M 106.600 47.000 H 103.700 C 103.600 47.000 103.700 47.100 103.700 47.000 V 44.200 C 103.700 44.100 103.600 44.200 103.700 44.200 H 109.500 C 109.600 44.200 109.500 44.100 109.500 44.200 V 47.000 C 109.500 47.100 109.600 47.000 109.500 47.000 H 106.600 Z" stroke="rgb(0,0,255)" stroke-width="0.20" />
  <path d="M 118.600 47.000 H 115.700 C 115.600 47.000 115.700 47.100 115.700 47.000 V 44.200 C 115.700 44.100 115.600 44.200 115.700 44.200 H 121.500 C 121.600 44.200 121.500 44.100 121.500 44.200 V 47.000 C 121.500 47.100 121.600 47.000 121.500 47.000 H 118.600 Z" stroke="rgb(0,0,255)" stroke-width="0.20" />
  <path d="M 130.600 47.000 H 127.700 C 127.600 47.000 127.700 47.100 127.700 47.000 V 44.200 C 127.700 44.100 127.600 44.200 127.700 44.200 H 133.500 C 133.600 44.200 133.500 44.100 133.500 44.200 V 47.000 C 133.500 47.100 133.600 47.000 133.500 47.000 H 130.600 Z" stroke="rgb(0,0,255)" stroke-width="0.20" />
  <path d="M 142.600 47.000 H 139.700 C 139.600 47.000 139.700 47.100 139.700 47.000 V 44.200 C 139.700 44.100 139.600 44.200 139.700 44.200 H 145.500 C 145.600 44.200 145.500 44.100 145.500 44.200 V 47.000 C 145.500 47.100 145.600 47.000 145.500 47.000 H 142.600 Z" stroke="rgb(0,0,255)" stroke-width="0.20" />
  <path d="M 154.600 47.000 H 151.700 C 151.600 47.000 151.700 47.100 151.700 47.000 V 44.200 C 151.700 44.100 151.600 44.200 151.700 44.200 H 157.500 C 157.600 44.200 157.500 44.100 157.500 44.200 V 47.000 C 157.500 47.100 157.600 47.000 157.500 47.000 H 154.600 Z" stroke="rgb(0,0,255)" stroke-width="0.20" />
  <path d="M 166.600 47.000 H 163.700 C 163.600 47.000 163.700 47.100 163.700 47.000 V 44.200 C 163.700 44.100 163.600 44.200 163.700 44.200 H 169.500 C 169.600 44.200 169.500 44.100 169.500 44.200 V 47.000 C 169.500 47.100 169.600 47.000 169.500 47.000 H 166.600 Z" stroke="rgb(0,0,255)" stroke-width="0.20" />
  <path d="M 178.600 47.000 H 175.700 C 175.600 47.000 175.700 47.100 175.700 47.000 V 44.200 C 175.700 44.100 175.600 44.200 175.700 44.200 H 181.500 C 181.600 44.200 181.500 44.100 181.500 44.200 V 47.000 C 181.500 47.100 181.600 47.000 181.500 47.000 H 178.600 Z" stroke="rgb(0,0,255)" stroke-width="0.20" />
  <path d="M 190.600 47.000 H 187.700 C 187.600 47.000 187.700 47.100 187.700 47.000 V 44.200 C 187.700 44.100 187.600 44.200 187.700 44.200 H 193.500 C 193.600 44.200 193.500 44.100 193.500 44.200 V 47.000 C 193.500 47.100 193.600 47.000 193.500 47.000 H 190.600 Z" stroke="rgb(0,0,255)" stroke-width="0.20" />
  <path d="M 202.600 47.000 H 199.700 C 199.600 47.000 199.700 47.100 199.700 47.000 V 44.200 C 199.700 44.100 199.600 44.200 199.700 44.200 H 205.500 C 205.600 44.200 205.500 44.100 205.500 44.200 V 47.000 C 205.500 47.100 205.600 47.000 205.500 47.000 H 202.600 Z" stroke="rgb(0,0,255)" stroke-width="0.20" />
  <path d="M 214.600 47.000 H 211.700 C 211.600 47.000 211.700 47.100 211.700 47.000 V 44.200 C 211.700 44.100 211.600 44.200 211.700 44.200 H 217.500 C 217.600 44.200 217.500 44.100 217.500 44.200 V 47.000 C 217.500 47.100 217.600 47.000 217.500 47.000 H 214.600 Z" stroke="rgb(0,0,255)" stroke-width="0.20" />
  <path d="M 226.600 47.000 H 223.700 C 223.600 47.000 223.700 47.100 223.700 47.000 V 44.200 C 223.700 44.100 223.600 44.200 223.700 44.200 H 229.500 C 229.600 44.200 229.500 44.100 229.500 44.200 V 47.000 C 229.500 47.100 229.600 47.000 229.500 47.000 H 226.600 Z" stroke="rgb(0,0,255)" stroke-width="0.20" />
  <path d="M 238.600 47.000 H 235.700 C 235.600 47.000 235.700 47.100 235.700 47.000 V 44.200 C 235.700 44.100 235.600 44.200 235.700 44.200 H 241.500 C 241.600 44.200 241.500 44.100 241.500 44.200 V 47.000 C 241.500 47.100 241.600 47.000 241.500 47.000 H 238.600 Z" stroke="rgb(0,0,255)" stroke-width="0.20" />
  <path d="M 250.600 47.000 H 247.700 C 247.600 47.000 247.700 47.100 247.700 47.000 V 44.200 C 247.700 44.100 247.600 44.200 247.700 44.200 H 253.500 C 253.600 44.200 253.500 44.100 253.500 44.200 V 47.000 C 253.500 47.100 253.600 47.000 253.500 47.000 H 250.600 Z" stroke="rgb(0,0,255)" stroke-width="0.20" />
  <path d="M 262.600 47.000 H 259.700 C 259.600 47.000 259.700 47.100 259.700 47.000 V 44.200 C 259.700 44.100 259.600 44.200 259.700 44.200 H 265.500 C 265.600 44.200 265.500 44.100 265.500 44.200 V 47.000 C 265.500 47.100 265.600 47.000 265.500 47.000 H 262.600 Z" stroke="rgb(0,0,255)" stroke-width="0.20" />
  <text dominant-baseline="hanging" font-size="4px" style="font-family: sans-serif ; font-weight: normal; font-style: normal; fill: rgb(255,0,0)" text-anchor="middle" transform="matrix( 1.000 0.000 0.000 1.000 142.600 28.200 )">2</text><path d="M 13.100 50.200 H 272.100 H 275.100 C 275.155 50.200 275.200 50.155 275.200 50.100 V 39.100 C 275.200 39.045 275.155 39.000 275.100 39.000 H 272.200 C 272.100 39.000 272.200 39.100 272.200 39.000 V 33.200 C 272.200 33.100 272.100 33.200 272.200 33.200 H 275.100 C 275.155 33.200 275.200 33.155 275.200 33.100 V 27.100 C 275.200 27.045 275.155 27.000 275.100 27.000 H 272.200 C 272.100 27.000 272.200 27.100 272.200 27.000 V 21.200 C 272.200 21.100 272.100 21.200 272.200 21.200 H 275.100 C 275.155 21.200 275.200 21.155 275.200 21.100 V 10.100 C 275.200 10.045 275.155 10.000 275.100 10.000 H 272.100 H 13.100 H 10.100 C 10.045 10.000 10.000 10.045 10.000 10.100 V 21.100 C 10.000 21.155 10.045 21.200 10.100 21.200 H 13.000 C 13.100 21.200 13.000 21.100 13.000 21.200 V 27.000 C 13.000 27.100 13.100 27.000 13.000 27.000 H 10.100 C 10.045 27.000 10.000 27.045 10.000 27.100 V 33.100 C 10.000 33.155 10.045 33.200 10.100 33.200 H 13.000 C 13.100 33.200 13.000 33.100 13.000 33.200 V 39.000 C 13.000 39.100 13.100 39.000 13.000 39.000 H 10.100 C 10.045 39.000 10.000 39.045 10.000 39.100 V 50.100 C 10.000 50.155 10.045 50.200 10.100 50.200 H 13.100" stroke="rgb(0,0,0)" stroke-width="0.20" />
</g>
<g id="p-6" style="fill:none;stroke-linecap:round;stroke-linejoin:round;">
  <text dominant-baseline="hanging" font-size="4px" style="font-family: sans-serif ; font-weight: normal; font-style: normal; fill: rgb(255,0,0)" text-anchor="middle" transform="matrix( 1.000 0.000 0.000 1.000 409.300 275.000 )">3</text><path d="M 279.800 374.000 H 286.200 C 286.300 374.000 286.200 373.900 286.200 374.000 V 376.900 C 286.200 376.955 286.245 377.000 286.300 377.000 H 292.300 C 292.355 377.000 292.400 376.955 292.400 376.900 V 374.000 C 292.400 373.900 292.300 374.000 292.400 374.000 H 298.200 C 298.300 374.000 298.200 373.900 298.200 374.000 V 376.900 C 298.200 376.955 298.245 377.000 298.300 377.000 H 304.300 C 304.355 377.000 304.400 376.955 304.400 376.900 V 374.000 C 304.400 373.900 304.300 374.000 304.400 374.000 H 310.200 C 310.300 374.000 310.200 373.900 310.200 374.000 V 376.900 C 310.200 376.955 310.245 377.000 310.300 377.000 H 316.300 C 316.355 377.000 316.400 376.955 316.400 376.900 V 374.000 C 316.400 373.900 316.300 374.000 316.400 374.000 H 322.200 C 322.300 374.000 322.200 373.900 322.200 374.000 V 376.900 C 322.200 376.955 322.245 377.000 322.300 377.000 H 328.300 C 328.355 377.000 328.400 376.955 328.400 376.900 V 374.000 C 328.400 373.900 328.300 374.000 328.400 374.000 H 334.200 C 334.300 374.000 334.200 373.900 334.200 374.000 V 376.900 C 334.200 376.955 334.245 377.000 334.300 377.000 H 340.300 C 340.355 377.000 340.400 376.955 340.400 376.900 V 374.000 C 340.400 373.900 340.300 374.000 340.400 374.000 H 346.200 C 346.300 374.000 346.200 373.900 346.200 374.000 V 376.900 C 346.200 376.955 346.245 377.000 346.300 377.000 H 352.300 C 352.355 377.000 352.400 376.955 352.400 376.900 V 374.000 C 352.400 373.900 352.300 374.000 352.400 374.000 H 358.200 C 358.300 374.000 358.200 373.900 358.200 374.000 V 376.900 C 358.200 376.955 358.245 377.000 358.300 377.000 H 364.300 C 364.355 377.000 364.400 376.955 364.400 376.900 V 374.000 C 364.400 373.900 364.300 374.000 364.400 374.000 H 370.200 C 370.300 374.000 370.200 373.900 370.200 374.000 V 376.900 C 370.200 376.955 370.245 377.000 370.300 377.000 H 376.300 C 376.355 377.000 376.400 376.955 376.400 376.900 V 374.000 C 376.400 373.900 376.300 374.000 376.400 374.000 H 382.200 C 382.300 374.000 382.200 373.900 382.200 374.000 V 376.900 C 382.200 376.955 382.245 377.000 382.300 377.000 H 388.300 C 388.355 377.000 388.400 376.955 388.400 376.900 V 374.000 C 388.400 373.900 388.300 374.000 388.400 374.000 H 394.200 C 394.300 374.000 394.200 373.900 394.200 374.000 V 376.900 C 394.200 376.955 394.245 377.000 394.300 377.000 H 400.300 C 400.355 377.000 400.400 376.955 400.400 376.900 V 374.000 C 400.400 373.900 400.300 374.000 400.400 374.000 H 406.200 C 406.300 374.000 406.200 373.900 406.200 374.000 V 376.900 C 406.200 376.955 406.245 377.000 406.300 377.000 H 412.300 C 412.355 377.000 412.400 376.955 412.400 376.900 V 374.000 C 412.400 373.900 412.300 374.000 412.400 374.000 H 418.200 C 418.300 374.000 418.200 373.900 418.200 374.000 V 376.900 C 418.200 376.955 418.245 377.000 418.300 377.000 H 424.300 C 424.355 377.000 424.400 376.955 424.400 376.900 V 374.000 C 424.400 373.900 424.300 374.000 424.400 374.000 H 430.200 C 430.300 374.000 430.200 373.900 430.200 374.000 V 376.900 C 430.200 376.955 430.245 377.000 430.300 377.000 H 436.300 C 436.355 377.000 436.400 376.955 436.400 376.900 V 374.000 C 436.400 373.900 436.300 374.000 436.400 374.000 H 442.200 C 442.300 374.000 442.200 373.900 442.200 374.000 V 376.900 C 442.200 376.955 442.245 377.000 442.300 377.000 H 448.300 C 448.355 377.000 448.400 376.955 448.400 376.900 V 374.000 C 448.400 373.900 448.300 374.000 448.400 374.000 H 454.200 C 454.300 374.000 454.200 373.900 454.200 374.000 V 376.900 C 454.200 376.955 454.245 377.000 454.300 377.000 H 460.300 C 460.355 377.000 460.400 376.955 460.400 376.900 V 374.000 C 460.400 373.900 460.300 374.000 460.400 374.000 H 466.200 C 466.300 374.000 466.200 373.900 466.200 374.000 V 376.900 C 466.200 376.955 466.245 377.000 466.300 377.000 H 472.300 C 472.355 377.000 472.400 376.955 472.400 376.900 V 374.000 C 472.400 373.900 472.300 374.000 472.400 374.000 H 478.200 C 478.300 374.000 478.200 373.900 478.200 374.000 V 376.900 C 478.200 376.955 478.245 377.000 478.300 377.000 H 484.300 C 484.355 377.000 484.400 376.955 484.400 376.900 V 374.000 C 484.400 373.900 484.300 374.000 484.400 374.000 H 490.200 C 490.300 374.000 490.200 373.900 490.200 374.000 V 376.900 C 490.200 376.955 490.245 377.000 490.300 377.000 H 496.300 C 496.355 377.000 496.400 376.955 496.400 376.900 V 374.000 C 496.400 373.900 496.300 374.000 496.400 374.000 H 502.200 C 502.300 374.000 502.200 373.900 502.200 374.000 V 376.900 C 502.200 376.955 502.245 377.000 502.300 377.000 H 508.300 C 508.355 377.000 508.400 376.955 508.400 376.900 V 374.000 C 508.400 373.900 508.300 374.000 508.400 374.000 H 514.200 C 514.300 374.000 514.200 373.900 514.200 374.000 V 376.900 C 514.200 376.955 514.245 377.000 514.300 377.000 H 520.300 C 520.355 377.000 520.400 376.955 520.400 376.900 V 374.000 C 520.400 373.900 520.300 374.000 520.400 374.000 H 526.200 C 526.300 374.000 526.200 373.900 526.200 374.000 V 376.900 C 526.200 376.955 526.245 377.000 526.300 377.000 H 532.300 C 532.355 377.000 532.400 376.955 532.400 376.900 V 374.000 C 532.400 373.900 532.300 374.000 532.400 374.000 H 538.800 C 538.855 374.000 538.900 373.955 538.900 373.900 V 364.000 C 538.900 363.900 538.800 364.000 538.900 364.000 H 541.800 C 541.855 364.000 541.900 363.955 541.900 363.900 V 357.900 C 541.900 357.845 541.855 357.800 541.800 357.800 H 538.900 C 538.800 357.800 538.900 357.900 538.900 357.800 V 352.000 C 538.900 351.900 538.800 352.000 538.900 352.000 H 541.800 C 541.855 352.000 541.900 351.955 541.900 351.900 V 345.900 C 541.900 345.845 541.855 345.800 541.800 345.800 H 538.900 C 538.800 345.800 538.900 345.900 538.900 345.800 V 340.000 C 538.900 339.900 538.800 340.000 538.900 340.000 H 541.800 C 541.855 340.000 541.900 339.955 541.900 339.900 V 333.900 C 541.900 333.845 541.855 333.800 541.800 333.800 H 538.900 C 538.800 333.800 538.900 333.900 538.900 333.800 V 328.000 C 538.900 327.900 538.800 328.000 538.900 328.000 H 541.800 C 541.855 328.000 541.900 327.955 541.900 327.900 V 321.900 C 541.900 321.845 541.855 321.800 541.800 321.800 H 538.900 C 538.800 321.800 538.900 321.900 538.900 321.800 V 316.000 C 538.900 315.900 538.800 316.000 538.900 316.000 H 541.800 C 541.855 316.000 541.900 315.955 541.900 315.900 V 309.900 C 541.900 309.845 541.855 309.800 541.800 309.800 H 538.900 C 538.800 309.800 538.900 309.900 538.900 309.800 V 304.000 C 538.900 303.900 538.800 304.000 538.900 304.000 H 541.800 C 541.855 304.000 541.900 303.955 541.900 303.900 V 297.900 C 541.900 297.845 541.855 297.800 541.800 297.800 H 538.900 C 538.800 297.800 538.900 297.900 538.900 297.800 V 292.000 C 538.900 291.900 538.800 292.000 538.900 292.000 H 541.800 C 541.855 292.000 541.900 291.955 541.900 291.900 V 285.900 C 541.900 285.845 541.855 285.800 541.800 285.800 H 538.900 C 538.800 285.800 538.900 285.900 538.900 285.800 V 280.000 C 538.900 279.900 538.800 280.000 538.900 280.000 H 541.800 C 541.855 280.000 541.900 279.955 541.900 279.900 V 273.900 C 541.900 273.845 541.855 273.800 541.800 273.800 H 538.900 C 538.800 273.800 538.900 273.900 538.900 273.800 V 268.000 C 538.900 267.900 538.800 268.000 538.900 268.000 H 541.800 C 541.855 268.000 541.900 267.955 541.900 267.900 V 261.900 C 541.900 261.845 541.855 261.800 541.800 261.800 H 538.900 C 538.800 261.800 538.900 261.900 538.900 261.800 V 256.000 C 538.900 255.900 538.800 256.000 538.900 256.000 H 541.800 C 541.855 256.000 541.900 255.955 541.900 255.900 V 249.900 C 541.900 249.845 541.855 249.800 541.800 249.800 H 538.900 C 538.800 249.800 538.900 249.900 538.900 249.800 V 244.000 C 538.900 243.900 538.800 244.000 538.900 244.000 H 541.800 C 541.855 244.000 541.900 243.955 541.900 243.900 V 237.900 C 541.900 237.845 541.855 237.800 541.800 237.800 H 538.900 C 538.800 237.800 538.900 237.900 538.900 237.800 V 232.000 C 538.900 231.900 538.800 232.000 538.900 232.000 H 541.800 C 541.855 232.000 541.900 231.955 541.900 231.900 V 225.900 C 541.900 225.845 541.855 225.800 541.800 225.800 H 538.900 C 538.800 225.800 538.900 225.900 538.900 225.800 V 220.000 C 538.900 219.900 538.800 220.000 538.900 220.000 H 541.800 C 541.855 220.000 541.900 219.955 541.900 219.900 V 213.900 C 541.900 213.845 541.855 213.800 541.800 213.800 H 538.900 C 538.800 213.800 538.900 213.900 538.900 213.800 V 208.000 C 538.900 207.900 538.800 208.000 538.900 208.000 H 541.800 C 541.855 208.000 541.900 207.955 541.900 207.900 V 201.900 C 541.900 201.845 541.855 201.800 541.800 201.800 H 538.900 C 538.800 201.800 538.900 201.900 538.900 201.800 V 196.000 C 538.900 195.900 538.800 196.000 538.900 196.000 H 541.800 C 541.855 196.000 541.900 195.955 541.900 195.900 V 189.900 C 541.900 189.845 541.855 189.800 541.800 189.800 H 538.900 C 538.800 189.800 538.900 189.900 538.900 189.800 V 179.900 C 538.900 179.845 538.855 179.800 538.800 179.800 H 532.400 C 532.300 179.800 532.400 179.900 532.400 179.800 V 176.900 C 532.400 176.845 532.355 176.800 532.300 176.800 H 526.300 C 526.245 176.800 526.200 176.845 526.200 176.900 V 179.800 C 526.200 179.900 526.300 179.800 526.200 179.800 H 520.400 C 520.300 179.800 520.400 179.900 520.400 179.800 V 176.900 C 520.400 176.845 520.355 176.800 520.300 176.800 H 514.300 C 514.245 176.800 514.200 176.845 514.200 176.900 V 179.800 C 514.200 179.900 514.300 179.800 514.200 179.800 H 508.400 C 508.300 179.800 508.400 179.900 508.400 179.800 V 176.900 C 508.400 176.845 508.355 176.800 508.300 176.800 H 502.300 C 502.245 176.800 502.200 176.845 502.200 176.900 V 179.800 C 502.200 179.900 502.300 179.800 502.200 179.800 H 496.400 C 496.300 179.800 496.400 179.900 496.400 179.800 V 176.900 C 496.400 176.845 496.355 176.800 496.300 176.800 H 490.300 C 490.245 176.800 490.200 176.845 490.200 176.900 V 179.800 C 490.200 179.900 490.300 179.800 490.200 179.800 H 484.400 C 484.300 179.800 484.400 179.900 484.400 179.800 V 176.900 C 484.400 176.845 484.355 176.800 484.300 176.800 H 478.300 C 478.245 176.800 478.200 176.845 478.200 176.900 V 179.800 C 478.200 179.900 478.300 179.800 478.200 179.800 H 472.400 C 472.300 179.800 472.400 179.900 472.400 179.800 V 176.900 C 472.400 176.845 472.355 176.800 472.300 176.800 H 466.300 C 466.245 176.800 466.200 176.845 466.200 176.900 V 179.800 C 466.200 179.900 466.300 179.800 466.200 179.800 H 460.400 C 460.300 179.800 460.400 179.900 460.400 179.800 V 176.900 C 460.400 176.845 460.355 176.800 460.300 176.800 H 454.300 C 454.245 176.800 454.200 176.845 454.200 176.900 V 179.800 C 454.200 179.900 454.300 179.800 454.200 179.800 H 448.400 C 448.300 179.800 448.400 179.900 448.400 179.800 V 176.900 C 448.400 176.845 448.355 176.800 448.300 176.800 H 442.300 C 442.245 176.800 442.200 176.845 442.200 176.900 V 179.800 C 442.200 179.900 442.300 179.800 442.200 179.800 H 436.400 C 436.300 179.800 436.400 179.900 436.400 179.800 V 176.900 C 436.400 176.845 436.355 176.800 436.300 176.800 H 430.300 C 430.245 176.800 430.200 176.845 430.200 176.900 V 179.800 C 430.200 179.900 430.300 179.800 430.200 179.800 H 424.400 C 424.300 179.800 424.400 179.900 424.400 179.800 V 176.900 C 424.400 176.845 424.355 176.800 424.300 176.800 H 418.300 C 418.245 176.800 418.200 176.845 418.200 176.900 V 179.800 C 418.200 179.900 418.300 179.800 418.200 179.800 H 412.400 C 412.300 179.800 412.400 179.900 412.400 179.800 V 176.900 C 412.400 176.845 412.355 176.800 412.300 176.800 H 406.300 C 406.245 176.800 406.200 176.845 406.200 176.900 V 179.800 C 406.200 179.900 406.300 179.800 406.200 179.800 H 400.400 C 400.300 179.800 400.400 179.900 400.400 179.800 V 176.900 C 400.400 176.845 400.355 176.800 400.300 176.800 H 394.300 C 394.245 176.800 394.200 176.845 394.200 176.900 V 179.800 C 394.200 179.900 394.300 179.800 394.200 179.800 H 388.400 C 388.300 179.800 388.400 179.900 388.400 179.800 V 176.900 C 388.400 176.845 388.355 176.800 388.300 176.800 H 382.300 C 382.245 176.800 382.200 176.845 382.200 176.900 V 179.800 C 382.200 179.900 382.300 179.800 382.200 179.800 H 376.400 C 376.300 179.800 376.400 179.900 376.400 179.800 V 176.900 C 376.400 176.845 376.355 176.800 376.300 176.800 H 370.300 C 370.245 176.800 370.200 176.845 370.200 176.900 V 179.800 C 370.200 179.900 370.300 179.800 370.200 179.800 H 364.400 C 364.300 179.800 364.400 179.900 364.400 179.800 V 176.900 C 364.400 176.845 364.355 176.800 364.300 176.800 H 358.300 C 358.245 176.800 358.200 176.845 358.200 176.900 V 179.800 C 358.200 179.900 358.300 179.800 358.200 179.800 H 352.400 C 352.300 179.800 352.400 179.900 352.400 179.800 V 176.900 C 352.400 176.845 352.355 176.800 352.300 176.800 H 346.300 C 346.245 176.800 346.200 176.845 346.200 176.900 V 179.800 C 346.200 179.900 346.300 179.800 346.200 179.800 H 340.400 C 340.300 179.800 340.400 179.900 340.400 179.800 V 176.900 C 340.400 176.845 340.355 176.800 340.300 176.800 H 334.300 C 334.245 176.800 334.200 176.845 334.200 176.900 V 179.800 C 334.200 179.900 334.300 179.800 334.200 179.800 H 328.400 C 328.300 179.800 328.400 179.900 328.400 179.800 V 176.900 C 328.400 176.845 328.355 176.800 328.300 176.800 H 322.300 C 322.245 176.800 322.200 176.845 322.200 176.900 V 179.800 C 322.200 179.900 322.300 179.800 322.200 179.800 H 316.400 C 316.300 179.800 316.400 179.900 316.400 179.800 V 176.900 C 316.400 176.845 316.355 176.800 316.300 176.800 H 310.300 C 310.245 176.800 310.200 176.845 310.200 176.900 V 179.800 C 310.200 179.900 310.300 179.800 310.200 179.800 H 304.400 C 304.300 179.800 304.400 179.900 304.400 179.800 V 176.900 C 304.400 176.845 304.355 176.800 304.300 176.800 H 298.300 C 298.245 176.800 298.200 176.845 298.200 176.900 V 179.800 C 298.200 179.900 298.300 179.800 298.200 179.800 H 292.400 C 292.300 179.800 292.400 179.900 292.400 179.800 V 176.900 C 292.400 176.845 292.355 176.800 292.300 176.800 H 286.300 C 286.245 176.800 286.200 176.845 286.200 176.900 V 179.800 C 286.200 179.900 286.300 179.800 286.200 179.800 H 279.800 C 279.745 179.800 279.700 179.845 279.700 179.900 V 189.800 C 279.700 189.900 279.800 189.800 279.700 189.800 H 276.800 C 276.745 189.800 276.700 189.845 276.700 189.900 V 195.900 C 276.700 195.955 276.745 196.000 276.800 196.000 H 279.700 C 279.800 196.000 279.700 195.900 279.700 196.000 V 201.800 C 279.700 201.900 279.800 201.800 279.700 201.800 H 276.800 C 276.745 201.800 276.700 201.845 276.700 201.900 V 207.900 C 276.700 207.955 276.745 208.000 276.800 208.000 H 279.700 C 279.800 208.000 279.700 207.900 279.700 208.000 V 213.800 C 279.700 213.900 279.800 213.800 279.700 213.800 H 276.800 C 276.745 213.800 276.700 213.845 276.700 213.900 V 219.900 C 276.700 219.955 276.745 220.000 276.800 220.000 H 279.700 C 279.800 220.000 279.700 219.900 279.700 220.000 V 225.800 C 279.700 225.900 279.800 225.800 279.700 225.800 H 276.800 C 276.745 225.800 276.700 225.845 276.700 225.900 V 231.900 C 276.700 231.955 276.745 232.000 276.800 232.000 H 279.700 C 279.800 232.000 279.700 231.900 279.700 232.000 V 237.800 C 279.700 237.900 279.800 237.800 279.700 237.800 H 276.800 C 276.745 237.800 276.700 237.845 276.700 237.900 V 243.900 C 276.700 243.955 276.745 244.000 276.800 244.000 H 279.700 C 279.800 244.000 279.700 243.900 279.700 244.000 V 249.800 C 279.700 249.900 279.800 249.800 279.700 249.800 H 276.800 C 276.745 249.800 276.700 249.845 276.700 249.900 V 255.900 C 276.700 255.955 276.745 256.000 276.800 256.000 H 279.700 C 279.800 256.000 279.700 255.900 279.700 256.000 V 261.800 C 279.700 261.900 279.800 261.800 279.700 261.800 H 276.800 C 276.745 261.800 276.700 261.845 276.700 261.900 V 267.900 C 276.700 267.955 276.745 268.000 276.800 268.000 H 279.700 C 279.800 268.000 279.700 267.900 279.700 268.000 V 273.800 C 279.700 273.900 279.800 273.800 279.700 273.800 H 276.800 C 276.745 273.800 276.700 273.845 276.700 273.900 V 279.900 C 276.700 279.955 276.745 280.000 276.800 280.000 H 279.700 C 279.800 280.000 279.700 279.900 279.700 280.000 V 285.800 C 279.700 285.900 279.800 285.800 279.700 285.800 H 276.800 C 276.745 285.800 276.700 285.845 276.700 285.900 V 291.900 C 276.700 291.955 276.745 292.000 276.800 292.000 H 279.700 C 279.800 292.000 279.700 291.900 279.700 292.000 V 297.800 C 279.700 297.900 279.800 297.800 279.700 297.800 H 276.800 C 276.745 297.800 276.700 297.845 276.700 297.900 V 303.900 C 276.700 303.955 276.745 304.000 276.800 304.000 H 279.700 C 279.800 304.000 279.700 303.900 279.700 304.000 V 309.800 C 279.700 309.900 279.800 309.800 279.700 309.800 H 276.800 C 276.745 309.800 276.700 309.845 276.700 309.900 V 315.900 C 276.700 315.955 276.745 316.000 276.800 316.000 H 279.700 C 279.800 316.000 279.700 315.900 279.700 316.000 V 321.800 C 279.700 321.900 279.800 321.800 279.700 321.800 H 276.800 C 276.745 321.800 276.700 321.845 276.700 321.900 V 327.900 C 276.700 327.955 276.745 328.000 276.800 328.000 H 279.700 C 279.800 328.000 279.700 327.900 279.700 328.000 V 333.800 C 279.700 333.900 279.800 333.800 279.700 333.800 H 276.800 C 276.745 333.800 276.700 333.845 276.700 333.900 V 339.900 C 276.700 339.955 276.745 340.000 276.800 340.000 H 279.700 C 279.800 340.000 279.700 339.900 279.700 340.000 V 345.800 C 279.700 345.900 279.800 345.800 279.700 345.800 H 276.800 C 276.745 345.800 276.700 345.845 276.700 345.900 V 351.900 C 276.700 351.955 276.745 352.000 276.800 352.000 H 279.700 C 279.800 352.000 279.700 351.900 279.700 352.000 V 357.800 C 279.700 357.900 279.800 357.800 279.700 357.800 H 276.800 C 276.745 357.800 276.700 357.845 276.700 357.900 V 363.900 C 276.700 363.955 276.745 364.000 276.800 364.000 H 279.700 C 279.800 364.000 279.700 363.900 279.700 364.000 V 373.900 C 279.700 373.955 279.745 374.000 279.800 374.000" stroke="rgb(0,0,0)" stroke-width="0.20" />
</g>
<g id="p-7" style="fill:none;stroke-linecap:round;stroke-linejoin:round;">
  <path d="M 292.800 172.100 H 289.900 C 289.800 172.100 289.900 172.200 289.900 172.100 V 169.300 C 289.900 169.200 289.800 169.300 289.900 169.300 H 295.700 C 295.800 169.300 295.700 169.200 295.700 169.300 V 172.100 C 295.700 172.200 295.800 172.100 295.700 172.100 H 292.800 Z" stroke="rgb(0,0,255)" stroke-width="0.20" />
  <path d="M 304.800 172.100 H 301.900 C 301.800 172.100 301.900 172.200 301.900 172.100 V 169.300 C 301.900 169.200 301.800 169.300 301.900 169.300 H 307.700 C 307.800 169.300 307.700 169.200 307.700 169.300 V 172.100 C 307.700 172.200 307.800 172.100 307.700 172.100 H 304.800 Z" stroke="rgb(0,0,255)" stroke-width="0.20" />
  <path d="M 316.800 172.100 H 313.900 C 313.800 172.100 313.900 172.200 313.900 172.100 V 169.300 C 313.900 169.200 313.800 169.300 313.900 169.300 H 319.700 C 319.800 169.300 319.700 169.200 319.700 169.300 V 172.100 C 319.700 172.200 319.800 172.100 319.700 172.100 H 316.800 Z" stroke="rgb(0,0,255)" stroke-width="0.20" />
  <path d="M 328.800 172.100 H 325.900 C 325.800 172.100 325.900 172.200 325.900 172.100 V 169.300 C 325.900 169.200 325.800 169.300 325.900 169.300 H 331.700 C 331.800 169.300 331.700 169.200 331.700 169.300 V 172.100 C 331.700 172.200 331.800 172.100 331.700 172.100 H 328.800 Z" stroke="rgb(0,0,255)" stroke-width="0.20" />
  <path d="M 340.800 172.100 H 337.900 C 337.800 172.100 337.900 172.200 337.900 172.100 V 169.300 C 337.900 169.200 337.800 169.300 337.900 169.300 H 343.700 C 343.800 169.300 343.700 169.200 343.700 169.300 V 172.100 C 343.700 172.200 343.800 172.100 343.700 172.100 H 340.800 Z" stroke="rgb(0,0,255)" stroke-width="0.20" />
  <path d="M 352.800 172.100 H 349.900 C 349.800 172.100 349.900 172.200 349.900 172.100 V 169.300 C 349.900 169.200 349.800 169.300 349.900 169.300 H 355.700 C 355.800 169.300 355.700 169.200 355.700 169.300 V 172.100 C 355.700 172.200 355.800 172.100 355.700 172.100 H 352.800 Z" stroke="rgb(0,0,255)" stroke-width="0.20" />
  <path d="M 364.800 172.100 H 361.900 C 361.800 172.100 361.900 172.200 361.900 172.100 V 169.300 C 361.900 169.200 361.800 169.300 361.900 169.300 H 367.700 C 367.800 169.300 367.700 169.200 367.700 169.300 V 172.100 C 367.700 172.200 367.800 172.100 367.700 172.100 H 364.800 Z" stroke="rgb(0,0,255)" stroke-width="0.20" />
  <path d="M 376.800 172.100 H 373.900 C 373.800 172.100 373.900 172.200 373.900 172.100 V 169.300 C 373.900 169.200 373.800 169.300 373.900 169.300 H 379.700 C 379.800 169.300 379.700 169.200 379.700 169.300 V 172.100 C 379.700 172.200 379.800 172.100 379.700 172.100 H 376.800 Z" stroke="rgb(0,0,255)" stroke-width="0.20" />
  <path d="M 388.800 172.100 H 385.900 C 385.800 172.100 385.900 172.200 385.900 172.100 V 169.300 C 385.900 169.200 385.800 169.300 385.900 169.300 H 391.700 C 391.800 169.300 391.700 169.200 391.700 169.300 V 172.100 C 391.700 172.200 391.800 172.100 391.700 172.100 H 388.800 Z" stroke="rgb(0,0,255)" stroke-width="0.20" />
  <path d="M 400.800 172.100 H 397.900 C 397.800 172.100 397.900 172.200 397.900 172.100 V 169.300 C 397.900 169.200 397.800 169.300 397.900 169.300 H 403.700 C 403.800 169.300 403.700 169.200 403.700 169.300 V 172.100 C 403.700 172.200 403.800 172.100 403.700 172.100 H 400.800 Z" stroke="rgb(0,0,255)" stroke-width="0.20" />
  <path d="M 412.800 172.100 H 409.900 C 409.800 172.100 409.900 172.200 409.900 172.100 V 169.300 C 409.900 169.200 409.800 169.300 409.900 169.300 H 415.700 C 415.800 169.300 415.700 169.200 415.700 169.300 V 172.100 C 415.700 172.200 415.800 172.100 415.700 172.100 H 412.800 Z" stroke="rgb(0,0,255)" stroke-width="0.20" />
  <path d="M 424.800 172.100 H 421.900 C 421.800 172.100 421.900 172.200 421.900 172.100 V 169.300 C 421.900 169.200 421.800 169.300 421.900 169.300 H 427.700 C 427.800 169.300 427.700 169.200 427.700 169.300 V 172.100 C 427.700 172.200 427.800 172.100 427.700 172.100 H 424.800 Z" stroke="rgb(0,0,255)" stroke-width="0.20" />
  <path d="M 436.800 172.100 H 433.900 C 433.800 172.100 433.900 172.200 433.900 172.100 V 169.300 C 433.900 169.200 433.800 169.300 433.900 169.300 H 439.700 C 439.800 169.300 439.700 169.200 439.700 169.300 V 172.100 C 439.700 172.200 439.800 172.100 439.700 172.100 H 436.800 Z" stroke="rgb(0,0,255)" stroke-width="0.20" />
  <path d="M 448.800 172.100 H 445.900 C 445.800 172.100 445.900 172.200 445.900 172.100 V 169.300 C 445.900 169.200 445.800 169.300 445.900 169.300 H 451.700 C 451.800 169.300 451.700 169.200 451.700 169.300 V 172.100 C 451.700 172.200 451.800 172.100 451.700 172.100 H 448.800 Z" stroke="rgb(0,0,255)" stroke-width="0.20" />
  <path d="M 460.800 172.100 H 457.900 C 457.800 172.100 457.900 172.200 457.900 172.100 V 169.300 C 457.900 169.200 457.800 169.300 457.900 169.300 H 463.700 C 463.800 169.300 463.700 169.200 463.700 169.300 V 172.100 C 463.700 172.200 463.800 172.100 463.700 172.100 H 460.800 Z" stroke="rgb(0,0,255)" stroke-width="0.20" />
  <text dominant-baseline="hanging" font-size="4px" style="font-family: sans-serif ; font-weight: normal; font-style: normal; fill: rgb(255,0,0)" text-anchor="middle" transform="matrix( 1.000 0.000 0.000 1.000 376.800 158.300 )">4</text><path d="M 279.800 175.300 H 473.800 C 473.855 175.300 473.900 175.255 473.900 175.200 V 169.300 C 473.900 169.200 473.800 169.300 473.900 169.300 H 476.800 C 476.855 169.300 476.900 169.255 476.900 169.200 V 163.200 C 476.900 163.145 476.855 163.100 476.800 163.100 H 473.900 C 473.800 163.100 473.900 163.200 473.900 163.100 V 157.300 C 473.900 157.200 473.800 157.300 473.900 157.300 H 476.800 C 476.855 157.300 476.900 157.255 476.900 157.200 V 151.200 C 476.900 151.145 476.855 151.100 476.800 151.100 H 473.900 C 473.800 151.100 473.900 151.200 473.900 151.100 V 145.200 C 473.900 145.145 473.855 145.100 473.800 145.100 H 279.800 C 279.745 145.100 279.700 145.145 279.700 145.200 V 151.100 C 279.700 151.200 279.800 151.100 279.700 151.100 H 276.800 C 276.745 151.100 276.700 151.145 276.700 151.200 V 157.200 C 276.700 157.255 276.745 157.300 276.800 157.300 H 279.700 C 279.800 157.300 279.700 157.200 279.700 157.300 V 163.100 C 279.700 163.200 279.800 163.100 279.700 163.100 H 276.800 C 276.745 163.100 276.700 163.145 276.700 163.200 V 169.200 C 276.700 169.255 276.745 169.300 276.800 169.300 H 279.700 C 279.800 169.300 279.700 169.200 279.700 169.300 V 175.200 C 279.700 175.255 279.745 175.300 279.800 175.300" stroke="rgb(0,0,0)" stroke-width="0.20" />
</g>
<g id="p-8" style="fill:none;stroke-linecap:round;stroke-linejoin:round;">
  <path d="M 292.800 140.400 H 289.900 C 289.800 140.400 289.900 140.500 289.900 140.400 V 137.600 C 289.900 137.500 289.800 137.600 289.900 137.600 H 295.700 C 295.800 137.600 295.700 137.500 295.700 137.600 V 140.400 C 295.700 140.500 295.800 140.400 295.700 140.400 H 292.800 Z" stroke="rgb(0,0,255)" stroke-width="0.20" />
  <path d="M 304.800 140.400 H 301.900 C 301.800 140.400 301.900 140.500 301.900 140.400 V 137.600 C 301.900 137.500 301.800 137.600 301.900 137.600 H 307.700 C 307.800 137.600 307.700 137.500 307.700 137.600 V 140.400 C 307.700 140.500 307.800 140.400 307.700 140.400 H 304.800 Z" stroke="rgb(0,0,255)" stroke-width="0.20" />
  <path d="M 316.800 140.400 H 313.900 C 313.800 140.400 313.900 140.500 313.900 140.400 V 137.600 C 313.900 137.500 313.800 137.600 313.900 137.600 H 319.700 C 319.800 137.600 319.700 137.500 319.700 137.600 V 140.400 C 319.700 140.500 319.800 140.400 319.700 140.400 H 316.800 Z" stroke="rgb(0,0,255)" stroke-width="0.20" />
  <path d="M 328.800 140.400 H 325.900 C 325.800 140.400 325.900 140.500 325.900 140.400 V 137.600 C 325.900 137.500 325.800 137.600 325.900 137.600 H 331.700 C 331.800 137.600 331.700 137.500 331.700 137.600 V 140.400 C 331.700 140.500 331.800 140.400 331.700 140.400 H 328.800 Z" stroke="rgb(0,0,255)" stroke-width="0.20" />
  <path d="M 340.800 140.400 H 337.900 C 337.800 140.400 337.900 140.500 337.900 140.400 V 137.600 C 337.900 137.500 337.800 137.600 337.900 137.600 H 343.700 C 343.800 137.600 343.700 137.500 343.700 137.600 V 140.400 C 343.700 140.500 343.800 140.400 343.700 140.400 H 340.800 Z" stroke="rgb(0,0,255)" stroke-width="0.20" />
  <path d="M 352.800 140.400 H 349.900 C 349.800 140.400 349.900 140.500 349.900 140.400 V 137.600 C 349.900 137.500 349.800 137.600 349.900 137.600 H 355.700 C 355.800 137.600 355.700 137.500 355.700 137.600 V 140.400 C 355.700 140.500 355.800 140.400 355.700 140.400 H 352.800 Z" stroke="rgb(0,0,255)" stroke-width="0.20" />
  <path d="M 364.800 140.400 H 361.900 C 361.800 140.400 361.900 140.500 361.900 140.400 V 137.600 C 361.900 137.500 361.800 137.600 361.900 137.600 H 367.700 C 367.800 137.600 367.700 137.500 367.700 137.600 V 140.400 C 367.700 140.500 367.800 140.400 367.700 140.400 H 364.800 Z" stroke="rgb(0,0,255)" stroke-width="0.20" />
  <path d="M 376.800 140.400 H 373.900 C 373.800 140.400 373.900 140.500 373.900 140.400 V 137.600 C 373.900 137.500 373.800 137.600 373.900 137.600 H 379.700 C 379.800 137.600 379.700 137.500 379.700 137.600 V 140.400 C 379.700 140.500 379.800 140.400 379.700 140.400 H 376.800 Z" stroke="rgb(0,0,255)" stroke-width="0.20" />
  <path d="M 388.800 140.400 H 385.900 C 385.800 140.400 385.900 140.500 385.900 140.400 V 137.600 C 385.900 137.500 385.800 137.600 385.900 137.600 H 391.700 C 391.800 137.600 391.700 137.500 391.700 137.600 V 140.400 C 391.700 140.500 391.800 140.400 391.700 140.400 H 388.800 Z" stroke="rgb(0,0,255)" stroke-width="0.20" />
  <path d="M 400.800 140.400 H 397.900 C 397.800 140.400 397.900 140.500 397.900 140.400 V 137.600 C 397.900 137.500 397.800 137.600 397.900 137.600 H 403.700 C 403.800 137.600 403.700 137.500 403.700 137.600 V 140.400 C 403.700 140.500 403.800 140.400 403.700 140.400 H 400.800 Z" stroke="rgb(0,0,255)" stroke-width="0.20" />
  <path d="M 412.800 140.400 H 409.900 C 409.800 140.400 409.900 140.500 409.900 140.400 V 137.600 C 409.900 137.500 409.800 137.600 409.900 137.600 H 415.700 C 415.800 137.600 415.700 137.500 415.700 137.600 V 140.400 C 415.700 140.500 415.800 140.400 415.700 140.400 H 412.800 Z" stroke="rgb(0,0,255)" stroke-width="0.20" />
  <path d="M 424.800 140.400 H 421.900 C 421.800 140.400 421.900 140.500 421.900 140.400 V 137.600 C 421.900 137.500 421.800 137.600 421.900 137.600 H 427.700 C 427.800 137.600 427.700 137.500 427.700 137.600 V 140.400 C 427.700 140.500 427.800 140.400 427.700 140.400 H 424.800 Z" stroke="rgb(0,0,255)" stroke-width="0.20" />
  <path d="M 436.800 140.400 H 433.900 C 433.800 140.400 433.900 140.500 433.900 140.400 V 137.600 C 433.900 137.500 433.800 137.600 433.900 137.600 H 439.700 C 439.800 137.600 439.700 137.500 439.700 137.600 V 140.400 C 439.700 140.500 439.800 140.400 439.700 140.400 H 436.800 Z" stroke="rgb(0,0,255)" stroke-width="0.20" />
  <path d="M 448.800 140.400 H 445.900 C 445.800 140.400 445.900 140.500 445.900 140.400 V 137.600 C 445.900 137.500 445.800 137.600 445.900 137.600 H 451.700 C 451.800 137.600 451.700 137.500 451.700 137.600 V 140.400 C 451.700 140.500 451.800 140.400 451.700 140.400 H 448.800 Z" stroke="rgb(0,0,255)" stroke-width="0.20" />
  <path d="M 460.800 140.400 H 457.900 C 457.800 140.400 457.900 140.500 457.900 140.400 V 137.600 C 457.900 137.500 457.800 137.600 457.900 137.600 H 463.700 C 463.800 137.600 463.700 137.500 463.700 137.600 V 140.400 C 463.700 140.500 463.800 140.400 463.700 140.400 H 460.800 Z" stroke="rgb(0,0,255)" stroke-width="0.20" />
  <text dominant-baseline="hanging" font-size="4px" style="font-family: sans-serif ; font-weight: normal; font-style: normal; fill: rgb(255,0,0)" text-anchor="middle" transform="matrix( 1.000 0.000 0.000 1.000 376.800 126.600 )">5</text><path d="M 279.800 143.600 H 473.800 C 473.855 143.600 473.900 143.555 473.900 143.500 V 137.600 C 473.900 137.500 473.800 137.600 473.900 137.600 H 476.800 C 476.855 137.600 476.900 137.555 476.900 137.500 V 131.500 C 476.900 131.445 476.855 131.400 476.800 131.400 H 473.900 C 473.800 131.400 473.900 131.500 473.900 131.400 V 125.600 C 473.900 125.500 473.800 125.600 473.900 125.600 H 476.800 C 476.855 125.600 476.900 125.555 476.900 125.500 V 119.500 C 476.900 119.445 476.855 119.400 476.800 119.400 H 473.900 C 473.800 119.400 473.900 119.500 473.900 119.400 V 113.500 C 473.900 113.445 473.855 113.400 473.800 113.400 H 279.800 C 279.745 113.400 279.700 113.445 279.700 113.500 V 119.400 C 279.700 119.500 279.800 119.400 279.700 119.400 H 276.800 C 276.745 119.400 276.700 119.445 276.700 119.500 V 125.500 C 276.700 125.555 276.745 125.600 276.800 125.600 H 279.700 C 279.800 125.600 279.700 125.500 279.700 125.600 V 131.400 C 279.700 131.500 279.800 131.400 279.700 131.400 H 276.800 C 276.745 131.400 276.700 131.445 276.700 131.500 V 137.500 C 276.700 137.555 276.745 137.600 276.800 137.600 H 279.700 C 279.800 137.600 279.700 137.500 279.700 137.600 V 143.500 C 279.700 143.555 279.745 143.600 279.800 143.600" stroke="rgb(0,0,0)" stroke-width="0.20" />
</g>
<g id="p-9" style="fill:none;stroke-linecap:round;stroke-linejoin:round;">
  <path d="M 289.300 108.700 H 286.400 C 286.300 108.700 286.400 108.800 286.400 108.700 V 105.900 C 286.400 105.800 286.300 105.900 286.400 105.900 H 292.200 C 292.300 105.900 292.200 105.800 292.200 105.900 V 108.700 C 292.200 108.800 292.300 108.700 292.200 108.700 H 289.300 Z" stroke="rgb(0,0,255)" stroke-width="0.20" />
  <path d="M 301.300 108.700 H 298.400 C 298.300 108.700 298.400 108.800 298.400 108.700 V 105.900 C 298.400 105.800 298.300 105.900 298.400 105.900 H 304.200 C 304.300 105.900 304.200 105.800 304.200 105.900 V 108.700 C 304.200 108.800 304.300 108.700 304.200 108.700 H 301.300 Z" stroke="rgb(0,0,255)" stroke-width="0.20" />
  <path d="M 313.300 108.700 H 310.400 C 310.300 108.700 310.400 108.800 310.400 108.700 V 105.900 C 310.400 105.800 310.300 105.900 310.400 105.900 H 316.200 C 316.300 105.900 316.200 105.800 316.200 105.900 V 108.700 C 316.200 108.800 316.300 108.700 316.200 108.700 H 313.300 Z" stroke="rgb(0,0,255)" stroke-width="0.20" />
  <path d="M 325.300 108.700 H 322.400 C 322.300 108.700 322.400 108.800 322.400 108.700 V 105.900 C 322.400 105.800 322.300 105.900 322.400 105.900 H 328.200 C 328.300 105.900 328.200 105.800 328.200 105.900 V 108.700 C 328.200 108.800 328.300 108.700 328.200 108.700 H 325.300 Z" stroke="rgb(0,0,255)" stroke-width="0.20" />
  <path d="M 337.300 108.700 H 334.400 C 334.300 108.700 334.400 108.800 334.400 108.700 V 105.900 C 334.400 105.800 334.300 105.900 334.400 105.900 H 340.200 C 340.300 105.900 340.200 105.800 340.200 105.900 V 108.700 C 340.200 108.800 340.300 108.700 340.200 108.700 H 337.300 Z" stroke="rgb(0,0,255)" stroke-width="0.20" />
  <path d="M 349.300 108.700 H 346.400 C 346.300 108.700 346.400 108.800 346.400 108.700 V 105.900 C 346.400 105.800 346.300 105.900 346.400 105.900 H 352.200 C 352.300 105.900 352.200 105.800 352.200 105.900 V 108.700 C 352.200 108.800 352.300 108.700 352.200 108.700 H 349.300 Z" stroke="rgb(0,0,255)" stroke-width="0.20" />
  <path d="M 361.300 108.700 H 358.400 C 358.300 108.700 358.400 108.800 358.400 108.700 V 105.900 C 358.400 105.800 358.300 105.900 358.400 105.900 H 364.200 C 364.300 105.900 364.200 105.800 364.200 105.900 V 108.700 C 364.200 108.800 364.300 108.700 364.200 108.700 H 361.300 Z" stroke="rgb(0,0,255)" stroke-width="0.20" />
  <path d="M 373.300 108.700 H 370.400 C 370.300 108.700 370.400 108.800 370.400 108.700 V 105.900 C 370.400 105.800 370.300 105.900 370.400 105.900 H 376.200 C 376.300 105.900 376.200 105.800 376.200 105.900 V 108.700 C 376.200 108.800 376.300 108.700 376.200 108.700 H 373.300 Z" stroke="rgb(0,0,255)" stroke-width="0.20" />
  <path d="M 385.300 108.700 H 382.400 C 382.300 108.700 382.400 108.800 382.400 108.700 V 105.900 C 382.400 105.800 382.300 105.900 382.400 105.900 H 388.200 C 388.300 105.900 388.200 105.800 388.200 105.900 V 108.700 C 388.200 108.800 388.300 108.700 388.200 108.700 H 385.300 Z" stroke="rgb(0,0,255)" stroke-width="0.20" />
  <path d="M 397.300 108.700 H 394.400 C 394.300 108.700 394.400 108.800 394.400 108.700 V 105.900 C 394.400 105.800 394.300 105.900 394.400 105.900 H 400.200 C 400.300 105.900 400.200 105.800 400.200 105.900 V 108.700 C 400.200 108.800 400.300 108.700 400.200 108.700 H 397.300 Z" stroke="rgb(0,0,255)" stroke-width="0.20" />
  <path d="M 409.300 108.700 H 406.400 C 406.300 108.700 406.400 108.800 406.400 108.700 V 105.900 C 406.400 105.800 406.300 105.900 406.400 105.900 H 412.200 C 412.300 105.900 412.200 105.800 412.200 105.900 V 108.700 C 412.200 108.800 412.300 108.700 412.200 108.700 H 409.300 Z" stroke="rgb(0,0,255)" stroke-width="0.20" />
  <path d="M 421.300 108.700 H 418.400 C 418.300 108.700 418.400 108.800 418.400 108.700 V 105.900 C 418.400 105.800 418.300 105.900 418.400 105.900 H 424.200 C 424.300 105.900 424.200 105.800 424.200 105.900 V 108.700 C 424.200 108.800 424.300 108.700 424.200 108.700 H 421.300 Z" stroke="rgb(0,0,255)" stroke-width="0.20" />
  <path d="M 433.300 108.700 H 430.400 C 430.300 108.700 430.400 108.800 430.400 108.700 V 105.900 C 430.400 105.800 430.300 105.900 430.400 105.900 H 436.200 C 436.300 105.900 436.200 105.800 436.200 105.900 V 108.700 C 436.200 108.800 436.300 108.700 436.200 108.700 H 433.300 Z" stroke="rgb(0,0,255)" stroke-width="0.20" />
  <path d="M 445.300 108.700 H 442.400 C 442.300 108.700 442.400 108.800 442.400 108.700 V 105.900 C 442.400 105.800 442.300 105.900 442.400 105.900 H 448.200 C 448.300 105.900 448.200 105.800 448.200 105.900 V 108.700 C 448.200 108.800 448.300 108.700 448.200 108.700 H 445.300 Z" stroke="rgb(0,0,255)" stroke-width="0.20" />
  <path d="M 457.300 108.700 H 454.400 C 454.300 108.700 454.400 108.800 454.400 108.700 V 105.900 C 454.400 105.800 454.300 105.900 454.400 105.900 H 460.200 C 460.300 105.900 460.200 105.800 460.200 105.900 V 108.700 C 460.200 108.800 460.300 108.700 460.200 108.700 H 457.300 Z" stroke="rgb(0,0,255)" stroke-width="0.20" />
  <path d="M 469.300 108.700 H 466.400 C 466.300 108.700 466.400 108.800 466.400 108.700 V 105.900 C 466.400 105.800 466.300 105.900 466.400 105.900 H 472.200 C 472.300 105.900 472.200 105.800 472.200 105.900 V 108.700 C 472.200 108.800 472.300 108.700 472.200 108.700 H 469.300 Z" stroke="rgb(0,0,255)" stroke-width="0.20" />
  <path d="M 481.300 108.700 H 478.400 C 478.300 108.700 478.400 108.800 478.400 108.700 V 105.900 C 478.400 105.800 478.300 105.900 478.400 105.900 H 484.200 C 484.300 105.900 484.200 105.800 484.200 105.900 V 108.700 C 484.200 108.800 484.300 108.700 484.200 108.700 H 481.300 Z" stroke="rgb(0,0,255)" stroke-width="0.20" />
  <path d="M 493.300 108.700 H 490.400 C 490.300 108.700 490.400 108.800 490.400 108.700 V 105.900 C 490.400 105.800 490.300 105.900 490.400 105.900 H 496.200 C 496.300 105.900 496.200 105.800 496.200 105.900 V 108.700 C 496.200 108.800 496.300 108.700 496.200 108.700 H 493.300 Z" stroke="rgb(0,0,255)" stroke-width="0.20" />
  <path d="M 505.300 108.700 H 502.400 C 502.300 108.700 502.400 108.800 502.400 108.700 V 105.900 C 502.400 105.800 502.300 105.900 502.400 105.900 H 508.200 C 508.300 105.900 508.200 105.800 508.200 105.900 V 108.700 C 508.200 108.800 508.300 108.700 508.200 108.700 H 505.300 Z" stroke="rgb(0,0,255)" stroke-width="0.20" />
  <path d="M 517.300 108.700 H 514.400 C 514.300 108.700 514.400 108.800 514.400 108.700 V 105.900 C 514.400 105.800 514.300 105.900 514.400 105.900 H 520.200 C 520.300 105.900 520.200 105.800 520.200 105.900 V 108.700 C 520.200 108.800 520.300 108.700 520.200 108.700 H 517.300 Z" stroke="rgb(0,0,255)" stroke-width="0.20" />
  <path d="M 529.300 108.700 H 526.400 C 526.300 108.700 526.400 108.800 526.400 108.700 V 105.900 C 526.400 105.800 526.300 105.900 526.400 105.900 H 532.200 C 532.300 105.900 532.200 105.800 532.200 105.900 V 108.700 C 532.200 108.800 532.300 108.700 532.200 108.700 H 529.300 Z" stroke="rgb(0,0,255)" stroke-width="0.20" />
  <text dominant-baseline="hanging" font-size="4px" style="font-family: sans-serif ; font-weight: normal; font-style: normal; fill: rgb(255,0,0)" text-anchor="middle" transform="matrix( 1.000 0.000 0.000 1.000 409.300 94.900 )">1</text><path d="M 279.800 111.900 H 538.800 H 541.800 C 541.855 111.900 541.900 111.855 541.900 111.800 V 105.800 C 541.900 105.745 541.855 105.700 541.800 105.700 H 538.900 C 538.800 105.700 538.900 105.800 538.900 105.700 V 99.900 C 538.900 99.800 538.800 99.900 538.900 99.900 H 541.800 C 541.855 99.900 541.900 99.855 541.900 99.800 V 93.800 C 541.900 93.745 541.855 93.700 541.800 93.700 H 538.900 C 538.800 93.700 538.900 93.800 538.900 93.700 V 87.900 C 538.900 87.800 538.800 87.900 538.900 87.900 H 541.800 C 541.855 87.900 541.900 87.855 541.900 87.800 V 81.800 C 541.900 81.745 541.855 81.700 541.800 81.700 H 538.800 H 279.800 H 276.800 C 276.745 81.700 276.700 81.745 276.700 81.800 V 87.800 C 276.700 87.855 276.745 87.900 276.800 87.900 H 279.700 C 279.800 87.900 279.700 87.800 279.700 87.900 V 93.700 C 279.700 93.800 279.800 93.700 279.700 93.700 H 276.800 C 276.745 93.700 276.700 93.745 276.700 93.800 V 99.800 C 276.700 99.855 276.745 99.900 276.800 99.900 H 279.700 C 279.800 99.900 279.700 99.800 279.700 99.900 V 105.700 C 279.700 105.800 279.800 105.700 279.700 105.700 H 276.800 C 276.745 105.700 276.700 105.745 276.700 105.800 V 111.800 C 276.700 111.855 276.745 111.900 276.800 111.900 H 279.800" stroke="rgb(0,0,0)" stroke-width="0.20" />
</g>
<g id="p-10" style="fill:none;stroke-linecap:round;stroke-linejoin:round;">
  <path d="M 289.300 77.000 H 286.400 C 286.300 77.000 286.400 77.100 286.400 77.000 V 74.200 C 286.400 74.100 286.300 74.200 286.400 74.200 H 292.200 C 292.300 74.200 292.200 74.100 292.200 74.200 V 77.000 C 292.200 77.100 292.300 77.000 292.200 77.000 H 289.300 Z" stroke="rgb(0,0,255)" stroke-width="0.20" />
  <path d="M 301.300 77.000 H 298.400 C 298.300 77.000 298.400 77.100 298.400 77.000 V 74.200 C 298.400 74.100 298.300 74.200 298.400 74.200 H 304.200 C 304.300 74.200 304.200 74.100 304.200 74.200 V 77.000 C 304.200 77.100 304.300 77.000 304.200 77.000 H 301.300 Z" stroke="rgb(0,0,255)" stroke-width="0.20" />
  <path d="M 313.300 77.000 H 310.400 C 310.300 77.000 310.400 77.100 310.400 77.000 V 74.200 C 310.400 74.100 310.300 74.200 310.400 74.200 H 316.200 C 316.300 74.200 316.200 74.100 316.200 74.200 V 77.000 C 316.200 77.100 316.300 77.000 316.200 77.000 H 313.300 Z" stroke="rgb(0,0,255)" stroke-width="0.20" />
  <path d="M 325.300 77.000 H 322.400 C 322.300 77.000 322.400 77.100 322.400 77.000 V 74.200 C 322.400 74.100 322.300 74.200 322.400 74.200 H 328.200 C 328.300 74.200 328.200 74.100 328.200 74.200 V 77.000 C 328.200 77.100 328.300 77.000 328.200 77.000 H 325.300 Z" stroke="rgb(0,0,255)" stroke-width="0.20" />
  <path d="M 337.300 77.000 H 334.400 C 334.300 77.000 334.400 77.100 334.400 77.000 V 74.200 C 334.400 74.100 334.300 74.200 334.400 74.200 H 340.200 C 340.300 74.200 340.200 74.100 340.200 74.200 V 77.000 C 340.200 77.100 340.300 77.000 340.200 77.000 H 337.300 Z" stroke="rgb(0,0,255)" stroke-width="0.20" />
  <path d="M 349.300 77.000 H 346.400 C 346.300 77.000 346.400 77.100 346.400 77.000 V 74.200 C 346.400 74.100 346.300 74.200 346.400 74.200 H 352.200 C 352.300 74.200 352.200 74.100 352.200 74.200 V 77.000 C 352.200 77.100 352.300 77.000 352.200 77.000 H 349.300 Z" stroke="rgb(0,0,255)" stroke-width="0.20" />
  <path d="M 361.300 77.000 H 358.400 C 358.300 77.000 358.400 77.100 358.400 77.000 V 74.200 C 358.400 74.100 358.300 74.200 358.400 74.200 H 364.200 C 364.300 74.200 364.200 74.100 364.200 74.200 V 77.000 C 364.200 77.100 364.300 77.000 364.200 77.000 H 361.300 Z" stroke="rgb(0,0,255)" stroke-width="0.20" />
  <path d="M 373.300 77.000 H 370.400 C 370.300 77.000 370.400 77.100 370.400 77.000 V 74.200 C 370.400 74.100 370.300 74.200 370.400 74.200 H 376.200 C 376.300 74.200 376.200 74.100 376.200 74.200 V 77.000 C 376.200 77.100 376.300 77.000 376.200 77.000 H 373.300 Z" stroke="rgb(0,0,255)" stroke-width="0.20" />
  <path d="M 385.300 77.000 H 382.400 C 382.300 77.000 382.400 77.100 382.400 77.000 V 74.200 C 382.400 74.100 382.300 74.200 382.400 74.200 H 388.200 C 388.300 74.200 388.200 74.100 388.200 74.200 V 77.000 C 388.200 77.100 388.300 77.000 388.200 77.000 H 385.300 Z" stroke="rgb(0,0,255)" stroke-width="0.20" />
  <path d="M 397.300 77.000 H 394.400 C 394.300 77.000 394.400 77.100 394.400 77.000 V 74.200 C 394.400 74.100 394.300 74.200 394.400 74.200 H 400.200 C 400.300 74.200 400.200 74.100 400.200 74.200 V 77.000 C 400.200 77.100 400.300 77.000 400.200 77.000 H 397.300 Z" stroke="rgb(0,0,255)" stroke-width="0.20" />
  <path d="M 409.300 77.000 H 406.400 C 406.300 77.000 406.400 77.100 406.400 77.000 V 74.200 C 406.400 74.100 406.300 74.200 406.400 74.200 H 412.200 C 412.300 74.200 412.200 74.100 412.200 74.200 V 77.000 C 412.200 77.100 412.300 77.000 412.200 77.000 H 409.300 Z" stroke="rgb(0,0,255)" stroke-width="0.20" />
  <path d="M 421.300 77.000 H 418.400 C 418.300 77.000 418.400 77.100 418.400 77.000 V 74.200 C 418.400 74.100 418.300 74.200 418.400 74.200 H 424.200 C 424.300 74.200 424.200 74.100 424.200 74.200 V 77.000 C 424.200 77.100 424.300 77.000 424.200 77.000 H 421.300 Z" stroke="rgb(0,0,255)" stroke-width="0.20" />
  <path d="M 433.300 77.000 H 430.400 C 430.300 77.000 430.400 77.100 430.400 77.000 V 74.200 C 430.400 74.100 430.300 74.200 430.400 74.200 H 436.200 C 436.300 74.200 436.200 74.100 436.200 74.200 V 77.000 C 436.200 77.100 436.300 77.000 436.200 77.000 H 433.300 Z" stroke="rgb(0,0,255)" stroke-width="0.20" />
  <path d="M 445.300 77.000 H 442.400 C 442.300 77.000 442.400 77.100 442.400 77.000 V 74.200 C 442.400 74.100 442.300 74.200 442.400 74.200 H 448.200 C 448.300 74.200 448.200 74.100 448.200 74.200 V 77.000 C 448.200 77.100 448.300 77.000 448.200 77.000 H 445.300 Z" stroke="rgb(0,0,255)" stroke-width="0.20" />
  <path d="M 457.300 77.000 H 454.400 C 454.300 77.000 454.400 77.100 454.400 77.000 V 74.200 C 454.400 74.100 454.300 74.200 454.400 74.200 H 460.200 C 460.300 74.200 460.200 74.100 460.200 74.200 V 77.000 C 460.200 77.100 460.300 77.000 460.200 77.000 H 457.300 Z" stroke="rgb(0,0,255)" stroke-width="0.20" />
  <path d="M 469.300 77.000 H 466.400 C 466.300 77.000 466.400 77.100 466.400 77.000 V 74.200 C 466.400 74.100 466.300 74.200 466.400 74.200 H 472.200 C 472.300 74.200 472.200 74.100 472.200 74.200 V 77.000 C 472.200 77.100 472.300 77.000 472.200 77.000 H 469.300 Z" stroke="rgb(0,0,255)" stroke-width="0.20" />
  <path d="M 481.300 77.000 H 478.400 C 478.300 77.000 478.400 77.100 478.400 77.000 V 74.200 C 478.400 74.100 478.300 74.200 478.400 74.200 H 484.200 C 484.300 74.200 484.200 74.100 484.200 74.200 V 77.000 C 484.200 77.100 484.300 77.000 484.200 77.000 H 481.300 Z" stroke="rgb(0,0,255)" stroke-width="0.20" />
  <path d="M 493.300 77.000 H 490.400 C 490.300 77.000 490.400 77.100 490.400 77.000 V 74.200 C 490.400 74.100 490.300 74.200 490.400 74.200 H 496.200 C 496.300 74.200 496.200 74.100 496.200 74.200 V 77.000 C 496.200 77.100 496.300 77.000 496.200 77.000 H 493.300 Z" stroke="rgb(0,0,255)" stroke-width="0.20" />
  <path d="M 505.300 77.000 H 502.400 C 502.300 77.000 502.400 77.100 502.400 77.000 V 74.200 C 502.400 74.100 502.300 74.200 502.400 74.200 H 508.200 C 508.300 74.200 508.200 74.100 508.200 74.200 V 77.000 C 508.200 77.100 508.300 77.000 508.200 77.000 H 505.300 Z" stroke="rgb(0,0,255)" stroke-width="0.20" />
  <path d="M 517.300 77.000 H 514.400 C 514.300 77.000 514.400 77.100 514.400 77.000 V 74.200 C 514.400 74.100 514.300 74.200 514.400 74.200 H 520.200 C 520.300 74.200 520.200 74.100 520.200 74.200 V 77.000 C 520.200 77.100 520.300 77.000 520.200 77.000 H 517.300 Z" stroke="rgb(0,0,255)" stroke-width="0.20" />
  <path d="M 529.300 77.000 H 526.400 C 526.300 77.000 526.400 77.100 526.400 77.000 V 74.200 C 526.400 74.100 526.300 74.200 526.400 74.200 H 532.200 C 532.300 74.200 532.200 74.100 532.200 74.200 V 77.000 C 532.200 77.100 532.300 77.000 532.200 77.000 H 529.300 Z" stroke="rgb(0,0,255)" stroke-width="0.20" />
  <text dominant-baseline="hanging" font-size="4px" style="font-family: sans-serif ; font-weight: normal; font-style: normal; fill: rgb(255,0,0)" text-anchor="middle" transform="matrix( 1.000 0.000 0.000 1.000 409.300 63.200 )">2</text><path d="M 279.800 80.200 H 538.800 H 541.800 C 541.855 80.200 541.900 80.155 541.900 80.100 V 74.100 C 541.900 74.045 541.855 74.000 541.800 74.000 H 538.900 C 538.800 74.000 538.900 74.100 538.900 74.000 V 68.200 C 538.900 68.100 538.800 68.200 538.900 68.200 H 541.800 C 541.855 68.200 541.900 68.155 541.900 68.100 V 62.100 C 541.900 62.045 541.855 62.000 541.800 62.000 H 538.900 C 538.800 62.000 538.900 62.100 538.900 62.000 V 56.200 C 538.900 56.100 538.800 56.200 538.900 56.200 H 541.800 C 541.855 56.200 541.900 56.155 541.900 56.100 V 50.100 C 541.900 50.045 541.855 50.000 541.800 50.000 H 538.800 H 279.800 H 276.800 C 276.745 50.000 276.700 50.045 276.700 50.100 V 56.100 C 276.700 56.155 276.745 56.200 276.800 56.200 H 279.700 C 279.800 56.200 279.700 56.100 279.700 56.200 V 62.000 C 279.700 62.100 279.800 62.000 279.700 62.000 H 276.800 C 276.745 62.000 276.700 62.045 276.700 62.100 V 68.100 C 276.700 68.155 276.745 68.200 276.800 68.200 H 279.700 C 279.800 68.200 279.700 68.100 279.700 68.200 V 74.000 C 279.700 74.100 279.800 74.000 279.700 74.000 H 276.800 C 276.745 74.000 276.700 74.045 276.700 74.100 V 80.100 C 276.700 80.155 276.745 80.200 276.800 80.200 H 279.800" stroke="rgb(0,0,0)" stroke-width="0.20" />
</g>
</svg>