<?xml version='1.0' encoding='utf-8'?>
<svg height="145.00mm" viewBox="0.0 0.0 551.20 145.00" width="551.20mm" xmlns="http://www.w3.org/2000/svg" xmlns:cc="http://creativecommons.org/ns#" xmlns:dc="http://purl.org/dc/elements/1.1/" xmlns:inkscape="http://www.inkscape.org/namespaces/inkscape" xmlns:rdf="http://www.w3.org/1999/02/22-rdf-syntax-ns#" xmlns:svg="http://www.w3.org/2000/svg" xmlns:xlink="http://www.w3.org/1999/xlink">
<!--
tilecounter - A tile counter


Tile Counter


Created with Boxes.py (https://boxes.hackerspace-bamberg.de/)
Creation date: 2024-11-23 14:21:37
Command line (remove spaces between dashes): boxes tilecounter
Url: http://localhost:8000/tilecounter?FingerJoint_style=rectangular&FingerJoint_surroundingspaces=2.0&FingerJoint_bottom_lip=0.0&FingerJoint_edge_width=1.0&FingerJoint_extra_length=0.0&FingerJoint_finger=2.0&FingerJoint_play=0.0&FingerJoint_space=2.0&FingerJoint_width=1.0&x=255&y=52&h=30&outside=0&outside=1&bottom_edge=e&axel_dia=2&tiles=9&tile_gap=0&tile_spacers=True&front_h_percent=0.6&thickness=3.0&format=svg&tabs=0.0&qr_code=0&debug=0&labels=0&labels=1&reference=100.0&inner_corners=loop&burn=0.1&language=en&render=2
Url short: http://localhost:8000/tilecounter
SettingsUrl: http://localhost:8000/tilecounter?FingerJoint_style=rectangular&FingerJoint_surroundingspaces=2.0&FingerJoint_bottom_lip=0.0&FingerJoint_edge_width=1.0&FingerJoint_extra_length=0.0&FingerJoint_finger=2.0&FingerJoint_play=0.0&FingerJoint_space=2.0&FingerJoint_width=1.0&x=255&y=52&h=30&outside=0&outside=1&bottom_edge=e&axel_dia=2&tiles=9&tile_gap=0&tile_spacers=True&front_h_percent=0.6&thickness=3.0&format=svg&tabs=0.0&qr_code=0&debug=0&labels=0&labels=1&reference=100.0&inner_corners=loop&burn=0.1&language=en&render=2
SettingsUrl short: http://localhost:8000/tilecounter
-->
<title>tilecounter</title>
<metadata>
<rdf:RDF><cc:Work>
<dc:title>Box - tilecounter</dc:title>
<dc:date>2024-11-23 14:21:37</dc:date>
<dc:source>http://localhost:8000/tilecounter?FingerJoint_style=rectangular&amp;FingerJoint_surroundingspaces=2.0&amp;FingerJoint_bottom_lip=0.0&amp;FingerJoint_edge_width=1.0&amp;FingerJoint_extra_length=0.0&amp;FingerJoint_finger=2.0&amp;FingerJoint_play=0.0&amp;FingerJoint_space=2.0&amp;FingerJoint_width=1.0&amp;x=255&amp;y=52&amp;h=30&amp;outside=0&amp;outside=1&amp;bottom_edge=e&amp;axel_dia=2&amp;tiles=9&amp;tile_gap=0&amp;tile_spacers=True&amp;front_h_percent=0.6&amp;thickness=3.0&amp;format=svg&amp;tabs=0.0&amp;qr_code=0&amp;debug=0&amp;labels=0&amp;labels=1&amp;reference=100.0&amp;inner_corners=loop&amp;burn=0.1&amp;language=en&amp;render=2</dc:source>
<dc:source>http://localhost:8000/tilecounter</dc:source>
<dc:description>A tile counter

Tile Counter

Created with Boxes.py (https://boxes.hackerspace-bamberg.de/)
Command line: boxes tilecounter --FingerJoint_style=rectangular --FingerJoint_surroundingspaces=2.0 --FingerJoint_bottom_lip=0.0 --FingerJoint_edge_width=1.0 --FingerJoint_extra_length=0.0 --FingerJoint_finger=2.0 --FingerJoint_play=0.0 --FingerJoint_space=2.0 --FingerJoint_width=1.0 --x=255 --y=52 --h=30 --outside=0 --outside=1 --bottom_edge=e --axel_dia=2 --tiles=9 --tile_gap=0 --tile_spacers=True --front_h_percent=0.6 --thickness=3.0 --format=svg --tabs=0.0 --qr_code=0 --debug=0 --labels=0 --labels=1 --reference=100.0 --inner_corners=loop --burn=0.1
Command line short: boxes tilecounter
Url: http://localhost:8000/tilecounter?FingerJoint_style=rectangular&amp;FingerJoint_surroundingspaces=2.0&amp;FingerJoint_bottom_lip=0.0&amp;FingerJoint_edge_width=1.0&amp;FingerJoint_extra_length=0.0&amp;FingerJoint_finger=2.0&amp;FingerJoint_play=0.0&amp;FingerJoint_space=2.0&amp;FingerJoint_width=1.0&amp;x=255&amp;y=52&amp;h=30&amp;outside=0&amp;outside=1&amp;bottom_edge=e&amp;axel_dia=2&amp;tiles=9&amp;tile_gap=0&amp;tile_spacers=True&amp;front_h_percent=0.6&amp;thickness=3.0&amp;format=svg&amp;tabs=0.0&amp;qr_code=0&amp;debug=0&amp;labels=0&amp;labels=1&amp;reference=100.0&amp;inner_corners=loop&amp;burn=0.1&amp;language=en&amp;render=2
Url short: http://localhost:8000/tilecounter
SettingsUrl: http://localhost:8000/tilecounter?FingerJoint_style=rectangular&amp;FingerJoint_surroundingspaces=2.0&amp;FingerJoint_bottom_lip=0.0&amp;FingerJoint_edge_width=1.0&amp;FingerJoint_extra_length=0.0&amp;FingerJoint_finger=2.0&amp;FingerJoint_play=0.0&amp;FingerJoint_space=2.0&amp;FingerJoint_width=1.0&amp;x=255&amp;y=52&amp;h=30&amp;outside=0&amp;outside=1&amp;bottom_edge=e&amp;axel_dia=2&amp;tiles=9&amp;tile_gap=0&amp;tile_spacers=True&amp;front_h_percent=0.6&amp;thickness=3.0&amp;format=svg&amp;tabs=0.0&amp;qr_code=0&amp;debug=0&amp;labels=0&amp;labels=1&amp;reference=100.0&amp;inner_corners=loop&amp;burn=0.1&amp;language=en&amp;render=2
SettingsUrl short: http://localhost:8000/tilecounter
</dc:description>
</cc:Work></rdf:RDF></metadata>
<g id="p-0" style="fill:none;stroke-linecap:round;stroke-linejoin:round;">
  <path d="M 10.100 135.000 H 110.100 V 125.000 H 10.100 V 135.000 Z" stroke="rgb(0,0,0)" stroke-width="0.20" />
  <text dominant-baseline="hanging" font-size="6px" style="font-family: sans-serif ; font-weight: normal; font-style: normal; fill: rgb(255,0,0)" text-anchor="middle" transform="matrix( 1.000 0.000 0.000 1.000 60.100 127.000 )">100.0mm, burn:0.10mm</text>
</g>
<g id="p-1" style="fill:none;stroke-linecap:round;stroke-linejoin:round;">
  <path d="M 37.000 108.200 C 37.000 108.373 36.950 108.541 36.857 108.687 C 36.764 108.832 36.631 108.947 36.474 109.019 C 36.317 109.090 36.143 109.115 35.972 109.091 C 35.801 109.066 35.641 108.993 35.511 108.880 C 35.380 108.767 35.285 108.619 35.236 108.454 C 35.188 108.288 35.188 108.112 35.236 107.946 C 35.285 107.781 35.380 107.633 35.511 107.520 C 35.641 107.407 35.801 107.334 35.972 107.309 C 36.143 107.285 36.317 107.310 36.474 107.381 C 36.631 107.453 36.764 107.568 36.857 107.713 C 36.950 107.859 37.000 108.027 37.000 108.200 Z" stroke="rgb(0,0,255)" stroke-width="0.20" />
  <text dominant-baseline="hanging" font-size="4px" style="font-family: sans-serif ; font-weight: normal; font-style: normal; fill: rgb(255,0,0)" text-anchor="middle" transform="matrix( 1.000 0.000 0.000 1.000 36.100 106.300 )">4</text><path d="M 13.100 123.300 H 59.100 C 59.155 123.300 59.200 123.255 59.200 123.200 M 13.100 105.200 C 13.100 93.200 14.900 94.400 31.100 93.200 M 59.200 123.200 V 117.300 C 59.200 117.200 59.100 117.300 59.200 117.300 H 62.100 C 62.155 117.300 62.200 117.255 62.200 117.200 V 111.200 C 62.200 111.145 62.155 111.100 62.100 111.100 H 59.200 C 59.100 111.100 59.200 111.200 59.200 111.100 V 105.300 C 59.200 105.200 59.100 105.300 59.200 105.300 H 62.100 C 62.155 105.300 62.200 105.255 62.200 105.200 V 99.200 C 62.200 99.145 62.155 99.100 62.100 99.100 H 59.200 C 59.100 99.100 59.200 99.200 59.200 99.100 V 93.200 C 59.200 93.145 59.155 93.100 59.100 93.100 H 13.100 C 13.045 93.100 13.000 93.145 13.000 93.200 V 99.100 C 13.000 99.200 13.100 99.100 13.000 99.100 H 10.100 C 10.045 99.100 10.000 99.145 10.000 99.200 V 105.200 C 10.000 105.255 10.045 105.300 10.100 105.300 H 13.000 C 13.100 105.300 13.000 105.200 13.000 105.300 V 111.100 C 13.000 111.200 13.100 111.100 13.000 111.100 H 10.100 C 10.045 111.100 10.000 111.145 10.000 111.200 V 117.200 C 10.000 117.255 10.045 117.300 10.100 117.300 H 13.000 C 13.100 117.300 13.000 117.200 13.000 117.300 V 123.200 C 13.000 123.255 13.045 123.300 13.100 123.300" stroke="rgb(0,0,0)" stroke-width="0.20" />
</g>
<g id="p-2" style="fill:none;stroke-linecap:round;stroke-linejoin:round;">
  <path d="M 37.000 76.500 C 37.000 76.673 36.950 76.841 36.857 76.987 C 36.764 77.132 36.631 77.247 36.474 77.319 C 36.317 77.390 36.143 77.415 35.972 77.391 C 35.801 77.366 35.641 77.293 35.511 77.180 C 35.380 77.067 35.285 76.919 35.236 76.754 C 35.188 76.588 35.188 76.412 35.236 76.246 C 35.285 76.081 35.380 75.933 35.511 75.820 C 35.641 75.707 35.801 75.634 35.972 75.609 C 36.143 75.585 36.317 75.610 36.474 75.681 C 36.631 75.753 36.764 75.868 36.857 76.013 C 36.950 76.159 37.000 76.327 37.000 76.500 Z" stroke="rgb(0,0,255)" stroke-width="0.20" />
  <text dominant-baseline="hanging" font-size="4px" style="font-family: sans-serif ; font-weight: normal; font-style: normal; fill: rgb(255,0,0)" text-anchor="middle" transform="matrix( 1.000 0.000 0.000 1.000 36.100 74.600 )">5</text><path d="M 13.100 91.600 H 59.100 C 59.155 91.600 59.200 91.555 59.200 91.500 M 13.100 73.500 C 13.100 61.500 14.900 62.700 31.100 61.500 M 59.200 91.500 V 85.600 C 59.200 85.500 59.100 85.600 59.200 85.600 H 62.100 C 62.155 85.600 62.200 85.555 62.200 85.500 V 79.500 C 62.200 79.445 62.155 79.400 62.100 79.400 H 59.200 C 59.100 79.400 59.200 79.500 59.200 79.400 V 73.600 C 59.200 73.500 59.100 73.600 59.200 73.600 H 62.100 C 62.155 73.600 62.200 73.555 62.200 73.500 V 67.500 C 62.200 67.445 62.155 67.400 62.100 67.400 H 59.200 C 59.100 67.400 59.200 67.500 59.200 67.400 V 61.500 C 59.200 61.445 59.155 61.400 59.100 61.400 H 13.100 C 13.045 61.400 13.000 61.445 13.000 61.500 V 67.400 C 13.000 67.500 13.100 67.400 13.000 67.400 H 10.100 C 10.045 67.400 10.000 67.445 10.000 67.500 V 73.500 C 10.000 73.555 10.045 73.600 10.100 73.600 H 13.000 C 13.100 73.600 13.000 73.500 13.000 73.600 V 79.400 C 13.000 79.500 13.100 79.400 13.000 79.400 H 10.100 C 10.045 79.400 10.000 79.445 10.000 79.500 V 85.500 C 10.000 85.555 10.045 85.600 10.100 85.600 H 13.000 C 13.100 85.600 13.000 85.500 13.000 85.600 V 91.500 C 13.000 91.555 13.045 91.600 13.100 91.600" stroke="rgb(0,0,0)" stroke-width="0.20" />
</g>
<g id="p-3" style="fill:none;stroke-linecap:round;stroke-linejoin:round;">
  <text dominant-baseline="hanging" font-size="4px" style="font-family: sans-serif ; font-weight: normal; font-style: normal; fill: rgb(255,0,0)" text-anchor="middle" transform="matrix( 1.000 0.000 0.000 1.000 137.600 48.900 )">1</text><path d="M 13.100 59.900 H 262.100 H 265.100 C 265.155 59.900 265.200 59.855 265.200 59.800 V 53.800 C 265.200 53.745 265.155 53.700 265.100 53.700 H 262.200 C 262.100 53.700 262.200 53.800 262.200 53.700 V 47.900 C 262.200 47.800 262.100 47.900 262.200 47.900 H 265.100 C 265.155 47.900 265.200 47.855 265.200 47.800 V 41.800 C 265.200 41.745 265.155 41.700 265.100 41.700 H 262.100 H 13.100 H 10.100 C 10.045 41.700 10.000 41.745 10.000 41.800 V 47.800 C 10.000 47.855 10.045 47.900 10.100 47.900 H 13.000 C 13.100 47.900 13.000 47.800 13.000 47.900 V 53.700 C 13.000 53.800 13.100 53.700 13.000 53.700 H 10.100 C 10.045 53.700 10.000 53.745 10.000 53.800 V 59.800 C 10.000 59.855 10.045 59.900 10.100 59.900 H 13.100" stroke="rgb(0,0,0)" stroke-width="0.20" />
</g>
<g id="p-4" style="fill:none;stroke-linecap:round;stroke-linejoin:round;">
  <text dominant-baseline="hanging" font-size="4px" style="font-family: sans-serif ; font-weight: normal; font-style: normal; fill: rgb(255,0,0)" text-anchor="middle" transform="matrix( 1.000 0.000 0.000 1.000 137.600 23.200 )">2</text><path d="M 13.100 40.200 H 262.100 H 265.100 C 265.155 40.200 265.200 40.155 265.200 40.100 V 34.100 C 265.200 34.045 265.155 34.000 265.100 34.000 H 262.200 C 262.100 34.000 262.200 34.100 262.200 34.000 V 28.200 C 262.200 28.100 262.100 28.200 262.200 28.200 H 265.100 C 265.155 28.200 265.200 28.155 265.200 28.100 V 22.100 C 265.200 22.045 265.155 22.000 265.100 22.000 H 262.200 C 262.100 22.000 262.200 22.100 262.200 22.000 V 16.200 C 262.200 16.100 262.100 16.200 262.200 16.200 H 265.100 C 265.155 16.200 265.200 16.155 265.200 16.100 V 10.100 C 265.200 10.045 265.155 10.000 265.100 10.000 H 262.100 H 13.100 H 10.100 C 10.045 10.000 10.000 10.045 10.000 10.100 V 16.100 C 10.000 16.155 10.045 16.200 10.100 16.200 H 13.000 C 13.100 16.200 13.000 16.100 13.000 16.200 V 22.000 C 13.000 22.100 13.100 22.000 13.000 22.000 H 10.100 C 10.045 22.000 10.000 22.045 10.000 22.100 V 28.100 C 10.000 28.155 10.045 28.200 10.100 28.200 H 13.000 C 13.100 28.200 13.000 28.100 13.000 28.200 V 34.000 C 13.000 34.100 13.100 34.000 13.000 34.000 H 10.100 C 10.045 34.000 10.000 34.045 10.000 34.100 V 40.100 C 10.000 40.155 10.045 40.200 10.100 40.200 H 13.100" stroke="rgb(0,0,0)" stroke-width="0.20" />
</g>
<g id="p-5" style="fill:none;stroke-linecap:round;stroke-linejoin:round;">
  <path d="M 67.700 120.200 C 67.700 120.373 67.650 120.541 67.557 120.687 C 67.464 120.832 67.331 120.947 67.174 121.019 C 67.017 121.090 66.843 121.115 66.672 121.091 C 66.501 121.066 66.341 120.993 66.211 120.880 C 66.080 120.767 65.985 120.619 65.936 120.454 C 65.888 120.288 65.888 120.112 65.936 119.946 C 65.985 119.781 66.080 119.633 66.211 119.520 C 66.341 119.407 66.501 119.334 66.672 119.309 C 66.843 119.285 67.017 119.310 67.174 119.381 C 67.331 119.453 67.464 119.568 67.557 119.713 C 67.650 119.859 67.700 120.027 67.700 120.200 Z" stroke="rgb(0,0,255)" stroke-width="0.20" />
  <path d="M 66.800 123.300 C 67.344 123.300 67.879 123.157 68.350 122.885 C 68.821 122.613 69.213 122.221 69.485 121.750 C 69.757 121.279 69.900 120.744 69.900 120.200 C 69.900 119.656 69.757 119.121 69.485 118.650 C 69.213 118.179 68.821 117.787 68.350 117.515 C 67.879 117.243 67.344 117.100 66.800 117.100 C 66.256 117.100 65.721 117.243 65.250 117.515 C 64.779 117.787 64.387 118.179 64.115 118.650 C 63.843 119.121 63.700 119.656 63.700 120.200 C 63.700 120.744 63.843 121.279 64.115 121.750 C 64.387 122.221 64.779 122.613 65.250 122.885 C 65.721 123.157 66.256 123.300 66.800 123.300 Z" stroke="rgb(0,0,0)" stroke-width="0.20" />
</g>
<g id="p-6" style="fill:none;stroke-linecap:round;stroke-linejoin:round;">
  <path d="M 67.700 112.500 C 67.700 112.673 67.650 112.841 67.557 112.987 C 67.464 113.132 67.331 113.247 67.174 113.319 C 67.017 113.390 66.843 113.415 66.672 113.391 C 66.501 113.366 66.341 113.293 66.211 113.180 C 66.080 113.067 65.985 112.919 65.936 112.754 C 65.888 112.588 65.888 112.412 65.936 112.246 C 65.985 112.081 66.080 111.933 66.211 111.820 C 66.341 111.707 66.501 111.634 66.672 111.609 C 66.843 111.585 67.017 111.610 67.174 111.681 C 67.331 111.753 67.464 111.868 67.557 112.013 C 67.650 112.159 67.700 112.327 67.700 112.500 Z" stroke="rgb(0,0,255)" stroke-width="0.20" />
  <path d="M 66.800 115.600 C 67.344 115.600 67.879 115.457 68.350 115.185 C 68.821 114.913 69.213 114.521 69.485 114.050 C 69.757 113.579 69.900 113.044 69.900 112.500 C 69.900 111.956 69.757 111.421 69.485 110.950 C 69.213 110.479 68.821 110.087 68.350 109.815 C 67.879 109.543 67.344 109.400 66.800 109.400 C 66.256 109.400 65.721 109.543 65.250 109.815 C 64.779 110.087 64.387 110.479 64.115 110.950 C 63.843 111.421 63.700 111.956 63.700 112.500 C 63.700 113.044 63.843 113.579 64.115 114.050 C 64.387 114.521 64.779 114.913 65.250 115.185 C 65.721 115.457 66.256 115.600 66.800 115.600 Z" stroke="rgb(0,0,0)" stroke-width="0.20" />
</g>
<g id="p-7" style="fill:none;stroke-linecap:round;stroke-linejoin:round;">
  <path d="M 67.700 104.800 C 67.700 104.973 67.650 105.141 67.557 105.287 C 67.464 105.432 67.331 105.547 67.174 105.619 C 67.017 105.690 66.843 105.715 66.672 105.691 C 66.501 105.666 66.341 105.593 66.211 105.480 C 66.080 105.367 65.985 105.219 65.936 105.054 C 65.888 104.888 65.888 104.712 65.936 104.546 C 65.985 104.381 66.080 104.233 66.211 104.120 C 66.341 104.007 66.501 103.934 66.672 103.909 C 66.843 103.885 67.017 103.910 67.174 103.981 C 67.331 104.053 67.464 104.168 67.557 104.313 C 67.650 104.459 67.700 104.627 67.700 104.800 Z" stroke="rgb(0,0,255)" stroke-width="0.20" />
  <path d="M 66.800 107.900 C 67.344 107.900 67.879 107.757 68.350 107.485 C 68.821 107.213 69.213 106.821 69.485 106.350 C 69.757 105.879 69.900 105.344 69.900 104.800 C 69.900 104.256 69.757 103.721 69.485 103.250 C 69.213 102.779 68.821 102.387 68.350 102.115 C 67.879 101.843 67.344 101.700 66.800 101.700 C 66.256 101.700 65.721 101.843 65.250 102.115 C 64.779 102.387 64.387 102.779 64.115 103.250 C 63.843 103.721 63.700 104.256 63.700 104.800 C 63.700 105.344 63.843 105.879 64.115 106.350 C 64.387 106.821 64.779 107.213 65.250 107.485 C 65.721 107.757 66.256 107.900 66.800 107.900 Z" stroke="rgb(0,0,0)" stroke-width="0.20" />
</g>
<g id="p-8" style="fill:none;stroke-linecap:round;stroke-linejoin:round;">
  <path d="M 67.700 97.100 C 67.700 97.273 67.650 97.441 67.557 97.587 C 67.464 97.732 67.331 97.847 67.174 97.919 C 67.017 97.990 66.843 98.015 66.672 97.991 C 66.501 97.966 66.341 97.893 66.211 97.780 C 66.080 97.667 65.985 97.519 65.936 97.354 C 65.888 97.188 65.888 97.012 65.936 96.846 C 65.985 96.681 66.080 96.533 66.211 96.420 C 66.341 96.307 66.501 96.234 66.672 96.209 C 66.843 96.185 67.017 96.210 67.174 96.281 C 67.331 96.353 67.464 96.468 67.557 96.613 C 67.650 96.759 67.700 96.927 67.700 97.100 Z" stroke="rgb(0,0,255)" stroke-width="0.20" />
  <path d="M 66.800 100.200 C 67.344 100.200 67.879 100.057 68.350 99.785 C 68.821 99.513 69.213 99.121 69.485 98.650 C 69.757 98.179 69.900 97.644 69.900 97.100 C 69.900 96.556 69.757 96.021 69.485 95.550 C 69.213 95.079 68.821 94.687 68.350 94.415 C 67.879 94.143 67.344 94.000 66.800 94.000 C 66.256 94.000 65.721 94.143 65.250 94.415 C 64.779 94.687 64.387 95.079 64.115 95.550 C 63.843 96.021 63.700 96.556 63.700 97.100 C 63.700 97.644 63.843 98.179 64.115 98.650 C 64.387 99.121 64.779 99.513 65.250 99.785 C 65.721 100.057 66.256 100.200 66.800 100.200 Z" stroke="rgb(0,0,0)" stroke-width="0.20" />
</g>
<g id="p-9" style="fill:none;stroke-linecap:round;stroke-linejoin:round;">
  <path d="M 67.700 89.400 C 67.700 89.573 67.650 89.741 67.557 89.887 C 67.464 90.032 67.331 90.147 67.174 90.219 C 67.017 90.290 66.843 90.315 66.672 90.291 C 66.501 90.266 66.341 90.193 66.211 90.080 C 66.080 89.967 65.985 89.819 65.936 89.654 C 65.888 89.488 65.888 89.312 65.936 89.146 C 65.985 88.981 66.080 88.833 66.211 88.720 C 66.341 88.607 66.501 88.534 66.672 88.509 C 66.843 88.485 67.017 88.510 67.174 88.581 C 67.331 88.653 67.464 88.768 67.557 88.913 C 67.650 89.059 67.700 89.227 67.700 89.400 Z" stroke="rgb(0,0,255)" stroke-width="0.20" />
  <path d="M 66.800 92.500 C 67.344 92.500 67.879 92.357 68.350 92.085 C 68.821 91.813 69.213 91.421 69.485 90.950 C 69.757 90.479 69.900 89.944 69.900 89.400 C 69.900 88.856 69.757 88.321 69.485 87.850 C 69.213 87.379 68.821 86.987 68.350 86.715 C 67.879 86.443 67.344 86.300 66.800 86.300 C 66.256 86.300 65.721 86.443 65.250 86.715 C 64.779 86.987 64.387 87.379 64.115 87.850 C 63.843 88.321 63.700 88.856 63.700 89.400 C 63.700 89.944 63.843 90.479 64.115 90.950 C 64.387 91.421 64.779 91.813 65.250 92.085 C 65.721 92.357 66.256 92.500 66.800 92.500 Z" stroke="rgb(0,0,0)" stroke-width="0.20" />
</g>
<g id="p-10" style="fill:none;stroke-linecap:round;stroke-linejoin:round;">
  <path d="M 67.700 81.700 C 67.700 81.873 67.650 82.041 67.557 82.187 C 67.464 82.332 67.331 82.447 67.174 82.519 C 67.017 82.590 66.843 82.615 66.672 82.591 C 66.501 82.566 66.341 82.493 66.211 82.380 C 66.080 82.267 65.985 82.119 65.936 81.954 C 65.888 81.788 65.888 81.612 65.936 81.446 C 65.985 81.281 66.080 81.133 66.211 81.020 C 66.341 80.907 66.501 80.834 66.672 80.809 C 66.843 80.785 67.017 80.810 67.174 80.881 C 67.331 80.953 67.464 81.068 67.557 81.213 C 67.650 81.359 67.700 81.527 67.700 81.700 Z" stroke="rgb(0,0,255)" stroke-width="0.20" />
  <path d="M 66.800 84.800 C 67.344 84.800 67.879 84.657 68.350 84.385 C 68.821 84.113 69.213 83.721 69.485 83.250 C 69.757 82.779 69.900 82.244 69.900 81.700 C 69.900 81.156 69.757 80.621 69.485 80.150 C 69.213 79.679 68.821 79.287 68.350 79.015 C 67.879 78.743 67.344 78.600 66.800 78.600 C 66.256 78.600 65.721 78.743 65.250 79.015 C 64.779 79.287 64.387 79.679 64.115 80.150 C 63.843 80.621 63.700 81.156 63.700 81.700 C 63.700 82.244 63.843 82.779 64.115 83.250 C 64.387 83.721 64.779 84.113 65.250 84.385 C 65.721 84.657 66.256 84.800 66.800 84.800 Z" stroke="rgb(0,0,0)" stroke-width="0.20" />
</g>
<g id="p-11" style="fill:none;stroke-linecap:round;stroke-linejoin:round;">
  <path d="M 67.700 74.000 C 67.700 74.173 67.650 74.341 67.557 74.487 C 67.464 74.632 67.331 74.747 67.174 74.819 C 67.017 74.890 66.843 74.915 66.672 74.891 C 66.501 74.866 66.341 74.793 66.211 74.680 C 66.080 74.567 65.985 74.419 65.936 74.254 C 65.888 74.088 65.888 73.912 65.936 73.746 C 65.985 73.581 66.080 73.433 66.211 73.320 C 66.341 73.207 66.501 73.134 66.672 73.109 C 66.843 73.085 67.017 73.110 67.174 73.181 C 67.331 73.253 67.464 73.368 67.557 73.513 C 67.650 73.659 67.700 73.827 67.700 74.000 Z" stroke="rgb(0,0,255)" stroke-width="0.20" />
  <path d="M 66.800 77.100 C 67.344 77.100 67.879 76.957 68.350 76.685 C 68.821 76.413 69.213 76.021 69.485 75.550 C 69.757 75.079 69.900 74.544 69.900 74.000 C 69.900 73.456 69.757 72.921 69.485 72.450 C 69.213 71.979 68.821 71.587 68.350 71.315 C 67.879 71.043 67.344 70.900 66.800 70.900 C 66.256 70.900 65.721 71.043 65.250 71.315 C 64.779 71.587 64.387 71.979 64.115 72.450 C 63.843 72.921 63.700 73.456 63.700 74.000 C 63.700 74.544 63.843 75.079 64.115 75.550 C 64.387 76.021 64.779 76.413 65.250 76.685 C 65.721 76.957 66.256 77.100 66.800 77.100 Z" stroke="rgb(0,0,0)" stroke-width="0.20" />
</g>
<g id="p-12" style="fill:none;stroke-linecap:round;stroke-linejoin:round;">
  <path d="M 67.700 66.300 C 67.700 66.473 67.650 66.641 67.557 66.787 C 67.464 66.932 67.331 67.047 67.174 67.119 C 67.017 67.190 66.843 67.215 66.672 67.191 C 66.501 67.166 66.341 67.093 66.211 66.980 C 66.080 66.867 65.985 66.719 65.936 66.554 C 65.888 66.388 65.888 66.212 65.936 66.046 C 65.985 65.881 66.080 65.733 66.211 65.620 C 66.341 65.507 66.501 65.434 66.672 65.409 C 66.843 65.385 67.017 65.410 67.174 65.481 C 67.331 65.553 67.464 65.668 67.557 65.813 C 67.650 65.959 67.700 66.127 67.700 66.300 Z" stroke="rgb(0,0,255)" stroke-width="0.20" />
  <path d="M 66.800 69.400 C 67.344 69.400 67.879 69.257 68.350 68.985 C 68.821 68.713 69.213 68.321 69.485 67.850 C 69.757 67.379 69.900 66.844 69.900 66.300 C 69.900 65.756 69.757 65.221 69.485 64.750 C 69.213 64.279 68.821 63.887 68.350 63.615 C 67.879 63.343 67.344 63.200 66.800 63.200 C 66.256 63.200 65.721 63.343 65.250 63.615 C 64.779 63.887 64.387 64.279 64.115 64.750 C 63.843 65.221 63.700 65.756 63.700 66.300 C 63.700 66.844 63.843 67.379 64.115 67.850 C 64.387 68.321 64.779 68.713 65.250 68.985 C 65.721 69.257 66.256 69.400 66.800 69.400 Z" stroke="rgb(0,0,0)" stroke-width="0.20" />
</g>
<g id="p-13" style="fill:none;stroke-linecap:round;stroke-linejoin:round;">
  <path d="M 75.400 120.200 C 75.400 120.373 75.350 120.541 75.257 120.687 C 75.164 120.832 75.031 120.947 74.874 121.019 C 74.717 121.090 74.543 121.115 74.372 121.091 C 74.201 121.066 74.041 120.993 73.911 120.880 C 73.780 120.767 73.685 120.619 73.636 120.454 C 73.588 120.288 73.588 120.112 73.636 119.946 C 73.685 119.781 73.780 119.633 73.911 119.520 C 74.041 119.407 74.201 119.334 74.372 119.309 C 74.543 119.285 74.717 119.310 74.874 119.381 C 75.031 119.453 75.164 119.568 75.257 119.713 C 75.350 119.859 75.400 120.027 75.400 120.200 Z" stroke="rgb(0,0,255)" stroke-width="0.20" />
  <path d="M 74.500 123.300 C 75.044 123.300 75.579 123.157 76.050 122.885 C 76.521 122.613 76.913 122.221 77.185 121.750 C 77.457 121.279 77.600 120.744 77.600 120.200 C 77.600 119.656 77.457 119.121 77.185 118.650 C 76.913 118.179 76.521 117.787 76.050 117.515 C 75.579 117.243 75.044 117.100 74.500 117.100 C 73.956 117.100 73.421 117.243 72.950 117.515 C 72.479 117.787 72.087 118.179 71.815 118.650 C 71.543 119.121 71.400 119.656 71.400 120.200 C 71.400 120.744 71.543 121.279 71.815 121.750 C 72.087 122.221 72.479 122.613 72.950 122.885 C 73.421 123.157 73.956 123.300 74.500 123.300 Z" stroke="rgb(0,0,0)" stroke-width="0.20" />
</g>
<g id="p-14" style="fill:none;stroke-linecap:round;stroke-linejoin:round;">
  <path d="M 75.400 112.500 C 75.400 112.673 75.350 112.841 75.257 112.987 C 75.164 113.132 75.031 113.247 74.874 113.319 C 74.717 113.390 74.543 113.415 74.372 113.391 C 74.201 113.366 74.041 113.293 73.911 113.180 C 73.780 113.067 73.685 112.919 73.636 112.754 C 73.588 112.588 73.588 112.412 73.636 112.246 C 73.685 112.081 73.780 111.933 73.911 111.820 C 74.041 111.707 74.201 111.634 74.372 111.609 C 74.543 111.585 74.717 111.610 74.874 111.681 C 75.031 111.753 75.164 111.868 75.257 112.013 C 75.350 112.159 75.400 112.327 75.400 112.500 Z" stroke="rgb(0,0,255)" stroke-width="0.20" />
  <path d="M 74.500 115.600 C 75.044 115.600 75.579 115.457 76.050 115.185 C 76.521 114.913 76.913 114.521 77.185 114.050 C 77.457 113.579 77.600 113.044 77.600 112.500 C 77.600 111.956 77.457 111.421 77.185 110.950 C 76.913 110.479 76.521 110.087 76.050 109.815 C 75.579 109.543 75.044 109.400 74.500 109.400 C 73.956 109.400 73.421 109.543 72.950 109.815 C 72.479 110.087 72.087 110.479 71.815 110.950 C 71.543 111.421 71.400 111.956 71.400 112.500 C 71.400 113.044 71.543 113.579 71.815 114.050 C 72.087 114.521 72.479 114.913 72.950 115.185 C 73.421 115.457 73.956 115.600 74.500 115.600 Z" stroke="rgb(0,0,0)" stroke-width="0.20" />
</g>
<g id="p-15" style="fill:none;stroke-linecap:round;stroke-linejoin:round;">
  <path d="M 75.400 104.800 C 75.400 104.973 75.350 105.141 75.257 105.287 C 75.164 105.432 75.031 105.547 74.874 105.619 C 74.717 105.690 74.543 105.715 74.372 105.691 C 74.201 105.666 74.041 105.593 73.911 105.480 C 73.780 105.367 73.685 105.219 73.636 105.054 C 73.588 104.888 73.588 104.712 73.636 104.546 C 73.685 104.381 73.780 104.233 73.911 104.120 C 74.041 104.007 74.201 103.934 74.372 103.909 C 74.543 103.885 74.717 103.910 74.874 103.981 C 75.031 104.053 75.164 104.168 75.257 104.313 C 75.350 104.459 75.400 104.627 75.400 104.800 Z" stroke="rgb(0,0,255)" stroke-width="0.20" />
  <path d="M 74.500 107.900 C 75.044 107.900 75.579 107.757 76.050 107.485 C 76.521 107.213 76.913 106.821 77.185 106.350 C 77.457 105.879 77.600 105.344 77.600 104.800 C 77.600 104.256 77.457 103.721 77.185 103.250 C 76.913 102.779 76.521 102.387 76.050 102.115 C 75.579 101.843 75.044 101.700 74.500 101.700 C 73.956 101.700 73.421 101.843 72.950 102.115 C 72.479 102.387 72.087 102.779 71.815 103.250 C 71.543 103.721 71.400 104.256 71.400 104.800 C 71.400 105.344 71.543 105.879 71.815 106.350 C 72.087 106.821 72.479 107.213 72.950 107.485 C 73.421 107.757 73.956 107.900 74.500 107.900 Z" stroke="rgb(0,0,0)" stroke-width="0.20" />
</g>
<g id="p-16" style="fill:none;stroke-linecap:round;stroke-linejoin:round;">
  <text dominant-baseline="hanging" font-size="22.799999999999997px" style="font-family: sans-serif ; font-weight: normal; font-style: normal; fill: rgb(0,0,0)" text-anchor="middle" transform="matrix( 1.000 0.000 0.000 1.000 324.940 87.800 )">1</text><path d="M 317.500 123.300 H 323.500 H 329.500 C 330.571 123.300 331.623 123.018 332.550 122.483 C 333.477 121.947 334.247 121.177 334.783 120.250 C 335.318 119.323 335.600 118.271 335.600 117.200 V 81.200 C 335.600 80.129 335.318 79.077 334.783 78.150 C 334.247 77.223 333.477 76.453 332.550 75.917 C 331.623 75.382 330.571 75.100 329.500 75.100 H 317.500 C 316.429 75.100 315.377 75.382 314.450 75.917 C 313.523 76.453 312.753 77.223 312.217 78.150 C 311.682 79.077 311.400 80.129 311.400 81.200 V 117.200 C 311.400 118.271 311.682 119.323 312.217 120.250 C 312.753 121.177 313.523 121.947 314.450 122.483 C 315.377 123.018 316.429 123.300 317.500 123.300 Z" stroke="rgb(0,0,0)" stroke-width="0.20" />
  <path d="M 323.500 112.100 H 311.600 C 311.500 112.100 311.600 112.200 311.600 112.100 V 110.300 C 311.600 110.200 311.500 110.300 311.600 110.300 H 335.400 C 335.500 110.300 335.400 110.200 335.400 110.300 V 112.100 C 335.400 112.200 335.500 112.100 335.400 112.100 H 323.500 Z" stroke="rgb(0,0,255)" stroke-width="0.20" />
</g>
<g id="p-17" style="fill:none;stroke-linecap:round;stroke-linejoin:round;">
  <path d="M 317.500 73.600 H 323.500 H 329.500 C 330.571 73.600 331.623 73.318 332.550 72.783 C 333.477 72.247 334.247 71.477 334.783 70.550 C 335.318 69.623 335.600 68.571 335.600 67.500 V 31.500 C 335.600 30.429 335.318 29.377 334.783 28.450 C 334.247 27.523 333.477 26.753 332.550 26.217 C 331.623 25.682 330.571 25.400 329.500 25.400 H 317.500 C 316.429 25.400 315.377 25.682 314.450 26.217 C 313.523 26.753 312.753 27.523 312.217 28.450 C 311.682 29.377 311.400 30.429 311.400 31.500 V 67.500 C 311.400 68.571 311.682 69.623 312.217 70.550 C 312.753 71.477 313.523 72.247 314.450 72.783 C 315.377 73.318 316.429 73.600 317.500 73.600 Z" stroke="rgb(0,0,0)" stroke-width="0.20" />
</g>
<g id="p-18" style="fill:none;stroke-linecap:round;stroke-linejoin:round;">
  <text dominant-baseline="hanging" font-size="22.799999999999997px" style="font-family: sans-serif ; font-weight: normal; font-style: normal; fill: rgb(0,0,0)" text-anchor="middle" transform="matrix( 1.000 0.000 0.000 1.000 350.640 87.800 )">2</text><path d="M 343.200 123.300 H 349.200 H 355.200 C 356.271 123.300 357.323 123.018 358.250 122.483 C 359.177 121.947 359.947 121.177 360.483 120.250 C 361.018 119.323 361.300 118.271 361.300 117.200 V 81.200 C 361.300 80.129 361.018 79.077 360.483 78.150 C 359.947 77.223 359.177 76.453 358.250 75.917 C 357.323 75.382 356.271 75.100 355.200 75.100 H 343.200 C 342.129 75.100 341.077 75.382 340.150 75.917 C 339.223 76.453 338.453 77.223 337.917 78.150 C 337.382 79.077 337.100 80.129 337.100 81.200 V 117.200 C 337.100 118.271 337.382 119.323 337.917 120.250 C 338.453 121.177 339.223 121.947 340.150 122.483 C 341.077 123.018 342.129 123.300 343.200 123.300 Z" stroke="rgb(0,0,0)" stroke-width="0.20" />
  <path d="M 349.200 112.100 H 337.300 C 337.200 112.100 337.300 112.200 337.300 112.100 V 110.300 C 337.300 110.200 337.200 110.300 337.300 110.300 H 361.100 C 361.200 110.300 361.100 110.200 361.100 110.300 V 112.100 C 361.100 112.200 361.200 112.100 361.100 112.100 H 349.200 Z" stroke="rgb(0,0,255)" stroke-width="0.20" />
</g>
<g id="p-19" style="fill:none;stroke-linecap:round;stroke-linejoin:round;">
  <path d="M 343.200 73.600 H 349.200 H 355.200 C 356.271 73.600 357.323 73.318 358.250 72.783 C 359.177 72.247 359.947 71.477 360.483 70.550 C 361.018 69.623 361.300 68.571 361.300 67.500 V 31.500 C 361.300 30.429 361.018 29.377 360.483 28.450 C 359.947 27.523 359.177 26.753 358.250 26.217 C 357.323 25.682 356.271 25.400 355.200 25.400 H 343.200 C 342.129 25.400 341.077 25.682 340.150 26.217 C 339.223 26.753 338.453 27.523 337.917 28.450 C 337.382 29.377 337.100 30.429 337.100 31.500 V 67.500 C 337.100 68.571 337.382 69.623 337.917 70.550 C 338.453 71.477 339.223 72.247 340.150 72.783 C 341.077 73.318 342.129 73.600 343.200 73.600 Z" stroke="rgb(0,0,0)" stroke-width="0.20" />
</g>
<g id="p-20" style="fill:none;stroke-linecap:round;stroke-linejoin:round;">
  <text dominant-baseline="hanging" font-size="22.799999999999997px" style="font-family: sans-serif ; font-weight: normal; font-style: normal; fill: rgb(0,0,0)" text-anchor="middle" transform="matrix( 1.000 0.000 0.000 1.000 376.340 87.800 )">3</text><path d="M 368.900 123.300 H 374.900 H 380.900 C 381.971 123.300 383.023 123.018 383.950 122.483 C 384.877 121.947 385.647 121.177 386.183 120.250 C 386.718 119.323 387.000 118.271 387.000 117.200 V 81.200 C 387.000 80.129 386.718 79.077 386.183 78.150 C 385.647 77.223 384.877 76.453 383.950 75.917 C 383.023 75.382 381.971 75.100 380.900 75.100 H 368.900 C 367.829 75.100 366.777 75.382 365.850 75.917 C 364.923 76.453 364.153 77.223 363.617 78.150 C 363.082 79.077 362.800 80.129 362.800 81.200 V 117.200 C 362.800 118.271 363.082 119.323 363.617 120.250 C 364.153 121.177 364.923 121.947 365.850 122.483 C 366.777 123.018 367.829 123.300 368.900 123.300 Z" stroke="rgb(0,0,0)" stroke-width="0.20" />
  <path d="M 374.900 112.100 H 363.000 C 362.900 112.100 363.000 112.200 363.000 112.100 V 110.300 C 363.000 110.200 362.900 110.300 363.000 110.300 H 386.800 C 386.900 110.300 386.800 110.200 386.800 110.300 V 112.100 C 386.800 112.200 386.900 112.100 386.800 112.100 H 374.900 Z" stroke="rgb(0,0,255)" stroke-width="0.20" />
</g>
<g id="p-21" style="fill:none;stroke-linecap:round;stroke-linejoin:round;">
  <path d="M 368.900 73.600 H 374.900 H 380.900 C 381.971 73.600 383.023 73.318 383.950 72.783 C 384.877 72.247 385.647 71.477 386.183 70.550 C 386.718 69.623 387.000 68.571 387.000 67.500 V 31.500 C 387.000 30.429 386.718 29.377 386.183 28.450 C 385.647 27.523 384.877 26.753 383.950 26.217 C 383.023 25.682 381.971 25.400 380.900 25.400 H 368.900 C 367.829 25.400 366.777 25.682 365.850 26.217 C 364.923 26.753 364.153 27.523 363.617 28.450 C 363.082 29.377 362.800 30.429 362.800 31.500 V 67.500 C 362.800 68.571 363.082 69.623 363.617 70.550 C 364.153 71.477 364.923 72.247 365.850 72.783 C 366.777 73.318 367.829 73.600 368.900 73.600 Z" stroke="rgb(0,0,0)" stroke-width="0.20" />
</g>
<g id="p-22" style="fill:none;stroke-linecap:round;stroke-linejoin:round;">
  <text dominant-baseline="hanging" font-size="22.799999999999997px" style="font-family: sans-serif ; font-weight: normal; font-style: normal; fill: rgb(0,0,0)" text-anchor="middle" transform="matrix( 1.000 0.000 0.000 1.000 402.040 87.800 )">4</text><path d="M 394.600 123.300 H 400.600 H 406.600 C 407.671 123.300 408.723 123.018 409.650 122.483 C 410.577 121.947 411.347 121.177 411.883 120.250 C 412.418 119.323 412.700 118.271 412.700 117.200 V 81.200 C 412.700 80.129 412.418 79.077 411.883 78.150 C 411.347 77.223 410.577 76.453 409.650 75.917 C 408.723 75.382 407.671 75.100 406.600 75.100 H 394.600 C 393.529 75.100 392.477 75.382 391.550 75.917 C 390.623 76.453 389.853 77.223 389.317 78.150 C 388.782 79.077 388.500 80.129 388.500 81.200 V 117.200 C 388.500 118.271 388.782 119.323 389.317 120.250 C 389.853 121.177 390.623 121.947 391.550 122.483 C 392.477 123.018 393.529 123.300 394.600 123.300 Z" stroke="rgb(0,0,0)" stroke-width="0.20" />
  <path d="M 400.600 112.100 H 388.700 C 388.600 112.100 388.700 112.200 388.700 112.100 V 110.300 C 388.700 110.200 388.600 110.300 388.700 110.300 H 412.500 C 412.600 110.300 412.500 110.200 412.500 110.300 V 112.100 C 412.500 112.200 412.600 112.100 412.500 112.100 H 400.600 Z" stroke="rgb(0,0,255)" stroke-width="0.20" />
</g>
<g id="p-23" style="fill:none;stroke-linecap:round;stroke-linejoin:round;">
  <path d="M 394.600 73.600 H 400.600 H 406.600 C 407.671 73.600 408.723 73.318 409.650 72.783 C 410.577 72.247 411.347 71.477 411.883 70.550 C 412.418 69.623 412.700 68.571 412.700 67.500 V 31.500 C 412.700 30.429 412.418 29.377 411.883 28.450 C 411.347 27.523 410.577 26.753 409.650 26.217 C 408.723 25.682 407.671 25.400 406.600 25.400 H 394.600 C 393.529 25.400 392.477 25.682 391.550 26.217 C 390.623 26.753 389.853 27.523 389.317 28.450 C 388.782 29.377 388.500 30.429 388.500 31.500 V 67.500 C 388.500 68.571 388.782 69.623 389.317 70.550 C 389.853 71.477 390.623 72.247 391.550 72.783 C 392.477 73.318 393.529 73.600 394.600 73.600 Z" stroke="rgb(0,0,0)" stroke-width="0.20" />
</g>
<g id="p-24" style="fill:none;stroke-linecap:round;stroke-linejoin:round;">
  <text dominant-baseline="hanging" font-size="22.799999999999997px" style="font-family: sans-serif ; font-weight: normal; font-style: normal; fill: rgb(0,0,0)" text-anchor="middle" transform="matrix( 1.000 0.000 0.000 1.000 427.740 87.800 )">5</text><path d="M 420.300 123.300 H 426.300 H 432.300 C 433.371 123.300 434.423 123.018 435.350 122.483 C 436.277 121.947 437.047 121.177 437.583 120.250 C 438.118 119.323 438.400 118.271 438.400 117.200 V 81.200 C 438.400 80.129 438.118 79.077 437.583 78.150 C 437.047 77.223 436.277 76.453 435.350 75.917 C 434.423 75.382 433.371 75.100 432.300 75.100 H 420.300 C 419.229 75.100 418.177 75.382 417.250 75.917 C 416.323 76.453 415.553 77.223 415.017 78.150 C 414.482 79.077 414.200 80.129 414.200 81.200 V 117.200 C 414.200 118.271 414.482 119.323 415.017 120.250 C 415.553 121.177 416.323 121.947 417.250 122.483 C 418.177 123.018 419.229 123.300 420.300 123.300 Z" stroke="rgb(0,0,0)" stroke-width="0.20" />
  <path d="M 426.300 112.100 H 414.400 C 414.300 112.100 414.400 112.200 414.400 112.100 V 110.300 C 414.400 110.200 414.300 110.300 414.400 110.300 H 438.200 C 438.300 110.300 438.200 110.200 438.200 110.300 V 112.100 C 438.200 112.200 438.300 112.100 438.200 112.100 H 426.300 Z" stroke="rgb(0,0,255)" stroke-width="0.20" />
</g>
<g id="p-25" style="fill:none;stroke-linecap:round;stroke-linejoin:round;">
  <path d="M 420.300 73.600 H 426.300 H 432.300 C 433.371 73.600 434.423 73.318 435.350 72.783 C 436.277 72.247 437.047 71.477 437.583 70.550 C 438.118 69.623 438.400 68.571 438.400 67.500 V 31.500 C 438.400 30.429 438.118 29.377 437.583 28.450 C 437.047 27.523 436.277 26.753 435.350 26.217 C 434.423 25.682 433.371 25.400 432.300 25.400 H 420.300 C 419.229 25.400 418.177 25.682 417.250 26.217 C 416.323 26.753 415.553 27.523 415.017 28.450 C 414.482 29.377 414.200 30.429 414.200 31.500 V 67.500 C 414.200 68.571 414.482 69.623 415.017 70.550 C 415.553 71.477 416.323 72.247 417.250 72.783 C 418.177 73.318 419.229 73.600 420.300 73.600 Z" stroke="rgb(0,0,0)" stroke-width="0.20" />
</g>
<g id="p-26" style="fill:none;stroke-linecap:round;stroke-linejoin:round;">
  <text dominant-baseline="hanging" font-size="22.799999999999997px" style="font-family: sans-serif ; font-weight: normal; font-style: normal; fill: rgb(0,0,0)" text-anchor="middle" transform="matrix( 1.000 0.000 0.000 1.000 453.440 87.800 )">6</text><path d="M 446.000 123.300 H 452.000 H 458.000 C 459.071 123.300 460.123 123.018 461.050 122.483 C 461.977 121.947 462.747 121.177 463.283 120.250 C 463.818 119.323 464.100 118.271 464.100 117.200 V 81.200 C 464.100 80.129 463.818 79.077 463.283 78.150 C 462.747 77.223 461.977 76.453 461.050 75.917 C 460.123 75.382 459.071 75.100 458.000 75.100 H 446.000 C 444.929 75.100 443.877 75.382 442.950 75.917 C 442.023 76.453 441.253 77.223 440.717 78.150 C 440.182 79.077 439.900 80.129 439.900 81.200 V 117.200 C 439.900 118.271 440.182 119.323 440.717 120.250 C 441.253 121.177 442.023 121.947 442.950 122.483 C 443.877 123.018 444.929 123.300 446.000 123.300 Z" stroke="rgb(0,0,0)" stroke-width="0.20" />
  <path d="M 452.000 112.100 H 440.100 C 440.000 112.100 440.100 112.200 440.100 112.100 V 110.300 C 440.100 110.200 440.000 110.300 440.100 110.300 H 463.900 C 464.000 110.300 463.900 110.200 463.900 110.300 V 112.100 C 463.900 112.200 464.000 112.100 463.900 112.100 H 452.000 Z" stroke="rgb(0,0,255)" stroke-width="0.20" />
</g>
<g id="p-27" style="fill:none;stroke-linecap:round;stroke-linejoin:round;">
  <path d="M 446.000 73.600 H 452.000 H 458.000 C 459.071 73.600 460.123 73.318 461.050 72.783 C 461.977 72.247 462.747 71.477 463.283 70.550 C 463.818 69.623 464.100 68.571 464.100 67.500 V 31.500 C 464.100 30.429 463.818 29.377 463.283 28.450 C 462.747 27.523 461.977 26.753 461.050 26.217 C 460.123 25.682 459.071 25.400 458.000 25.400 H 446.000 C 444.929 25.400 443.877 25.682 442.950 26.217 C 442.023 26.753 441.253 27.523 440.717 28.450 C 440.182 29.377 439.900 30.429 439.900 31.500 V 67.500 C 439.900 68.571 440.182 69.623 440.717 70.550 C 441.253 71.477 442.023 72.247 442.950 72.783 C 443.877 73.318 444.929 73.600 446.000 73.600 Z" stroke="rgb(0,0,0)" stroke-width="0.20" />
</g>
<g id="p-28" style="fill:none;stroke-linecap:round;stroke-linejoin:round;">
  <text dominant-baseline="hanging" font-size="22.799999999999997px" style="font-family: sans-serif ; font-weight: normal; font-style: normal; fill: rgb(0,0,0)" text-anchor="middle" transform="matrix( 1.000 0.000 0.000 1.000 479.140 87.800 )">7</text><path d="M 471.700 123.300 H 477.700 H 483.700 C 484.771 123.300 485.823 123.018 486.750 122.483 C 487.677 121.947 488.447 121.177 488.983 120.250 C 489.518 119.323 489.800 118.271 489.800 117.200 V 81.200 C 489.800 80.129 489.518 79.077 488.983 78.150 C 488.447 77.223 487.677 76.453 486.750 75.917 C 485.823 75.382 484.771 75.100 483.700 75.100 H 471.700 C 470.629 75.100 469.577 75.382 468.650 75.917 C 467.723 76.453 466.953 77.223 466.417 78.150 C 465.882 79.077 465.600 80.129 465.600 81.200 V 117.200 C 465.600 118.271 465.882 119.323 466.417 120.250 C 466.953 121.177 467.723 121.947 468.650 122.483 C 469.577 123.018 470.629 123.300 471.700 123.300 Z" stroke="rgb(0,0,0)" stroke-width="0.20" />
  <path d="M 477.700 112.100 H 465.800 C 465.700 112.100 465.800 112.200 465.800 112.100 V 110.300 C 465.800 110.200 465.700 110.300 465.800 110.300 H 489.600 C 489.700 110.300 489.600 110.200 489.600 110.300 V 112.100 C 489.600 112.200 489.700 112.100 489.600 112.100 H 477.700 Z" stroke="rgb(0,0,255)" stroke-width="0.20" />
</g>
<g id="p-29" style="fill:none;stroke-linecap:round;stroke-linejoin:round;">
  <path d="M 471.700 73.600 H 477.700 H 483.700 C 484.771 73.600 485.823 73.318 486.750 72.783 C 487.677 72.247 488.447 71.477 488.983 70.550 C 489.518 69.623 489.800 68.571 489.800 67.500 V 31.500 C 489.800 30.429 489.518 29.377 488.983 28.450 C 488.447 27.523 487.677 26.753 486.750 26.217 C 485.823 25.682 484.771 25.400 483.700 25.400 H 471.700 C 470.629 25.400 469.577 25.682 468.650 26.217 C 467.723 26.753 466.953 27.523 466.417 28.450 C 465.882 29.377 465.600 30.429 465.600 31.500 V 67.500 C 465.600 68.571 465.882 69.623 466.417 70.550 C 466.953 71.477 467.723 72.247 468.650 72.783 C 469.577 73.318 470.629 73.600 471.700 73.600 Z" stroke="rgb(0,0,0)" stroke-width="0.20" />
</g>
<g id="p-30" style="fill:none;stroke-linecap:round;stroke-linejoin:round;">
  <text dominant-baseline="hanging" font-size="22.799999999999997px" style="font-family: sans-serif ; font-weight: normal; font-style: normal; fill: rgb(0,0,0)" text-anchor="middle" transform="matrix( 1.000 0.000 0.000 1.000 504.840 87.800 )">8</text><path d="M 497.400 123.300 H 503.400 H 509.400 C 510.471 123.300 511.523 123.018 512.450 122.483 C 513.377 121.947 514.147 121.177 514.683 120.250 C 515.218 119.323 515.500 118.271 515.500 117.200 V 81.200 C 515.500 80.129 515.218 79.077 514.683 78.150 C 514.147 77.223 513.377 76.453 512.450 75.917 C 511.523 75.382 510.471 75.100 509.400 75.100 H 497.400 C 496.329 75.100 495.277 75.382 494.350 75.917 C 493.423 76.453 492.653 77.223 492.117 78.150 C 491.582 79.077 491.300 80.129 491.300 81.200 V 117.200 C 491.300 118.271 491.582 119.323 492.117 120.250 C 492.653 121.177 493.423 121.947 494.350 122.483 C 495.277 123.018 496.329 123.300 497.400 123.300 Z" stroke="rgb(0,0,0)" stroke-width="0.20" />
  <path d="M 503.400 112.100 H 491.500 C 491.400 112.100 491.500 112.200 491.500 112.100 V 110.300 C 491.500 110.200 491.400 110.300 491.500 110.300 H 515.300 C 515.400 110.300 515.300 110.200 515.300 110.300 V 112.100 C 515.300 112.200 515.400 112.100 515.300 112.100 H 503.400 Z" stroke="rgb(0,0,255)" stroke-width="0.20" />
</g>
<g id="p-31" style="fill:none;stroke-linecap:round;stroke-linejoin:round;">
  <path d="M 497.400 73.600 H 503.400 H 509.400 C 510.471 73.600 511.523 73.318 512.450 72.783 C 513.377 72.247 514.147 71.477 514.683 70.550 C 515.218 69.623 515.500 68.571 515.500 67.500 V 31.500 C 515.500 30.429 515.218 29.377 514.683 28.450 C 514.147 27.523 513.377 26.753 512.450 26.217 C 511.523 25.682 510.471 25.400 509.400 25.400 H 497.400 C 496.329 25.400 495.277 25.682 494.350 26.217 C 493.423 26.753 492.653 27.523 492.117 28.450 C 491.582 29.377 491.300 30.429 491.300 31.500 V 67.500 C 491.300 68.571 491.582 69.623 492.117 70.550 C 492.653 71.477 493.423 72.247 494.350 72.783 C 495.277 73.318 496.329 73.600 497.400 73.600 Z" stroke="rgb(0,0,0)" stroke-width="0.20" />
</g>
<g id="p-32" style="fill:none;stroke-linecap:round;stroke-linejoin:round;">
  <text dominant-baseline="hanging" font-size="22.799999999999997px" style="font-family: sans-serif ; font-weight: normal; font-style: normal; fill: rgb(0,0,0)" text-anchor="middle" transform="matrix( 1.000 0.000 0.000 1.000 530.540 87.800 )">9</text><path d="M 523.100 123.300 H 529.100 H 535.100 C 536.171 123.300 537.223 123.018 538.150 122.483 C 539.077 121.947 539.847 121.177 540.383 120.250 C 540.918 119.323 541.200 118.271 541.200 117.200 V 81.200 C 541.200 80.129 540.918 79.077 540.383 78.150 C 539.847 77.223 539.077 76.453 538.150 75.917 C 537.223 75.382 536.171 75.100 535.100 75.100 H 523.100 C 522.029 75.100 520.977 75.382 520.050 75.917 C 519.123 76.453 518.353 77.223 517.817 78.150 C 517.282 79.077 517.000 80.129 517.000 81.200 V 117.200 C 517.000 118.271 517.282 119.323 517.817 120.250 C 518.353 121.177 519.123 121.947 520.050 122.483 C 520.977 123.018 522.029 123.300 523.100 123.300 Z" stroke="rgb(0,0,0)" stroke-width="0.20" />
  <path d="M 529.100 112.100 H 517.200 C 517.100 112.100 517.200 112.200 517.200 112.100 V 110.300 C 517.200 110.200 517.100 110.300 517.200 110.300 H 541.000 C 541.100 110.300 541.000 110.200 541.000 110.300 V 112.100 C 541.000 112.200 541.100 112.100 541.000 112.100 H 529.100 Z" stroke="rgb(0,0,255)" stroke-width="0.20" />
</g>
<g id="p-33" style="fill:none;stroke-linecap:round;stroke-linejoin:round;">
  <path d="M 523.100 73.600 H 529.100 H 535.100 C 536.171 73.600 537.223 73.318 538.150 72.783 C 539.077 72.247 539.847 71.477 540.383 70.550 C 540.918 69.623 541.200 68.571 541.200 67.500 V 31.500 C 541.200 30.429 540.918 29.377 540.383 28.450 C 539.847 27.523 539.077 26.753 538.150 26.217 C 537.223 25.682 536.171 25.400 535.100 25.400 H 523.100 C 522.029 25.400 520.977 25.682 520.050 26.217 C 519.123 26.753 518.353 27.523 517.817 28.450 C 517.282 29.377 517.000 30.429 517.000 31.500 V 67.500 C 517.000 68.571 517.282 69.623 517.817 70.550 C 518.353 71.477 519.123 72.247 520.050 72.783 C 520.977 73.318 522.029 73.600 523.100 73.600 Z" stroke="rgb(0,0,0)" stroke-width="0.20" />
</g>
</svg>