<?xml version='1.0' encoding='utf-8'?>
<svg height="288.30mm" viewBox="0.0 0.0 480.90 288.30" width="480.90mm" xmlns="http://www.w3.org/2000/svg" xmlns:cc="http://creativecommons.org/ns#" xmlns:dc="http://purl.org/dc/elements/1.1/" xmlns:inkscape="http://www.inkscape.org/namespaces/inkscape" xmlns:rdf="http://www.w3.org/1999/02/22-rdf-syntax-ns#" xmlns:svg="http://www.w3.org/2000/svg" xmlns:xlink="http://www.w3.org/1999/xlink">
<!--
ABox - A simple Box


This box is kept simple on purpose. If you need more features have a look at the UniversalBox.


Created with Boxes.py (https://boxes.hackerspace-bamberg.de/)
Creation date: 2024-11-01 02:24:31
Command line (remove spaces between dashes): boxes ABox - -x=262 - -y=197 - -h=28
Url: https://boxes.hackerspace-bamberg.de/ABox?FingerJoint_style=rectangular&FingerJoint_surroundingspaces=2.0&FingerJoint_bottom_lip=0.0&FingerJoint_edge_width=1.0&FingerJoint_extra_length=0.0&FingerJoint_finger=2.0&FingerJoint_play=0.0&FingerJoint_space=2.0&FingerJoint_width=1.0&Lid_handle=none&Lid_style=none&Lid_handle_height=8.0&Lid_height=4.0&Lid_play=0.1&x=262&y=197&h=28&outside=0&outside=1&bottom_edge=h&thickness=3.0&format=svg&tabs=0.0&qr_code=0&debug=0&labels=0&labels=1&reference=100.0&inner_corners=loop&burn=0.1&language=en&render=2
Url short: https://boxes.hackerspace-bamberg.de/ABox?x=262&y=197&h=28
SettingsUrl: https://boxes.hackerspace-bamberg.de/ABox?FingerJoint_style=rectangular&FingerJoint_surroundingspaces=2.0&FingerJoint_bottom_lip=0.0&FingerJoint_edge_width=1.0&FingerJoint_extra_length=0.0&FingerJoint_finger=2.0&FingerJoint_play=0.0&FingerJoint_space=2.0&FingerJoint_width=1.0&Lid_handle=none&Lid_style=none&Lid_handle_height=8.0&Lid_height=4.0&Lid_play=0.1&x=262&y=197&h=28&outside=0&outside=1&bottom_edge=h&thickness=3.0&format=svg&tabs=0.0&qr_code=0&debug=0&labels=0&labels=1&reference=100.0&inner_corners=loop&burn=0.1&language=en&render=2
SettingsUrl short: https://boxes.hackerspace-bamberg.de/ABox?x=262&y=197&h=28
-->
<title>ABox</title>
<metadata>
<rdf:RDF><cc:Work>
<dc:title>Box - ABox</dc:title>
<dc:date>2024-11-01 02:24:31</dc:date>
<dc:source>https://boxes.hackerspace-bamberg.de/ABox?FingerJoint_style=rectangular&amp;FingerJoint_surroundingspaces=2.0&amp;FingerJoint_bottom_lip=0.0&amp;FingerJoint_edge_width=1.0&amp;FingerJoint_extra_length=0.0&amp;FingerJoint_finger=2.0&amp;FingerJoint_play=0.0&amp;FingerJoint_space=2.0&amp;FingerJoint_width=1.0&amp;Lid_handle=none&amp;Lid_style=none&amp;Lid_handle_height=8.0&amp;Lid_height=4.0&amp;Lid_play=0.1&amp;x=262&amp;y=197&amp;h=28&amp;outside=0&amp;outside=1&amp;bottom_edge=h&amp;thickness=3.0&amp;format=svg&amp;tabs=0.0&amp;qr_code=0&amp;debug=0&amp;labels=0&amp;labels=1&amp;reference=100.0&amp;inner_corners=loop&amp;burn=0.1&amp;language=en&amp;render=2</dc:source>
<dc:source>https://boxes.hackerspace-bamberg.de/ABox?x=262&amp;y=197&amp;h=28</dc:source>
<dc:description>A simple Box

This box is kept simple on purpose. If you need more features have a look at the UniversalBox.

Created with Boxes.py (https://boxes.hackerspace-bamberg.de/)
Command line: boxes ABox --FingerJoint_style=rectangular --FingerJoint_surroundingspaces=2.0 --FingerJoint_bottom_lip=0.0 --FingerJoint_edge_width=1.0 --FingerJoint_extra_length=0.0 --FingerJoint_finger=2.0 --FingerJoint_play=0.0 --FingerJoint_space=2.0 --FingerJoint_width=1.0 --Lid_handle=none --Lid_style=none --Lid_handle_height=8.0 --Lid_height=4.0 --Lid_play=0.1 --x=262 --y=197 --h=28 --outside=0 --outside=1 --bottom_edge=h --thickness=3.0 --format=svg --tabs=0.0 --qr_code=0 --debug=0 --labels=0 --labels=1 --reference=100.0 --inner_corners=loop --burn=0.1
Command line short: boxes ABox --x=262 --y=197 --h=28
Url: https://boxes.hackerspace-bamberg.de/ABox?FingerJoint_style=rectangular&amp;FingerJoint_surroundingspaces=2.0&amp;FingerJoint_bottom_lip=0.0&amp;FingerJoint_edge_width=1.0&amp;FingerJoint_extra_length=0.0&amp;FingerJoint_finger=2.0&amp;FingerJoint_play=0.0&amp;FingerJoint_space=2.0&amp;FingerJoint_width=1.0&amp;Lid_handle=none&amp;Lid_style=none&amp;Lid_handle_height=8.0&amp;Lid_height=4.0&amp;Lid_play=0.1&amp;x=262&amp;y=197&amp;h=28&amp;outside=0&amp;outside=1&amp;bottom_edge=h&amp;thickness=3.0&amp;format=svg&amp;tabs=0.0&amp;qr_code=0&amp;debug=0&amp;labels=0&amp;labels=1&amp;reference=100.0&amp;inner_corners=loop&amp;burn=0.1&amp;language=en&amp;render=2
Url short: https://boxes.hackerspace-bamberg.de/ABox?x=262&amp;y=197&amp;h=28
SettingsUrl: https://boxes.hackerspace-bamberg.de/ABox?FingerJoint_style=rectangular&amp;FingerJoint_surroundingspaces=2.0&amp;FingerJoint_bottom_lip=0.0&amp;FingerJoint_edge_width=1.0&amp;FingerJoint_extra_length=0.0&amp;FingerJoint_finger=2.0&amp;FingerJoint_play=0.0&amp;FingerJoint_space=2.0&amp;FingerJoint_width=1.0&amp;Lid_handle=none&amp;Lid_style=none&amp;Lid_handle_height=8.0&amp;Lid_height=4.0&amp;Lid_play=0.1&amp;x=262&amp;y=197&amp;h=28&amp;outside=0&amp;outside=1&amp;bottom_edge=h&amp;thickness=3.0&amp;format=svg&amp;tabs=0.0&amp;qr_code=0&amp;debug=0&amp;labels=0&amp;labels=1&amp;reference=100.0&amp;inner_corners=loop&amp;burn=0.1&amp;language=en&amp;render=2
SettingsUrl short: https://boxes.hackerspace-bamberg.de/ABox?x=262&amp;y=197&amp;h=28
</dc:description>
</cc:Work></rdf:RDF></metadata>
<g id="p-0" style="fill:none;stroke-linecap:round;stroke-linejoin:round;">
  <path d="M 10.100 278.300 H 110.100 V 268.300 H 10.100 V 278.300 Z" stroke="rgb(0,0,0)" stroke-width="0.20" />
  <text dominant-baseline="hanging" font-size="6px" style="font-family: sans-serif ; font-weight: normal; font-style: normal; fill: rgb(255,0,0)" text-anchor="middle" transform="matrix( 1.000 0.000 0.000 1.000 60.100 270.300 )">100.0mm, burn:0.10mm</text>
</g>
<g id="p-1" style="fill:none;stroke-linecap:round;stroke-linejoin:round;">
  <path d="M 27.100 263.400 H 24.200 C 24.100 263.400 24.200 263.500 24.200 263.400 V 260.600 C 24.200 260.500 24.100 260.600 24.200 260.600 H 30.000 C 30.100 260.600 30.000 260.500 30.000 260.600 V 263.400 C 30.000 263.500 30.100 263.400 30.000 263.400 H 27.100 Z" stroke="rgb(0,0,255)" stroke-width="0.20" />
  <path d="M 39.100 263.400 H 36.200 C 36.100 263.400 36.200 263.500 36.200 263.400 V 260.600 C 36.200 260.500 36.100 260.600 36.200 260.600 H 42.000 C 42.100 260.600 42.000 260.500 42.000 260.600 V 263.400 C 42.000 263.500 42.100 263.400 42.000 263.400 H 39.100 Z" stroke="rgb(0,0,255)" stroke-width="0.20" />
  <path d="M 51.100 263.400 H 48.200 C 48.100 263.400 48.200 263.500 48.200 263.400 V 260.600 C 48.200 260.500 48.100 260.600 48.200 260.600 H 54.000 C 54.100 260.600 54.000 260.500 54.000 260.600 V 263.400 C 54.000 263.500 54.100 263.400 54.000 263.400 H 51.100 Z" stroke="rgb(0,0,255)" stroke-width="0.20" />
  <path d="M 63.100 263.400 H 60.200 C 60.100 263.400 60.200 263.500 60.200 263.400 V 260.600 C 60.200 260.500 60.100 260.600 60.200 260.600 H 66.000 C 66.100 260.600 66.000 260.500 66.000 260.600 V 263.400 C 66.000 263.500 66.100 263.400 66.000 263.400 H 63.100 Z" stroke="rgb(0,0,255)" stroke-width="0.20" />
  <path d="M 75.100 263.400 H 72.200 C 72.100 263.400 72.200 263.500 72.200 263.400 V 260.600 C 72.200 260.500 72.100 260.600 72.200 260.600 H 78.000 C 78.100 260.600 78.000 260.500 78.000 260.600 V 263.400 C 78.000 263.500 78.100 263.400 78.000 263.400 H 75.100 Z" stroke="rgb(0,0,255)" stroke-width="0.20" />
  <path d="M 87.100 263.400 H 84.200 C 84.100 263.400 84.200 263.500 84.200 263.400 V 260.600 C 84.200 260.500 84.100 260.600 84.200 260.600 H 90.000 C 90.100 260.600 90.000 260.500 90.000 260.600 V 263.400 C 90.000 263.500 90.100 263.400 90.000 263.400 H 87.100 Z" stroke="rgb(0,0,255)" stroke-width="0.20" />
  <path d="M 99.100 263.400 H 96.200 C 96.100 263.400 96.200 263.500 96.200 263.400 V 260.600 C 96.200 260.500 96.100 260.600 96.200 260.600 H 102.000 C 102.100 260.600 102.000 260.500 102.000 260.600 V 263.400 C 102.000 263.500 102.100 263.400 102.000 263.400 H 99.100 Z" stroke="rgb(0,0,255)" stroke-width="0.20" />
  <path d="M 111.100 263.400 H 108.200 C 108.100 263.400 108.200 263.500 108.200 263.400 V 260.600 C 108.200 260.500 108.100 260.600 108.200 260.600 H 114.000 C 114.100 260.600 114.000 260.500 114.000 260.600 V 263.400 C 114.000 263.500 114.100 263.400 114.000 263.400 H 111.100 Z" stroke="rgb(0,0,255)" stroke-width="0.20" />
  <path d="M 123.100 263.400 H 120.200 C 120.100 263.400 120.200 263.500 120.200 263.400 V 260.600 C 120.200 260.500 120.100 260.600 120.200 260.600 H 126.000 C 126.100 260.600 126.000 260.500 126.000 260.600 V 263.400 C 126.000 263.500 126.100 263.400 126.000 263.400 H 123.100 Z" stroke="rgb(0,0,255)" stroke-width="0.20" />
  <path d="M 135.100 263.400 H 132.200 C 132.100 263.400 132.200 263.500 132.200 263.400 V 260.600 C 132.200 260.500 132.100 260.600 132.200 260.600 H 138.000 C 138.100 260.600 138.000 260.500 138.000 260.600 V 263.400 C 138.000 263.500 138.100 263.400 138.000 263.400 H 135.100 Z" stroke="rgb(0,0,255)" stroke-width="0.20" />
  <path d="M 147.100 263.400 H 144.200 C 144.100 263.400 144.200 263.500 144.200 263.400 V 260.600 C 144.200 260.500 144.100 260.600 144.200 260.600 H 150.000 C 150.100 260.600 150.000 260.500 150.000 260.600 V 263.400 C 150.000 263.500 150.100 263.400 150.000 263.400 H 147.100 Z" stroke="rgb(0,0,255)" stroke-width="0.20" />
  <path d="M 159.100 263.400 H 156.200 C 156.100 263.400 156.200 263.500 156.200 263.400 V 260.600 C 156.200 260.500 156.100 260.600 156.200 260.600 H 162.000 C 162.100 260.600 162.000 260.500 162.000 260.600 V 263.400 C 162.000 263.500 162.100 263.400 162.000 263.400 H 159.100 Z" stroke="rgb(0,0,255)" stroke-width="0.20" />
  <path d="M 171.100 263.400 H 168.200 C 168.100 263.400 168.200 263.500 168.200 263.400 V 260.600 C 168.200 260.500 168.100 260.600 168.200 260.600 H 174.000 C 174.100 260.600 174.000 260.500 174.000 260.600 V 263.400 C 174.000 263.500 174.100 263.400 174.000 263.400 H 171.100 Z" stroke="rgb(0,0,255)" stroke-width="0.20" />
  <path d="M 183.100 263.400 H 180.200 C 180.100 263.400 180.200 263.500 180.200 263.400 V 260.600 C 180.200 260.500 180.100 260.600 180.200 260.600 H 186.000 C 186.100 260.600 186.000 260.500 186.000 260.600 V 263.400 C 186.000 263.500 186.100 263.400 186.000 263.400 H 183.100 Z" stroke="rgb(0,0,255)" stroke-width="0.20" />
  <path d="M 195.100 263.400 H 192.200 C 192.100 263.400 192.200 263.500 192.200 263.400 V 260.600 C 192.200 260.500 192.100 260.600 192.200 260.600 H 198.000 C 198.100 260.600 198.000 260.500 198.000 260.600 V 263.400 C 198.000 263.500 198.100 263.400 198.000 263.400 H 195.100 Z" stroke="rgb(0,0,255)" stroke-width="0.20" />
  <path d="M 207.100 263.400 H 204.200 C 204.100 263.400 204.200 263.500 204.200 263.400 V 260.600 C 204.200 260.500 204.100 260.600 204.200 260.600 H 210.000 C 210.100 260.600 210.000 260.500 210.000 260.600 V 263.400 C 210.000 263.500 210.100 263.400 210.000 263.400 H 207.100 Z" stroke="rgb(0,0,255)" stroke-width="0.20" />
  <path d="M 219.100 263.400 H 216.200 C 216.100 263.400 216.200 263.500 216.200 263.400 V 260.600 C 216.200 260.500 216.100 260.600 216.200 260.600 H 222.000 C 222.100 260.600 222.000 260.500 222.000 260.600 V 263.400 C 222.000 263.500 222.100 263.400 222.000 263.400 H 219.100 Z" stroke="rgb(0,0,255)" stroke-width="0.20" />
  <path d="M 231.100 263.400 H 228.200 C 228.100 263.400 228.200 263.500 228.200 263.400 V 260.600 C 228.200 260.500 228.100 260.600 228.200 260.600 H 234.000 C 234.100 260.600 234.000 260.500 234.000 260.600 V 263.400 C 234.000 263.500 234.100 263.400 234.000 263.400 H 231.100 Z" stroke="rgb(0,0,255)" stroke-width="0.20" />
  <path d="M 243.100 263.400 H 240.200 C 240.100 263.400 240.200 263.500 240.200 263.400 V 260.600 C 240.200 260.500 240.100 260.600 240.200 260.600 H 246.000 C 246.100 260.600 246.000 260.500 246.000 260.600 V 263.400 C 246.000 263.500 246.100 263.400 246.000 263.400 H 243.100 Z" stroke="rgb(0,0,255)" stroke-width="0.20" />
  <path d="M 255.100 263.400 H 252.200 C 252.100 263.400 252.200 263.500 252.200 263.400 V 260.600 C 252.200 260.500 252.100 260.600 252.200 260.600 H 258.000 C 258.100 260.600 258.000 260.500 258.000 260.600 V 263.400 C 258.000 263.500 258.100 263.400 258.000 263.400 H 255.100 Z" stroke="rgb(0,0,255)" stroke-width="0.20" />
  <path d="M 13.100 266.600 H 269.100 H 272.100 C 272.155 266.600 272.200 266.555 272.200 266.500 V 255.500 C 272.200 255.445 272.155 255.400 272.100 255.400 H 269.200 C 269.100 255.400 269.200 255.500 269.200 255.400 V 249.600 C 269.200 249.500 269.100 249.600 269.200 249.600 H 272.100 C 272.155 249.600 272.200 249.555 272.200 249.500 V 238.500 C 272.200 238.445 272.155 238.400 272.100 238.400 H 269.100 H 13.100 H 10.100 C 10.045 238.400 10.000 238.445 10.000 238.500 V 249.500 C 10.000 249.555 10.045 249.600 10.100 249.600 H 13.000 C 13.100 249.600 13.000 249.500 13.000 249.600 V 255.400 C 13.000 255.500 13.100 255.400 13.000 255.400 H 10.100 C 10.045 255.400 10.000 255.445 10.000 255.500 V 266.500 C 10.000 266.555 10.045 266.600 10.100 266.600 H 13.100 Z" stroke="rgb(0,0,0)" stroke-width="0.20" />
</g>
<g id="p-2" style="fill:none;stroke-linecap:round;stroke-linejoin:round;">
  <path d="M 27.100 233.700 H 24.200 C 24.100 233.700 24.200 233.800 24.200 233.700 V 230.900 C 24.200 230.800 24.100 230.900 24.200 230.900 H 30.000 C 30.100 230.900 30.000 230.800 30.000 230.900 V 233.700 C 30.000 233.800 30.100 233.700 30.000 233.700 H 27.100 Z" stroke="rgb(0,0,255)" stroke-width="0.20" />
  <path d="M 39.100 233.700 H 36.200 C 36.100 233.700 36.200 233.800 36.200 233.700 V 230.900 C 36.200 230.800 36.100 230.900 36.200 230.900 H 42.000 C 42.100 230.900 42.000 230.800 42.000 230.900 V 233.700 C 42.000 233.800 42.100 233.700 42.000 233.700 H 39.100 Z" stroke="rgb(0,0,255)" stroke-width="0.20" />
  <path d="M 51.100 233.700 H 48.200 C 48.100 233.700 48.200 233.800 48.200 233.700 V 230.900 C 48.200 230.800 48.100 230.900 48.200 230.900 H 54.000 C 54.100 230.900 54.000 230.800 54.000 230.900 V 233.700 C 54.000 233.800 54.100 233.700 54.000 233.700 H 51.100 Z" stroke="rgb(0,0,255)" stroke-width="0.20" />
  <path d="M 63.100 233.700 H 60.200 C 60.100 233.700 60.200 233.800 60.200 233.700 V 230.900 C 60.200 230.800 60.100 230.900 60.200 230.900 H 66.000 C 66.100 230.900 66.000 230.800 66.000 230.900 V 233.700 C 66.000 233.800 66.100 233.700 66.000 233.700 H 63.100 Z" stroke="rgb(0,0,255)" stroke-width="0.20" />
  <path d="M 75.100 233.700 H 72.200 C 72.100 233.700 72.200 233.800 72.200 233.700 V 230.900 C 72.200 230.800 72.100 230.900 72.200 230.900 H 78.000 C 78.100 230.900 78.000 230.800 78.000 230.900 V 233.700 C 78.000 233.800 78.100 233.700 78.000 233.700 H 75.100 Z" stroke="rgb(0,0,255)" stroke-width="0.20" />
  <path d="M 87.100 233.700 H 84.200 C 84.100 233.700 84.200 233.800 84.200 233.700 V 230.900 C 84.200 230.800 84.100 230.900 84.200 230.900 H 90.000 C 90.100 230.900 90.000 230.800 90.000 230.900 V 233.700 C 90.000 233.800 90.100 233.700 90.000 233.700 H 87.100 Z" stroke="rgb(0,0,255)" stroke-width="0.20" />
  <path d="M 99.100 233.700 H 96.200 C 96.100 233.700 96.200 233.800 96.200 233.700 V 230.900 C 96.200 230.800 96.100 230.900 96.200 230.900 H 102.000 C 102.100 230.900 102.000 230.800 102.000 230.900 V 233.700 C 102.000 233.800 102.100 233.700 102.000 233.700 H 99.100 Z" stroke="rgb(0,0,255)" stroke-width="0.20" />
  <path d="M 111.100 233.700 H 108.200 C 108.100 233.700 108.200 233.800 108.200 233.700 V 230.900 C 108.200 230.800 108.100 230.900 108.200 230.900 H 114.000 C 114.100 230.900 114.000 230.800 114.000 230.900 V 233.700 C 114.000 233.800 114.100 233.700 114.000 233.700 H 111.100 Z" stroke="rgb(0,0,255)" stroke-width="0.20" />
  <path d="M 123.100 233.700 H 120.200 C 120.100 233.700 120.200 233.800 120.200 233.700 V 230.900 C 120.200 230.800 120.100 230.900 120.200 230.900 H 126.000 C 126.100 230.900 126.000 230.800 126.000 230.900 V 233.700 C 126.000 233.800 126.100 233.700 126.000 233.700 H 123.100 Z" stroke="rgb(0,0,255)" stroke-width="0.20" />
  <path d="M 135.100 233.700 H 132.200 C 132.100 233.700 132.200 233.800 132.200 233.700 V 230.900 C 132.200 230.800 132.100 230.900 132.200 230.900 H 138.000 C 138.100 230.900 138.000 230.800 138.000 230.900 V 233.700 C 138.000 233.800 138.100 233.700 138.000 233.700 H 135.100 Z" stroke="rgb(0,0,255)" stroke-width="0.20" />
  <path d="M 147.100 233.700 H 144.200 C 144.100 233.700 144.200 233.800 144.200 233.700 V 230.900 C 144.200 230.800 144.100 230.900 144.200 230.900 H 150.000 C 150.100 230.900 150.000 230.800 150.000 230.900 V 233.700 C 150.000 233.800 150.100 233.700 150.000 233.700 H 147.100 Z" stroke="rgb(0,0,255)" stroke-width="0.20" />
  <path d="M 159.100 233.700 H 156.200 C 156.100 233.700 156.200 233.800 156.200 233.700 V 230.900 C 156.200 230.800 156.100 230.900 156.200 230.900 H 162.000 C 162.100 230.900 162.000 230.800 162.000 230.900 V 233.700 C 162.000 233.800 162.100 233.700 162.000 233.700 H 159.100 Z" stroke="rgb(0,0,255)" stroke-width="0.20" />
  <path d="M 171.100 233.700 H 168.200 C 168.100 233.700 168.200 233.800 168.200 233.700 V 230.900 C 168.200 230.800 168.100 230.900 168.200 230.900 H 174.000 C 174.100 230.900 174.000 230.800 174.000 230.900 V 233.700 C 174.000 233.800 174.100 233.700 174.000 233.700 H 171.100 Z" stroke="rgb(0,0,255)" stroke-width="0.20" />
  <path d="M 183.100 233.700 H 180.200 C 180.100 233.700 180.200 233.800 180.200 233.700 V 230.900 C 180.200 230.800 180.100 230.900 180.200 230.900 H 186.000 C 186.100 230.900 186.000 230.800 186.000 230.900 V 233.700 C 186.000 233.800 186.100 233.700 186.000 233.700 H 183.100 Z" stroke="rgb(0,0,255)" stroke-width="0.20" />
  <path d="M 195.100 233.700 H 192.200 C 192.100 233.700 192.200 233.800 192.200 233.700 V 230.900 C 192.200 230.800 192.100 230.900 192.200 230.900 H 198.000 C 198.100 230.900 198.000 230.800 198.000 230.900 V 233.700 C 198.000 233.800 198.100 233.700 198.000 233.700 H 195.100 Z" stroke="rgb(0,0,255)" stroke-width="0.20" />
  <path d="M 207.100 233.700 H 204.200 C 204.100 233.700 204.200 233.800 204.200 233.700 V 230.900 C 204.200 230.800 204.100 230.900 204.200 230.900 H 210.000 C 210.100 230.900 210.000 230.800 210.000 230.900 V 233.700 C 210.000 233.800 210.100 233.700 210.000 233.700 H 207.100 Z" stroke="rgb(0,0,255)" stroke-width="0.20" />
  <path d="M 219.100 233.700 H 216.200 C 216.100 233.700 216.200 233.800 216.200 233.700 V 230.900 C 216.200 230.800 216.100 230.900 216.200 230.900 H 222.000 C 222.100 230.900 222.000 230.800 222.000 230.900 V 233.700 C 222.000 233.800 222.100 233.700 222.000 233.700 H 219.100 Z" stroke="rgb(0,0,255)" stroke-width="0.20" />
  <path d="M 231.100 233.700 H 228.200 C 228.100 233.700 228.200 233.800 228.200 233.700 V 230.900 C 228.200 230.800 228.100 230.900 228.200 230.900 H 234.000 C 234.100 230.900 234.000 230.800 234.000 230.900 V 233.700 C 234.000 233.800 234.100 233.700 234.000 233.700 H 231.100 Z" stroke="rgb(0,0,255)" stroke-width="0.20" />
  <path d="M 243.100 233.700 H 240.200 C 240.100 233.700 240.200 233.800 240.200 233.700 V 230.900 C 240.200 230.800 240.100 230.900 240.200 230.900 H 246.000 C 246.100 230.900 246.000 230.800 246.000 230.900 V 233.700 C 246.000 233.800 246.100 233.700 246.000 233.700 H 243.100 Z" stroke="rgb(0,0,255)" stroke-width="0.20" />
  <path d="M 255.100 233.700 H 252.200 C 252.100 233.700 252.200 233.800 252.200 233.700 V 230.900 C 252.200 230.800 252.100 230.900 252.200 230.900 H 258.000 C 258.100 230.900 258.000 230.800 258.000 230.900 V 233.700 C 258.000 233.800 258.100 233.700 258.000 233.700 H 255.100 Z" stroke="rgb(0,0,255)" stroke-width="0.20" />
  <path d="M 13.100 236.900 H 269.100 H 272.100 C 272.155 236.900 272.200 236.855 272.200 236.800 V 225.800 C 272.200 225.745 272.155 225.700 272.100 225.700 H 269.200 C 269.100 225.700 269.200 225.800 269.200 225.700 V 219.900 C 269.200 219.800 269.100 219.900 269.200 219.900 H 272.100 C 272.155 219.900 272.200 219.855 272.200 219.800 V 208.800 C 272.200 208.745 272.155 208.700 272.100 208.700 H 269.100 H 13.100 H 10.100 C 10.045 208.700 10.000 208.745 10.000 208.800 V 219.800 C 10.000 219.855 10.045 219.900 10.100 219.900 H 13.000 C 13.100 219.900 13.000 219.800 13.000 219.900 V 225.700 C 13.000 225.800 13.100 225.700 13.000 225.700 H 10.100 C 10.045 225.700 10.000 225.745 10.000 225.800 V 236.800 C 10.000 236.855 10.045 236.900 10.100 236.900 H 13.100 Z" stroke="rgb(0,0,0)" stroke-width="0.20" />
</g>
<g id="p-3" style="fill:none;stroke-linecap:round;stroke-linejoin:round;">
  <path d="M 13.100 204.200 H 24.000 C 24.100 204.200 24.000 204.100 24.000 204.200 V 207.100 C 24.000 207.155 24.045 207.200 24.100 207.200 H 30.100 C 30.155 207.200 30.200 207.155 30.200 207.100 V 204.200 C 30.200 204.100 30.100 204.200 30.200 204.200 H 36.000 C 36.100 204.200 36.000 204.100 36.000 204.200 V 207.100 C 36.000 207.155 36.045 207.200 36.100 207.200 H 42.100 C 42.155 207.200 42.200 207.155 42.200 207.100 V 204.200 C 42.200 204.100 42.100 204.200 42.200 204.200 H 48.000 C 48.100 204.200 48.000 204.100 48.000 204.200 V 207.100 C 48.000 207.155 48.045 207.200 48.100 207.200 H 54.100 C 54.155 207.200 54.200 207.155 54.200 207.100 V 204.200 C 54.200 204.100 54.100 204.200 54.200 204.200 H 60.000 C 60.100 204.200 60.000 204.100 60.000 204.200 V 207.100 C 60.000 207.155 60.045 207.200 60.100 207.200 H 66.100 C 66.155 207.200 66.200 207.155 66.200 207.100 V 204.200 C 66.200 204.100 66.100 204.200 66.200 204.200 H 72.000 C 72.100 204.200 72.000 204.100 72.000 204.200 V 207.100 C 72.000 207.155 72.045 207.200 72.100 207.200 H 78.100 C 78.155 207.200 78.200 207.155 78.200 207.100 V 204.200 C 78.200 204.100 78.100 204.200 78.200 204.200 H 84.000 C 84.100 204.200 84.000 204.100 84.000 204.200 V 207.100 C 84.000 207.155 84.045 207.200 84.100 207.200 H 90.100 C 90.155 207.200 90.200 207.155 90.200 207.100 V 204.200 C 90.200 204.100 90.100 204.200 90.200 204.200 H 96.000 C 96.100 204.200 96.000 204.100 96.000 204.200 V 207.100 C 96.000 207.155 96.045 207.200 96.100 207.200 H 102.100 C 102.155 207.200 102.200 207.155 102.200 207.100 V 204.200 C 102.200 204.100 102.100 204.200 102.200 204.200 H 108.000 C 108.100 204.200 108.000 204.100 108.000 204.200 V 207.100 C 108.000 207.155 108.045 207.200 108.100 207.200 H 114.100 C 114.155 207.200 114.200 207.155 114.200 207.100 V 204.200 C 114.200 204.100 114.100 204.200 114.200 204.200 H 120.000 C 120.100 204.200 120.000 204.100 120.000 204.200 V 207.100 C 120.000 207.155 120.045 207.200 120.100 207.200 H 126.100 C 126.155 207.200 126.200 207.155 126.200 207.100 V 204.200 C 126.200 204.100 126.100 204.200 126.200 204.200 H 132.000 C 132.100 204.200 132.000 204.100 132.000 204.200 V 207.100 C 132.000 207.155 132.045 207.200 132.100 207.200 H 138.100 C 138.155 207.200 138.200 207.155 138.200 207.100 V 204.200 C 138.200 204.100 138.100 204.200 138.200 204.200 H 144.000 C 144.100 204.200 144.000 204.100 144.000 204.200 V 207.100 C 144.000 207.155 144.045 207.200 144.100 207.200 H 150.100 C 150.155 207.200 150.200 207.155 150.200 207.100 V 204.200 C 150.200 204.100 150.100 204.200 150.200 204.200 H 156.000 C 156.100 204.200 156.000 204.100 156.000 204.200 V 207.100 C 156.000 207.155 156.045 207.200 156.100 207.200 H 162.100 C 162.155 207.200 162.200 207.155 162.200 207.100 V 204.200 C 162.200 204.100 162.100 204.200 162.200 204.200 H 168.000 C 168.100 204.200 168.000 204.100 168.000 204.200 V 207.100 C 168.000 207.155 168.045 207.200 168.100 207.200 H 174.100 C 174.155 207.200 174.200 207.155 174.200 207.100 V 204.200 C 174.200 204.100 174.100 204.200 174.200 204.200 H 180.000 C 180.100 204.200 180.000 204.100 180.000 204.200 V 207.100 C 180.000 207.155 180.045 207.200 180.100 207.200 H 186.100 C 186.155 207.200 186.200 207.155 186.200 207.100 V 204.200 C 186.200 204.100 186.100 204.200 186.200 204.200 H 192.000 C 192.100 204.200 192.000 204.100 192.000 204.200 V 207.100 C 192.000 207.155 192.045 207.200 192.100 207.200 H 198.100 C 198.155 207.200 198.200 207.155 198.200 207.100 V 204.200 C 198.200 204.100 198.100 204.200 198.200 204.200 H 204.000 C 204.100 204.200 204.000 204.100 204.000 204.200 V 207.100 C 204.000 207.155 204.045 207.200 204.100 207.200 H 210.100 C 210.155 207.200 210.200 207.155 210.200 207.100 V 204.200 C 210.200 204.100 210.100 204.200 210.200 204.200 H 216.000 C 216.100 204.200 216.000 204.100 216.000 204.200 V 207.100 C 216.000 207.155 216.045 207.200 216.100 207.200 H 222.100 C 222.155 207.200 222.200 207.155 222.200 207.100 V 204.200 C 222.200 204.100 222.100 204.200 222.200 204.200 H 228.000 C 228.100 204.200 228.000 204.100 228.000 204.200 V 207.100 C 228.000 207.155 228.045 207.200 228.100 207.200 H 234.100 C 234.155 207.200 234.200 207.155 234.200 207.100 V 204.200 C 234.200 204.100 234.100 204.200 234.200 204.200 H 240.000 C 240.100 204.200 240.000 204.100 240.000 204.200 V 207.100 C 240.000 207.155 240.045 207.200 240.100 207.200 H 246.100 C 246.155 207.200 246.200 207.155 246.200 207.100 V 204.200 C 246.200 204.100 246.100 204.200 246.200 204.200 H 252.000 C 252.100 204.200 252.000 204.100 252.000 204.200 V 207.100 C 252.000 207.155 252.045 207.200 252.100 207.200 H 258.100 C 258.155 207.200 258.200 207.155 258.200 207.100 V 204.200 C 258.200 204.100 258.100 204.200 258.200 204.200 H 269.100 C 269.155 204.200 269.200 204.155 269.200 204.100 V 195.700 C 269.200 195.600 269.100 195.700 269.200 195.700 H 272.100 C 272.155 195.700 272.200 195.655 272.200 195.600 V 189.600 C 272.200 189.545 272.155 189.500 272.100 189.500 H 269.200 C 269.100 189.500 269.200 189.600 269.200 189.500 V 183.700 C 269.200 183.600 269.100 183.700 269.200 183.700 H 272.100 C 272.155 183.700 272.200 183.655 272.200 183.600 V 177.600 C 272.200 177.545 272.155 177.500 272.100 177.500 H 269.200 C 269.100 177.500 269.200 177.600 269.200 177.500 V 171.700 C 269.200 171.600 269.100 171.700 269.200 171.700 H 272.100 C 272.155 171.700 272.200 171.655 272.200 171.600 V 165.600 C 272.200 165.545 272.155 165.500 272.100 165.500 H 269.200 C 269.100 165.500 269.200 165.600 269.200 165.500 V 159.700 C 269.200 159.600 269.100 159.700 269.200 159.700 H 272.100 C 272.155 159.700 272.200 159.655 272.200 159.600 V 153.600 C 272.200 153.545 272.155 153.500 272.100 153.500 H 269.200 C 269.100 153.500 269.200 153.600 269.200 153.500 V 147.700 C 269.200 147.600 269.100 147.700 269.200 147.700 H 272.100 C 272.155 147.700 272.200 147.655 272.200 147.600 V 141.600 C 272.200 141.545 272.155 141.500 272.100 141.500 H 269.200 C 269.100 141.500 269.200 141.600 269.200 141.500 V 135.700 C 269.200 135.600 269.100 135.700 269.200 135.700 H 272.100 C 272.155 135.700 272.200 135.655 272.200 135.600 V 129.600 C 272.200 129.545 272.155 129.500 272.100 129.500 H 269.200 C 269.100 129.500 269.200 129.600 269.200 129.500 V 123.700 C 269.200 123.600 269.100 123.700 269.200 123.700 H 272.100 C 272.155 123.700 272.200 123.655 272.200 123.600 V 117.600 C 272.200 117.545 272.155 117.500 272.100 117.500 H 269.200 C 269.100 117.500 269.200 117.600 269.200 117.500 V 111.700 C 269.200 111.600 269.100 111.700 269.200 111.700 H 272.100 C 272.155 111.700 272.200 111.655 272.200 111.600 V 105.600 C 272.200 105.545 272.155 105.500 272.100 105.500 H 269.200 C 269.100 105.500 269.200 105.600 269.200 105.500 V 99.700 C 269.200 99.600 269.100 99.700 269.200 99.700 H 272.100 C 272.155 99.700 272.200 99.655 272.200 99.600 V 93.600 C 272.200 93.545 272.155 93.500 272.100 93.500 H 269.200 C 269.100 93.500 269.200 93.600 269.200 93.500 V 87.700 C 269.200 87.600 269.100 87.700 269.200 87.700 H 272.100 C 272.155 87.700 272.200 87.655 272.200 87.600 V 81.600 C 272.200 81.545 272.155 81.500 272.100 81.500 H 269.200 C 269.100 81.500 269.200 81.600 269.200 81.500 V 75.700 C 269.200 75.600 269.100 75.700 269.200 75.700 H 272.100 C 272.155 75.700 272.200 75.655 272.200 75.600 V 69.600 C 272.200 69.545 272.155 69.500 272.100 69.500 H 269.200 C 269.100 69.500 269.200 69.600 269.200 69.500 V 63.700 C 269.200 63.600 269.100 63.700 269.200 63.700 H 272.100 C 272.155 63.700 272.200 63.655 272.200 63.600 V 57.600 C 272.200 57.545 272.155 57.500 272.100 57.500 H 269.200 C 269.100 57.500 269.200 57.600 269.200 57.500 V 51.700 C 269.200 51.600 269.100 51.700 269.200 51.700 H 272.100 C 272.155 51.700 272.200 51.655 272.200 51.600 V 45.600 C 272.200 45.545 272.155 45.500 272.100 45.500 H 269.200 C 269.100 45.500 269.200 45.600 269.200 45.500 V 39.700 C 269.200 39.600 269.100 39.700 269.200 39.700 H 272.100 C 272.155 39.700 272.200 39.655 272.200 39.600 V 33.600 C 272.200 33.545 272.155 33.500 272.100 33.500 H 269.200 C 269.100 33.500 269.200 33.600 269.200 33.500 V 27.700 C 269.200 27.600 269.100 27.700 269.200 27.700 H 272.100 C 272.155 27.700 272.200 27.655 272.200 27.600 V 21.600 C 272.200 21.545 272.155 21.500 272.100 21.500 H 269.200 C 269.100 21.500 269.200 21.600 269.200 21.500 V 13.100 C 269.200 13.045 269.155 13.000 269.100 13.000 H 258.200 C 258.100 13.000 258.200 13.100 258.200 13.000 V 10.100 C 258.200 10.045 258.155 10.000 258.100 10.000 H 252.100 C 252.045 10.000 252.000 10.045 252.000 10.100 V 13.000 C 252.000 13.100 252.100 13.000 252.000 13.000 H 246.200 C 246.100 13.000 246.200 13.100 246.200 13.000 V 10.100 C 246.200 10.045 246.155 10.000 246.100 10.000 H 240.100 C 240.045 10.000 240.000 10.045 240.000 10.100 V 13.000 C 240.000 13.100 240.100 13.000 240.000 13.000 H 234.200 C 234.100 13.000 234.200 13.100 234.200 13.000 V 10.100 C 234.200 10.045 234.155 10.000 234.100 10.000 H 228.100 C 228.045 10.000 228.000 10.045 228.000 10.100 V 13.000 C 228.000 13.100 228.100 13.000 228.000 13.000 H 222.200 C 222.100 13.000 222.200 13.100 222.200 13.000 V 10.100 C 222.200 10.045 222.155 10.000 222.100 10.000 H 216.100 C 216.045 10.000 216.000 10.045 216.000 10.100 V 13.000 C 216.000 13.100 216.100 13.000 216.000 13.000 H 210.200 C 210.100 13.000 210.200 13.100 210.200 13.000 V 10.100 C 210.200 10.045 210.155 10.000 210.100 10.000 H 204.100 C 204.045 10.000 204.000 10.045 204.000 10.100 V 13.000 C 204.000 13.100 204.100 13.000 204.000 13.000 H 198.200 C 198.100 13.000 198.200 13.100 198.200 13.000 V 10.100 C 198.200 10.045 198.155 10.000 198.100 10.000 H 192.100 C 192.045 10.000 192.000 10.045 192.000 10.100 V 13.000 C 192.000 13.100 192.100 13.000 192.000 13.000 H 186.200 C 186.100 13.000 186.200 13.100 186.200 13.000 V 10.100 C 186.200 10.045 186.155 10.000 186.100 10.000 H 180.100 C 180.045 10.000 180.000 10.045 180.000 10.100 V 13.000 C 180.000 13.100 180.100 13.000 180.000 13.000 H 174.200 C 174.100 13.000 174.200 13.100 174.200 13.000 V 10.100 C 174.200 10.045 174.155 10.000 174.100 10.000 H 168.100 C 168.045 10.000 168.000 10.045 168.000 10.100 V 13.000 C 168.000 13.100 168.100 13.000 168.000 13.000 H 162.200 C 162.100 13.000 162.200 13.100 162.200 13.000 V 10.100 C 162.200 10.045 162.155 10.000 162.100 10.000 H 156.100 C 156.045 10.000 156.000 10.045 156.000 10.100 V 13.000 C 156.000 13.100 156.100 13.000 156.000 13.000 H 150.200 C 150.100 13.000 150.200 13.100 150.200 13.000 V 10.100 C 150.200 10.045 150.155 10.000 150.100 10.000 H 144.100 C 144.045 10.000 144.000 10.045 144.000 10.100 V 13.000 C 144.000 13.100 144.100 13.000 144.000 13.000 H 138.200 C 138.100 13.000 138.200 13.100 138.200 13.000 V 10.100 C 138.200 10.045 138.155 10.000 138.100 10.000 H 132.100 C 132.045 10.000 132.000 10.045 132.000 10.100 V 13.000 C 132.000 13.100 132.100 13.000 132.000 13.000 H 126.200 C 126.100 13.000 126.200 13.100 126.200 13.000 V 10.100 C 126.200 10.045 126.155 10.000 126.100 10.000 H 120.100 C 120.045 10.000 120.000 10.045 120.000 10.100 V 13.000 C 120.000 13.100 120.100 13.000 120.000 13.000 H 114.200 C 114.100 13.000 114.200 13.100 114.200 13.000 V 10.100 C 114.200 10.045 114.155 10.000 114.100 10.000 H 108.100 C 108.045 10.000 108.000 10.045 108.000 10.100 V 13.000 C 108.000 13.100 108.100 13.000 108.000 13.000 H 102.200 C 102.100 13.000 102.200 13.100 102.200 13.000 V 10.100 C 102.200 10.045 102.155 10.000 102.100 10.000 H 96.100 C 96.045 10.000 96.000 10.045 96.000 10.100 V 13.000 C 96.000 13.100 96.100 13.000 96.000 13.000 H 90.200 C 90.100 13.000 90.200 13.100 90.200 13.000 V 10.100 C 90.200 10.045 90.155 10.000 90.100 10.000 H 84.100 C 84.045 10.000 84.000 10.045 84.000 10.100 V 13.000 C 84.000 13.100 84.100 13.000 84.000 13.000 H 78.200 C 78.100 13.000 78.200 13.100 78.200 13.000 V 10.100 C 78.200 10.045 78.155 10.000 78.100 10.000 H 72.100 C 72.045 10.000 72.000 10.045 72.000 10.100 V 13.000 C 72.000 13.100 72.100 13.000 72.000 13.000 H 66.200 C 66.100 13.000 66.200 13.100 66.200 13.000 V 10.100 C 66.200 10.045 66.155 10.000 66.100 10.000 H 60.100 C 60.045 10.000 60.000 10.045 60.000 10.100 V 13.000 C 60.000 13.100 60.100 13.000 60.000 13.000 H 54.200 C 54.100 13.000 54.200 13.100 54.200 13.000 V 10.100 C 54.200 10.045 54.155 10.000 54.100 10.000 H 48.100 C 48.045 10.000 48.000 10.045 48.000 10.100 V 13.000 C 48.000 13.100 48.100 13.000 48.000 13.000 H 42.200 C 42.100 13.000 42.200 13.100 42.200 13.000 V 10.100 C 42.200 10.045 42.155 10.000 42.100 10.000 H 36.100 C 36.045 10.000 36.000 10.045 36.000 10.100 V 13.000 C 36.000 13.100 36.100 13.000 36.000 13.000 H 30.200 C 30.100 13.000 30.200 13.100 30.200 13.000 V 10.100 C 30.200 10.045 30.155 10.000 30.100 10.000 H 24.100 C 24.045 10.000 24.000 10.045 24.000 10.100 V 13.000 C 24.000 13.100 24.100 13.000 24.000 13.000 H 13.100 C 13.045 13.000 13.000 13.045 13.000 13.100 V 21.500 C 13.000 21.600 13.100 21.500 13.000 21.500 H 10.100 C 10.045 21.500 10.000 21.545 10.000 21.600 V 27.600 C 10.000 27.655 10.045 27.700 10.100 27.700 H 13.000 C 13.100 27.700 13.000 27.600 13.000 27.700 V 33.500 C 13.000 33.600 13.100 33.500 13.000 33.500 H 10.100 C 10.045 33.500 10.000 33.545 10.000 33.600 V 39.600 C 10.000 39.655 10.045 39.700 10.100 39.700 H 13.000 C 13.100 39.700 13.000 39.600 13.000 39.700 V 45.500 C 13.000 45.600 13.100 45.500 13.000 45.500 H 10.100 C 10.045 45.500 10.000 45.545 10.000 45.600 V 51.600 C 10.000 51.655 10.045 51.700 10.100 51.700 H 13.000 C 13.100 51.700 13.000 51.600 13.000 51.700 V 57.500 C 13.000 57.600 13.100 57.500 13.000 57.500 H 10.100 C 10.045 57.500 10.000 57.545 10.000 57.600 V 63.600 C 10.000 63.655 10.045 63.700 10.100 63.700 H 13.000 C 13.100 63.700 13.000 63.600 13.000 63.700 V 69.500 C 13.000 69.600 13.100 69.500 13.000 69.500 H 10.100 C 10.045 69.500 10.000 69.545 10.000 69.600 V 75.600 C 10.000 75.655 10.045 75.700 10.100 75.700 H 13.000 C 13.100 75.700 13.000 75.600 13.000 75.700 V 81.500 C 13.000 81.600 13.100 81.500 13.000 81.500 H 10.100 C 10.045 81.500 10.000 81.545 10.000 81.600 V 87.600 C 10.000 87.655 10.045 87.700 10.100 87.700 H 13.000 C 13.100 87.700 13.000 87.600 13.000 87.700 V 93.500 C 13.000 93.600 13.100 93.500 13.000 93.500 H 10.100 C 10.045 93.500 10.000 93.545 10.000 93.600 V 99.600 C 10.000 99.655 10.045 99.700 10.100 99.700 H 13.000 C 13.100 99.700 13.000 99.600 13.000 99.700 V 105.500 C 13.000 105.600 13.100 105.500 13.000 105.500 H 10.100 C 10.045 105.500 10.000 105.545 10.000 105.600 V 111.600 C 10.000 111.655 10.045 111.700 10.100 111.700 H 13.000 C 13.100 111.700 13.000 111.600 13.000 111.700 V 117.500 C 13.000 117.600 13.100 117.500 13.000 117.500 H 10.100 C 10.045 117.500 10.000 117.545 10.000 117.600 V 123.600 C 10.000 123.655 10.045 123.700 10.100 123.700 H 13.000 C 13.100 123.700 13.000 123.600 13.000 123.700 V 129.500 C 13.000 129.600 13.100 129.500 13.000 129.500 H 10.100 C 10.045 129.500 10.000 129.545 10.000 129.600 V 135.600 C 10.000 135.655 10.045 135.700 10.100 135.700 H 13.000 C 13.100 135.700 13.000 135.600 13.000 135.700 V 141.500 C 13.000 141.600 13.100 141.500 13.000 141.500 H 10.100 C 10.045 141.500 10.000 141.545 10.000 141.600 V 147.600 C 10.000 147.655 10.045 147.700 10.100 147.700 H 13.000 C 13.100 147.700 13.000 147.600 13.000 147.700 V 153.500 C 13.000 153.600 13.100 153.500 13.000 153.500 H 10.100 C 10.045 153.500 10.000 153.545 10.000 153.600 V 159.600 C 10.000 159.655 10.045 159.700 10.100 159.700 H 13.000 C 13.100 159.700 13.000 159.600 13.000 159.700 V 165.500 C 13.000 165.600 13.100 165.500 13.000 165.500 H 10.100 C 10.045 165.500 10.000 165.545 10.000 165.600 V 171.600 C 10.000 171.655 10.045 171.700 10.100 171.700 H 13.000 C 13.100 171.700 13.000 171.600 13.000 171.700 V 177.500 C 13.000 177.600 13.100 177.500 13.000 177.500 H 10.100 C 10.045 177.500 10.000 177.545 10.000 177.600 V 183.600 C 10.000 183.655 10.045 183.700 10.100 183.700 H 13.000 C 13.100 183.700 13.000 183.600 13.000 183.700 V 189.500 C 13.000 189.600 13.100 189.500 13.000 189.500 H 10.100 C 10.045 189.500 10.000 189.545 10.000 189.600 V 195.600 C 10.000 195.655 10.045 195.700 10.100 195.700 H 13.000 C 13.100 195.700 13.000 195.600 13.000 195.700 V 204.100 C 13.000 204.155 13.045 204.200 13.100 204.200 Z" stroke="rgb(0,0,0)" stroke-width="0.20" />
</g>
<g id="p-4" style="fill:none;stroke-linecap:round;stroke-linejoin:round;">
  <path d="M 288.300 263.400 H 285.400 C 285.300 263.400 285.400 263.500 285.400 263.400 V 260.600 C 285.400 260.500 285.300 260.600 285.400 260.600 H 291.200 C 291.300 260.600 291.200 260.500 291.200 260.600 V 263.400 C 291.200 263.500 291.300 263.400 291.200 263.400 H 288.300 Z" stroke="rgb(0,0,255)" stroke-width="0.20" />
  <path d="M 300.300 263.400 H 297.400 C 297.300 263.400 297.400 263.500 297.400 263.400 V 260.600 C 297.400 260.500 297.300 260.600 297.400 260.600 H 303.200 C 303.300 260.600 303.200 260.500 303.200 260.600 V 263.400 C 303.200 263.500 303.300 263.400 303.200 263.400 H 300.300 Z" stroke="rgb(0,0,255)" stroke-width="0.20" />
  <path d="M 312.300 263.400 H 309.400 C 309.300 263.400 309.400 263.500 309.400 263.400 V 260.600 C 309.400 260.500 309.300 260.600 309.400 260.600 H 315.200 C 315.300 260.600 315.200 260.500 315.200 260.600 V 263.400 C 315.200 263.500 315.300 263.400 315.200 263.400 H 312.300 Z" stroke="rgb(0,0,255)" stroke-width="0.20" />
  <path d="M 324.300 263.400 H 321.400 C 321.300 263.400 321.400 263.500 321.400 263.400 V 260.600 C 321.400 260.500 321.300 260.600 321.400 260.600 H 327.200 C 327.300 260.600 327.200 260.500 327.200 260.600 V 263.400 C 327.200 263.500 327.300 263.400 327.200 263.400 H 324.300 Z" stroke="rgb(0,0,255)" stroke-width="0.20" />
  <path d="M 336.300 263.400 H 333.400 C 333.300 263.400 333.400 263.500 333.400 263.400 V 260.600 C 333.400 260.500 333.300 260.600 333.400 260.600 H 339.200 C 339.300 260.600 339.200 260.500 339.200 260.600 V 263.400 C 339.200 263.500 339.300 263.400 339.200 263.400 H 336.300 Z" stroke="rgb(0,0,255)" stroke-width="0.20" />
  <path d="M 348.300 263.400 H 345.400 C 345.300 263.400 345.400 263.500 345.400 263.400 V 260.600 C 345.400 260.500 345.300 260.600 345.400 260.600 H 351.200 C 351.300 260.600 351.200 260.500 351.200 260.600 V 263.400 C 351.200 263.500 351.300 263.400 351.200 263.400 H 348.300 Z" stroke="rgb(0,0,255)" stroke-width="0.20" />
  <path d="M 360.300 263.400 H 357.400 C 357.300 263.400 357.400 263.500 357.400 263.400 V 260.600 C 357.400 260.500 357.300 260.600 357.400 260.600 H 363.200 C 363.300 260.600 363.200 260.500 363.200 260.600 V 263.400 C 363.200 263.500 363.300 263.400 363.200 263.400 H 360.300 Z" stroke="rgb(0,0,255)" stroke-width="0.20" />
  <path d="M 372.300 263.400 H 369.400 C 369.300 263.400 369.400 263.500 369.400 263.400 V 260.600 C 369.400 260.500 369.300 260.600 369.400 260.600 H 375.200 C 375.300 260.600 375.200 260.500 375.200 260.600 V 263.400 C 375.200 263.500 375.300 263.400 375.200 263.400 H 372.300 Z" stroke="rgb(0,0,255)" stroke-width="0.20" />
  <path d="M 384.300 263.400 H 381.400 C 381.300 263.400 381.400 263.500 381.400 263.400 V 260.600 C 381.400 260.500 381.300 260.600 381.400 260.600 H 387.200 C 387.300 260.600 387.200 260.500 387.200 260.600 V 263.400 C 387.200 263.500 387.300 263.400 387.200 263.400 H 384.300 Z" stroke="rgb(0,0,255)" stroke-width="0.20" />
  <path d="M 396.300 263.400 H 393.400 C 393.300 263.400 393.400 263.500 393.400 263.400 V 260.600 C 393.400 260.500 393.300 260.600 393.400 260.600 H 399.200 C 399.300 260.600 399.200 260.500 399.200 260.600 V 263.400 C 399.200 263.500 399.300 263.400 399.200 263.400 H 396.300 Z" stroke="rgb(0,0,255)" stroke-width="0.20" />
  <path d="M 408.300 263.400 H 405.400 C 405.300 263.400 405.400 263.500 405.400 263.400 V 260.600 C 405.400 260.500 405.300 260.600 405.400 260.600 H 411.200 C 411.300 260.600 411.200 260.500 411.200 260.600 V 263.400 C 411.200 263.500 411.300 263.400 411.200 263.400 H 408.300 Z" stroke="rgb(0,0,255)" stroke-width="0.20" />
  <path d="M 420.300 263.400 H 417.400 C 417.300 263.400 417.400 263.500 417.400 263.400 V 260.600 C 417.400 260.500 417.300 260.600 417.400 260.600 H 423.200 C 423.300 260.600 423.200 260.500 423.200 260.600 V 263.400 C 423.200 263.500 423.300 263.400 423.200 263.400 H 420.300 Z" stroke="rgb(0,0,255)" stroke-width="0.20" />
  <path d="M 432.300 263.400 H 429.400 C 429.300 263.400 429.400 263.500 429.400 263.400 V 260.600 C 429.400 260.500 429.300 260.600 429.400 260.600 H 435.200 C 435.300 260.600 435.200 260.500 435.200 260.600 V 263.400 C 435.200 263.500 435.300 263.400 435.200 263.400 H 432.300 Z" stroke="rgb(0,0,255)" stroke-width="0.20" />
  <path d="M 444.300 263.400 H 441.400 C 441.300 263.400 441.400 263.500 441.400 263.400 V 260.600 C 441.400 260.500 441.300 260.600 441.400 260.600 H 447.200 C 447.300 260.600 447.200 260.500 447.200 260.600 V 263.400 C 447.200 263.500 447.300 263.400 447.200 263.400 H 444.300 Z" stroke="rgb(0,0,255)" stroke-width="0.20" />
  <path d="M 456.300 263.400 H 453.400 C 453.300 263.400 453.400 263.500 453.400 263.400 V 260.600 C 453.400 260.500 453.300 260.600 453.400 260.600 H 459.200 C 459.300 260.600 459.200 260.500 459.200 260.600 V 263.400 C 459.200 263.500 459.300 263.400 459.200 263.400 H 456.300 Z" stroke="rgb(0,0,255)" stroke-width="0.20" />
  <path d="M 276.800 266.600 H 467.800 C 467.855 266.600 467.900 266.555 467.900 266.500 V 255.600 C 467.900 255.500 467.800 255.600 467.900 255.600 H 470.800 C 470.855 255.600 470.900 255.555 470.900 255.500 V 249.500 C 470.900 249.445 470.855 249.400 470.800 249.400 H 467.900 C 467.800 249.400 467.900 249.500 467.900 249.400 V 238.500 C 467.900 238.445 467.855 238.400 467.800 238.400 H 276.800 C 276.745 238.400 276.700 238.445 276.700 238.500 V 249.400 C 276.700 249.500 276.800 249.400 276.700 249.400 H 273.800 C 273.745 249.400 273.700 249.445 273.700 249.500 V 255.500 C 273.700 255.555 273.745 255.600 273.800 255.600 H 276.700 C 276.800 255.600 276.700 255.500 276.700 255.600 V 266.500 C 276.700 266.555 276.745 266.600 276.800 266.600 Z" stroke="rgb(0,0,0)" stroke-width="0.20" />
</g>
<g id="p-5" style="fill:none;stroke-linecap:round;stroke-linejoin:round;">
  <path d="M 288.300 233.700 H 285.400 C 285.300 233.700 285.400 233.800 285.400 233.700 V 230.900 C 285.400 230.800 285.300 230.900 285.400 230.900 H 291.200 C 291.300 230.900 291.200 230.800 291.200 230.900 V 233.700 C 291.200 233.800 291.300 233.700 291.200 233.700 H 288.300 Z" stroke="rgb(0,0,255)" stroke-width="0.20" />
  <path d="M 300.300 233.700 H 297.400 C 297.300 233.700 297.400 233.800 297.400 233.700 V 230.900 C 297.400 230.800 297.300 230.900 297.400 230.900 H 303.200 C 303.300 230.900 303.200 230.800 303.200 230.900 V 233.700 C 303.200 233.800 303.300 233.700 303.200 233.700 H 300.300 Z" stroke="rgb(0,0,255)" stroke-width="0.20" />
  <path d="M 312.300 233.700 H 309.400 C 309.300 233.700 309.400 233.800 309.400 233.700 V 230.900 C 309.400 230.800 309.300 230.900 309.400 230.900 H 315.200 C 315.300 230.900 315.200 230.800 315.200 230.900 V 233.700 C 315.200 233.800 315.300 233.700 315.200 233.700 H 312.300 Z" stroke="rgb(0,0,255)" stroke-width="0.20" />
  <path d="M 324.300 233.700 H 321.400 C 321.300 233.700 321.400 233.800 321.400 233.700 V 230.900 C 321.400 230.800 321.300 230.900 321.400 230.900 H 327.200 C 327.300 230.900 327.200 230.800 327.200 230.900 V 233.700 C 327.200 233.800 327.300 233.700 327.200 233.700 H 324.300 Z" stroke="rgb(0,0,255)" stroke-width="0.20" />
  <path d="M 336.300 233.700 H 333.400 C 333.300 233.700 333.400 233.800 333.400 233.700 V 230.900 C 333.400 230.800 333.300 230.900 333.400 230.900 H 339.200 C 339.300 230.900 339.200 230.800 339.200 230.900 V 233.700 C 339.200 233.800 339.300 233.700 339.200 233.700 H 336.300 Z" stroke="rgb(0,0,255)" stroke-width="0.20" />
  <path d="M 348.300 233.700 H 345.400 C 345.300 233.700 345.400 233.800 345.400 233.700 V 230.900 C 345.400 230.800 345.300 230.900 345.400 230.900 H 351.200 C 351.300 230.900 351.200 230.800 351.200 230.900 V 233.700 C 351.200 233.800 351.300 233.700 351.200 233.700 H 348.300 Z" stroke="rgb(0,0,255)" stroke-width="0.20" />
  <path d="M 360.300 233.700 H 357.400 C 357.300 233.700 357.400 233.800 357.400 233.700 V 230.900 C 357.400 230.800 357.300 230.900 357.400 230.900 H 363.200 C 363.300 230.900 363.200 230.800 363.200 230.900 V 233.700 C 363.200 233.800 363.300 233.700 363.200 233.700 H 360.300 Z" stroke="rgb(0,0,255)" stroke-width="0.20" />
  <path d="M 372.300 233.700 H 369.400 C 369.300 233.700 369.400 233.800 369.400 233.700 V 230.900 C 369.400 230.800 369.300 230.900 369.400 230.900 H 375.200 C 375.300 230.900 375.200 230.800 375.200 230.900 V 233.700 C 375.200 233.800 375.300 233.700 375.200 233.700 H 372.300 Z" stroke="rgb(0,0,255)" stroke-width="0.20" />
  <path d="M 384.300 233.700 H 381.400 C 381.300 233.700 381.400 233.800 381.400 233.700 V 230.900 C 381.400 230.800 381.300 230.900 381.400 230.900 H 387.200 C 387.300 230.900 387.200 230.800 387.200 230.900 V 233.700 C 387.200 233.800 387.300 233.700 387.200 233.700 H 384.300 Z" stroke="rgb(0,0,255)" stroke-width="0.20" />
  <path d="M 396.300 233.700 H 393.400 C 393.300 233.700 393.400 233.800 393.400 233.700 V 230.900 C 393.400 230.800 393.300 230.900 393.400 230.900 H 399.200 C 399.300 230.900 399.200 230.800 399.200 230.900 V 233.700 C 399.200 233.800 399.300 233.700 399.200 233.700 H 396.300 Z" stroke="rgb(0,0,255)" stroke-width="0.20" />
  <path d="M 408.300 233.700 H 405.400 C 405.300 233.700 405.400 233.800 405.400 233.700 V 230.900 C 405.400 230.800 405.300 230.900 405.400 230.900 H 411.200 C 411.300 230.900 411.200 230.800 411.200 230.900 V 233.700 C 411.200 233.800 411.300 233.700 411.200 233.700 H 408.300 Z" stroke="rgb(0,0,255)" stroke-width="0.20" />
  <path d="M 420.300 233.700 H 417.400 C 417.300 233.700 417.400 233.800 417.400 233.700 V 230.900 C 417.400 230.800 417.300 230.900 417.400 230.900 H 423.200 C 423.300 230.900 423.200 230.800 423.200 230.900 V 233.700 C 423.200 233.800 423.300 233.700 423.200 233.700 H 420.300 Z" stroke="rgb(0,0,255)" stroke-width="0.20" />
  <path d="M 432.300 233.700 H 429.400 C 429.300 233.700 429.400 233.800 429.400 233.700 V 230.900 C 429.400 230.800 429.300 230.900 429.400 230.900 H 435.200 C 435.300 230.900 435.200 230.800 435.200 230.900 V 233.700 C 435.200 233.800 435.300 233.700 435.200 233.700 H 432.300 Z" stroke="rgb(0,0,255)" stroke-width="0.20" />
  <path d="M 444.300 233.700 H 441.400 C 441.300 233.700 441.400 233.800 441.400 233.700 V 230.900 C 441.400 230.800 441.300 230.900 441.400 230.900 H 447.200 C 447.300 230.900 447.200 230.800 447.200 230.900 V 233.700 C 447.200 233.800 447.300 233.700 447.200 233.700 H 444.300 Z" stroke="rgb(0,0,255)" stroke-width="0.20" />
  <path d="M 456.300 233.700 H 453.400 C 453.300 233.700 453.400 233.800 453.400 233.700 V 230.900 C 453.400 230.800 453.300 230.900 453.400 230.900 H 459.200 C 459.300 230.900 459.200 230.800 459.200 230.900 V 233.700 C 459.200 233.800 459.300 233.700 459.200 233.700 H 456.300 Z" stroke="rgb(0,0,255)" stroke-width="0.20" />
  <path d="M 276.800 236.900 H 467.800 C 467.855 236.900 467.900 236.855 467.900 236.800 V 225.900 C 467.900 225.800 467.800 225.900 467.900 225.900 H 470.800 C 470.855 225.900 470.900 225.855 470.900 225.800 V 219.800 C 470.900 219.745 470.855 219.700 470.800 219.700 H 467.900 C 467.800 219.700 467.900 219.800 467.900 219.700 V 208.800 C 467.900 208.745 467.855 208.700 467.800 208.700 H 276.800 C 276.745 208.700 276.700 208.745 276.700 208.800 V 219.700 C 276.700 219.800 276.800 219.700 276.700 219.700 H 273.800 C 273.745 219.700 273.700 219.745 273.700 219.800 V 225.800 C 273.700 225.855 273.745 225.900 273.800 225.900 H 276.700 C 276.800 225.900 276.700 225.800 276.700 225.900 V 236.800 C 276.700 236.855 276.745 236.900 276.800 236.900 Z" stroke="rgb(0,0,0)" stroke-width="0.20" />
</g>
</svg>