<?xml version='1.0' encoding='utf-8'?>
<svg height="315.30mm" viewBox="0.0 0.0 486.90 315.30" width="486.90mm" xmlns="http://www.w3.org/2000/svg" xmlns:cc="http://creativecommons.org/ns#" xmlns:dc="http://purl.org/dc/elements/1.1/" xmlns:inkscape="http://www.inkscape.org/namespaces/inkscape" xmlns:rdf="http://www.w3.org/1999/02/22-rdf-syntax-ns#" xmlns:svg="http://www.w3.org/2000/svg" xmlns:xlink="http://www.w3.org/1999/xlink">
<!--
ABox - A simple Box


This box is kept simple on purpose. If you need more features have a look at the UniversalBox.


Created with Boxes.py (https://boxes.hackerspace-bamberg.de/)
Creation date: 2024-11-01 01:43:51
Command line (remove spaces between dashes): boxes ABox - -x=265 - -y=200 - -h=40
Url: https://boxes.hackerspace-bamberg.de/ABox?FingerJoint_style=rectangular&FingerJoint_surroundingspaces=2.0&FingerJoint_bottom_lip=0.0&FingerJoint_edge_width=1.0&FingerJoint_extra_length=0.0&FingerJoint_finger=2.0&FingerJoint_play=0.0&FingerJoint_space=2.0&FingerJoint_width=1.0&Lid_handle=none&Lid_style=none&Lid_handle_height=8.0&Lid_height=4.0&Lid_play=0.1&x=265&y=200&h=40&outside=0&outside=1&bottom_edge=h&thickness=3.0&format=svg&tabs=0.0&qr_code=0&debug=0&labels=0&labels=1&reference=100.0&inner_corners=loop&burn=0.1&language=en&render=2
Url short: https://boxes.hackerspace-bamberg.de/ABox?x=265&y=200&h=40
SettingsUrl: https://boxes.hackerspace-bamberg.de/ABox?FingerJoint_style=rectangular&FingerJoint_surroundingspaces=2.0&FingerJoint_bottom_lip=0.0&FingerJoint_edge_width=1.0&FingerJoint_extra_length=0.0&FingerJoint_finger=2.0&FingerJoint_play=0.0&FingerJoint_space=2.0&FingerJoint_width=1.0&Lid_handle=none&Lid_style=none&Lid_handle_height=8.0&Lid_height=4.0&Lid_play=0.1&x=265&y=200&h=40&outside=0&outside=1&bottom_edge=h&thickness=3.0&format=svg&tabs=0.0&qr_code=0&debug=0&labels=0&labels=1&reference=100.0&inner_corners=loop&burn=0.1&language=en&render=2
SettingsUrl short: https://boxes.hackerspace-bamberg.de/ABox?x=265&y=200&h=40
-->
<title>ABox</title>
<metadata>
<rdf:RDF><cc:Work>
<dc:title>Box - ABox</dc:title>
<dc:date>2024-11-01 01:43:51</dc:date>
<dc:source>https://boxes.hackerspace-bamberg.de/ABox?FingerJoint_style=rectangular&amp;FingerJoint_surroundingspaces=2.0&amp;FingerJoint_bottom_lip=0.0&amp;FingerJoint_edge_width=1.0&amp;FingerJoint_extra_length=0.0&amp;FingerJoint_finger=2.0&amp;FingerJoint_play=0.0&amp;FingerJoint_space=2.0&amp;FingerJoint_width=1.0&amp;Lid_handle=none&amp;Lid_style=none&amp;Lid_handle_height=8.0&amp;Lid_height=4.0&amp;Lid_play=0.1&amp;x=265&amp;y=200&amp;h=40&amp;outside=0&amp;outside=1&amp;bottom_edge=h&amp;thickness=3.0&amp;format=svg&amp;tabs=0.0&amp;qr_code=0&amp;debug=0&amp;labels=0&amp;labels=1&amp;reference=100.0&amp;inner_corners=loop&amp;burn=0.1&amp;language=en&amp;render=2</dc:source>
<dc:source>https://boxes.hackerspace-bamberg.de/ABox?x=265&amp;y=200&amp;h=40</dc:source>
<dc:description>A simple Box

This box is kept simple on purpose. If you need more features have a look at the UniversalBox.

Created with Boxes.py (https://boxes.hackerspace-bamberg.de/)
Command line: boxes ABox --FingerJoint_style=rectangular --FingerJoint_surroundingspaces=2.0 --FingerJoint_bottom_lip=0.0 --FingerJoint_edge_width=1.0 --FingerJoint_extra_length=0.0 --FingerJoint_finger=2.0 --FingerJoint_play=0.0 --FingerJoint_space=2.0 --FingerJoint_width=1.0 --Lid_handle=none --Lid_style=none --Lid_handle_height=8.0 --Lid_height=4.0 --Lid_play=0.1 --x=265 --y=200 --h=40 --outside=0 --outside=1 --bottom_edge=h --thickness=3.0 --format=svg --tabs=0.0 --qr_code=0 --debug=0 --labels=0 --labels=1 --reference=100.0 --inner_corners=loop --burn=0.1
Command line short: boxes ABox --x=265 --y=200 --h=40
Url: https://boxes.hackerspace-bamberg.de/ABox?FingerJoint_style=rectangular&amp;FingerJoint_surroundingspaces=2.0&amp;FingerJoint_bottom_lip=0.0&amp;FingerJoint_edge_width=1.0&amp;FingerJoint_extra_length=0.0&amp;FingerJoint_finger=2.0&amp;FingerJoint_play=0.0&amp;FingerJoint_space=2.0&amp;FingerJoint_width=1.0&amp;Lid_handle=none&amp;Lid_style=none&amp;Lid_handle_height=8.0&amp;Lid_height=4.0&amp;Lid_play=0.1&amp;x=265&amp;y=200&amp;h=40&amp;outside=0&amp;outside=1&amp;bottom_edge=h&amp;thickness=3.0&amp;format=svg&amp;tabs=0.0&amp;qr_code=0&amp;debug=0&amp;labels=0&amp;labels=1&amp;reference=100.0&amp;inner_corners=loop&amp;burn=0.1&amp;language=en&amp;render=2
Url short: https://boxes.hackerspace-bamberg.de/ABox?x=265&amp;y=200&amp;h=40
SettingsUrl: https://boxes.hackerspace-bamberg.de/ABox?FingerJoint_style=rectangular&amp;FingerJoint_surroundingspaces=2.0&amp;FingerJoint_bottom_lip=0.0&amp;FingerJoint_edge_width=1.0&amp;FingerJoint_extra_length=0.0&amp;FingerJoint_finger=2.0&amp;FingerJoint_play=0.0&amp;FingerJoint_space=2.0&amp;FingerJoint_width=1.0&amp;Lid_handle=none&amp;Lid_style=none&amp;Lid_handle_height=8.0&amp;Lid_height=4.0&amp;Lid_play=0.1&amp;x=265&amp;y=200&amp;h=40&amp;outside=0&amp;outside=1&amp;bottom_edge=h&amp;thickness=3.0&amp;format=svg&amp;tabs=0.0&amp;qr_code=0&amp;debug=0&amp;labels=0&amp;labels=1&amp;reference=100.0&amp;inner_corners=loop&amp;burn=0.1&amp;language=en&amp;render=2
SettingsUrl short: https://boxes.hackerspace-bamberg.de/ABox?x=265&amp;y=200&amp;h=40
</dc:description>
</cc:Work></rdf:RDF></metadata>
<g id="p-0" style="fill:none;stroke-linecap:round;stroke-linejoin:round;">
  <path d="M 10.100 305.300 H 110.100 V 295.300 H 10.100 V 305.300 Z" stroke="rgb(0,0,0)" stroke-width="0.20" />
  <text dominant-baseline="hanging" font-size="6px" style="font-family: sans-serif ; font-weight: normal; font-style: normal; fill: rgb(255,0,0)" text-anchor="middle" transform="matrix( 1.000 0.000 0.000 1.000 60.100 297.300 )">100.0mm, burn:0.10mm</text>
</g>
<g id="p-1" style="fill:none;stroke-linecap:round;stroke-linejoin:round;">
  <path d="M 22.600 290.400 H 19.700 C 19.600 290.400 19.700 290.500 19.700 290.400 V 287.600 C 19.700 287.500 19.600 287.600 19.700 287.600 H 25.500 C 25.600 287.600 25.500 287.500 25.500 287.600 V 290.400 C 25.500 290.500 25.600 290.400 25.500 290.400 H 22.600 Z" stroke="rgb(0,0,255)" stroke-width="0.20" />
  <path d="M 34.600 290.400 H 31.700 C 31.600 290.400 31.700 290.500 31.700 290.400 V 287.600 C 31.700 287.500 31.600 287.600 31.700 287.600 H 37.500 C 37.600 287.600 37.500 287.500 37.500 287.600 V 290.400 C 37.500 290.500 37.600 290.400 37.500 290.400 H 34.600 Z" stroke="rgb(0,0,255)" stroke-width="0.20" />
  <path d="M 46.600 290.400 H 43.700 C 43.600 290.400 43.700 290.500 43.700 290.400 V 287.600 C 43.700 287.500 43.600 287.600 43.700 287.600 H 49.500 C 49.600 287.600 49.500 287.500 49.500 287.600 V 290.400 C 49.500 290.500 49.600 290.400 49.500 290.400 H 46.600 Z" stroke="rgb(0,0,255)" stroke-width="0.20" />
  <path d="M 58.600 290.400 H 55.700 C 55.600 290.400 55.700 290.500 55.700 290.400 V 287.600 C 55.700 287.500 55.600 287.600 55.700 287.600 H 61.500 C 61.600 287.600 61.500 287.500 61.500 287.600 V 290.400 C 61.500 290.500 61.600 290.400 61.500 290.400 H 58.600 Z" stroke="rgb(0,0,255)" stroke-width="0.20" />
  <path d="M 70.600 290.400 H 67.700 C 67.600 290.400 67.700 290.500 67.700 290.400 V 287.600 C 67.700 287.500 67.600 287.600 67.700 287.600 H 73.500 C 73.600 287.600 73.500 287.500 73.500 287.600 V 290.400 C 73.500 290.500 73.600 290.400 73.500 290.400 H 70.600 Z" stroke="rgb(0,0,255)" stroke-width="0.20" />
  <path d="M 82.600 290.400 H 79.700 C 79.600 290.400 79.700 290.500 79.700 290.400 V 287.600 C 79.700 287.500 79.600 287.600 79.700 287.600 H 85.500 C 85.600 287.600 85.500 287.500 85.500 287.600 V 290.400 C 85.500 290.500 85.600 290.400 85.500 290.400 H 82.600 Z" stroke="rgb(0,0,255)" stroke-width="0.20" />
  <path d="M 94.600 290.400 H 91.700 C 91.600 290.400 91.700 290.500 91.700 290.400 V 287.600 C 91.700 287.500 91.600 287.600 91.700 287.600 H 97.500 C 97.600 287.600 97.500 287.500 97.500 287.600 V 290.400 C 97.500 290.500 97.600 290.400 97.500 290.400 H 94.600 Z" stroke="rgb(0,0,255)" stroke-width="0.20" />
  <path d="M 106.600 290.400 H 103.700 C 103.600 290.400 103.700 290.500 103.700 290.400 V 287.600 C 103.700 287.500 103.600 287.600 103.700 287.600 H 109.500 C 109.600 287.600 109.500 287.500 109.500 287.600 V 290.400 C 109.500 290.500 109.600 290.400 109.500 290.400 H 106.600 Z" stroke="rgb(0,0,255)" stroke-width="0.20" />
  <path d="M 118.600 290.400 H 115.700 C 115.600 290.400 115.700 290.500 115.700 290.400 V 287.600 C 115.700 287.500 115.600 287.600 115.700 287.600 H 121.500 C 121.600 287.600 121.500 287.500 121.500 287.600 V 290.400 C 121.500 290.500 121.600 290.400 121.500 290.400 H 118.600 Z" stroke="rgb(0,0,255)" stroke-width="0.20" />
  <path d="M 130.600 290.400 H 127.700 C 127.600 290.400 127.700 290.500 127.700 290.400 V 287.600 C 127.700 287.500 127.600 287.600 127.700 287.600 H 133.500 C 133.600 287.600 133.500 287.500 133.500 287.600 V 290.400 C 133.500 290.500 133.600 290.400 133.500 290.400 H 130.600 Z" stroke="rgb(0,0,255)" stroke-width="0.20" />
  <path d="M 142.600 290.400 H 139.700 C 139.600 290.400 139.700 290.500 139.700 290.400 V 287.600 C 139.700 287.500 139.600 287.600 139.700 287.600 H 145.500 C 145.600 287.600 145.500 287.500 145.500 287.600 V 290.400 C 145.500 290.500 145.600 290.400 145.500 290.400 H 142.600 Z" stroke="rgb(0,0,255)" stroke-width="0.20" />
  <path d="M 154.600 290.400 H 151.700 C 151.600 290.400 151.700 290.500 151.700 290.400 V 287.600 C 151.700 287.500 151.600 287.600 151.700 287.600 H 157.500 C 157.600 287.600 157.500 287.500 157.500 287.600 V 290.400 C 157.500 290.500 157.600 290.400 157.500 290.400 H 154.600 Z" stroke="rgb(0,0,255)" stroke-width="0.20" />
  <path d="M 166.600 290.400 H 163.700 C 163.600 290.400 163.700 290.500 163.700 290.400 V 287.600 C 163.700 287.500 163.600 287.600 163.700 287.600 H 169.500 C 169.600 287.600 169.500 287.500 169.500 287.600 V 290.400 C 169.500 290.500 169.600 290.400 169.500 290.400 H 166.600 Z" stroke="rgb(0,0,255)" stroke-width="0.20" />
  <path d="M 178.600 290.400 H 175.700 C 175.600 290.400 175.700 290.500 175.700 290.400 V 287.600 C 175.700 287.500 175.600 287.600 175.700 287.600 H 181.500 C 181.600 287.600 181.500 287.500 181.500 287.600 V 290.400 C 181.500 290.500 181.600 290.400 181.500 290.400 H 178.600 Z" stroke="rgb(0,0,255)" stroke-width="0.20" />
  <path d="M 190.600 290.400 H 187.700 C 187.600 290.400 187.700 290.500 187.700 290.400 V 287.600 C 187.700 287.500 187.600 287.600 187.700 287.600 H 193.500 C 193.600 287.600 193.500 287.500 193.500 287.600 V 290.400 C 193.500 290.500 193.600 290.400 193.500 290.400 H 190.600 Z" stroke="rgb(0,0,255)" stroke-width="0.20" />
  <path d="M 202.600 290.400 H 199.700 C 199.600 290.400 199.700 290.500 199.700 290.400 V 287.600 C 199.700 287.500 199.600 287.600 199.700 287.600 H 205.500 C 205.600 287.600 205.500 287.500 205.500 287.600 V 290.400 C 205.500 290.500 205.600 290.400 205.500 290.400 H 202.600 Z" stroke="rgb(0,0,255)" stroke-width="0.20" />
  <path d="M 214.600 290.400 H 211.700 C 211.600 290.400 211.700 290.500 211.700 290.400 V 287.600 C 211.700 287.500 211.600 287.600 211.700 287.600 H 217.500 C 217.600 287.600 217.500 287.500 217.500 287.600 V 290.400 C 217.500 290.500 217.600 290.400 217.500 290.400 H 214.600 Z" stroke="rgb(0,0,255)" stroke-width="0.20" />
  <path d="M 226.600 290.400 H 223.700 C 223.600 290.400 223.700 290.500 223.700 290.400 V 287.600 C 223.700 287.500 223.600 287.600 223.700 287.600 H 229.500 C 229.600 287.600 229.500 287.500 229.500 287.600 V 290.400 C 229.500 290.500 229.600 290.400 229.500 290.400 H 226.600 Z" stroke="rgb(0,0,255)" stroke-width="0.20" />
  <path d="M 238.600 290.400 H 235.700 C 235.600 290.400 235.700 290.500 235.700 290.400 V 287.600 C 235.700 287.500 235.600 287.600 235.700 287.600 H 241.500 C 241.600 287.600 241.500 287.500 241.500 287.600 V 290.400 C 241.500 290.500 241.600 290.400 241.500 290.400 H 238.600 Z" stroke="rgb(0,0,255)" stroke-width="0.20" />
  <path d="M 250.600 290.400 H 247.700 C 247.600 290.400 247.700 290.500 247.700 290.400 V 287.600 C 247.700 287.500 247.600 287.600 247.700 287.600 H 253.500 C 253.600 287.600 253.500 287.500 253.500 287.600 V 290.400 C 253.500 290.500 253.600 290.400 253.500 290.400 H 250.600 Z" stroke="rgb(0,0,255)" stroke-width="0.20" />
  <path d="M 262.600 290.400 H 259.700 C 259.600 290.400 259.700 290.500 259.700 290.400 V 287.600 C 259.700 287.500 259.600 287.600 259.700 287.600 H 265.500 C 265.600 287.600 265.500 287.500 265.500 287.600 V 290.400 C 265.500 290.500 265.600 290.400 265.500 290.400 H 262.600 Z" stroke="rgb(0,0,255)" stroke-width="0.20" />
  <path d="M 13.100 293.600 H 272.100 H 275.100 C 275.155 293.600 275.200 293.555 275.200 293.500 V 282.500 C 275.200 282.445 275.155 282.400 275.100 282.400 H 272.200 C 272.100 282.400 272.200 282.500 272.200 282.400 V 276.600 C 272.200 276.500 272.100 276.600 272.200 276.600 H 275.100 C 275.155 276.600 275.200 276.555 275.200 276.500 V 270.500 C 275.200 270.445 275.155 270.400 275.100 270.400 H 272.200 C 272.100 270.400 272.200 270.500 272.200 270.400 V 264.600 C 272.200 264.500 272.100 264.600 272.200 264.600 H 275.100 C 275.155 264.600 275.200 264.555 275.200 264.500 V 253.500 C 275.200 253.445 275.155 253.400 275.100 253.400 H 272.100 H 13.100 H 10.100 C 10.045 253.400 10.000 253.445 10.000 253.500 V 264.500 C 10.000 264.555 10.045 264.600 10.100 264.600 H 13.000 C 13.100 264.600 13.000 264.500 13.000 264.600 V 270.400 C 13.000 270.500 13.100 270.400 13.000 270.400 H 10.100 C 10.045 270.400 10.000 270.445 10.000 270.500 V 276.500 C 10.000 276.555 10.045 276.600 10.100 276.600 H 13.000 C 13.100 276.600 13.000 276.500 13.000 276.600 V 282.400 C 13.000 282.500 13.100 282.400 13.000 282.400 H 10.100 C 10.045 282.400 10.000 282.445 10.000 282.500 V 293.500 C 10.000 293.555 10.045 293.600 10.100 293.600 H 13.100 Z" stroke="rgb(0,0,0)" stroke-width="0.20" />
</g>
<g id="p-2" style="fill:none;stroke-linecap:round;stroke-linejoin:round;">
  <path d="M 22.600 248.700 H 19.700 C 19.600 248.700 19.700 248.800 19.700 248.700 V 245.900 C 19.700 245.800 19.600 245.900 19.700 245.900 H 25.500 C 25.600 245.900 25.500 245.800 25.500 245.900 V 248.700 C 25.500 248.800 25.600 248.700 25.500 248.700 H 22.600 Z" stroke="rgb(0,0,255)" stroke-width="0.20" />
  <path d="M 34.600 248.700 H 31.700 C 31.600 248.700 31.700 248.800 31.700 248.700 V 245.900 C 31.700 245.800 31.600 245.900 31.700 245.900 H 37.500 C 37.600 245.900 37.500 245.800 37.500 245.900 V 248.700 C 37.500 248.800 37.600 248.700 37.500 248.700 H 34.600 Z" stroke="rgb(0,0,255)" stroke-width="0.20" />
  <path d="M 46.600 248.700 H 43.700 C 43.600 248.700 43.700 248.800 43.700 248.700 V 245.900 C 43.700 245.800 43.600 245.900 43.700 245.900 H 49.500 C 49.600 245.900 49.500 245.800 49.500 245.900 V 248.700 C 49.500 248.800 49.600 248.700 49.500 248.700 H 46.600 Z" stroke="rgb(0,0,255)" stroke-width="0.20" />
  <path d="M 58.600 248.700 H 55.700 C 55.600 248.700 55.700 248.800 55.700 248.700 V 245.900 C 55.700 245.800 55.600 245.900 55.700 245.900 H 61.500 C 61.600 245.900 61.500 245.800 61.500 245.900 V 248.700 C 61.500 248.800 61.600 248.700 61.500 248.700 H 58.600 Z" stroke="rgb(0,0,255)" stroke-width="0.20" />
  <path d="M 70.600 248.700 H 67.700 C 67.600 248.700 67.700 248.800 67.700 248.700 V 245.900 C 67.700 245.800 67.600 245.900 67.700 245.900 H 73.500 C 73.600 245.900 73.500 245.800 73.500 245.900 V 248.700 C 73.500 248.800 73.600 248.700 73.500 248.700 H 70.600 Z" stroke="rgb(0,0,255)" stroke-width="0.20" />
  <path d="M 82.600 248.700 H 79.700 C 79.600 248.700 79.700 248.800 79.700 248.700 V 245.900 C 79.700 245.800 79.600 245.900 79.700 245.900 H 85.500 C 85.600 245.900 85.500 245.800 85.500 245.900 V 248.700 C 85.500 248.800 85.600 248.700 85.500 248.700 H 82.600 Z" stroke="rgb(0,0,255)" stroke-width="0.20" />
  <path d="M 94.600 248.700 H 91.700 C 91.600 248.700 91.700 248.800 91.700 248.700 V 245.900 C 91.700 245.800 91.600 245.900 91.700 245.900 H 97.500 C 97.600 245.900 97.500 245.800 97.500 245.900 V 248.700 C 97.500 248.800 97.600 248.700 97.500 248.700 H 94.600 Z" stroke="rgb(0,0,255)" stroke-width="0.20" />
  <path d="M 106.600 248.700 H 103.700 C 103.600 248.700 103.700 248.800 103.700 248.700 V 245.900 C 103.700 245.800 103.600 245.900 103.700 245.900 H 109.500 C 109.600 245.900 109.500 245.800 109.500 245.900 V 248.700 C 109.500 248.800 109.600 248.700 109.500 248.700 H 106.600 Z" stroke="rgb(0,0,255)" stroke-width="0.20" />
  <path d="M 118.600 248.700 H 115.700 C 115.600 248.700 115.700 248.800 115.700 248.700 V 245.900 C 115.700 245.800 115.600 245.900 115.700 245.900 H 121.500 C 121.600 245.900 121.500 245.800 121.500 245.900 V 248.700 C 121.500 248.800 121.600 248.700 121.500 248.700 H 118.600 Z" stroke="rgb(0,0,255)" stroke-width="0.20" />
  <path d="M 130.600 248.700 H 127.700 C 127.600 248.700 127.700 248.800 127.700 248.700 V 245.900 C 127.700 245.800 127.600 245.900 127.700 245.900 H 133.500 C 133.600 245.900 133.500 245.800 133.500 245.900 V 248.700 C 133.500 248.800 133.600 248.700 133.500 248.700 H 130.600 Z" stroke="rgb(0,0,255)" stroke-width="0.20" />
  <path d="M 142.600 248.700 H 139.700 C 139.600 248.700 139.700 248.800 139.700 248.700 V 245.900 C 139.700 245.800 139.600 245.900 139.700 245.900 H 145.500 C 145.600 245.900 145.500 245.800 145.500 245.900 V 248.700 C 145.500 248.800 145.600 248.700 145.500 248.700 H 142.600 Z" stroke="rgb(0,0,255)" stroke-width="0.20" />
  <path d="M 154.600 248.700 H 151.700 C 151.600 248.700 151.700 248.800 151.700 248.700 V 245.900 C 151.700 245.800 151.600 245.900 151.700 245.900 H 157.500 C 157.600 245.900 157.500 245.800 157.500 245.900 V 248.700 C 157.500 248.800 157.600 248.700 157.500 248.700 H 154.600 Z" stroke="rgb(0,0,255)" stroke-width="0.20" />
  <path d="M 166.600 248.700 H 163.700 C 163.600 248.700 163.700 248.800 163.700 248.700 V 245.900 C 163.700 245.800 163.600 245.900 163.700 245.900 H 169.500 C 169.600 245.900 169.500 245.800 169.500 245.900 V 248.700 C 169.500 248.800 169.600 248.700 169.500 248.700 H 166.600 Z" stroke="rgb(0,0,255)" stroke-width="0.20" />
  <path d="M 178.600 248.700 H 175.700 C 175.600 248.700 175.700 248.800 175.700 248.700 V 245.900 C 175.700 245.800 175.600 245.900 175.700 245.900 H 181.500 C 181.600 245.900 181.500 245.800 181.500 245.900 V 248.700 C 181.500 248.800 181.600 248.700 181.500 248.700 H 178.600 Z" stroke="rgb(0,0,255)" stroke-width="0.20" />
  <path d="M 190.600 248.700 H 187.700 C 187.600 248.700 187.700 248.800 187.700 248.700 V 245.900 C 187.700 245.800 187.600 245.900 187.700 245.900 H 193.500 C 193.600 245.900 193.500 245.800 193.500 245.900 V 248.700 C 193.500 248.800 193.600 248.700 193.500 248.700 H 190.600 Z" stroke="rgb(0,0,255)" stroke-width="0.20" />
  <path d="M 202.600 248.700 H 199.700 C 199.600 248.700 199.700 248.800 199.700 248.700 V 245.900 C 199.700 245.800 199.600 245.900 199.700 245.900 H 205.500 C 205.600 245.900 205.500 245.800 205.500 245.900 V 248.700 C 205.500 248.800 205.600 248.700 205.500 248.700 H 202.600 Z" stroke="rgb(0,0,255)" stroke-width="0.20" />
  <path d="M 214.600 248.700 H 211.700 C 211.600 248.700 211.700 248.800 211.700 248.700 V 245.900 C 211.700 245.800 211.600 245.900 211.700 245.900 H 217.500 C 217.600 245.900 217.500 245.800 217.500 245.900 V 248.700 C 217.500 248.800 217.600 248.700 217.500 248.700 H 214.600 Z" stroke="rgb(0,0,255)" stroke-width="0.20" />
  <path d="M 226.600 248.700 H 223.700 C 223.600 248.700 223.700 248.800 223.700 248.700 V 245.900 C 223.700 245.800 223.600 245.900 223.700 245.900 H 229.500 C 229.600 245.900 229.500 245.800 229.500 245.900 V 248.700 C 229.500 248.800 229.600 248.700 229.500 248.700 H 226.600 Z" stroke="rgb(0,0,255)" stroke-width="0.20" />
  <path d="M 238.600 248.700 H 235.700 C 235.600 248.700 235.700 248.800 235.700 248.700 V 245.900 C 235.700 245.800 235.600 245.900 235.700 245.900 H 241.500 C 241.600 245.900 241.500 245.800 241.500 245.900 V 248.700 C 241.500 248.800 241.600 248.700 241.500 248.700 H 238.600 Z" stroke="rgb(0,0,255)" stroke-width="0.20" />
  <path d="M 250.600 248.700 H 247.700 C 247.600 248.700 247.700 248.800 247.700 248.700 V 245.900 C 247.700 245.800 247.600 245.900 247.700 245.900 H 253.500 C 253.600 245.900 253.500 245.800 253.500 245.900 V 248.700 C 253.500 248.800 253.600 248.700 253.500 248.700 H 250.600 Z" stroke="rgb(0,0,255)" stroke-width="0.20" />
  <path d="M 262.600 248.700 H 259.700 C 259.600 248.700 259.700 248.800 259.700 248.700 V 245.900 C 259.700 245.800 259.600 245.900 259.700 245.900 H 265.500 C 265.600 245.900 265.500 245.800 265.500 245.900 V 248.700 C 265.500 248.800 265.600 248.700 265.500 248.700 H 262.600 Z" stroke="rgb(0,0,255)" stroke-width="0.20" />
  <path d="M 13.100 251.900 H 272.100 H 275.100 C 275.155 251.900 275.200 251.855 275.200 251.800 V 240.800 C 275.200 240.745 275.155 240.700 275.100 240.700 H 272.200 C 272.100 240.700 272.200 240.800 272.200 240.700 V 234.900 C 272.200 234.800 272.100 234.900 272.200 234.900 H 275.100 C 275.155 234.900 275.200 234.855 275.200 234.800 V 228.800 C 275.200 228.745 275.155 228.700 275.100 228.700 H 272.200 C 272.100 228.700 272.200 228.800 272.200 228.700 V 222.900 C 272.200 222.800 272.100 222.900 272.200 222.900 H 275.100 C 275.155 222.900 275.200 222.855 275.200 222.800 V 211.800 C 275.200 211.745 275.155 211.700 275.100 211.700 H 272.100 H 13.100 H 10.100 C 10.045 211.700 10.000 211.745 10.000 211.800 V 222.800 C 10.000 222.855 10.045 222.900 10.100 222.900 H 13.000 C 13.100 222.900 13.000 222.800 13.000 222.900 V 228.700 C 13.000 228.800 13.100 228.700 13.000 228.700 H 10.100 C 10.045 228.700 10.000 228.745 10.000 228.800 V 234.800 C 10.000 234.855 10.045 234.900 10.100 234.900 H 13.000 C 13.100 234.900 13.000 234.800 13.000 234.900 V 240.700 C 13.000 240.800 13.100 240.700 13.000 240.700 H 10.100 C 10.045 240.700 10.000 240.745 10.000 240.800 V 251.800 C 10.000 251.855 10.045 251.900 10.100 251.900 H 13.100 Z" stroke="rgb(0,0,0)" stroke-width="0.20" />
</g>
<g id="p-3" style="fill:none;stroke-linecap:round;stroke-linejoin:round;">
  <path d="M 13.100 207.200 H 19.500 C 19.600 207.200 19.500 207.100 19.500 207.200 V 210.100 C 19.500 210.155 19.545 210.200 19.600 210.200 H 25.600 C 25.655 210.200 25.700 210.155 25.700 210.100 V 207.200 C 25.700 207.100 25.600 207.200 25.700 207.200 H 31.500 C 31.600 207.200 31.500 207.100 31.500 207.200 V 210.100 C 31.500 210.155 31.545 210.200 31.600 210.200 H 37.600 C 37.655 210.200 37.700 210.155 37.700 210.100 V 207.200 C 37.700 207.100 37.600 207.200 37.700 207.200 H 43.500 C 43.600 207.200 43.500 207.100 43.500 207.200 V 210.100 C 43.500 210.155 43.545 210.200 43.600 210.200 H 49.600 C 49.655 210.200 49.700 210.155 49.700 210.100 V 207.200 C 49.700 207.100 49.600 207.200 49.700 207.200 H 55.500 C 55.600 207.200 55.500 207.100 55.500 207.200 V 210.100 C 55.500 210.155 55.545 210.200 55.600 210.200 H 61.600 C 61.655 210.200 61.700 210.155 61.700 210.100 V 207.200 C 61.700 207.100 61.600 207.200 61.700 207.200 H 67.500 C 67.600 207.200 67.500 207.100 67.500 207.200 V 210.100 C 67.500 210.155 67.545 210.200 67.600 210.200 H 73.600 C 73.655 210.200 73.700 210.155 73.700 210.100 V 207.200 C 73.700 207.100 73.600 207.200 73.700 207.200 H 79.500 C 79.600 207.200 79.500 207.100 79.500 207.200 V 210.100 C 79.500 210.155 79.545 210.200 79.600 210.200 H 85.600 C 85.655 210.200 85.700 210.155 85.700 210.100 V 207.200 C 85.700 207.100 85.600 207.200 85.700 207.200 H 91.500 C 91.600 207.200 91.500 207.100 91.500 207.200 V 210.100 C 91.500 210.155 91.545 210.200 91.600 210.200 H 97.600 C 97.655 210.200 97.700 210.155 97.700 210.100 V 207.200 C 97.700 207.100 97.600 207.200 97.700 207.200 H 103.500 C 103.600 207.200 103.500 207.100 103.500 207.200 V 210.100 C 103.500 210.155 103.545 210.200 103.600 210.200 H 109.600 C 109.655 210.200 109.700 210.155 109.700 210.100 V 207.200 C 109.700 207.100 109.600 207.200 109.700 207.200 H 115.500 C 115.600 207.200 115.500 207.100 115.500 207.200 V 210.100 C 115.500 210.155 115.545 210.200 115.600 210.200 H 121.600 C 121.655 210.200 121.700 210.155 121.700 210.100 V 207.200 C 121.700 207.100 121.600 207.200 121.700 207.200 H 127.500 C 127.600 207.200 127.500 207.100 127.500 207.200 V 210.100 C 127.500 210.155 127.545 210.200 127.600 210.200 H 133.600 C 133.655 210.200 133.700 210.155 133.700 210.100 V 207.200 C 133.700 207.100 133.600 207.200 133.700 207.200 H 139.500 C 139.600 207.200 139.500 207.100 139.500 207.200 V 210.100 C 139.500 210.155 139.545 210.200 139.600 210.200 H 145.600 C 145.655 210.200 145.700 210.155 145.700 210.100 V 207.200 C 145.700 207.100 145.600 207.200 145.700 207.200 H 151.500 C 151.600 207.200 151.500 207.100 151.500 207.200 V 210.100 C 151.500 210.155 151.545 210.200 151.600 210.200 H 157.600 C 157.655 210.200 157.700 210.155 157.700 210.100 V 207.200 C 157.700 207.100 157.600 207.200 157.700 207.200 H 163.500 C 163.600 207.200 163.500 207.100 163.500 207.200 V 210.100 C 163.500 210.155 163.545 210.200 163.600 210.200 H 169.600 C 169.655 210.200 169.700 210.155 169.700 210.100 V 207.200 C 169.700 207.100 169.600 207.200 169.700 207.200 H 175.500 C 175.600 207.200 175.500 207.100 175.500 207.200 V 210.100 C 175.500 210.155 175.545 210.200 175.600 210.200 H 181.600 C 181.655 210.200 181.700 210.155 181.700 210.100 V 207.200 C 181.700 207.100 181.600 207.200 181.700 207.200 H 187.500 C 187.600 207.200 187.500 207.100 187.500 207.200 V 210.100 C 187.500 210.155 187.545 210.200 187.600 210.200 H 193.600 C 193.655 210.200 193.700 210.155 193.700 210.100 V 207.200 C 193.700 207.100 193.600 207.200 193.700 207.200 H 199.500 C 199.600 207.200 199.500 207.100 199.500 207.200 V 210.100 C 199.500 210.155 199.545 210.200 199.600 210.200 H 205.600 C 205.655 210.200 205.700 210.155 205.700 210.100 V 207.200 C 205.700 207.100 205.600 207.200 205.700 207.200 H 211.500 C 211.600 207.200 211.500 207.100 211.500 207.200 V 210.100 C 211.500 210.155 211.545 210.200 211.600 210.200 H 217.600 C 217.655 210.200 217.700 210.155 217.700 210.100 V 207.200 C 217.700 207.100 217.600 207.200 217.700 207.200 H 223.500 C 223.600 207.200 223.500 207.100 223.500 207.200 V 210.100 C 223.500 210.155 223.545 210.200 223.600 210.200 H 229.600 C 229.655 210.200 229.700 210.155 229.700 210.100 V 207.200 C 229.700 207.100 229.600 207.200 229.700 207.200 H 235.500 C 235.600 207.200 235.500 207.100 235.500 207.200 V 210.100 C 235.500 210.155 235.545 210.200 235.600 210.200 H 241.600 C 241.655 210.200 241.700 210.155 241.700 210.100 V 207.200 C 241.700 207.100 241.600 207.200 241.700 207.200 H 247.500 C 247.600 207.200 247.500 207.100 247.500 207.200 V 210.100 C 247.500 210.155 247.545 210.200 247.600 210.200 H 253.600 C 253.655 210.200 253.700 210.155 253.700 210.100 V 207.200 C 253.700 207.100 253.600 207.200 253.700 207.200 H 259.500 C 259.600 207.200 259.500 207.100 259.500 207.200 V 210.100 C 259.500 210.155 259.545 210.200 259.600 210.200 H 265.600 C 265.655 210.200 265.700 210.155 265.700 210.100 V 207.200 C 265.700 207.100 265.600 207.200 265.700 207.200 H 272.100 C 272.155 207.200 272.200 207.155 272.200 207.100 V 197.200 C 272.200 197.100 272.100 197.200 272.200 197.200 H 275.100 C 275.155 197.200 275.200 197.155 275.200 197.100 V 191.100 C 275.200 191.045 275.155 191.000 275.100 191.000 H 272.200 C 272.100 191.000 272.200 191.100 272.200 191.000 V 185.200 C 272.200 185.100 272.100 185.200 272.200 185.200 H 275.100 C 275.155 185.200 275.200 185.155 275.200 185.100 V 179.100 C 275.200 179.045 275.155 179.000 275.100 179.000 H 272.200 C 272.100 179.000 272.200 179.100 272.200 179.000 V 173.200 C 272.200 173.100 272.100 173.200 272.200 173.200 H 275.100 C 275.155 173.200 275.200 173.155 275.200 173.100 V 167.100 C 275.200 167.045 275.155 167.000 275.100 167.000 H 272.200 C 272.100 167.000 272.200 167.100 272.200 167.000 V 161.200 C 272.200 161.100 272.100 161.200 272.200 161.200 H 275.100 C 275.155 161.200 275.200 161.155 275.200 161.100 V 155.100 C 275.200 155.045 275.155 155.000 275.100 155.000 H 272.200 C 272.100 155.000 272.200 155.100 272.200 155.000 V 149.200 C 272.200 149.100 272.100 149.200 272.200 149.200 H 275.100 C 275.155 149.200 275.200 149.155 275.200 149.100 V 143.100 C 275.200 143.045 275.155 143.000 275.100 143.000 H 272.200 C 272.100 143.000 272.200 143.100 272.200 143.000 V 137.200 C 272.200 137.100 272.100 137.200 272.200 137.200 H 275.100 C 275.155 137.200 275.200 137.155 275.200 137.100 V 131.100 C 275.200 131.045 275.155 131.000 275.100 131.000 H 272.200 C 272.100 131.000 272.200 131.100 272.200 131.000 V 125.200 C 272.200 125.100 272.100 125.200 272.200 125.200 H 275.100 C 275.155 125.200 275.200 125.155 275.200 125.100 V 119.100 C 275.200 119.045 275.155 119.000 275.100 119.000 H 272.200 C 272.100 119.000 272.200 119.100 272.200 119.000 V 113.200 C 272.200 113.100 272.100 113.200 272.200 113.200 H 275.100 C 275.155 113.200 275.200 113.155 275.200 113.100 V 107.100 C 275.200 107.045 275.155 107.000 275.100 107.000 H 272.200 C 272.100 107.000 272.200 107.100 272.200 107.000 V 101.200 C 272.200 101.100 272.100 101.200 272.200 101.200 H 275.100 C 275.155 101.200 275.200 101.155 275.200 101.100 V 95.100 C 275.200 95.045 275.155 95.000 275.100 95.000 H 272.200 C 272.100 95.000 272.200 95.100 272.200 95.000 V 89.200 C 272.200 89.100 272.100 89.200 272.200 89.200 H 275.100 C 275.155 89.200 275.200 89.155 275.200 89.100 V 83.100 C 275.200 83.045 275.155 83.000 275.100 83.000 H 272.200 C 272.100 83.000 272.200 83.100 272.200 83.000 V 77.200 C 272.200 77.100 272.100 77.200 272.200 77.200 H 275.100 C 275.155 77.200 275.200 77.155 275.200 77.100 V 71.100 C 275.200 71.045 275.155 71.000 275.100 71.000 H 272.200 C 272.100 71.000 272.200 71.100 272.200 71.000 V 65.200 C 272.200 65.100 272.100 65.200 272.200 65.200 H 275.100 C 275.155 65.200 275.200 65.155 275.200 65.100 V 59.100 C 275.200 59.045 275.155 59.000 275.100 59.000 H 272.200 C 272.100 59.000 272.200 59.100 272.200 59.000 V 53.200 C 272.200 53.100 272.100 53.200 272.200 53.200 H 275.100 C 275.155 53.200 275.200 53.155 275.200 53.100 V 47.100 C 275.200 47.045 275.155 47.000 275.100 47.000 H 272.200 C 272.100 47.000 272.200 47.100 272.200 47.000 V 41.200 C 272.200 41.100 272.100 41.200 272.200 41.200 H 275.100 C 275.155 41.200 275.200 41.155 275.200 41.100 V 35.100 C 275.200 35.045 275.155 35.000 275.100 35.000 H 272.200 C 272.100 35.000 272.200 35.100 272.200 35.000 V 29.200 C 272.200 29.100 272.100 29.200 272.200 29.200 H 275.100 C 275.155 29.200 275.200 29.155 275.200 29.100 V 23.100 C 275.200 23.045 275.155 23.000 275.100 23.000 H 272.200 C 272.100 23.000 272.200 23.100 272.200 23.000 V 13.100 C 272.200 13.045 272.155 13.000 272.100 13.000 H 265.700 C 265.600 13.000 265.700 13.100 265.700 13.000 V 10.100 C 265.700 10.045 265.655 10.000 265.600 10.000 H 259.600 C 259.545 10.000 259.500 10.045 259.500 10.100 V 13.000 C 259.500 13.100 259.600 13.000 259.500 13.000 H 253.700 C 253.600 13.000 253.700 13.100 253.700 13.000 V 10.100 C 253.700 10.045 253.655 10.000 253.600 10.000 H 247.600 C 247.545 10.000 247.500 10.045 247.500 10.100 V 13.000 C 247.500 13.100 247.600 13.000 247.500 13.000 H 241.700 C 241.600 13.000 241.700 13.100 241.700 13.000 V 10.100 C 241.700 10.045 241.655 10.000 241.600 10.000 H 235.600 C 235.545 10.000 235.500 10.045 235.500 10.100 V 13.000 C 235.500 13.100 235.600 13.000 235.500 13.000 H 229.700 C 229.600 13.000 229.700 13.100 229.700 13.000 V 10.100 C 229.700 10.045 229.655 10.000 229.600 10.000 H 223.600 C 223.545 10.000 223.500 10.045 223.500 10.100 V 13.000 C 223.500 13.100 223.600 13.000 223.500 13.000 H 217.700 C 217.600 13.000 217.700 13.100 217.700 13.000 V 10.100 C 217.700 10.045 217.655 10.000 217.600 10.000 H 211.600 C 211.545 10.000 211.500 10.045 211.500 10.100 V 13.000 C 211.500 13.100 211.600 13.000 211.500 13.000 H 205.700 C 205.600 13.000 205.700 13.100 205.700 13.000 V 10.100 C 205.700 10.045 205.655 10.000 205.600 10.000 H 199.600 C 199.545 10.000 199.500 10.045 199.500 10.100 V 13.000 C 199.500 13.100 199.600 13.000 199.500 13.000 H 193.700 C 193.600 13.000 193.700 13.100 193.700 13.000 V 10.100 C 193.700 10.045 193.655 10.000 193.600 10.000 H 187.600 C 187.545 10.000 187.500 10.045 187.500 10.100 V 13.000 C 187.500 13.100 187.600 13.000 187.500 13.000 H 181.700 C 181.600 13.000 181.700 13.100 181.700 13.000 V 10.100 C 181.700 10.045 181.655 10.000 181.600 10.000 H 175.600 C 175.545 10.000 175.500 10.045 175.500 10.100 V 13.000 C 175.500 13.100 175.600 13.000 175.500 13.000 H 169.700 C 169.600 13.000 169.700 13.100 169.700 13.000 V 10.100 C 169.700 10.045 169.655 10.000 169.600 10.000 H 163.600 C 163.545 10.000 163.500 10.045 163.500 10.100 V 13.000 C 163.500 13.100 163.600 13.000 163.500 13.000 H 157.700 C 157.600 13.000 157.700 13.100 157.700 13.000 V 10.100 C 157.700 10.045 157.655 10.000 157.600 10.000 H 151.600 C 151.545 10.000 151.500 10.045 151.500 10.100 V 13.000 C 151.500 13.100 151.600 13.000 151.500 13.000 H 145.700 C 145.600 13.000 145.700 13.100 145.700 13.000 V 10.100 C 145.700 10.045 145.655 10.000 145.600 10.000 H 139.600 C 139.545 10.000 139.500 10.045 139.500 10.100 V 13.000 C 139.500 13.100 139.600 13.000 139.500 13.000 H 133.700 C 133.600 13.000 133.700 13.100 133.700 13.000 V 10.100 C 133.700 10.045 133.655 10.000 133.600 10.000 H 127.600 C 127.545 10.000 127.500 10.045 127.500 10.100 V 13.000 C 127.500 13.100 127.600 13.000 127.500 13.000 H 121.700 C 121.600 13.000 121.700 13.100 121.700 13.000 V 10.100 C 121.700 10.045 121.655 10.000 121.600 10.000 H 115.600 C 115.545 10.000 115.500 10.045 115.500 10.100 V 13.000 C 115.500 13.100 115.600 13.000 115.500 13.000 H 109.700 C 109.600 13.000 109.700 13.100 109.700 13.000 V 10.100 C 109.700 10.045 109.655 10.000 109.600 10.000 H 103.600 C 103.545 10.000 103.500 10.045 103.500 10.100 V 13.000 C 103.500 13.100 103.600 13.000 103.500 13.000 H 97.700 C 97.600 13.000 97.700 13.100 97.700 13.000 V 10.100 C 97.700 10.045 97.655 10.000 97.600 10.000 H 91.600 C 91.545 10.000 91.500 10.045 91.500 10.100 V 13.000 C 91.500 13.100 91.600 13.000 91.500 13.000 H 85.700 C 85.600 13.000 85.700 13.100 85.700 13.000 V 10.100 C 85.700 10.045 85.655 10.000 85.600 10.000 H 79.600 C 79.545 10.000 79.500 10.045 79.500 10.100 V 13.000 C 79.500 13.100 79.600 13.000 79.500 13.000 H 73.700 C 73.600 13.000 73.700 13.100 73.700 13.000 V 10.100 C 73.700 10.045 73.655 10.000 73.600 10.000 H 67.600 C 67.545 10.000 67.500 10.045 67.500 10.100 V 13.000 C 67.500 13.100 67.600 13.000 67.500 13.000 H 61.700 C 61.600 13.000 61.700 13.100 61.700 13.000 V 10.100 C 61.700 10.045 61.655 10.000 61.600 10.000 H 55.600 C 55.545 10.000 55.500 10.045 55.500 10.100 V 13.000 C 55.500 13.100 55.600 13.000 55.500 13.000 H 49.700 C 49.600 13.000 49.700 13.100 49.700 13.000 V 10.100 C 49.700 10.045 49.655 10.000 49.600 10.000 H 43.600 C 43.545 10.000 43.500 10.045 43.500 10.100 V 13.000 C 43.500 13.100 43.600 13.000 43.500 13.000 H 37.700 C 37.600 13.000 37.700 13.100 37.700 13.000 V 10.100 C 37.700 10.045 37.655 10.000 37.600 10.000 H 31.600 C 31.545 10.000 31.500 10.045 31.500 10.100 V 13.000 C 31.500 13.100 31.600 13.000 31.500 13.000 H 25.700 C 25.600 13.000 25.700 13.100 25.700 13.000 V 10.100 C 25.700 10.045 25.655 10.000 25.600 10.000 H 19.600 C 19.545 10.000 19.500 10.045 19.500 10.100 V 13.000 C 19.500 13.100 19.600 13.000 19.500 13.000 H 13.100 C 13.045 13.000 13.000 13.045 13.000 13.100 V 23.000 C 13.000 23.100 13.100 23.000 13.000 23.000 H 10.100 C 10.045 23.000 10.000 23.045 10.000 23.100 V 29.100 C 10.000 29.155 10.045 29.200 10.100 29.200 H 13.000 C 13.100 29.200 13.000 29.100 13.000 29.200 V 35.000 C 13.000 35.100 13.100 35.000 13.000 35.000 H 10.100 C 10.045 35.000 10.000 35.045 10.000 35.100 V 41.100 C 10.000 41.155 10.045 41.200 10.100 41.200 H 13.000 C 13.100 41.200 13.000 41.100 13.000 41.200 V 47.000 C 13.000 47.100 13.100 47.000 13.000 47.000 H 10.100 C 10.045 47.000 10.000 47.045 10.000 47.100 V 53.100 C 10.000 53.155 10.045 53.200 10.100 53.200 H 13.000 C 13.100 53.200 13.000 53.100 13.000 53.200 V 59.000 C 13.000 59.100 13.100 59.000 13.000 59.000 H 10.100 C 10.045 59.000 10.000 59.045 10.000 59.100 V 65.100 C 10.000 65.155 10.045 65.200 10.100 65.200 H 13.000 C 13.100 65.200 13.000 65.100 13.000 65.200 V 71.000 C 13.000 71.100 13.100 71.000 13.000 71.000 H 10.100 C 10.045 71.000 10.000 71.045 10.000 71.100 V 77.100 C 10.000 77.155 10.045 77.200 10.100 77.200 H 13.000 C 13.100 77.200 13.000 77.100 13.000 77.200 V 83.000 C 13.000 83.100 13.100 83.000 13.000 83.000 H 10.100 C 10.045 83.000 10.000 83.045 10.000 83.100 V 89.100 C 10.000 89.155 10.045 89.200 10.100 89.200 H 13.000 C 13.100 89.200 13.000 89.100 13.000 89.200 V 95.000 C 13.000 95.100 13.100 95.000 13.000 95.000 H 10.100 C 10.045 95.000 10.000 95.045 10.000 95.100 V 101.100 C 10.000 101.155 10.045 101.200 10.100 101.200 H 13.000 C 13.100 101.200 13.000 101.100 13.000 101.200 V 107.000 C 13.000 107.100 13.100 107.000 13.000 107.000 H 10.100 C 10.045 107.000 10.000 107.045 10.000 107.100 V 113.100 C 10.000 113.155 10.045 113.200 10.100 113.200 H 13.000 C 13.100 113.200 13.000 113.100 13.000 113.200 V 119.000 C 13.000 119.100 13.100 119.000 13.000 119.000 H 10.100 C 10.045 119.000 10.000 119.045 10.000 119.100 V 125.100 C 10.000 125.155 10.045 125.200 10.100 125.200 H 13.000 C 13.100 125.200 13.000 125.100 13.000 125.200 V 131.000 C 13.000 131.100 13.100 131.000 13.000 131.000 H 10.100 C 10.045 131.000 10.000 131.045 10.000 131.100 V 137.100 C 10.000 137.155 10.045 137.200 10.100 137.200 H 13.000 C 13.100 137.200 13.000 137.100 13.000 137.200 V 143.000 C 13.000 143.100 13.100 143.000 13.000 143.000 H 10.100 C 10.045 143.000 10.000 143.045 10.000 143.100 V 149.100 C 10.000 149.155 10.045 149.200 10.100 149.200 H 13.000 C 13.100 149.200 13.000 149.100 13.000 149.200 V 155.000 C 13.000 155.100 13.100 155.000 13.000 155.000 H 10.100 C 10.045 155.000 10.000 155.045 10.000 155.100 V 161.100 C 10.000 161.155 10.045 161.200 10.100 161.200 H 13.000 C 13.100 161.200 13.000 161.100 13.000 161.200 V 167.000 C 13.000 167.100 13.100 167.000 13.000 167.000 H 10.100 C 10.045 167.000 10.000 167.045 10.000 167.100 V 173.100 C 10.000 173.155 10.045 173.200 10.100 173.200 H 13.000 C 13.100 173.200 13.000 173.100 13.000 173.200 V 179.000 C 13.000 179.100 13.100 179.000 13.000 179.000 H 10.100 C 10.045 179.000 10.000 179.045 10.000 179.100 V 185.100 C 10.000 185.155 10.045 185.200 10.100 185.200 H 13.000 C 13.100 185.200 13.000 185.100 13.000 185.200 V 191.000 C 13.000 191.100 13.100 191.000 13.000 191.000 H 10.100 C 10.045 191.000 10.000 191.045 10.000 191.100 V 197.100 C 10.000 197.155 10.045 197.200 10.100 197.200 H 13.000 C 13.100 197.200 13.000 197.100 13.000 197.200 V 207.100 C 13.000 207.155 13.045 207.200 13.100 207.200 Z" stroke="rgb(0,0,0)" stroke-width="0.20" />
</g>
<g id="p-4" style="fill:none;stroke-linecap:round;stroke-linejoin:round;">
  <path d="M 292.800 290.400 H 289.900 C 289.800 290.400 289.900 290.500 289.900 290.400 V 287.600 C 289.900 287.500 289.800 287.600 289.900 287.600 H 295.700 C 295.800 287.600 295.700 287.500 295.700 287.600 V 290.400 C 295.700 290.500 295.800 290.400 295.700 290.400 H 292.800 Z" stroke="rgb(0,0,255)" stroke-width="0.20" />
  <path d="M 304.800 290.400 H 301.900 C 301.800 290.400 301.900 290.500 301.900 290.400 V 287.600 C 301.900 287.500 301.800 287.600 301.900 287.600 H 307.700 C 307.800 287.600 307.700 287.500 307.700 287.600 V 290.400 C 307.700 290.500 307.800 290.400 307.700 290.400 H 304.800 Z" stroke="rgb(0,0,255)" stroke-width="0.20" />
  <path d="M 316.800 290.400 H 313.900 C 313.800 290.400 313.900 290.500 313.900 290.400 V 287.600 C 313.900 287.500 313.800 287.600 313.900 287.600 H 319.700 C 319.800 287.600 319.700 287.500 319.700 287.600 V 290.400 C 319.700 290.500 319.800 290.400 319.700 290.400 H 316.800 Z" stroke="rgb(0,0,255)" stroke-width="0.20" />
  <path d="M 328.800 290.400 H 325.900 C 325.800 290.400 325.900 290.500 325.900 290.400 V 287.600 C 325.900 287.500 325.800 287.600 325.900 287.600 H 331.700 C 331.800 287.600 331.700 287.500 331.700 287.600 V 290.400 C 331.700 290.500 331.800 290.400 331.700 290.400 H 328.800 Z" stroke="rgb(0,0,255)" stroke-width="0.20" />
  <path d="M 340.800 290.400 H 337.900 C 337.800 290.400 337.900 290.500 337.900 290.400 V 287.600 C 337.900 287.500 337.800 287.600 337.900 287.600 H 343.700 C 343.800 287.600 343.700 287.500 343.700 287.600 V 290.400 C 343.700 290.500 343.800 290.400 343.700 290.400 H 340.800 Z" stroke="rgb(0,0,255)" stroke-width="0.20" />
  <path d="M 352.800 290.400 H 349.900 C 349.800 290.400 349.900 290.500 349.900 290.400 V 287.600 C 349.900 287.500 349.800 287.600 349.900 287.600 H 355.700 C 355.800 287.600 355.700 287.500 355.700 287.600 V 290.400 C 355.700 290.500 355.800 290.400 355.700 290.400 H 352.800 Z" stroke="rgb(0,0,255)" stroke-width="0.20" />
  <path d="M 364.800 290.400 H 361.900 C 361.800 290.400 361.900 290.500 361.900 290.400 V 287.600 C 361.900 287.500 361.800 287.600 361.900 287.600 H 367.700 C 367.800 287.600 367.700 287.500 367.700 287.600 V 290.400 C 367.700 290.500 367.800 290.400 367.700 290.400 H 364.800 Z" stroke="rgb(0,0,255)" stroke-width="0.20" />
  <path d="M 376.800 290.400 H 373.900 C 373.800 290.400 373.900 290.500 373.900 290.400 V 287.600 C 373.900 287.500 373.800 287.600 373.900 287.600 H 379.700 C 379.800 287.600 379.700 287.500 379.700 287.600 V 290.400 C 379.700 290.500 379.800 290.400 379.700 290.400 H 376.800 Z" stroke="rgb(0,0,255)" stroke-width="0.20" />
  <path d="M 388.800 290.400 H 385.900 C 385.800 290.400 385.900 290.500 385.900 290.400 V 287.600 C 385.900 287.500 385.800 287.600 385.900 287.600 H 391.700 C 391.800 287.600 391.700 287.500 391.700 287.600 V 290.400 C 391.700 290.500 391.800 290.400 391.700 290.400 H 388.800 Z" stroke="rgb(0,0,255)" stroke-width="0.20" />
  <path d="M 400.800 290.400 H 397.900 C 397.800 290.400 397.900 290.500 397.900 290.400 V 287.600 C 397.900 287.500 397.800 287.600 397.900 287.600 H 403.700 C 403.800 287.600 403.700 287.500 403.700 287.600 V 290.400 C 403.700 290.500 403.800 290.400 403.700 290.400 H 400.800 Z" stroke="rgb(0,0,255)" stroke-width="0.20" />
  <path d="M 412.800 290.400 H 409.900 C 409.800 290.400 409.900 290.500 409.900 290.400 V 287.600 C 409.900 287.500 409.800 287.600 409.900 287.600 H 415.700 C 415.800 287.600 415.700 287.500 415.700 287.600 V 290.400 C 415.700 290.500 415.800 290.400 415.700 290.400 H 412.800 Z" stroke="rgb(0,0,255)" stroke-width="0.20" />
  <path d="M 424.800 290.400 H 421.900 C 421.800 290.400 421.900 290.500 421.900 290.400 V 287.600 C 421.900 287.500 421.800 287.600 421.900 287.600 H 427.700 C 427.800 287.600 427.700 287.500 427.700 287.600 V 290.400 C 427.700 290.500 427.800 290.400 427.700 290.400 H 424.800 Z" stroke="rgb(0,0,255)" stroke-width="0.20" />
  <path d="M 436.800 290.400 H 433.900 C 433.800 290.400 433.900 290.500 433.900 290.400 V 287.600 C 433.900 287.500 433.800 287.600 433.900 287.600 H 439.700 C 439.800 287.600 439.700 287.500 439.700 287.600 V 290.400 C 439.700 290.500 439.800 290.400 439.700 290.400 H 436.800 Z" stroke="rgb(0,0,255)" stroke-width="0.20" />
  <path d="M 448.800 290.400 H 445.900 C 445.800 290.400 445.900 290.500 445.900 290.400 V 287.600 C 445.900 287.500 445.800 287.600 445.900 287.600 H 451.700 C 451.800 287.600 451.700 287.500 451.700 287.600 V 290.400 C 451.700 290.500 451.800 290.400 451.700 290.400 H 448.800 Z" stroke="rgb(0,0,255)" stroke-width="0.20" />
  <path d="M 460.800 290.400 H 457.900 C 457.800 290.400 457.900 290.500 457.900 290.400 V 287.600 C 457.900 287.500 457.800 287.600 457.900 287.600 H 463.700 C 463.800 287.600 463.700 287.500 463.700 287.600 V 290.400 C 463.700 290.500 463.800 290.400 463.700 290.400 H 460.800 Z" stroke="rgb(0,0,255)" stroke-width="0.20" />
  <path d="M 279.800 293.600 H 473.800 C 473.855 293.600 473.900 293.555 473.900 293.500 V 282.600 C 473.900 282.500 473.800 282.600 473.900 282.600 H 476.800 C 476.855 282.600 476.900 282.555 476.900 282.500 V 276.500 C 476.900 276.445 476.855 276.400 476.800 276.400 H 473.900 C 473.800 276.400 473.900 276.500 473.900 276.400 V 270.600 C 473.900 270.500 473.800 270.600 473.900 270.600 H 476.800 C 476.855 270.600 476.900 270.555 476.900 270.500 V 264.500 C 476.900 264.445 476.855 264.400 476.800 264.400 H 473.900 C 473.800 264.400 473.900 264.500 473.900 264.400 V 253.500 C 473.900 253.445 473.855 253.400 473.800 253.400 H 279.800 C 279.745 253.400 279.700 253.445 279.700 253.500 V 264.400 C 279.700 264.500 279.800 264.400 279.700 264.400 H 276.800 C 276.745 264.400 276.700 264.445 276.700 264.500 V 270.500 C 276.700 270.555 276.745 270.600 276.800 270.600 H 279.700 C 279.800 270.600 279.700 270.500 279.700 270.600 V 276.400 C 279.700 276.500 279.800 276.400 279.700 276.400 H 276.800 C 276.745 276.400 276.700 276.445 276.700 276.500 V 282.500 C 276.700 282.555 276.745 282.600 276.800 282.600 H 279.700 C 279.800 282.600 279.700 282.500 279.700 282.600 V 293.500 C 279.700 293.555 279.745 293.600 279.800 293.600 Z" stroke="rgb(0,0,0)" stroke-width="0.20" />
</g>
<g id="p-5" style="fill:none;stroke-linecap:round;stroke-linejoin:round;">
  <path d="M 292.800 248.700 H 289.900 C 289.800 248.700 289.900 248.800 289.900 248.700 V 245.900 C 289.900 245.800 289.800 245.900 289.900 245.900 H 295.700 C 295.800 245.900 295.700 245.800 295.700 245.900 V 248.700 C 295.700 248.800 295.800 248.700 295.700 248.700 H 292.800 Z" stroke="rgb(0,0,255)" stroke-width="0.20" />
  <path d="M 304.800 248.700 H 301.900 C 301.800 248.700 301.900 248.800 301.900 248.700 V 245.900 C 301.900 245.800 301.800 245.900 301.900 245.900 H 307.700 C 307.800 245.900 307.700 245.800 307.700 245.900 V 248.700 C 307.700 248.800 307.800 248.700 307.700 248.700 H 304.800 Z" stroke="rgb(0,0,255)" stroke-width="0.20" />
  <path d="M 316.800 248.700 H 313.900 C 313.800 248.700 313.900 248.800 313.900 248.700 V 245.900 C 313.900 245.800 313.800 245.900 313.900 245.900 H 319.700 C 319.800 245.900 319.700 245.800 319.700 245.900 V 248.700 C 319.700 248.800 319.800 248.700 319.700 248.700 H 316.800 Z" stroke="rgb(0,0,255)" stroke-width="0.20" />
  <path d="M 328.800 248.700 H 325.900 C 325.800 248.700 325.900 248.800 325.900 248.700 V 245.900 C 325.900 245.800 325.800 245.900 325.900 245.900 H 331.700 C 331.800 245.900 331.700 245.800 331.700 245.900 V 248.700 C 331.700 248.800 331.800 248.700 331.700 248.700 H 328.800 Z" stroke="rgb(0,0,255)" stroke-width="0.20" />
  <path d="M 340.800 248.700 H 337.900 C 337.800 248.700 337.900 248.800 337.900 248.700 V 245.900 C 337.900 245.800 337.800 245.900 337.900 245.900 H 343.700 C 343.800 245.900 343.700 245.800 343.700 245.900 V 248.700 C 343.700 248.800 343.800 248.700 343.700 248.700 H 340.800 Z" stroke="rgb(0,0,255)" stroke-width="0.20" />
  <path d="M 352.800 248.700 H 349.900 C 349.800 248.700 349.900 248.800 349.900 248.700 V 245.900 C 349.900 245.800 349.800 245.900 349.900 245.900 H 355.700 C 355.800 245.900 355.700 245.800 355.700 245.900 V 248.700 C 355.700 248.800 355.800 248.700 355.700 248.700 H 352.800 Z" stroke="rgb(0,0,255)" stroke-width="0.20" />
  <path d="M 364.800 248.700 H 361.900 C 361.800 248.700 361.900 248.800 361.900 248.700 V 245.900 C 361.900 245.800 361.800 245.900 361.900 245.900 H 367.700 C 367.800 245.900 367.700 245.800 367.700 245.900 V 248.700 C 367.700 248.800 367.800 248.700 367.700 248.700 H 364.800 Z" stroke="rgb(0,0,255)" stroke-width="0.20" />
  <path d="M 376.800 248.700 H 373.900 C 373.800 248.700 373.900 248.800 373.900 248.700 V 245.900 C 373.900 245.800 373.800 245.900 373.900 245.900 H 379.700 C 379.800 245.900 379.700 245.800 379.700 245.900 V 248.700 C 379.700 248.800 379.800 248.700 379.700 248.700 H 376.800 Z" stroke="rgb(0,0,255)" stroke-width="0.20" />
  <path d="M 388.800 248.700 H 385.900 C 385.800 248.700 385.900 248.800 385.900 248.700 V 245.900 C 385.900 245.800 385.800 245.900 385.900 245.900 H 391.700 C 391.800 245.900 391.700 245.800 391.700 245.900 V 248.700 C 391.700 248.800 391.800 248.700 391.700 248.700 H 388.800 Z" stroke="rgb(0,0,255)" stroke-width="0.20" />
  <path d="M 400.800 248.700 H 397.900 C 397.800 248.700 397.900 248.800 397.900 248.700 V 245.900 C 397.900 245.800 397.800 245.900 397.900 245.900 H 403.700 C 403.800 245.900 403.700 245.800 403.700 245.900 V 248.700 C 403.700 248.800 403.800 248.700 403.700 248.700 H 400.800 Z" stroke="rgb(0,0,255)" stroke-width="0.20" />
  <path d="M 412.800 248.700 H 409.900 C 409.800 248.700 409.900 248.800 409.900 248.700 V 245.900 C 409.900 245.800 409.800 245.900 409.900 245.900 H 415.700 C 415.800 245.900 415.700 245.800 415.700 245.900 V 248.700 C 415.700 248.800 415.800 248.700 415.700 248.700 H 412.800 Z" stroke="rgb(0,0,255)" stroke-width="0.20" />
  <path d="M 424.800 248.700 H 421.900 C 421.800 248.700 421.900 248.800 421.900 248.700 V 245.900 C 421.900 245.800 421.800 245.900 421.900 245.900 H 427.700 C 427.800 245.900 427.700 245.800 427.700 245.900 V 248.700 C 427.700 248.800 427.800 248.700 427.700 248.700 H 424.800 Z" stroke="rgb(0,0,255)" stroke-width="0.20" />
  <path d="M 436.800 248.700 H 433.900 C 433.800 248.700 433.900 248.800 433.900 248.700 V 245.900 C 433.900 245.800 433.800 245.900 433.900 245.900 H 439.700 C 439.800 245.900 439.700 245.800 439.700 245.900 V 248.700 C 439.700 248.800 439.800 248.700 439.700 248.700 H 436.800 Z" stroke="rgb(0,0,255)" stroke-width="0.20" />
  <path d="M 448.800 248.700 H 445.900 C 445.800 248.700 445.900 248.800 445.900 248.700 V 245.900 C 445.900 245.800 445.800 245.900 445.900 245.900 H 451.700 C 451.800 245.900 451.700 245.800 451.700 245.900 V 248.700 C 451.700 248.800 451.800 248.700 451.700 248.700 H 448.800 Z" stroke="rgb(0,0,255)" stroke-width="0.20" />
  <path d="M 460.800 248.700 H 457.900 C 457.800 248.700 457.900 248.800 457.900 248.700 V 245.900 C 457.900 245.800 457.800 245.900 457.900 245.900 H 463.700 C 463.800 245.900 463.700 245.800 463.700 245.900 V 248.700 C 463.700 248.800 463.800 248.700 463.700 248.700 H 460.800 Z" stroke="rgb(0,0,255)" stroke-width="0.20" />
  <path d="M 279.800 251.900 H 473.800 C 473.855 251.900 473.900 251.855 473.900 251.800 V 240.900 C 473.900 240.800 473.800 240.900 473.900 240.900 H 476.800 C 476.855 240.900 476.900 240.855 476.900 240.800 V 234.800 C 476.900 234.745 476.855 234.700 476.800 234.700 H 473.900 C 473.800 234.700 473.900 234.800 473.900 234.700 V 228.900 C 473.900 228.800 473.800 228.900 473.900 228.900 H 476.800 C 476.855 228.900 476.900 228.855 476.900 228.800 V 222.800 C 476.900 222.745 476.855 222.700 476.800 222.700 H 473.900 C 473.800 222.700 473.900 222.800 473.900 222.700 V 211.800 C 473.900 211.745 473.855 211.700 473.800 211.700 H 279.800 C 279.745 211.700 279.700 211.745 279.700 211.800 V 222.700 C 279.700 222.800 279.800 222.700 279.700 222.700 H 276.800 C 276.745 222.700 276.700 222.745 276.700 222.800 V 228.800 C 276.700 228.855 276.745 228.900 276.800 228.900 H 279.700 C 279.800 228.900 279.700 228.800 279.700 228.900 V 234.700 C 279.700 234.800 279.800 234.700 279.700 234.700 H 276.800 C 276.745 234.700 276.700 234.745 276.700 234.800 V 240.800 C 276.700 240.855 276.745 240.900 276.800 240.900 H 279.700 C 279.800 240.900 279.700 240.800 279.700 240.900 V 251.800 C 279.700 251.855 279.745 251.900 279.800 251.900 Z" stroke="rgb(0,0,0)" stroke-width="0.20" />
</g>
</svg>