<?xml version='1.0' encoding='utf-8'?>
<svg height="110.30mm" viewBox="0.0 0.0 120.10 110.30" width="120.10mm" xmlns="http://www.w3.org/2000/svg" xmlns:cc="http://creativecommons.org/ns#" xmlns:dc="http://purl.org/dc/elements/1.1/" xmlns:inkscape="http://www.inkscape.org/namespaces/inkscape" xmlns:rdf="http://www.w3.org/1999/02/22-rdf-syntax-ns#" xmlns:svg="http://www.w3.org/2000/svg" xmlns:xlink="http://www.w3.org/1999/xlink">
<!--
ClosedBox - Fully closed box


This box is more of a building block than a finished item.
Use a vector graphics program (like Inkscape) to add holes or adjust the base
plate.

See BasedBox for variant with a base.


Created with Boxes.py (https://boxes.hackerspace-bamberg.de/)
Creation date: 2024-11-02 15:24:23
Command line (remove spaces between dashes): boxes ClosedBox - -x=25 - -y=25 - -h=25
Url: https://boxes.hackerspace-bamberg.de/ClosedBox?FingerJoint_style=rectangular&FingerJoint_surroundingspaces=2.0&FingerJoint_bottom_lip=0.0&FingerJoint_edge_width=1.0&FingerJoint_extra_length=0.0&FingerJoint_finger=2.0&FingerJoint_play=0.0&FingerJoint_space=2.0&FingerJoint_width=1.0&x=25&y=25&h=25&outside=0&outside=1&thickness=3.0&format=svg&tabs=0.0&qr_code=0&debug=0&labels=0&labels=1&reference=100.0&inner_corners=loop&burn=0.1&language=en&render=2
Url short: https://boxes.hackerspace-bamberg.de/ClosedBox?x=25&y=25&h=25
SettingsUrl: https://boxes.hackerspace-bamberg.de/ClosedBox?FingerJoint_style=rectangular&FingerJoint_surroundingspaces=2.0&FingerJoint_bottom_lip=0.0&FingerJoint_edge_width=1.0&FingerJoint_extra_length=0.0&FingerJoint_finger=2.0&FingerJoint_play=0.0&FingerJoint_space=2.0&FingerJoint_width=1.0&x=25&y=25&h=25&outside=0&outside=1&thickness=3.0&format=svg&tabs=0.0&qr_code=0&debug=0&labels=0&labels=1&reference=100.0&inner_corners=loop&burn=0.1&language=en&render=2
SettingsUrl short: https://boxes.hackerspace-bamberg.de/ClosedBox?x=25&y=25&h=25
-->
<title>ClosedBox</title>
<metadata>
<rdf:RDF><cc:Work>
<dc:title>Box - ClosedBox</dc:title>
<dc:date>2024-11-02 15:24:23</dc:date>
<dc:source>https://boxes.hackerspace-bamberg.de/ClosedBox?FingerJoint_style=rectangular&amp;FingerJoint_surroundingspaces=2.0&amp;FingerJoint_bottom_lip=0.0&amp;FingerJoint_edge_width=1.0&amp;FingerJoint_extra_length=0.0&amp;FingerJoint_finger=2.0&amp;FingerJoint_play=0.0&amp;FingerJoint_space=2.0&amp;FingerJoint_width=1.0&amp;x=25&amp;y=25&amp;h=25&amp;outside=0&amp;outside=1&amp;thickness=3.0&amp;format=svg&amp;tabs=0.0&amp;qr_code=0&amp;debug=0&amp;labels=0&amp;labels=1&amp;reference=100.0&amp;inner_corners=loop&amp;burn=0.1&amp;language=en&amp;render=2</dc:source>
<dc:source>https://boxes.hackerspace-bamberg.de/ClosedBox?x=25&amp;y=25&amp;h=25</dc:source>
<dc:description>Fully closed box

This box is more of a building block than a finished item.
Use a vector graphics program (like Inkscape) to add holes or adjust the base
plate.

See BasedBox for variant with a base.

Created with Boxes.py (https://boxes.hackerspace-bamberg.de/)
Command line: boxes ClosedBox --FingerJoint_style=rectangular --FingerJoint_surroundingspaces=2.0 --FingerJoint_bottom_lip=0.0 --FingerJoint_edge_width=1.0 --FingerJoint_extra_length=0.0 --FingerJoint_finger=2.0 --FingerJoint_play=0.0 --FingerJoint_space=2.0 --FingerJoint_width=1.0 --x=25 --y=25 --h=25 --outside=0 --outside=1 --thickness=3.0 --format=svg --tabs=0.0 --qr_code=0 --debug=0 --labels=0 --labels=1 --reference=100.0 --inner_corners=loop --burn=0.1
Command line short: boxes ClosedBox --x=25 --y=25 --h=25
Url: https://boxes.hackerspace-bamberg.de/ClosedBox?FingerJoint_style=rectangular&amp;FingerJoint_surroundingspaces=2.0&amp;FingerJoint_bottom_lip=0.0&amp;FingerJoint_edge_width=1.0&amp;FingerJoint_extra_length=0.0&amp;FingerJoint_finger=2.0&amp;FingerJoint_play=0.0&amp;FingerJoint_space=2.0&amp;FingerJoint_width=1.0&amp;x=25&amp;y=25&amp;h=25&amp;outside=0&amp;outside=1&amp;thickness=3.0&amp;format=svg&amp;tabs=0.0&amp;qr_code=0&amp;debug=0&amp;labels=0&amp;labels=1&amp;reference=100.0&amp;inner_corners=loop&amp;burn=0.1&amp;language=en&amp;render=2
Url short: https://boxes.hackerspace-bamberg.de/ClosedBox?x=25&amp;y=25&amp;h=25
SettingsUrl: https://boxes.hackerspace-bamberg.de/ClosedBox?FingerJoint_style=rectangular&amp;FingerJoint_surroundingspaces=2.0&amp;FingerJoint_bottom_lip=0.0&amp;FingerJoint_edge_width=1.0&amp;FingerJoint_extra_length=0.0&amp;FingerJoint_finger=2.0&amp;FingerJoint_play=0.0&amp;FingerJoint_space=2.0&amp;FingerJoint_width=1.0&amp;x=25&amp;y=25&amp;h=25&amp;outside=0&amp;outside=1&amp;thickness=3.0&amp;format=svg&amp;tabs=0.0&amp;qr_code=0&amp;debug=0&amp;labels=0&amp;labels=1&amp;reference=100.0&amp;inner_corners=loop&amp;burn=0.1&amp;language=en&amp;render=2
SettingsUrl short: https://boxes.hackerspace-bamberg.de/ClosedBox?x=25&amp;y=25&amp;h=25
</dc:description>
</cc:Work></rdf:RDF></metadata>
<g id="p-0" style="fill:none;stroke-linecap:round;stroke-linejoin:round;">
  <path d="M 10.100 100.300 H 110.100 V 90.300 H 10.100 V 100.300 Z" stroke="rgb(0,0,0)" stroke-width="0.20" />
  <text dominant-baseline="hanging" font-size="6px" style="font-family: sans-serif ; font-weight: normal; font-style: normal; fill: rgb(255,0,0)" text-anchor="middle" transform="matrix( 1.000 0.000 0.000 1.000 60.100 92.300 )">100.0mm, burn:0.10mm</text>
</g>
<g id="p-1" style="fill:none;stroke-linecap:round;stroke-linejoin:round;">
  <text dominant-baseline="hanging" font-size="4px" style="font-family: sans-serif ; font-weight: normal; font-style: normal; fill: rgb(255,0,0)" text-anchor="middle" transform="matrix( 1.000 0.000 0.000 1.000 22.600 74.100 )">Wall 1</text><path d="M 13.100 88.600 H 19.600 C 19.655 88.600 19.700 88.555 19.700 88.500 V 85.600 C 19.700 85.500 19.600 85.600 19.700 85.600 H 25.500 C 25.600 85.600 25.500 85.500 25.500 85.600 V 88.500 C 25.500 88.555 25.545 88.600 25.600 88.600 H 32.100 H 35.100 C 35.155 88.600 35.200 88.555 35.200 88.500 V 85.500 V 79.000 C 35.200 78.945 35.155 78.900 35.100 78.900 H 32.200 C 32.100 78.900 32.200 79.000 32.200 78.900 V 73.100 C 32.200 73.000 32.100 73.100 32.200 73.100 H 35.100 C 35.155 73.100 35.200 73.055 35.200 73.000 V 66.500 V 63.500 C 35.200 63.445 35.155 63.400 35.100 63.400 H 32.100 H 25.600 C 25.545 63.400 25.500 63.445 25.500 63.500 V 66.400 C 25.500 66.500 25.600 66.400 25.500 66.400 H 19.700 C 19.600 66.400 19.700 66.500 19.700 66.400 V 63.500 C 19.700 63.445 19.655 63.400 19.600 63.400 H 13.100 H 10.100 C 10.045 63.400 10.000 63.445 10.000 63.500 V 66.500 V 73.000 C 10.000 73.055 10.045 73.100 10.100 73.100 H 13.000 C 13.100 73.100 13.000 73.000 13.000 73.100 V 78.900 C 13.000 79.000 13.100 78.900 13.000 78.900 H 10.100 C 10.045 78.900 10.000 78.945 10.000 79.000 V 85.500 V 88.500 C 10.000 88.555 10.045 88.600 10.100 88.600 H 13.100" stroke="rgb(0,0,0)" stroke-width="0.20" />
</g>
<g id="p-2" style="fill:none;stroke-linecap:round;stroke-linejoin:round;">
  <text dominant-baseline="hanging" font-size="4px" style="font-family: sans-serif ; font-weight: normal; font-style: normal; fill: rgb(255,0,0)" text-anchor="middle" transform="matrix( 1.000 0.000 0.000 1.000 49.300 74.100 )">Wall 2</text><path d="M 39.800 88.600 H 46.300 C 46.355 88.600 46.400 88.555 46.400 88.500 V 85.600 C 46.400 85.500 46.300 85.600 46.400 85.600 H 52.200 C 52.300 85.600 52.200 85.500 52.200 85.600 V 88.500 C 52.200 88.555 52.245 88.600 52.300 88.600 H 58.800 C 58.855 88.600 58.900 88.555 58.900 88.500 V 85.500 V 79.100 C 58.900 79.000 58.800 79.100 58.900 79.100 H 61.800 C 61.855 79.100 61.900 79.055 61.900 79.000 V 73.000 C 61.900 72.945 61.855 72.900 61.800 72.900 H 58.900 C 58.800 72.900 58.900 73.000 58.900 72.900 V 66.500 V 63.500 C 58.900 63.445 58.855 63.400 58.800 63.400 H 52.300 C 52.245 63.400 52.200 63.445 52.200 63.500 V 66.400 C 52.200 66.500 52.300 66.400 52.200 66.400 H 46.400 C 46.300 66.400 46.400 66.500 46.400 66.400 V 63.500 C 46.400 63.445 46.355 63.400 46.300 63.400 H 39.800 C 39.745 63.400 39.700 63.445 39.700 63.500 V 66.500 V 72.900 C 39.700 73.000 39.800 72.900 39.700 72.900 H 36.800 C 36.745 72.900 36.700 72.945 36.700 73.000 V 79.000 C 36.700 79.055 36.745 79.100 36.800 79.100 H 39.700 C 39.800 79.100 39.700 79.000 39.700 79.100 V 85.500 V 88.500 C 39.700 88.555 39.745 88.600 39.800 88.600" stroke="rgb(0,0,0)" stroke-width="0.20" />
</g>
<g id="p-3" style="fill:none;stroke-linecap:round;stroke-linejoin:round;">
  <text dominant-baseline="hanging" font-size="4px" style="font-family: sans-serif ; font-weight: normal; font-style: normal; fill: rgb(255,0,0)" text-anchor="middle" transform="matrix( 1.000 0.000 0.000 1.000 49.300 47.400 )">Wall 4</text><path d="M 39.800 61.900 H 46.300 C 46.355 61.900 46.400 61.855 46.400 61.800 V 58.900 C 46.400 58.800 46.300 58.900 46.400 58.900 H 52.200 C 52.300 58.900 52.200 58.800 52.200 58.900 V 61.800 C 52.200 61.855 52.245 61.900 52.300 61.900 H 58.800 C 58.855 61.900 58.900 61.855 58.900 61.800 V 58.800 V 52.400 C 58.900 52.300 58.800 52.400 58.900 52.400 H 61.800 C 61.855 52.400 61.900 52.355 61.900 52.300 V 46.300 C 61.900 46.245 61.855 46.200 61.800 46.200 H 58.900 C 58.800 46.200 58.900 46.300 58.900 46.200 V 39.800 V 36.800 C 58.900 36.745 58.855 36.700 58.800 36.700 H 52.300 C 52.245 36.700 52.200 36.745 52.200 36.800 V 39.700 C 52.200 39.800 52.300 39.700 52.200 39.700 H 46.400 C 46.300 39.700 46.400 39.800 46.400 39.700 V 36.800 C 46.400 36.745 46.355 36.700 46.300 36.700 H 39.800 C 39.745 36.700 39.700 36.745 39.700 36.800 V 39.800 V 46.200 C 39.700 46.300 39.800 46.200 39.700 46.200 H 36.800 C 36.745 46.200 36.700 46.245 36.700 46.300 V 52.300 C 36.700 52.355 36.745 52.400 36.800 52.400 H 39.700 C 39.800 52.400 39.700 52.300 39.700 52.400 V 58.800 V 61.800 C 39.700 61.855 39.745 61.900 39.800 61.900" stroke="rgb(0,0,0)" stroke-width="0.20" />
</g>
<g id="p-4" style="fill:none;stroke-linecap:round;stroke-linejoin:round;">
  <text dominant-baseline="hanging" font-size="4px" style="font-family: sans-serif ; font-weight: normal; font-style: normal; fill: rgb(255,0,0)" text-anchor="middle" transform="matrix( 1.000 0.000 0.000 1.000 22.600 47.400 )">Wall 3</text><path d="M 13.100 61.900 H 19.600 C 19.655 61.900 19.700 61.855 19.700 61.800 V 58.900 C 19.700 58.800 19.600 58.900 19.700 58.900 H 25.500 C 25.600 58.900 25.500 58.800 25.500 58.900 V 61.800 C 25.500 61.855 25.545 61.900 25.600 61.900 H 32.100 H 35.100 C 35.155 61.900 35.200 61.855 35.200 61.800 V 58.800 V 52.300 C 35.200 52.245 35.155 52.200 35.100 52.200 H 32.200 C 32.100 52.200 32.200 52.300 32.200 52.200 V 46.400 C 32.200 46.300 32.100 46.400 32.200 46.400 H 35.100 C 35.155 46.400 35.200 46.355 35.200 46.300 V 39.800 V 36.800 C 35.200 36.745 35.155 36.700 35.100 36.700 H 32.100 H 25.600 C 25.545 36.700 25.500 36.745 25.500 36.800 V 39.700 C 25.500 39.800 25.600 39.700 25.500 39.700 H 19.700 C 19.600 39.700 19.700 39.800 19.700 39.700 V 36.800 C 19.700 36.745 19.655 36.700 19.600 36.700 H 13.100 H 10.100 C 10.045 36.700 10.000 36.745 10.000 36.800 V 39.800 V 46.300 C 10.000 46.355 10.045 46.400 10.100 46.400 H 13.000 C 13.100 46.400 13.000 46.300 13.000 46.400 V 52.200 C 13.000 52.300 13.100 52.200 13.000 52.200 H 10.100 C 10.045 52.200 10.000 52.245 10.000 52.300 V 58.800 V 61.800 C 10.000 61.855 10.045 61.900 10.100 61.900 H 13.100" stroke="rgb(0,0,0)" stroke-width="0.20" />
</g>
<g id="p-5" style="fill:none;stroke-linecap:round;stroke-linejoin:round;">
  <text dominant-baseline="hanging" font-size="4px" style="font-family: sans-serif ; font-weight: normal; font-style: normal; fill: rgb(255,0,0)" text-anchor="middle" transform="matrix( 1.000 0.000 0.000 1.000 22.600 20.700 )">Top</text><path d="M 13.100 32.200 H 19.500 C 19.600 32.200 19.500 32.100 19.500 32.200 V 35.100 C 19.500 35.155 19.545 35.200 19.600 35.200 H 25.600 C 25.655 35.200 25.700 35.155 25.700 35.100 V 32.200 C 25.700 32.100 25.600 32.200 25.700 32.200 H 32.100 C 32.155 32.200 32.200 32.155 32.200 32.100 V 25.700 C 32.200 25.600 32.100 25.700 32.200 25.700 H 35.100 C 35.155 25.700 35.200 25.655 35.200 25.600 V 19.600 C 35.200 19.545 35.155 19.500 35.100 19.500 H 32.200 C 32.100 19.500 32.200 19.600 32.200 19.500 V 13.100 C 32.200 13.045 32.155 13.000 32.100 13.000 H 25.700 C 25.600 13.000 25.700 13.100 25.700 13.000 V 10.100 C 25.700 10.045 25.655 10.000 25.600 10.000 H 19.600 C 19.545 10.000 19.500 10.045 19.500 10.100 V 13.000 C 19.500 13.100 19.600 13.000 19.500 13.000 H 13.100 C 13.045 13.000 13.000 13.045 13.000 13.100 V 19.500 C 13.000 19.600 13.100 19.500 13.000 19.500 H 10.100 C 10.045 19.500 10.000 19.545 10.000 19.600 V 25.600 C 10.000 25.655 10.045 25.700 10.100 25.700 H 13.000 C 13.100 25.700 13.000 25.600 13.000 25.700 V 32.100 C 13.000 32.155 13.045 32.200 13.100 32.200" stroke="rgb(0,0,0)" stroke-width="0.20" />
</g>
<g id="p-6" style="fill:none;stroke-linecap:round;stroke-linejoin:round;">
  <text dominant-baseline="hanging" font-size="4px" style="font-family: sans-serif ; font-weight: normal; font-style: normal; fill: rgb(255,0,0)" text-anchor="middle" transform="matrix( 1.000 0.000 0.000 1.000 49.300 20.700 )">Bottom</text><path d="M 39.800 32.200 H 46.200 C 46.300 32.200 46.200 32.100 46.200 32.200 V 35.100 C 46.200 35.155 46.245 35.200 46.300 35.200 H 52.300 C 52.355 35.200 52.400 35.155 52.400 35.100 V 32.200 C 52.400 32.100 52.300 32.200 52.400 32.200 H 58.800 C 58.855 32.200 58.900 32.155 58.900 32.100 V 25.700 C 58.900 25.600 58.800 25.700 58.900 25.700 H 61.800 C 61.855 25.700 61.900 25.655 61.900 25.600 V 19.600 C 61.900 19.545 61.855 19.500 61.800 19.500 H 58.900 C 58.800 19.500 58.900 19.600 58.900 19.500 V 13.100 C 58.900 13.045 58.855 13.000 58.800 13.000 H 52.400 C 52.300 13.000 52.400 13.100 52.400 13.000 V 10.100 C 52.400 10.045 52.355 10.000 52.300 10.000 H 46.300 C 46.245 10.000 46.200 10.045 46.200 10.100 V 13.000 C 46.200 13.100 46.300 13.000 46.200 13.000 H 39.800 C 39.745 13.000 39.700 13.045 39.700 13.100 V 19.500 C 39.700 19.600 39.800 19.500 39.700 19.500 H 36.800 C 36.745 19.500 36.700 19.545 36.700 19.600 V 25.600 C 36.700 25.655 36.745 25.700 36.800 25.700 H 39.700 C 39.800 25.700 39.700 25.600 39.700 25.700 V 32.100 C 39.700 32.155 39.745 32.200 39.800 32.200" stroke="rgb(0,0,0)" stroke-width="0.20" />
</g>
</svg>