<?xml version='1.0' encoding='utf-8'?>
<svg height="150.30mm" viewBox="0.0 0.0 338.90 150.30" width="338.90mm" xmlns="http://www.w3.org/2000/svg" xmlns:cc="http://creativecommons.org/ns#" xmlns:dc="http://purl.org/dc/elements/1.1/" xmlns:inkscape="http://www.inkscape.org/namespaces/inkscape" xmlns:rdf="http://www.w3.org/1999/02/22-rdf-syntax-ns#" xmlns:svg="http://www.w3.org/2000/svg" xmlns:xlink="http://www.w3.org/1999/xlink">
<!--
ABox - A simple Box


This box is kept simple on purpose. If you need more features have a look at the UniversalBox.


Created with Boxes.py (https://boxes.hackerspace-bamberg.de/)
Creation date: 2024-11-01 02:35:03
Command line (remove spaces between dashes): boxes ABox - -x=262 - -y=55 - -h=30
Url: https://boxes.hackerspace-bamberg.de/ABox?FingerJoint_style=rectangular&FingerJoint_surroundingspaces=2.0&FingerJoint_bottom_lip=0.0&FingerJoint_edge_width=1.0&FingerJoint_extra_length=0.0&FingerJoint_finger=2.0&FingerJoint_play=0.0&FingerJoint_space=2.0&FingerJoint_width=1.0&Lid_handle=none&Lid_style=none&Lid_handle_height=8.0&Lid_height=4.0&Lid_play=0.1&x=262&y=55&h=30&outside=0&outside=1&bottom_edge=h&thickness=3.0&format=svg&tabs=0.0&qr_code=0&debug=0&labels=0&labels=1&reference=100.0&inner_corners=loop&burn=0.1&language=en&render=2
Url short: https://boxes.hackerspace-bamberg.de/ABox?x=262&y=55&h=30
SettingsUrl: https://boxes.hackerspace-bamberg.de/ABox?FingerJoint_style=rectangular&FingerJoint_surroundingspaces=2.0&FingerJoint_bottom_lip=0.0&FingerJoint_edge_width=1.0&FingerJoint_extra_length=0.0&FingerJoint_finger=2.0&FingerJoint_play=0.0&FingerJoint_space=2.0&FingerJoint_width=1.0&Lid_handle=none&Lid_style=none&Lid_handle_height=8.0&Lid_height=4.0&Lid_play=0.1&x=262&y=55&h=30&outside=0&outside=1&bottom_edge=h&thickness=3.0&format=svg&tabs=0.0&qr_code=0&debug=0&labels=0&labels=1&reference=100.0&inner_corners=loop&burn=0.1&language=en&render=2
SettingsUrl short: https://boxes.hackerspace-bamberg.de/ABox?x=262&y=55&h=30
-->
<title>ABox</title>
<metadata>
<rdf:RDF><cc:Work>
<dc:title>Box - ABox</dc:title>
<dc:date>2024-11-01 02:35:03</dc:date>
<dc:source>https://boxes.hackerspace-bamberg.de/ABox?FingerJoint_style=rectangular&amp;FingerJoint_surroundingspaces=2.0&amp;FingerJoint_bottom_lip=0.0&amp;FingerJoint_edge_width=1.0&amp;FingerJoint_extra_length=0.0&amp;FingerJoint_finger=2.0&amp;FingerJoint_play=0.0&amp;FingerJoint_space=2.0&amp;FingerJoint_width=1.0&amp;Lid_handle=none&amp;Lid_style=none&amp;Lid_handle_height=8.0&amp;Lid_height=4.0&amp;Lid_play=0.1&amp;x=262&amp;y=55&amp;h=30&amp;outside=0&amp;outside=1&amp;bottom_edge=h&amp;thickness=3.0&amp;format=svg&amp;tabs=0.0&amp;qr_code=0&amp;debug=0&amp;labels=0&amp;labels=1&amp;reference=100.0&amp;inner_corners=loop&amp;burn=0.1&amp;language=en&amp;render=2</dc:source>
<dc:source>https://boxes.hackerspace-bamberg.de/ABox?x=262&amp;y=55&amp;h=30</dc:source>
<dc:description>A simple Box

This box is kept simple on purpose. If you need more features have a look at the UniversalBox.

Created with Boxes.py (https://boxes.hackerspace-bamberg.de/)
Command line: boxes ABox --FingerJoint_style=rectangular --FingerJoint_surroundingspaces=2.0 --FingerJoint_bottom_lip=0.0 --FingerJoint_edge_width=1.0 --FingerJoint_extra_length=0.0 --FingerJoint_finger=2.0 --FingerJoint_play=0.0 --FingerJoint_space=2.0 --FingerJoint_width=1.0 --Lid_handle=none --Lid_style=none --Lid_handle_height=8.0 --Lid_height=4.0 --Lid_play=0.1 --x=262 --y=55 --h=30 --outside=0 --outside=1 --bottom_edge=h --thickness=3.0 --format=svg --tabs=0.0 --qr_code=0 --debug=0 --labels=0 --labels=1 --reference=100.0 --inner_corners=loop --burn=0.1
Command line short: boxes ABox --x=262 --y=55 --h=30
Url: https://boxes.hackerspace-bamberg.de/ABox?FingerJoint_style=rectangular&amp;FingerJoint_surroundingspaces=2.0&amp;FingerJoint_bottom_lip=0.0&amp;FingerJoint_edge_width=1.0&amp;FingerJoint_extra_length=0.0&amp;FingerJoint_finger=2.0&amp;FingerJoint_play=0.0&amp;FingerJoint_space=2.0&amp;FingerJoint_width=1.0&amp;Lid_handle=none&amp;Lid_style=none&amp;Lid_handle_height=8.0&amp;Lid_height=4.0&amp;Lid_play=0.1&amp;x=262&amp;y=55&amp;h=30&amp;outside=0&amp;outside=1&amp;bottom_edge=h&amp;thickness=3.0&amp;format=svg&amp;tabs=0.0&amp;qr_code=0&amp;debug=0&amp;labels=0&amp;labels=1&amp;reference=100.0&amp;inner_corners=loop&amp;burn=0.1&amp;language=en&amp;render=2
Url short: https://boxes.hackerspace-bamberg.de/ABox?x=262&amp;y=55&amp;h=30
SettingsUrl: https://boxes.hackerspace-bamberg.de/ABox?FingerJoint_style=rectangular&amp;FingerJoint_surroundingspaces=2.0&amp;FingerJoint_bottom_lip=0.0&amp;FingerJoint_edge_width=1.0&amp;FingerJoint_extra_length=0.0&amp;FingerJoint_finger=2.0&amp;FingerJoint_play=0.0&amp;FingerJoint_space=2.0&amp;FingerJoint_width=1.0&amp;Lid_handle=none&amp;Lid_style=none&amp;Lid_handle_height=8.0&amp;Lid_height=4.0&amp;Lid_play=0.1&amp;x=262&amp;y=55&amp;h=30&amp;outside=0&amp;outside=1&amp;bottom_edge=h&amp;thickness=3.0&amp;format=svg&amp;tabs=0.0&amp;qr_code=0&amp;debug=0&amp;labels=0&amp;labels=1&amp;reference=100.0&amp;inner_corners=loop&amp;burn=0.1&amp;language=en&amp;render=2
SettingsUrl short: https://boxes.hackerspace-bamberg.de/ABox?x=262&amp;y=55&amp;h=30
</dc:description>
</cc:Work></rdf:RDF></metadata>
<g id="p-0" style="fill:none;stroke-linecap:round;stroke-linejoin:round;">
  <path d="M 10.100 140.300 H 110.100 V 130.300 H 10.100 V 140.300 Z" stroke="rgb(0,0,0)" stroke-width="0.20" />
  <text dominant-baseline="hanging" font-size="6px" style="font-family: sans-serif ; font-weight: normal; font-style: normal; fill: rgb(255,0,0)" text-anchor="middle" transform="matrix( 1.000 0.000 0.000 1.000 60.100 132.300 )">100.0mm, burn:0.10mm</text>
</g>
<g id="p-1" style="fill:none;stroke-linecap:round;stroke-linejoin:round;">
  <path d="M 27.100 125.400 H 24.200 C 24.100 125.400 24.200 125.500 24.200 125.400 V 122.600 C 24.200 122.500 24.100 122.600 24.200 122.600 H 30.000 C 30.100 122.600 30.000 122.500 30.000 122.600 V 125.400 C 30.000 125.500 30.100 125.400 30.000 125.400 H 27.100 Z" stroke="rgb(0,0,255)" stroke-width="0.20" />
  <path d="M 39.100 125.400 H 36.200 C 36.100 125.400 36.200 125.500 36.200 125.400 V 122.600 C 36.200 122.500 36.100 122.600 36.200 122.600 H 42.000 C 42.100 122.600 42.000 122.500 42.000 122.600 V 125.400 C 42.000 125.500 42.100 125.400 42.000 125.400 H 39.100 Z" stroke="rgb(0,0,255)" stroke-width="0.20" />
  <path d="M 51.100 125.400 H 48.200 C 48.100 125.400 48.200 125.500 48.200 125.400 V 122.600 C 48.200 122.500 48.100 122.600 48.200 122.600 H 54.000 C 54.100 122.600 54.000 122.500 54.000 122.600 V 125.400 C 54.000 125.500 54.100 125.400 54.000 125.400 H 51.100 Z" stroke="rgb(0,0,255)" stroke-width="0.20" />
  <path d="M 63.100 125.400 H 60.200 C 60.100 125.400 60.200 125.500 60.200 125.400 V 122.600 C 60.200 122.500 60.100 122.600 60.200 122.600 H 66.000 C 66.100 122.600 66.000 122.500 66.000 122.600 V 125.400 C 66.000 125.500 66.100 125.400 66.000 125.400 H 63.100 Z" stroke="rgb(0,0,255)" stroke-width="0.20" />
  <path d="M 75.100 125.400 H 72.200 C 72.100 125.400 72.200 125.500 72.200 125.400 V 122.600 C 72.200 122.500 72.100 122.600 72.200 122.600 H 78.000 C 78.100 122.600 78.000 122.500 78.000 122.600 V 125.400 C 78.000 125.500 78.100 125.400 78.000 125.400 H 75.100 Z" stroke="rgb(0,0,255)" stroke-width="0.20" />
  <path d="M 87.100 125.400 H 84.200 C 84.100 125.400 84.200 125.500 84.200 125.400 V 122.600 C 84.200 122.500 84.100 122.600 84.200 122.600 H 90.000 C 90.100 122.600 90.000 122.500 90.000 122.600 V 125.400 C 90.000 125.500 90.100 125.400 90.000 125.400 H 87.100 Z" stroke="rgb(0,0,255)" stroke-width="0.20" />
  <path d="M 99.100 125.400 H 96.200 C 96.100 125.400 96.200 125.500 96.200 125.400 V 122.600 C 96.200 122.500 96.100 122.600 96.200 122.600 H 102.000 C 102.100 122.600 102.000 122.500 102.000 122.600 V 125.400 C 102.000 125.500 102.100 125.400 102.000 125.400 H 99.100 Z" stroke="rgb(0,0,255)" stroke-width="0.20" />
  <path d="M 111.100 125.400 H 108.200 C 108.100 125.400 108.200 125.500 108.200 125.400 V 122.600 C 108.200 122.500 108.100 122.600 108.200 122.600 H 114.000 C 114.100 122.600 114.000 122.500 114.000 122.600 V 125.400 C 114.000 125.500 114.100 125.400 114.000 125.400 H 111.100 Z" stroke="rgb(0,0,255)" stroke-width="0.20" />
  <path d="M 123.100 125.400 H 120.200 C 120.100 125.400 120.200 125.500 120.200 125.400 V 122.600 C 120.200 122.500 120.100 122.600 120.200 122.600 H 126.000 C 126.100 122.600 126.000 122.500 126.000 122.600 V 125.400 C 126.000 125.500 126.100 125.400 126.000 125.400 H 123.100 Z" stroke="rgb(0,0,255)" stroke-width="0.20" />
  <path d="M 135.100 125.400 H 132.200 C 132.100 125.400 132.200 125.500 132.200 125.400 V 122.600 C 132.200 122.500 132.100 122.600 132.200 122.600 H 138.000 C 138.100 122.600 138.000 122.500 138.000 122.600 V 125.400 C 138.000 125.500 138.100 125.400 138.000 125.400 H 135.100 Z" stroke="rgb(0,0,255)" stroke-width="0.20" />
  <path d="M 147.100 125.400 H 144.200 C 144.100 125.400 144.200 125.500 144.200 125.400 V 122.600 C 144.200 122.500 144.100 122.600 144.200 122.600 H 150.000 C 150.100 122.600 150.000 122.500 150.000 122.600 V 125.400 C 150.000 125.500 150.100 125.400 150.000 125.400 H 147.100 Z" stroke="rgb(0,0,255)" stroke-width="0.20" />
  <path d="M 159.100 125.400 H 156.200 C 156.100 125.400 156.200 125.500 156.200 125.400 V 122.600 C 156.200 122.500 156.100 122.600 156.200 122.600 H 162.000 C 162.100 122.600 162.000 122.500 162.000 122.600 V 125.400 C 162.000 125.500 162.100 125.400 162.000 125.400 H 159.100 Z" stroke="rgb(0,0,255)" stroke-width="0.20" />
  <path d="M 171.100 125.400 H 168.200 C 168.100 125.400 168.200 125.500 168.200 125.400 V 122.600 C 168.200 122.500 168.100 122.600 168.200 122.600 H 174.000 C 174.100 122.600 174.000 122.500 174.000 122.600 V 125.400 C 174.000 125.500 174.100 125.400 174.000 125.400 H 171.100 Z" stroke="rgb(0,0,255)" stroke-width="0.20" />
  <path d="M 183.100 125.400 H 180.200 C 180.100 125.400 180.200 125.500 180.200 125.400 V 122.600 C 180.200 122.500 180.100 122.600 180.200 122.600 H 186.000 C 186.100 122.600 186.000 122.500 186.000 122.600 V 125.400 C 186.000 125.500 186.100 125.400 186.000 125.400 H 183.100 Z" stroke="rgb(0,0,255)" stroke-width="0.20" />
  <path d="M 195.100 125.400 H 192.200 C 192.100 125.400 192.200 125.500 192.200 125.400 V 122.600 C 192.200 122.500 192.100 122.600 192.200 122.600 H 198.000 C 198.100 122.600 198.000 122.500 198.000 122.600 V 125.400 C 198.000 125.500 198.100 125.400 198.000 125.400 H 195.100 Z" stroke="rgb(0,0,255)" stroke-width="0.20" />
  <path d="M 207.100 125.400 H 204.200 C 204.100 125.400 204.200 125.500 204.200 125.400 V 122.600 C 204.200 122.500 204.100 122.600 204.200 122.600 H 210.000 C 210.100 122.600 210.000 122.500 210.000 122.600 V 125.400 C 210.000 125.500 210.100 125.400 210.000 125.400 H 207.100 Z" stroke="rgb(0,0,255)" stroke-width="0.20" />
  <path d="M 219.100 125.400 H 216.200 C 216.100 125.400 216.200 125.500 216.200 125.400 V 122.600 C 216.200 122.500 216.100 122.600 216.200 122.600 H 222.000 C 222.100 122.600 222.000 122.500 222.000 122.600 V 125.400 C 222.000 125.500 222.100 125.400 222.000 125.400 H 219.100 Z" stroke="rgb(0,0,255)" stroke-width="0.20" />
  <path d="M 231.100 125.400 H 228.200 C 228.100 125.400 228.200 125.500 228.200 125.400 V 122.600 C 228.200 122.500 228.100 122.600 228.200 122.600 H 234.000 C 234.100 122.600 234.000 122.500 234.000 122.600 V 125.400 C 234.000 125.500 234.100 125.400 234.000 125.400 H 231.100 Z" stroke="rgb(0,0,255)" stroke-width="0.20" />
  <path d="M 243.100 125.400 H 240.200 C 240.100 125.400 240.200 125.500 240.200 125.400 V 122.600 C 240.200 122.500 240.100 122.600 240.200 122.600 H 246.000 C 246.100 122.600 246.000 122.500 246.000 122.600 V 125.400 C 246.000 125.500 246.100 125.400 246.000 125.400 H 243.100 Z" stroke="rgb(0,0,255)" stroke-width="0.20" />
  <path d="M 255.100 125.400 H 252.200 C 252.100 125.400 252.200 125.500 252.200 125.400 V 122.600 C 252.200 122.500 252.100 122.600 252.200 122.600 H 258.000 C 258.100 122.600 258.000 122.500 258.000 122.600 V 125.400 C 258.000 125.500 258.100 125.400 258.000 125.400 H 255.100 Z" stroke="rgb(0,0,255)" stroke-width="0.20" />
  <path d="M 13.100 128.600 H 269.100 H 272.100 C 272.155 128.600 272.200 128.555 272.200 128.500 V 122.500 C 272.200 122.445 272.155 122.400 272.100 122.400 H 269.200 C 269.100 122.400 269.200 122.500 269.200 122.400 V 116.600 C 269.200 116.500 269.100 116.600 269.200 116.600 H 272.100 C 272.155 116.600 272.200 116.555 272.200 116.500 V 110.500 C 272.200 110.445 272.155 110.400 272.100 110.400 H 269.200 C 269.100 110.400 269.200 110.500 269.200 110.400 V 104.600 C 269.200 104.500 269.100 104.600 269.200 104.600 H 272.100 C 272.155 104.600 272.200 104.555 272.200 104.500 V 98.500 C 272.200 98.445 272.155 98.400 272.100 98.400 H 269.100 H 13.100 H 10.100 C 10.045 98.400 10.000 98.445 10.000 98.500 V 104.500 C 10.000 104.555 10.045 104.600 10.100 104.600 H 13.000 C 13.100 104.600 13.000 104.500 13.000 104.600 V 110.400 C 13.000 110.500 13.100 110.400 13.000 110.400 H 10.100 C 10.045 110.400 10.000 110.445 10.000 110.500 V 116.500 C 10.000 116.555 10.045 116.600 10.100 116.600 H 13.000 C 13.100 116.600 13.000 116.500 13.000 116.600 V 122.400 C 13.000 122.500 13.100 122.400 13.000 122.400 H 10.100 C 10.045 122.400 10.000 122.445 10.000 122.500 V 128.500 C 10.000 128.555 10.045 128.600 10.100 128.600 H 13.100 Z" stroke="rgb(0,0,0)" stroke-width="0.20" />
</g>
<g id="p-2" style="fill:none;stroke-linecap:round;stroke-linejoin:round;">
  <path d="M 27.100 93.700 H 24.200 C 24.100 93.700 24.200 93.800 24.200 93.700 V 90.900 C 24.200 90.800 24.100 90.900 24.200 90.900 H 30.000 C 30.100 90.900 30.000 90.800 30.000 90.900 V 93.700 C 30.000 93.800 30.100 93.700 30.000 93.700 H 27.100 Z" stroke="rgb(0,0,255)" stroke-width="0.20" />
  <path d="M 39.100 93.700 H 36.200 C 36.100 93.700 36.200 93.800 36.200 93.700 V 90.900 C 36.200 90.800 36.100 90.900 36.200 90.900 H 42.000 C 42.100 90.900 42.000 90.800 42.000 90.900 V 93.700 C 42.000 93.800 42.100 93.700 42.000 93.700 H 39.100 Z" stroke="rgb(0,0,255)" stroke-width="0.20" />
  <path d="M 51.100 93.700 H 48.200 C 48.100 93.700 48.200 93.800 48.200 93.700 V 90.900 C 48.200 90.800 48.100 90.900 48.200 90.900 H 54.000 C 54.100 90.900 54.000 90.800 54.000 90.900 V 93.700 C 54.000 93.800 54.100 93.700 54.000 93.700 H 51.100 Z" stroke="rgb(0,0,255)" stroke-width="0.20" />
  <path d="M 63.100 93.700 H 60.200 C 60.100 93.700 60.200 93.800 60.200 93.700 V 90.900 C 60.200 90.800 60.100 90.900 60.200 90.900 H 66.000 C 66.100 90.900 66.000 90.800 66.000 90.900 V 93.700 C 66.000 93.800 66.100 93.700 66.000 93.700 H 63.100 Z" stroke="rgb(0,0,255)" stroke-width="0.20" />
  <path d="M 75.100 93.700 H 72.200 C 72.100 93.700 72.200 93.800 72.200 93.700 V 90.900 C 72.200 90.800 72.100 90.900 72.200 90.900 H 78.000 C 78.100 90.900 78.000 90.800 78.000 90.900 V 93.700 C 78.000 93.800 78.100 93.700 78.000 93.700 H 75.100 Z" stroke="rgb(0,0,255)" stroke-width="0.20" />
  <path d="M 87.100 93.700 H 84.200 C 84.100 93.700 84.200 93.800 84.200 93.700 V 90.900 C 84.200 90.800 84.100 90.900 84.200 90.900 H 90.000 C 90.100 90.900 90.000 90.800 90.000 90.900 V 93.700 C 90.000 93.800 90.100 93.700 90.000 93.700 H 87.100 Z" stroke="rgb(0,0,255)" stroke-width="0.20" />
  <path d="M 99.100 93.700 H 96.200 C 96.100 93.700 96.200 93.800 96.200 93.700 V 90.900 C 96.200 90.800 96.100 90.900 96.200 90.900 H 102.000 C 102.100 90.900 102.000 90.800 102.000 90.900 V 93.700 C 102.000 93.800 102.100 93.700 102.000 93.700 H 99.100 Z" stroke="rgb(0,0,255)" stroke-width="0.20" />
  <path d="M 111.100 93.700 H 108.200 C 108.100 93.700 108.200 93.800 108.200 93.700 V 90.900 C 108.200 90.800 108.100 90.900 108.200 90.900 H 114.000 C 114.100 90.900 114.000 90.800 114.000 90.900 V 93.700 C 114.000 93.800 114.100 93.700 114.000 93.700 H 111.100 Z" stroke="rgb(0,0,255)" stroke-width="0.20" />
  <path d="M 123.100 93.700 H 120.200 C 120.100 93.700 120.200 93.800 120.200 93.700 V 90.900 C 120.200 90.800 120.100 90.900 120.200 90.900 H 126.000 C 126.100 90.900 126.000 90.800 126.000 90.900 V 93.700 C 126.000 93.800 126.100 93.700 126.000 93.700 H 123.100 Z" stroke="rgb(0,0,255)" stroke-width="0.20" />
  <path d="M 135.100 93.700 H 132.200 C 132.100 93.700 132.200 93.800 132.200 93.700 V 90.900 C 132.200 90.800 132.100 90.900 132.200 90.900 H 138.000 C 138.100 90.900 138.000 90.800 138.000 90.900 V 93.700 C 138.000 93.800 138.100 93.700 138.000 93.700 H 135.100 Z" stroke="rgb(0,0,255)" stroke-width="0.20" />
  <path d="M 147.100 93.700 H 144.200 C 144.100 93.700 144.200 93.800 144.200 93.700 V 90.900 C 144.200 90.800 144.100 90.900 144.200 90.900 H 150.000 C 150.100 90.900 150.000 90.800 150.000 90.900 V 93.700 C 150.000 93.800 150.100 93.700 150.000 93.700 H 147.100 Z" stroke="rgb(0,0,255)" stroke-width="0.20" />
  <path d="M 159.100 93.700 H 156.200 C 156.100 93.700 156.200 93.800 156.200 93.700 V 90.900 C 156.200 90.800 156.100 90.900 156.200 90.900 H 162.000 C 162.100 90.900 162.000 90.800 162.000 90.900 V 93.700 C 162.000 93.800 162.100 93.700 162.000 93.700 H 159.100 Z" stroke="rgb(0,0,255)" stroke-width="0.20" />
  <path d="M 171.100 93.700 H 168.200 C 168.100 93.700 168.200 93.800 168.200 93.700 V 90.900 C 168.200 90.800 168.100 90.900 168.200 90.900 H 174.000 C 174.100 90.900 174.000 90.800 174.000 90.900 V 93.700 C 174.000 93.800 174.100 93.700 174.000 93.700 H 171.100 Z" stroke="rgb(0,0,255)" stroke-width="0.20" />
  <path d="M 183.100 93.700 H 180.200 C 180.100 93.700 180.200 93.800 180.200 93.700 V 90.900 C 180.200 90.800 180.100 90.900 180.200 90.900 H 186.000 C 186.100 90.900 186.000 90.800 186.000 90.900 V 93.700 C 186.000 93.800 186.100 93.700 186.000 93.700 H 183.100 Z" stroke="rgb(0,0,255)" stroke-width="0.20" />
  <path d="M 195.100 93.700 H 192.200 C 192.100 93.700 192.200 93.800 192.200 93.700 V 90.900 C 192.200 90.800 192.100 90.900 192.200 90.900 H 198.000 C 198.100 90.900 198.000 90.800 198.000 90.900 V 93.700 C 198.000 93.800 198.100 93.700 198.000 93.700 H 195.100 Z" stroke="rgb(0,0,255)" stroke-width="0.20" />
  <path d="M 207.100 93.700 H 204.200 C 204.100 93.700 204.200 93.800 204.200 93.700 V 90.900 C 204.200 90.800 204.100 90.900 204.200 90.900 H 210.000 C 210.100 90.900 210.000 90.800 210.000 90.900 V 93.700 C 210.000 93.800 210.100 93.700 210.000 93.700 H 207.100 Z" stroke="rgb(0,0,255)" stroke-width="0.20" />
  <path d="M 219.100 93.700 H 216.200 C 216.100 93.700 216.200 93.800 216.200 93.700 V 90.900 C 216.200 90.800 216.100 90.900 216.200 90.900 H 222.000 C 222.100 90.900 222.000 90.800 222.000 90.900 V 93.700 C 222.000 93.800 222.100 93.700 222.000 93.700 H 219.100 Z" stroke="rgb(0,0,255)" stroke-width="0.20" />
  <path d="M 231.100 93.700 H 228.200 C 228.100 93.700 228.200 93.800 228.200 93.700 V 90.900 C 228.200 90.800 228.100 90.900 228.200 90.900 H 234.000 C 234.100 90.900 234.000 90.800 234.000 90.900 V 93.700 C 234.000 93.800 234.100 93.700 234.000 93.700 H 231.100 Z" stroke="rgb(0,0,255)" stroke-width="0.20" />
  <path d="M 243.100 93.700 H 240.200 C 240.100 93.700 240.200 93.800 240.200 93.700 V 90.900 C 240.200 90.800 240.100 90.900 240.200 90.900 H 246.000 C 246.100 90.900 246.000 90.800 246.000 90.900 V 93.700 C 246.000 93.800 246.100 93.700 246.000 93.700 H 243.100 Z" stroke="rgb(0,0,255)" stroke-width="0.20" />
  <path d="M 255.100 93.700 H 252.200 C 252.100 93.700 252.200 93.800 252.200 93.700 V 90.900 C 252.200 90.800 252.100 90.900 252.200 90.900 H 258.000 C 258.100 90.900 258.000 90.800 258.000 90.900 V 93.700 C 258.000 93.800 258.100 93.700 258.000 93.700 H 255.100 Z" stroke="rgb(0,0,255)" stroke-width="0.20" />
  <path d="M 13.100 96.900 H 269.100 H 272.100 C 272.155 96.900 272.200 96.855 272.200 96.800 V 90.800 C 272.200 90.745 272.155 90.700 272.100 90.700 H 269.200 C 269.100 90.700 269.200 90.800 269.200 90.700 V 84.900 C 269.200 84.800 269.100 84.900 269.200 84.900 H 272.100 C 272.155 84.900 272.200 84.855 272.200 84.800 V 78.800 C 272.200 78.745 272.155 78.700 272.100 78.700 H 269.200 C 269.100 78.700 269.200 78.800 269.200 78.700 V 72.900 C 269.200 72.800 269.100 72.900 269.200 72.900 H 272.100 C 272.155 72.900 272.200 72.855 272.200 72.800 V 66.800 C 272.200 66.745 272.155 66.700 272.100 66.700 H 269.100 H 13.100 H 10.100 C 10.045 66.700 10.000 66.745 10.000 66.800 V 72.800 C 10.000 72.855 10.045 72.900 10.100 72.900 H 13.000 C 13.100 72.900 13.000 72.800 13.000 72.900 V 78.700 C 13.000 78.800 13.100 78.700 13.000 78.700 H 10.100 C 10.045 78.700 10.000 78.745 10.000 78.800 V 84.800 C 10.000 84.855 10.045 84.900 10.100 84.900 H 13.000 C 13.100 84.900 13.000 84.800 13.000 84.900 V 90.700 C 13.000 90.800 13.100 90.700 13.000 90.700 H 10.100 C 10.045 90.700 10.000 90.745 10.000 90.800 V 96.800 C 10.000 96.855 10.045 96.900 10.100 96.900 H 13.100 Z" stroke="rgb(0,0,0)" stroke-width="0.20" />
</g>
<g id="p-3" style="fill:none;stroke-linecap:round;stroke-linejoin:round;">
  <path d="M 13.100 62.200 H 24.000 C 24.100 62.200 24.000 62.100 24.000 62.200 V 65.100 C 24.000 65.155 24.045 65.200 24.100 65.200 H 30.100 C 30.155 65.200 30.200 65.155 30.200 65.100 V 62.200 C 30.200 62.100 30.100 62.200 30.200 62.200 H 36.000 C 36.100 62.200 36.000 62.100 36.000 62.200 V 65.100 C 36.000 65.155 36.045 65.200 36.100 65.200 H 42.100 C 42.155 65.200 42.200 65.155 42.200 65.100 V 62.200 C 42.200 62.100 42.100 62.200 42.200 62.200 H 48.000 C 48.100 62.200 48.000 62.100 48.000 62.200 V 65.100 C 48.000 65.155 48.045 65.200 48.100 65.200 H 54.100 C 54.155 65.200 54.200 65.155 54.200 65.100 V 62.200 C 54.200 62.100 54.100 62.200 54.200 62.200 H 60.000 C 60.100 62.200 60.000 62.100 60.000 62.200 V 65.100 C 60.000 65.155 60.045 65.200 60.100 65.200 H 66.100 C 66.155 65.200 66.200 65.155 66.200 65.100 V 62.200 C 66.200 62.100 66.100 62.200 66.200 62.200 H 72.000 C 72.100 62.200 72.000 62.100 72.000 62.200 V 65.100 C 72.000 65.155 72.045 65.200 72.100 65.200 H 78.100 C 78.155 65.200 78.200 65.155 78.200 65.100 V 62.200 C 78.200 62.100 78.100 62.200 78.200 62.200 H 84.000 C 84.100 62.200 84.000 62.100 84.000 62.200 V 65.100 C 84.000 65.155 84.045 65.200 84.100 65.200 H 90.100 C 90.155 65.200 90.200 65.155 90.200 65.100 V 62.200 C 90.200 62.100 90.100 62.200 90.200 62.200 H 96.000 C 96.100 62.200 96.000 62.100 96.000 62.200 V 65.100 C 96.000 65.155 96.045 65.200 96.100 65.200 H 102.100 C 102.155 65.200 102.200 65.155 102.200 65.100 V 62.200 C 102.200 62.100 102.100 62.200 102.200 62.200 H 108.000 C 108.100 62.200 108.000 62.100 108.000 62.200 V 65.100 C 108.000 65.155 108.045 65.200 108.100 65.200 H 114.100 C 114.155 65.200 114.200 65.155 114.200 65.100 V 62.200 C 114.200 62.100 114.100 62.200 114.200 62.200 H 120.000 C 120.100 62.200 120.000 62.100 120.000 62.200 V 65.100 C 120.000 65.155 120.045 65.200 120.100 65.200 H 126.100 C 126.155 65.200 126.200 65.155 126.200 65.100 V 62.200 C 126.200 62.100 126.100 62.200 126.200 62.200 H 132.000 C 132.100 62.200 132.000 62.100 132.000 62.200 V 65.100 C 132.000 65.155 132.045 65.200 132.100 65.200 H 138.100 C 138.155 65.200 138.200 65.155 138.200 65.100 V 62.200 C 138.200 62.100 138.100 62.200 138.200 62.200 H 144.000 C 144.100 62.200 144.000 62.100 144.000 62.200 V 65.100 C 144.000 65.155 144.045 65.200 144.100 65.200 H 150.100 C 150.155 65.200 150.200 65.155 150.200 65.100 V 62.200 C 150.200 62.100 150.100 62.200 150.200 62.200 H 156.000 C 156.100 62.200 156.000 62.100 156.000 62.200 V 65.100 C 156.000 65.155 156.045 65.200 156.100 65.200 H 162.100 C 162.155 65.200 162.200 65.155 162.200 65.100 V 62.200 C 162.200 62.100 162.100 62.200 162.200 62.200 H 168.000 C 168.100 62.200 168.000 62.100 168.000 62.200 V 65.100 C 168.000 65.155 168.045 65.200 168.100 65.200 H 174.100 C 174.155 65.200 174.200 65.155 174.200 65.100 V 62.200 C 174.200 62.100 174.100 62.200 174.200 62.200 H 180.000 C 180.100 62.200 180.000 62.100 180.000 62.200 V 65.100 C 180.000 65.155 180.045 65.200 180.100 65.200 H 186.100 C 186.155 65.200 186.200 65.155 186.200 65.100 V 62.200 C 186.200 62.100 186.100 62.200 186.200 62.200 H 192.000 C 192.100 62.200 192.000 62.100 192.000 62.200 V 65.100 C 192.000 65.155 192.045 65.200 192.100 65.200 H 198.100 C 198.155 65.200 198.200 65.155 198.200 65.100 V 62.200 C 198.200 62.100 198.100 62.200 198.200 62.200 H 204.000 C 204.100 62.200 204.000 62.100 204.000 62.200 V 65.100 C 204.000 65.155 204.045 65.200 204.100 65.200 H 210.100 C 210.155 65.200 210.200 65.155 210.200 65.100 V 62.200 C 210.200 62.100 210.100 62.200 210.200 62.200 H 216.000 C 216.100 62.200 216.000 62.100 216.000 62.200 V 65.100 C 216.000 65.155 216.045 65.200 216.100 65.200 H 222.100 C 222.155 65.200 222.200 65.155 222.200 65.100 V 62.200 C 222.200 62.100 222.100 62.200 222.200 62.200 H 228.000 C 228.100 62.200 228.000 62.100 228.000 62.200 V 65.100 C 228.000 65.155 228.045 65.200 228.100 65.200 H 234.100 C 234.155 65.200 234.200 65.155 234.200 65.100 V 62.200 C 234.200 62.100 234.100 62.200 234.200 62.200 H 240.000 C 240.100 62.200 240.000 62.100 240.000 62.200 V 65.100 C 240.000 65.155 240.045 65.200 240.100 65.200 H 246.100 C 246.155 65.200 246.200 65.155 246.200 65.100 V 62.200 C 246.200 62.100 246.100 62.200 246.200 62.200 H 252.000 C 252.100 62.200 252.000 62.100 252.000 62.200 V 65.100 C 252.000 65.155 252.045 65.200 252.100 65.200 H 258.100 C 258.155 65.200 258.200 65.155 258.200 65.100 V 62.200 C 258.200 62.100 258.100 62.200 258.200 62.200 H 269.100 C 269.155 62.200 269.200 62.155 269.200 62.100 V 52.700 C 269.200 52.600 269.100 52.700 269.200 52.700 H 272.100 C 272.155 52.700 272.200 52.655 272.200 52.600 V 46.600 C 272.200 46.545 272.155 46.500 272.100 46.500 H 269.200 C 269.100 46.500 269.200 46.600 269.200 46.500 V 40.700 C 269.200 40.600 269.100 40.700 269.200 40.700 H 272.100 C 272.155 40.700 272.200 40.655 272.200 40.600 V 34.600 C 272.200 34.545 272.155 34.500 272.100 34.500 H 269.200 C 269.100 34.500 269.200 34.600 269.200 34.500 V 28.700 C 269.200 28.600 269.100 28.700 269.200 28.700 H 272.100 C 272.155 28.700 272.200 28.655 272.200 28.600 V 22.600 C 272.200 22.545 272.155 22.500 272.100 22.500 H 269.200 C 269.100 22.500 269.200 22.600 269.200 22.500 V 13.100 C 269.200 13.045 269.155 13.000 269.100 13.000 H 258.200 C 258.100 13.000 258.200 13.100 258.200 13.000 V 10.100 C 258.200 10.045 258.155 10.000 258.100 10.000 H 252.100 C 252.045 10.000 252.000 10.045 252.000 10.100 V 13.000 C 252.000 13.100 252.100 13.000 252.000 13.000 H 246.200 C 246.100 13.000 246.200 13.100 246.200 13.000 V 10.100 C 246.200 10.045 246.155 10.000 246.100 10.000 H 240.100 C 240.045 10.000 240.000 10.045 240.000 10.100 V 13.000 C 240.000 13.100 240.100 13.000 240.000 13.000 H 234.200 C 234.100 13.000 234.200 13.100 234.200 13.000 V 10.100 C 234.200 10.045 234.155 10.000 234.100 10.000 H 228.100 C 228.045 10.000 228.000 10.045 228.000 10.100 V 13.000 C 228.000 13.100 228.100 13.000 228.000 13.000 H 222.200 C 222.100 13.000 222.200 13.100 222.200 13.000 V 10.100 C 222.200 10.045 222.155 10.000 222.100 10.000 H 216.100 C 216.045 10.000 216.000 10.045 216.000 10.100 V 13.000 C 216.000 13.100 216.100 13.000 216.000 13.000 H 210.200 C 210.100 13.000 210.200 13.100 210.200 13.000 V 10.100 C 210.200 10.045 210.155 10.000 210.100 10.000 H 204.100 C 204.045 10.000 204.000 10.045 204.000 10.100 V 13.000 C 204.000 13.100 204.100 13.000 204.000 13.000 H 198.200 C 198.100 13.000 198.200 13.100 198.200 13.000 V 10.100 C 198.200 10.045 198.155 10.000 198.100 10.000 H 192.100 C 192.045 10.000 192.000 10.045 192.000 10.100 V 13.000 C 192.000 13.100 192.100 13.000 192.000 13.000 H 186.200 C 186.100 13.000 186.200 13.100 186.200 13.000 V 10.100 C 186.200 10.045 186.155 10.000 186.100 10.000 H 180.100 C 180.045 10.000 180.000 10.045 180.000 10.100 V 13.000 C 180.000 13.100 180.100 13.000 180.000 13.000 H 174.200 C 174.100 13.000 174.200 13.100 174.200 13.000 V 10.100 C 174.200 10.045 174.155 10.000 174.100 10.000 H 168.100 C 168.045 10.000 168.000 10.045 168.000 10.100 V 13.000 C 168.000 13.100 168.100 13.000 168.000 13.000 H 162.200 C 162.100 13.000 162.200 13.100 162.200 13.000 V 10.100 C 162.200 10.045 162.155 10.000 162.100 10.000 H 156.100 C 156.045 10.000 156.000 10.045 156.000 10.100 V 13.000 C 156.000 13.100 156.100 13.000 156.000 13.000 H 150.200 C 150.100 13.000 150.200 13.100 150.200 13.000 V 10.100 C 150.200 10.045 150.155 10.000 150.100 10.000 H 144.100 C 144.045 10.000 144.000 10.045 144.000 10.100 V 13.000 C 144.000 13.100 144.100 13.000 144.000 13.000 H 138.200 C 138.100 13.000 138.200 13.100 138.200 13.000 V 10.100 C 138.200 10.045 138.155 10.000 138.100 10.000 H 132.100 C 132.045 10.000 132.000 10.045 132.000 10.100 V 13.000 C 132.000 13.100 132.100 13.000 132.000 13.000 H 126.200 C 126.100 13.000 126.200 13.100 126.200 13.000 V 10.100 C 126.200 10.045 126.155 10.000 126.100 10.000 H 120.100 C 120.045 10.000 120.000 10.045 120.000 10.100 V 13.000 C 120.000 13.100 120.100 13.000 120.000 13.000 H 114.200 C 114.100 13.000 114.200 13.100 114.200 13.000 V 10.100 C 114.200 10.045 114.155 10.000 114.100 10.000 H 108.100 C 108.045 10.000 108.000 10.045 108.000 10.100 V 13.000 C 108.000 13.100 108.100 13.000 108.000 13.000 H 102.200 C 102.100 13.000 102.200 13.100 102.200 13.000 V 10.100 C 102.200 10.045 102.155 10.000 102.100 10.000 H 96.100 C 96.045 10.000 96.000 10.045 96.000 10.100 V 13.000 C 96.000 13.100 96.100 13.000 96.000 13.000 H 90.200 C 90.100 13.000 90.200 13.100 90.200 13.000 V 10.100 C 90.200 10.045 90.155 10.000 90.100 10.000 H 84.100 C 84.045 10.000 84.000 10.045 84.000 10.100 V 13.000 C 84.000 13.100 84.100 13.000 84.000 13.000 H 78.200 C 78.100 13.000 78.200 13.100 78.200 13.000 V 10.100 C 78.200 10.045 78.155 10.000 78.100 10.000 H 72.100 C 72.045 10.000 72.000 10.045 72.000 10.100 V 13.000 C 72.000 13.100 72.100 13.000 72.000 13.000 H 66.200 C 66.100 13.000 66.200 13.100 66.200 13.000 V 10.100 C 66.200 10.045 66.155 10.000 66.100 10.000 H 60.100 C 60.045 10.000 60.000 10.045 60.000 10.100 V 13.000 C 60.000 13.100 60.100 13.000 60.000 13.000 H 54.200 C 54.100 13.000 54.200 13.100 54.200 13.000 V 10.100 C 54.200 10.045 54.155 10.000 54.100 10.000 H 48.100 C 48.045 10.000 48.000 10.045 48.000 10.100 V 13.000 C 48.000 13.100 48.100 13.000 48.000 13.000 H 42.200 C 42.100 13.000 42.200 13.100 42.200 13.000 V 10.100 C 42.200 10.045 42.155 10.000 42.100 10.000 H 36.100 C 36.045 10.000 36.000 10.045 36.000 10.100 V 13.000 C 36.000 13.100 36.100 13.000 36.000 13.000 H 30.200 C 30.100 13.000 30.200 13.100 30.200 13.000 V 10.100 C 30.200 10.045 30.155 10.000 30.100 10.000 H 24.100 C 24.045 10.000 24.000 10.045 24.000 10.100 V 13.000 C 24.000 13.100 24.100 13.000 24.000 13.000 H 13.100 C 13.045 13.000 13.000 13.045 13.000 13.100 V 22.500 C 13.000 22.600 13.100 22.500 13.000 22.500 H 10.100 C 10.045 22.500 10.000 22.545 10.000 22.600 V 28.600 C 10.000 28.655 10.045 28.700 10.100 28.700 H 13.000 C 13.100 28.700 13.000 28.600 13.000 28.700 V 34.500 C 13.000 34.600 13.100 34.500 13.000 34.500 H 10.100 C 10.045 34.500 10.000 34.545 10.000 34.600 V 40.600 C 10.000 40.655 10.045 40.700 10.100 40.700 H 13.000 C 13.100 40.700 13.000 40.600 13.000 40.700 V 46.500 C 13.000 46.600 13.100 46.500 13.000 46.500 H 10.100 C 10.045 46.500 10.000 46.545 10.000 46.600 V 52.600 C 10.000 52.655 10.045 52.700 10.100 52.700 H 13.000 C 13.100 52.700 13.000 52.600 13.000 52.700 V 62.100 C 13.000 62.155 13.045 62.200 13.100 62.200 Z" stroke="rgb(0,0,0)" stroke-width="0.20" />
</g>
<g id="p-4" style="fill:none;stroke-linecap:round;stroke-linejoin:round;">
  <path d="M 289.300 125.400 H 286.400 C 286.300 125.400 286.400 125.500 286.400 125.400 V 122.600 C 286.400 122.500 286.300 122.600 286.400 122.600 H 292.200 C 292.300 122.600 292.200 122.500 292.200 122.600 V 125.400 C 292.200 125.500 292.300 125.400 292.200 125.400 H 289.300 Z" stroke="rgb(0,0,255)" stroke-width="0.20" />
  <path d="M 301.300 125.400 H 298.400 C 298.300 125.400 298.400 125.500 298.400 125.400 V 122.600 C 298.400 122.500 298.300 122.600 298.400 122.600 H 304.200 C 304.300 122.600 304.200 122.500 304.200 122.600 V 125.400 C 304.200 125.500 304.300 125.400 304.200 125.400 H 301.300 Z" stroke="rgb(0,0,255)" stroke-width="0.20" />
  <path d="M 313.300 125.400 H 310.400 C 310.300 125.400 310.400 125.500 310.400 125.400 V 122.600 C 310.400 122.500 310.300 122.600 310.400 122.600 H 316.200 C 316.300 122.600 316.200 122.500 316.200 122.600 V 125.400 C 316.200 125.500 316.300 125.400 316.200 125.400 H 313.300 Z" stroke="rgb(0,0,255)" stroke-width="0.20" />
  <path d="M 276.800 128.600 H 325.800 C 325.855 128.600 325.900 128.555 325.900 128.500 V 122.600 C 325.900 122.500 325.800 122.600 325.900 122.600 H 328.800 C 328.855 122.600 328.900 122.555 328.900 122.500 V 116.500 C 328.900 116.445 328.855 116.400 328.800 116.400 H 325.900 C 325.800 116.400 325.900 116.500 325.900 116.400 V 110.600 C 325.900 110.500 325.800 110.600 325.900 110.600 H 328.800 C 328.855 110.600 328.900 110.555 328.900 110.500 V 104.500 C 328.900 104.445 328.855 104.400 328.800 104.400 H 325.900 C 325.800 104.400 325.900 104.500 325.900 104.400 V 98.500 C 325.900 98.445 325.855 98.400 325.800 98.400 H 276.800 C 276.745 98.400 276.700 98.445 276.700 98.500 V 104.400 C 276.700 104.500 276.800 104.400 276.700 104.400 H 273.800 C 273.745 104.400 273.700 104.445 273.700 104.500 V 110.500 C 273.700 110.555 273.745 110.600 273.800 110.600 H 276.700 C 276.800 110.600 276.700 110.500 276.700 110.600 V 116.400 C 276.700 116.500 276.800 116.400 276.700 116.400 H 273.800 C 273.745 116.400 273.700 116.445 273.700 116.500 V 122.500 C 273.700 122.555 273.745 122.600 273.800 122.600 H 276.700 C 276.800 122.600 276.700 122.500 276.700 122.600 V 128.500 C 276.700 128.555 276.745 128.600 276.800 128.600 Z" stroke="rgb(0,0,0)" stroke-width="0.20" />
</g>
<g id="p-5" style="fill:none;stroke-linecap:round;stroke-linejoin:round;">
  <path d="M 289.300 93.700 H 286.400 C 286.300 93.700 286.400 93.800 286.400 93.700 V 90.900 C 286.400 90.800 286.300 90.900 286.400 90.900 H 292.200 C 292.300 90.900 292.200 90.800 292.200 90.900 V 93.700 C 292.200 93.800 292.300 93.700 292.200 93.700 H 289.300 Z" stroke="rgb(0,0,255)" stroke-width="0.20" />
  <path d="M 301.300 93.700 H 298.400 C 298.300 93.700 298.400 93.800 298.400 93.700 V 90.900 C 298.400 90.800 298.300 90.900 298.400 90.900 H 304.200 C 304.300 90.900 304.200 90.800 304.200 90.900 V 93.700 C 304.200 93.800 304.300 93.700 304.200 93.700 H 301.300 Z" stroke="rgb(0,0,255)" stroke-width="0.20" />
  <path d="M 313.300 93.700 H 310.400 C 310.300 93.700 310.400 93.800 310.400 93.700 V 90.900 C 310.400 90.800 310.300 90.900 310.400 90.900 H 316.200 C 316.300 90.900 316.200 90.800 316.200 90.900 V 93.700 C 316.200 93.800 316.300 93.700 316.200 93.700 H 313.300 Z" stroke="rgb(0,0,255)" stroke-width="0.20" />
  <path d="M 276.800 96.900 H 325.800 C 325.855 96.900 325.900 96.855 325.900 96.800 V 90.900 C 325.900 90.800 325.800 90.900 325.900 90.900 H 328.800 C 328.855 90.900 328.900 90.855 328.900 90.800 V 84.800 C 328.900 84.745 328.855 84.700 328.800 84.700 H 325.900 C 325.800 84.700 325.900 84.800 325.900 84.700 V 78.900 C 325.900 78.800 325.800 78.900 325.900 78.900 H 328.800 C 328.855 78.900 328.900 78.855 328.900 78.800 V 72.800 C 328.900 72.745 328.855 72.700 328.800 72.700 H 325.900 C 325.800 72.700 325.900 72.800 325.900 72.700 V 66.800 C 325.900 66.745 325.855 66.700 325.800 66.700 H 276.800 C 276.745 66.700 276.700 66.745 276.700 66.800 V 72.700 C 276.700 72.800 276.800 72.700 276.700 72.700 H 273.800 C 273.745 72.700 273.700 72.745 273.700 72.800 V 78.800 C 273.700 78.855 273.745 78.900 273.800 78.900 H 276.700 C 276.800 78.900 276.700 78.800 276.700 78.900 V 84.700 C 276.700 84.800 276.800 84.700 276.700 84.700 H 273.800 C 273.745 84.700 273.700 84.745 273.700 84.800 V 90.800 C 273.700 90.855 273.745 90.900 273.800 90.900 H 276.700 C 276.800 90.900 276.700 90.800 276.700 90.900 V 96.800 C 276.700 96.855 276.745 96.900 276.800 96.900 Z" stroke="rgb(0,0,0)" stroke-width="0.20" />
</g>
</svg>