<?xml version='1.0' encoding='utf-8'?>
<svg height="295.30mm" viewBox="0.0 0.0 486.90 295.30" width="486.90mm" xmlns="http://www.w3.org/2000/svg" xmlns:cc="http://creativecommons.org/ns#" xmlns:dc="http://purl.org/dc/elements/1.1/" xmlns:inkscape="http://www.inkscape.org/namespaces/inkscape" xmlns:rdf="http://www.w3.org/1999/02/22-rdf-syntax-ns#" xmlns:svg="http://www.w3.org/2000/svg" xmlns:xlink="http://www.w3.org/1999/xlink">
<!--
ABox - A simple Box


This box is kept simple on purpose. If you need more features have a look at the UniversalBox.


Created with Boxes.py (https://boxes.hackerspace-bamberg.de/)
Creation date: 2024-11-01 01:43:33
Command line (remove spaces between dashes): boxes ABox - -x=265 - -y=200 - -h=30
Url: https://boxes.hackerspace-bamberg.de/ABox?FingerJoint_style=rectangular&FingerJoint_surroundingspaces=2.0&FingerJoint_bottom_lip=0.0&FingerJoint_edge_width=1.0&FingerJoint_extra_length=0.0&FingerJoint_finger=2.0&FingerJoint_play=0.0&FingerJoint_space=2.0&FingerJoint_width=1.0&Lid_handle=none&Lid_style=none&Lid_handle_height=8.0&Lid_height=4.0&Lid_play=0.1&x=265&y=200&h=30&outside=0&outside=1&bottom_edge=h&thickness=3.0&format=svg&tabs=0.0&qr_code=0&debug=0&labels=0&labels=1&reference=100.0&inner_corners=loop&burn=0.1&language=en&render=2
Url short: https://boxes.hackerspace-bamberg.de/ABox?x=265&y=200&h=30
SettingsUrl: https://boxes.hackerspace-bamberg.de/ABox?FingerJoint_style=rectangular&FingerJoint_surroundingspaces=2.0&FingerJoint_bottom_lip=0.0&FingerJoint_edge_width=1.0&FingerJoint_extra_length=0.0&FingerJoint_finger=2.0&FingerJoint_play=0.0&FingerJoint_space=2.0&FingerJoint_width=1.0&Lid_handle=none&Lid_style=none&Lid_handle_height=8.0&Lid_height=4.0&Lid_play=0.1&x=265&y=200&h=30&outside=0&outside=1&bottom_edge=h&thickness=3.0&format=svg&tabs=0.0&qr_code=0&debug=0&labels=0&labels=1&reference=100.0&inner_corners=loop&burn=0.1&language=en&render=2
SettingsUrl short: https://boxes.hackerspace-bamberg.de/ABox?x=265&y=200&h=30
-->
<title>ABox</title>
<metadata>
<rdf:RDF><cc:Work>
<dc:title>Box - ABox</dc:title>
<dc:date>2024-11-01 01:43:33</dc:date>
<dc:source>https://boxes.hackerspace-bamberg.de/ABox?FingerJoint_style=rectangular&amp;FingerJoint_surroundingspaces=2.0&amp;FingerJoint_bottom_lip=0.0&amp;FingerJoint_edge_width=1.0&amp;FingerJoint_extra_length=0.0&amp;FingerJoint_finger=2.0&amp;FingerJoint_play=0.0&amp;FingerJoint_space=2.0&amp;FingerJoint_width=1.0&amp;Lid_handle=none&amp;Lid_style=none&amp;Lid_handle_height=8.0&amp;Lid_height=4.0&amp;Lid_play=0.1&amp;x=265&amp;y=200&amp;h=30&amp;outside=0&amp;outside=1&amp;bottom_edge=h&amp;thickness=3.0&amp;format=svg&amp;tabs=0.0&amp;qr_code=0&amp;debug=0&amp;labels=0&amp;labels=1&amp;reference=100.0&amp;inner_corners=loop&amp;burn=0.1&amp;language=en&amp;render=2</dc:source>
<dc:source>https://boxes.hackerspace-bamberg.de/ABox?x=265&amp;y=200&amp;h=30</dc:source>
<dc:description>A simple Box

This box is kept simple on purpose. If you need more features have a look at the UniversalBox.

Created with Boxes.py (https://boxes.hackerspace-bamberg.de/)
Command line: boxes ABox --FingerJoint_style=rectangular --FingerJoint_surroundingspaces=2.0 --FingerJoint_bottom_lip=0.0 --FingerJoint_edge_width=1.0 --FingerJoint_extra_length=0.0 --FingerJoint_finger=2.0 --FingerJoint_play=0.0 --FingerJoint_space=2.0 --FingerJoint_width=1.0 --Lid_handle=none --Lid_style=none --Lid_handle_height=8.0 --Lid_height=4.0 --Lid_play=0.1 --x=265 --y=200 --h=30 --outside=0 --outside=1 --bottom_edge=h --thickness=3.0 --format=svg --tabs=0.0 --qr_code=0 --debug=0 --labels=0 --labels=1 --reference=100.0 --inner_corners=loop --burn=0.1
Command line short: boxes ABox --x=265 --y=200 --h=30
Url: https://boxes.hackerspace-bamberg.de/ABox?FingerJoint_style=rectangular&amp;FingerJoint_surroundingspaces=2.0&amp;FingerJoint_bottom_lip=0.0&amp;FingerJoint_edge_width=1.0&amp;FingerJoint_extra_length=0.0&amp;FingerJoint_finger=2.0&amp;FingerJoint_play=0.0&amp;FingerJoint_space=2.0&amp;FingerJoint_width=1.0&amp;Lid_handle=none&amp;Lid_style=none&amp;Lid_handle_height=8.0&amp;Lid_height=4.0&amp;Lid_play=0.1&amp;x=265&amp;y=200&amp;h=30&amp;outside=0&amp;outside=1&amp;bottom_edge=h&amp;thickness=3.0&amp;format=svg&amp;tabs=0.0&amp;qr_code=0&amp;debug=0&amp;labels=0&amp;labels=1&amp;reference=100.0&amp;inner_corners=loop&amp;burn=0.1&amp;language=en&amp;render=2
Url short: https://boxes.hackerspace-bamberg.de/ABox?x=265&amp;y=200&amp;h=30
SettingsUrl: https://boxes.hackerspace-bamberg.de/ABox?FingerJoint_style=rectangular&amp;FingerJoint_surroundingspaces=2.0&amp;FingerJoint_bottom_lip=0.0&amp;FingerJoint_edge_width=1.0&amp;FingerJoint_extra_length=0.0&amp;FingerJoint_finger=2.0&amp;FingerJoint_play=0.0&amp;FingerJoint_space=2.0&amp;FingerJoint_width=1.0&amp;Lid_handle=none&amp;Lid_style=none&amp;Lid_handle_height=8.0&amp;Lid_height=4.0&amp;Lid_play=0.1&amp;x=265&amp;y=200&amp;h=30&amp;outside=0&amp;outside=1&amp;bottom_edge=h&amp;thickness=3.0&amp;format=svg&amp;tabs=0.0&amp;qr_code=0&amp;debug=0&amp;labels=0&amp;labels=1&amp;reference=100.0&amp;inner_corners=loop&amp;burn=0.1&amp;language=en&amp;render=2
SettingsUrl short: https://boxes.hackerspace-bamberg.de/ABox?x=265&amp;y=200&amp;h=30
</dc:description>
</cc:Work></rdf:RDF></metadata>
<g id="p-0" style="fill:none;stroke-linecap:round;stroke-linejoin:round;">
  <path d="M 10.100 285.300 H 110.100 V 275.300 H 10.100 V 285.300 Z" stroke="rgb(0,0,0)" stroke-width="0.20" />
  <text dominant-baseline="hanging" font-size="6px" style="font-family: sans-serif ; font-weight: normal; font-style: normal; fill: rgb(255,0,0)" text-anchor="middle" transform="matrix( 1.000 0.000 0.000 1.000 60.100 277.300 )">100.0mm, burn:0.10mm</text>
</g>
<g id="p-1" style="fill:none;stroke-linecap:round;stroke-linejoin:round;">
  <path d="M 22.600 270.400 H 19.700 C 19.600 270.400 19.700 270.500 19.700 270.400 V 267.600 C 19.700 267.500 19.600 267.600 19.700 267.600 H 25.500 C 25.600 267.600 25.500 267.500 25.500 267.600 V 270.400 C 25.500 270.500 25.600 270.400 25.500 270.400 H 22.600 Z" stroke="rgb(0,0,255)" stroke-width="0.20" />
  <path d="M 34.600 270.400 H 31.700 C 31.600 270.400 31.700 270.500 31.700 270.400 V 267.600 C 31.700 267.500 31.600 267.600 31.700 267.600 H 37.500 C 37.600 267.600 37.500 267.500 37.500 267.600 V 270.400 C 37.500 270.500 37.600 270.400 37.500 270.400 H 34.600 Z" stroke="rgb(0,0,255)" stroke-width="0.20" />
  <path d="M 46.600 270.400 H 43.700 C 43.600 270.400 43.700 270.500 43.700 270.400 V 267.600 C 43.700 267.500 43.600 267.600 43.700 267.600 H 49.500 C 49.600 267.600 49.500 267.500 49.500 267.600 V 270.400 C 49.500 270.500 49.600 270.400 49.500 270.400 H 46.600 Z" stroke="rgb(0,0,255)" stroke-width="0.20" />
  <path d="M 58.600 270.400 H 55.700 C 55.600 270.400 55.700 270.500 55.700 270.400 V 267.600 C 55.700 267.500 55.600 267.600 55.700 267.600 H 61.500 C 61.600 267.600 61.500 267.500 61.500 267.600 V 270.400 C 61.500 270.500 61.600 270.400 61.500 270.400 H 58.600 Z" stroke="rgb(0,0,255)" stroke-width="0.20" />
  <path d="M 70.600 270.400 H 67.700 C 67.600 270.400 67.700 270.500 67.700 270.400 V 267.600 C 67.700 267.500 67.600 267.600 67.700 267.600 H 73.500 C 73.600 267.600 73.500 267.500 73.500 267.600 V 270.400 C 73.500 270.500 73.600 270.400 73.500 270.400 H 70.600 Z" stroke="rgb(0,0,255)" stroke-width="0.20" />
  <path d="M 82.600 270.400 H 79.700 C 79.600 270.400 79.700 270.500 79.700 270.400 V 267.600 C 79.700 267.500 79.600 267.600 79.700 267.600 H 85.500 C 85.600 267.600 85.500 267.500 85.500 267.600 V 270.400 C 85.500 270.500 85.600 270.400 85.500 270.400 H 82.600 Z" stroke="rgb(0,0,255)" stroke-width="0.20" />
  <path d="M 94.600 270.400 H 91.700 C 91.600 270.400 91.700 270.500 91.700 270.400 V 267.600 C 91.700 267.500 91.600 267.600 91.700 267.600 H 97.500 C 97.600 267.600 97.500 267.500 97.500 267.600 V 270.400 C 97.500 270.500 97.600 270.400 97.500 270.400 H 94.600 Z" stroke="rgb(0,0,255)" stroke-width="0.20" />
  <path d="M 106.600 270.400 H 103.700 C 103.600 270.400 103.700 270.500 103.700 270.400 V 267.600 C 103.700 267.500 103.600 267.600 103.700 267.600 H 109.500 C 109.600 267.600 109.500 267.500 109.500 267.600 V 270.400 C 109.500 270.500 109.600 270.400 109.500 270.400 H 106.600 Z" stroke="rgb(0,0,255)" stroke-width="0.20" />
  <path d="M 118.600 270.400 H 115.700 C 115.600 270.400 115.700 270.500 115.700 270.400 V 267.600 C 115.700 267.500 115.600 267.600 115.700 267.600 H 121.500 C 121.600 267.600 121.500 267.500 121.500 267.600 V 270.400 C 121.500 270.500 121.600 270.400 121.500 270.400 H 118.600 Z" stroke="rgb(0,0,255)" stroke-width="0.20" />
  <path d="M 130.600 270.400 H 127.700 C 127.600 270.400 127.700 270.500 127.700 270.400 V 267.600 C 127.700 267.500 127.600 267.600 127.700 267.600 H 133.500 C 133.600 267.600 133.500 267.500 133.500 267.600 V 270.400 C 133.500 270.500 133.600 270.400 133.500 270.400 H 130.600 Z" stroke="rgb(0,0,255)" stroke-width="0.20" />
  <path d="M 142.600 270.400 H 139.700 C 139.600 270.400 139.700 270.500 139.700 270.400 V 267.600 C 139.700 267.500 139.600 267.600 139.700 267.600 H 145.500 C 145.600 267.600 145.500 267.500 145.500 267.600 V 270.400 C 145.500 270.500 145.600 270.400 145.500 270.400 H 142.600 Z" stroke="rgb(0,0,255)" stroke-width="0.20" />
  <path d="M 154.600 270.400 H 151.700 C 151.600 270.400 151.700 270.500 151.700 270.400 V 267.600 C 151.700 267.500 151.600 267.600 151.700 267.600 H 157.500 C 157.600 267.600 157.500 267.500 157.500 267.600 V 270.400 C 157.500 270.500 157.600 270.400 157.500 270.400 H 154.600 Z" stroke="rgb(0,0,255)" stroke-width="0.20" />
  <path d="M 166.600 270.400 H 163.700 C 163.600 270.400 163.700 270.500 163.700 270.400 V 267.600 C 163.700 267.500 163.600 267.600 163.700 267.600 H 169.500 C 169.600 267.600 169.500 267.500 169.500 267.600 V 270.400 C 169.500 270.500 169.600 270.400 169.500 270.400 H 166.600 Z" stroke="rgb(0,0,255)" stroke-width="0.20" />
  <path d="M 178.600 270.400 H 175.700 C 175.600 270.400 175.700 270.500 175.700 270.400 V 267.600 C 175.700 267.500 175.600 267.600 175.700 267.600 H 181.500 C 181.600 267.600 181.500 267.500 181.500 267.600 V 270.400 C 181.500 270.500 181.600 270.400 181.500 270.400 H 178.600 Z" stroke="rgb(0,0,255)" stroke-width="0.20" />
  <path d="M 190.600 270.400 H 187.700 C 187.600 270.400 187.700 270.500 187.700 270.400 V 267.600 C 187.700 267.500 187.600 267.600 187.700 267.600 H 193.500 C 193.600 267.600 193.500 267.500 193.500 267.600 V 270.400 C 193.500 270.500 193.600 270.400 193.500 270.400 H 190.600 Z" stroke="rgb(0,0,255)" stroke-width="0.20" />
  <path d="M 202.600 270.400 H 199.700 C 199.600 270.400 199.700 270.500 199.700 270.400 V 267.600 C 199.700 267.500 199.600 267.600 199.700 267.600 H 205.500 C 205.600 267.600 205.500 267.500 205.500 267.600 V 270.400 C 205.500 270.500 205.600 270.400 205.500 270.400 H 202.600 Z" stroke="rgb(0,0,255)" stroke-width="0.20" />
  <path d="M 214.600 270.400 H 211.700 C 211.600 270.400 211.700 270.500 211.700 270.400 V 267.600 C 211.700 267.500 211.600 267.600 211.700 267.600 H 217.500 C 217.600 267.600 217.500 267.500 217.500 267.600 V 270.400 C 217.500 270.500 217.600 270.400 217.500 270.400 H 214.600 Z" stroke="rgb(0,0,255)" stroke-width="0.20" />
  <path d="M 226.600 270.400 H 223.700 C 223.600 270.400 223.700 270.500 223.700 270.400 V 267.600 C 223.700 267.500 223.600 267.600 223.700 267.600 H 229.500 C 229.600 267.600 229.500 267.500 229.500 267.600 V 270.400 C 229.500 270.500 229.600 270.400 229.500 270.400 H 226.600 Z" stroke="rgb(0,0,255)" stroke-width="0.20" />
  <path d="M 238.600 270.400 H 235.700 C 235.600 270.400 235.700 270.500 235.700 270.400 V 267.600 C 235.700 267.500 235.600 267.600 235.700 267.600 H 241.500 C 241.600 267.600 241.500 267.500 241.500 267.600 V 270.400 C 241.500 270.500 241.600 270.400 241.500 270.400 H 238.600 Z" stroke="rgb(0,0,255)" stroke-width="0.20" />
  <path d="M 250.600 270.400 H 247.700 C 247.600 270.400 247.700 270.500 247.700 270.400 V 267.600 C 247.700 267.500 247.600 267.600 247.700 267.600 H 253.500 C 253.600 267.600 253.500 267.500 253.500 267.600 V 270.400 C 253.500 270.500 253.600 270.400 253.500 270.400 H 250.600 Z" stroke="rgb(0,0,255)" stroke-width="0.20" />
  <path d="M 262.600 270.400 H 259.700 C 259.600 270.400 259.700 270.500 259.700 270.400 V 267.600 C 259.700 267.500 259.600 267.600 259.700 267.600 H 265.500 C 265.600 267.600 265.500 267.500 265.500 267.600 V 270.400 C 265.500 270.500 265.600 270.400 265.500 270.400 H 262.600 Z" stroke="rgb(0,0,255)" stroke-width="0.20" />
  <path d="M 13.100 273.600 H 272.100 H 275.100 C 275.155 273.600 275.200 273.555 275.200 273.500 V 267.500 C 275.200 267.445 275.155 267.400 275.100 267.400 H 272.200 C 272.100 267.400 272.200 267.500 272.200 267.400 V 261.600 C 272.200 261.500 272.100 261.600 272.200 261.600 H 275.100 C 275.155 261.600 275.200 261.555 275.200 261.500 V 255.500 C 275.200 255.445 275.155 255.400 275.100 255.400 H 272.200 C 272.100 255.400 272.200 255.500 272.200 255.400 V 249.600 C 272.200 249.500 272.100 249.600 272.200 249.600 H 275.100 C 275.155 249.600 275.200 249.555 275.200 249.500 V 243.500 C 275.200 243.445 275.155 243.400 275.100 243.400 H 272.100 H 13.100 H 10.100 C 10.045 243.400 10.000 243.445 10.000 243.500 V 249.500 C 10.000 249.555 10.045 249.600 10.100 249.600 H 13.000 C 13.100 249.600 13.000 249.500 13.000 249.600 V 255.400 C 13.000 255.500 13.100 255.400 13.000 255.400 H 10.100 C 10.045 255.400 10.000 255.445 10.000 255.500 V 261.500 C 10.000 261.555 10.045 261.600 10.100 261.600 H 13.000 C 13.100 261.600 13.000 261.500 13.000 261.600 V 267.400 C 13.000 267.500 13.100 267.400 13.000 267.400 H 10.100 C 10.045 267.400 10.000 267.445 10.000 267.500 V 273.500 C 10.000 273.555 10.045 273.600 10.100 273.600 H 13.100 Z" stroke="rgb(0,0,0)" stroke-width="0.20" />
</g>
<g id="p-2" style="fill:none;stroke-linecap:round;stroke-linejoin:round;">
  <path d="M 22.600 238.700 H 19.700 C 19.600 238.700 19.700 238.800 19.700 238.700 V 235.900 C 19.700 235.800 19.600 235.900 19.700 235.900 H 25.500 C 25.600 235.900 25.500 235.800 25.500 235.900 V 238.700 C 25.500 238.800 25.600 238.700 25.500 238.700 H 22.600 Z" stroke="rgb(0,0,255)" stroke-width="0.20" />
  <path d="M 34.600 238.700 H 31.700 C 31.600 238.700 31.700 238.800 31.700 238.700 V 235.900 C 31.700 235.800 31.600 235.900 31.700 235.900 H 37.500 C 37.600 235.900 37.500 235.800 37.500 235.900 V 238.700 C 37.500 238.800 37.600 238.700 37.500 238.700 H 34.600 Z" stroke="rgb(0,0,255)" stroke-width="0.20" />
  <path d="M 46.600 238.700 H 43.700 C 43.600 238.700 43.700 238.800 43.700 238.700 V 235.900 C 43.700 235.800 43.600 235.900 43.700 235.900 H 49.500 C 49.600 235.900 49.500 235.800 49.500 235.900 V 238.700 C 49.500 238.800 49.600 238.700 49.500 238.700 H 46.600 Z" stroke="rgb(0,0,255)" stroke-width="0.20" />
  <path d="M 58.600 238.700 H 55.700 C 55.600 238.700 55.700 238.800 55.700 238.700 V 235.900 C 55.700 235.800 55.600 235.900 55.700 235.900 H 61.500 C 61.600 235.900 61.500 235.800 61.500 235.900 V 238.700 C 61.500 238.800 61.600 238.700 61.500 238.700 H 58.600 Z" stroke="rgb(0,0,255)" stroke-width="0.20" />
  <path d="M 70.600 238.700 H 67.700 C 67.600 238.700 67.700 238.800 67.700 238.700 V 235.900 C 67.700 235.800 67.600 235.900 67.700 235.900 H 73.500 C 73.600 235.900 73.500 235.800 73.500 235.900 V 238.700 C 73.500 238.800 73.600 238.700 73.500 238.700 H 70.600 Z" stroke="rgb(0,0,255)" stroke-width="0.20" />
  <path d="M 82.600 238.700 H 79.700 C 79.600 238.700 79.700 238.800 79.700 238.700 V 235.900 C 79.700 235.800 79.600 235.900 79.700 235.900 H 85.500 C 85.600 235.900 85.500 235.800 85.500 235.900 V 238.700 C 85.500 238.800 85.600 238.700 85.500 238.700 H 82.600 Z" stroke="rgb(0,0,255)" stroke-width="0.20" />
  <path d="M 94.600 238.700 H 91.700 C 91.600 238.700 91.700 238.800 91.700 238.700 V 235.900 C 91.700 235.800 91.600 235.900 91.700 235.900 H 97.500 C 97.600 235.900 97.500 235.800 97.500 235.900 V 238.700 C 97.500 238.800 97.600 238.700 97.500 238.700 H 94.600 Z" stroke="rgb(0,0,255)" stroke-width="0.20" />
  <path d="M 106.600 238.700 H 103.700 C 103.600 238.700 103.700 238.800 103.700 238.700 V 235.900 C 103.700 235.800 103.600 235.900 103.700 235.900 H 109.500 C 109.600 235.900 109.500 235.800 109.500 235.900 V 238.700 C 109.500 238.800 109.600 238.700 109.500 238.700 H 106.600 Z" stroke="rgb(0,0,255)" stroke-width="0.20" />
  <path d="M 118.600 238.700 H 115.700 C 115.600 238.700 115.700 238.800 115.700 238.700 V 235.900 C 115.700 235.800 115.600 235.900 115.700 235.900 H 121.500 C 121.600 235.900 121.500 235.800 121.500 235.900 V 238.700 C 121.500 238.800 121.600 238.700 121.500 238.700 H 118.600 Z" stroke="rgb(0,0,255)" stroke-width="0.20" />
  <path d="M 130.600 238.700 H 127.700 C 127.600 238.700 127.700 238.800 127.700 238.700 V 235.900 C 127.700 235.800 127.600 235.900 127.700 235.900 H 133.500 C 133.600 235.900 133.500 235.800 133.500 235.900 V 238.700 C 133.500 238.800 133.600 238.700 133.500 238.700 H 130.600 Z" stroke="rgb(0,0,255)" stroke-width="0.20" />
  <path d="M 142.600 238.700 H 139.700 C 139.600 238.700 139.700 238.800 139.700 238.700 V 235.900 C 139.700 235.800 139.600 235.900 139.700 235.900 H 145.500 C 145.600 235.900 145.500 235.800 145.500 235.900 V 238.700 C 145.500 238.800 145.600 238.700 145.500 238.700 H 142.600 Z" stroke="rgb(0,0,255)" stroke-width="0.20" />
  <path d="M 154.600 238.700 H 151.700 C 151.600 238.700 151.700 238.800 151.700 238.700 V 235.900 C 151.700 235.800 151.600 235.900 151.700 235.900 H 157.500 C 157.600 235.900 157.500 235.800 157.500 235.900 V 238.700 C 157.500 238.800 157.600 238.700 157.500 238.700 H 154.600 Z" stroke="rgb(0,0,255)" stroke-width="0.20" />
  <path d="M 166.600 238.700 H 163.700 C 163.600 238.700 163.700 238.800 163.700 238.700 V 235.900 C 163.700 235.800 163.600 235.900 163.700 235.900 H 169.500 C 169.600 235.900 169.500 235.800 169.500 235.900 V 238.700 C 169.500 238.800 169.600 238.700 169.500 238.700 H 166.600 Z" stroke="rgb(0,0,255)" stroke-width="0.20" />
  <path d="M 178.600 238.700 H 175.700 C 175.600 238.700 175.700 238.800 175.700 238.700 V 235.900 C 175.700 235.800 175.600 235.900 175.700 235.900 H 181.500 C 181.600 235.900 181.500 235.800 181.500 235.900 V 238.700 C 181.500 238.800 181.600 238.700 181.500 238.700 H 178.600 Z" stroke="rgb(0,0,255)" stroke-width="0.20" />
  <path d="M 190.600 238.700 H 187.700 C 187.600 238.700 187.700 238.800 187.700 238.700 V 235.900 C 187.700 235.800 187.600 235.900 187.700 235.900 H 193.500 C 193.600 235.900 193.500 235.800 193.500 235.900 V 238.700 C 193.500 238.800 193.600 238.700 193.500 238.700 H 190.600 Z" stroke="rgb(0,0,255)" stroke-width="0.20" />
  <path d="M 202.600 238.700 H 199.700 C 199.600 238.700 199.700 238.800 199.700 238.700 V 235.900 C 199.700 235.800 199.600 235.900 199.700 235.900 H 205.500 C 205.600 235.900 205.500 235.800 205.500 235.900 V 238.700 C 205.500 238.800 205.600 238.700 205.500 238.700 H 202.600 Z" stroke="rgb(0,0,255)" stroke-width="0.20" />
  <path d="M 214.600 238.700 H 211.700 C 211.600 238.700 211.700 238.800 211.700 238.700 V 235.900 C 211.700 235.800 211.600 235.900 211.700 235.900 H 217.500 C 217.600 235.900 217.500 235.800 217.500 235.900 V 238.700 C 217.500 238.800 217.600 238.700 217.500 238.700 H 214.600 Z" stroke="rgb(0,0,255)" stroke-width="0.20" />
  <path d="M 226.600 238.700 H 223.700 C 223.600 238.700 223.700 238.800 223.700 238.700 V 235.900 C 223.700 235.800 223.600 235.900 223.700 235.900 H 229.500 C 229.600 235.900 229.500 235.800 229.500 235.900 V 238.700 C 229.500 238.800 229.600 238.700 229.500 238.700 H 226.600 Z" stroke="rgb(0,0,255)" stroke-width="0.20" />
  <path d="M 238.600 238.700 H 235.700 C 235.600 238.700 235.700 238.800 235.700 238.700 V 235.900 C 235.700 235.800 235.600 235.900 235.700 235.900 H 241.500 C 241.600 235.900 241.500 235.800 241.500 235.900 V 238.700 C 241.500 238.800 241.600 238.700 241.500 238.700 H 238.600 Z" stroke="rgb(0,0,255)" stroke-width="0.20" />
  <path d="M 250.600 238.700 H 247.700 C 247.600 238.700 247.700 238.800 247.700 238.700 V 235.900 C 247.700 235.800 247.600 235.900 247.700 235.900 H 253.500 C 253.600 235.900 253.500 235.800 253.500 235.900 V 238.700 C 253.500 238.800 253.600 238.700 253.500 238.700 H 250.600 Z" stroke="rgb(0,0,255)" stroke-width="0.20" />
  <path d="M 262.600 238.700 H 259.700 C 259.600 238.700 259.700 238.800 259.700 238.700 V 235.900 C 259.700 235.800 259.600 235.900 259.700 235.900 H 265.500 C 265.600 235.900 265.500 235.800 265.500 235.900 V 238.700 C 265.500 238.800 265.600 238.700 265.500 238.700 H 262.600 Z" stroke="rgb(0,0,255)" stroke-width="0.20" />
  <path d="M 13.100 241.900 H 272.100 H 275.100 C 275.155 241.900 275.200 241.855 275.200 241.800 V 235.800 C 275.200 235.745 275.155 235.700 275.100 235.700 H 272.200 C 272.100 235.700 272.200 235.800 272.200 235.700 V 229.900 C 272.200 229.800 272.100 229.900 272.200 229.900 H 275.100 C 275.155 229.900 275.200 229.855 275.200 229.800 V 223.800 C 275.200 223.745 275.155 223.700 275.100 223.700 H 272.200 C 272.100 223.700 272.200 223.800 272.200 223.700 V 217.900 C 272.200 217.800 272.100 217.900 272.200 217.900 H 275.100 C 275.155 217.900 275.200 217.855 275.200 217.800 V 211.800 C 275.200 211.745 275.155 211.700 275.100 211.700 H 272.100 H 13.100 H 10.100 C 10.045 211.700 10.000 211.745 10.000 211.800 V 217.800 C 10.000 217.855 10.045 217.900 10.100 217.900 H 13.000 C 13.100 217.900 13.000 217.800 13.000 217.900 V 223.700 C 13.000 223.800 13.100 223.700 13.000 223.700 H 10.100 C 10.045 223.700 10.000 223.745 10.000 223.800 V 229.800 C 10.000 229.855 10.045 229.900 10.100 229.900 H 13.000 C 13.100 229.900 13.000 229.800 13.000 229.900 V 235.700 C 13.000 235.800 13.100 235.700 13.000 235.700 H 10.100 C 10.045 235.700 10.000 235.745 10.000 235.800 V 241.800 C 10.000 241.855 10.045 241.900 10.100 241.900 H 13.100 Z" stroke="rgb(0,0,0)" stroke-width="0.20" />
</g>
<g id="p-3" style="fill:none;stroke-linecap:round;stroke-linejoin:round;">
  <path d="M 13.100 207.200 H 19.500 C 19.600 207.200 19.500 207.100 19.500 207.200 V 210.100 C 19.500 210.155 19.545 210.200 19.600 210.200 H 25.600 C 25.655 210.200 25.700 210.155 25.700 210.100 V 207.200 C 25.700 207.100 25.600 207.200 25.700 207.200 H 31.500 C 31.600 207.200 31.500 207.100 31.500 207.200 V 210.100 C 31.500 210.155 31.545 210.200 31.600 210.200 H 37.600 C 37.655 210.200 37.700 210.155 37.700 210.100 V 207.200 C 37.700 207.100 37.600 207.200 37.700 207.200 H 43.500 C 43.600 207.200 43.500 207.100 43.500 207.200 V 210.100 C 43.500 210.155 43.545 210.200 43.600 210.200 H 49.600 C 49.655 210.200 49.700 210.155 49.700 210.100 V 207.200 C 49.700 207.100 49.600 207.200 49.700 207.200 H 55.500 C 55.600 207.200 55.500 207.100 55.500 207.200 V 210.100 C 55.500 210.155 55.545 210.200 55.600 210.200 H 61.600 C 61.655 210.200 61.700 210.155 61.700 210.100 V 207.200 C 61.700 207.100 61.600 207.200 61.700 207.200 H 67.500 C 67.600 207.200 67.500 207.100 67.500 207.200 V 210.100 C 67.500 210.155 67.545 210.200 67.600 210.200 H 73.600 C 73.655 210.200 73.700 210.155 73.700 210.100 V 207.200 C 73.700 207.100 73.600 207.200 73.700 207.200 H 79.500 C 79.600 207.200 79.500 207.100 79.500 207.200 V 210.100 C 79.500 210.155 79.545 210.200 79.600 210.200 H 85.600 C 85.655 210.200 85.700 210.155 85.700 210.100 V 207.200 C 85.700 207.100 85.600 207.200 85.700 207.200 H 91.500 C 91.600 207.200 91.500 207.100 91.500 207.200 V 210.100 C 91.500 210.155 91.545 210.200 91.600 210.200 H 97.600 C 97.655 210.200 97.700 210.155 97.700 210.100 V 207.200 C 97.700 207.100 97.600 207.200 97.700 207.200 H 103.500 C 103.600 207.200 103.500 207.100 103.500 207.200 V 210.100 C 103.500 210.155 103.545 210.200 103.600 210.200 H 109.600 C 109.655 210.200 109.700 210.155 109.700 210.100 V 207.200 C 109.700 207.100 109.600 207.200 109.700 207.200 H 115.500 C 115.600 207.200 115.500 207.100 115.500 207.200 V 210.100 C 115.500 210.155 115.545 210.200 115.600 210.200 H 121.600 C 121.655 210.200 121.700 210.155 121.700 210.100 V 207.200 C 121.700 207.100 121.600 207.200 121.700 207.200 H 127.500 C 127.600 207.200 127.500 207.100 127.500 207.200 V 210.100 C 127.500 210.155 127.545 210.200 127.600 210.200 H 133.600 C 133.655 210.200 133.700 210.155 133.700 210.100 V 207.200 C 133.700 207.100 133.600 207.200 133.700 207.200 H 139.500 C 139.600 207.200 139.500 207.100 139.500 207.200 V 210.100 C 139.500 210.155 139.545 210.200 139.600 210.200 H 145.600 C 145.655 210.200 145.700 210.155 145.700 210.100 V 207.200 C 145.700 207.100 145.600 207.200 145.700 207.200 H 151.500 C 151.600 207.200 151.500 207.100 151.500 207.200 V 210.100 C 151.500 210.155 151.545 210.200 151.600 210.200 H 157.600 C 157.655 210.200 157.700 210.155 157.700 210.100 V 207.200 C 157.700 207.100 157.600 207.200 157.700 207.200 H 163.500 C 163.600 207.200 163.500 207.100 163.500 207.200 V 210.100 C 163.500 210.155 163.545 210.200 163.600 210.200 H 169.600 C 169.655 210.200 169.700 210.155 169.700 210.100 V 207.200 C 169.700 207.100 169.600 207.200 169.700 207.200 H 175.500 C 175.600 207.200 175.500 207.100 175.500 207.200 V 210.100 C 175.500 210.155 175.545 210.200 175.600 210.200 H 181.600 C 181.655 210.200 181.700 210.155 181.700 210.100 V 207.200 C 181.700 207.100 181.600 207.200 181.700 207.200 H 187.500 C 187.600 207.200 187.500 207.100 187.500 207.200 V 210.100 C 187.500 210.155 187.545 210.200 187.600 210.200 H 193.600 C 193.655 210.200 193.700 210.155 193.700 210.100 V 207.200 C 193.700 207.100 193.600 207.200 193.700 207.200 H 199.500 C 199.600 207.200 199.500 207.100 199.500 207.200 V 210.100 C 199.500 210.155 199.545 210.200 199.600 210.200 H 205.600 C 205.655 210.200 205.700 210.155 205.700 210.100 V 207.200 C 205.700 207.100 205.600 207.200 205.700 207.200 H 211.500 C 211.600 207.200 211.500 207.100 211.500 207.200 V 210.100 C 211.500 210.155 211.545 210.200 211.600 210.200 H 217.600 C 217.655 210.200 217.700 210.155 217.700 210.100 V 207.200 C 217.700 207.100 217.600 207.200 217.700 207.200 H 223.500 C 223.600 207.200 223.500 207.100 223.500 207.200 V 210.100 C 223.500 210.155 223.545 210.200 223.600 210.200 H 229.600 C 229.655 210.200 229.700 210.155 229.700 210.100 V 207.200 C 229.700 207.100 229.600 207.200 229.700 207.200 H 235.500 C 235.600 207.200 235.500 207.100 235.500 207.200 V 210.100 C 235.500 210.155 235.545 210.200 235.600 210.200 H 241.600 C 241.655 210.200 241.700 210.155 241.700 210.100 V 207.200 C 241.700 207.100 241.600 207.200 241.700 207.200 H 247.500 C 247.600 207.200 247.500 207.100 247.500 207.200 V 210.100 C 247.500 210.155 247.545 210.200 247.600 210.200 H 253.600 C 253.655 210.200 253.700 210.155 253.700 210.100 V 207.200 C 253.700 207.100 253.600 207.200 253.700 207.200 H 259.500 C 259.600 207.200 259.500 207.100 259.500 207.200 V 210.100 C 259.500 210.155 259.545 210.200 259.600 210.200 H 265.600 C 265.655 210.200 265.700 210.155 265.700 210.100 V 207.200 C 265.700 207.100 265.600 207.200 265.700 207.200 H 272.100 C 272.155 207.200 272.200 207.155 272.200 207.100 V 197.200 C 272.200 197.100 272.100 197.200 272.200 197.200 H 275.100 C 275.155 197.200 275.200 197.155 275.200 197.100 V 191.100 C 275.200 191.045 275.155 191.000 275.100 191.000 H 272.200 C 272.100 191.000 272.200 191.100 272.200 191.000 V 185.200 C 272.200 185.100 272.100 185.200 272.200 185.200 H 275.100 C 275.155 185.200 275.200 185.155 275.200 185.100 V 179.100 C 275.200 179.045 275.155 179.000 275.100 179.000 H 272.200 C 272.100 179.000 272.200 179.100 272.200 179.000 V 173.200 C 272.200 173.100 272.100 173.200 272.200 173.200 H 275.100 C 275.155 173.200 275.200 173.155 275.200 173.100 V 167.100 C 275.200 167.045 275.155 167.000 275.100 167.000 H 272.200 C 272.100 167.000 272.200 167.100 272.200 167.000 V 161.200 C 272.200 161.100 272.100 161.200 272.200 161.200 H 275.100 C 275.155 161.200 275.200 161.155 275.200 161.100 V 155.100 C 275.200 155.045 275.155 155.000 275.100 155.000 H 272.200 C 272.100 155.000 272.200 155.100 272.200 155.000 V 149.200 C 272.200 149.100 272.100 149.200 272.200 149.200 H 275.100 C 275.155 149.200 275.200 149.155 275.200 149.100 V 143.100 C 275.200 143.045 275.155 143.000 275.100 143.000 H 272.200 C 272.100 143.000 272.200 143.100 272.200 143.000 V 137.200 C 272.200 137.100 272.100 137.200 272.200 137.200 H 275.100 C 275.155 137.200 275.200 137.155 275.200 137.100 V 131.100 C 275.200 131.045 275.155 131.000 275.100 131.000 H 272.200 C 272.100 131.000 272.200 131.100 272.200 131.000 V 125.200 C 272.200 125.100 272.100 125.200 272.200 125.200 H 275.100 C 275.155 125.200 275.200 125.155 275.200 125.100 V 119.100 C 275.200 119.045 275.155 119.000 275.100 119.000 H 272.200 C 272.100 119.000 272.200 119.100 272.200 119.000 V 113.200 C 272.200 113.100 272.100 113.200 272.200 113.200 H 275.100 C 275.155 113.200 275.200 113.155 275.200 113.100 V 107.100 C 275.200 107.045 275.155 107.000 275.100 107.000 H 272.200 C 272.100 107.000 272.200 107.100 272.200 107.000 V 101.200 C 272.200 101.100 272.100 101.200 272.200 101.200 H 275.100 C 275.155 101.200 275.200 101.155 275.200 101.100 V 95.100 C 275.200 95.045 275.155 95.000 275.100 95.000 H 272.200 C 272.100 95.000 272.200 95.100 272.200 95.000 V 89.200 C 272.200 89.100 272.100 89.200 272.200 89.200 H 275.100 C 275.155 89.200 275.200 89.155 275.200 89.100 V 83.100 C 275.200 83.045 275.155 83.000 275.100 83.000 H 272.200 C 272.100 83.000 272.200 83.100 272.200 83.000 V 77.200 C 272.200 77.100 272.100 77.200 272.200 77.200 H 275.100 C 275.155 77.200 275.200 77.155 275.200 77.100 V 71.100 C 275.200 71.045 275.155 71.000 275.100 71.000 H 272.200 C 272.100 71.000 272.200 71.100 272.200 71.000 V 65.200 C 272.200 65.100 272.100 65.200 272.200 65.200 H 275.100 C 275.155 65.200 275.200 65.155 275.200 65.100 V 59.100 C 275.200 59.045 275.155 59.000 275.100 59.000 H 272.200 C 272.100 59.000 272.200 59.100 272.200 59.000 V 53.200 C 272.200 53.100 272.100 53.200 272.200 53.200 H 275.100 C 275.155 53.200 275.200 53.155 275.200 53.100 V 47.100 C 275.200 47.045 275.155 47.000 275.100 47.000 H 272.200 C 272.100 47.000 272.200 47.100 272.200 47.000 V 41.200 C 272.200 41.100 272.100 41.200 272.200 41.200 H 275.100 C 275.155 41.200 275.200 41.155 275.200 41.100 V 35.100 C 275.200 35.045 275.155 35.000 275.100 35.000 H 272.200 C 272.100 35.000 272.200 35.100 272.200 35.000 V 29.200 C 272.200 29.100 272.100 29.200 272.200 29.200 H 275.100 C 275.155 29.200 275.200 29.155 275.200 29.100 V 23.100 C 275.200 23.045 275.155 23.000 275.100 23.000 H 272.200 C 272.100 23.000 272.200 23.100 272.200 23.000 V 13.100 C 272.200 13.045 272.155 13.000 272.100 13.000 H 265.700 C 265.600 13.000 265.700 13.100 265.700 13.000 V 10.100 C 265.700 10.045 265.655 10.000 265.600 10.000 H 259.600 C 259.545 10.000 259.500 10.045 259.500 10.100 V 13.000 C 259.500 13.100 259.600 13.000 259.500 13.000 H 253.700 C 253.600 13.000 253.700 13.100 253.700 13.000 V 10.100 C 253.700 10.045 253.655 10.000 253.600 10.000 H 247.600 C 247.545 10.000 247.500 10.045 247.500 10.100 V 13.000 C 247.500 13.100 247.600 13.000 247.500 13.000 H 241.700 C 241.600 13.000 241.700 13.100 241.700 13.000 V 10.100 C 241.700 10.045 241.655 10.000 241.600 10.000 H 235.600 C 235.545 10.000 235.500 10.045 235.500 10.100 V 13.000 C 235.500 13.100 235.600 13.000 235.500 13.000 H 229.700 C 229.600 13.000 229.700 13.100 229.700 13.000 V 10.100 C 229.700 10.045 229.655 10.000 229.600 10.000 H 223.600 C 223.545 10.000 223.500 10.045 223.500 10.100 V 13.000 C 223.500 13.100 223.600 13.000 223.500 13.000 H 217.700 C 217.600 13.000 217.700 13.100 217.700 13.000 V 10.100 C 217.700 10.045 217.655 10.000 217.600 10.000 H 211.600 C 211.545 10.000 211.500 10.045 211.500 10.100 V 13.000 C 211.500 13.100 211.600 13.000 211.500 13.000 H 205.700 C 205.600 13.000 205.700 13.100 205.700 13.000 V 10.100 C 205.700 10.045 205.655 10.000 205.600 10.000 H 199.600 C 199.545 10.000 199.500 10.045 199.500 10.100 V 13.000 C 199.500 13.100 199.600 13.000 199.500 13.000 H 193.700 C 193.600 13.000 193.700 13.100 193.700 13.000 V 10.100 C 193.700 10.045 193.655 10.000 193.600 10.000 H 187.600 C 187.545 10.000 187.500 10.045 187.500 10.100 V 13.000 C 187.500 13.100 187.600 13.000 187.500 13.000 H 181.700 C 181.600 13.000 181.700 13.100 181.700 13.000 V 10.100 C 181.700 10.045 181.655 10.000 181.600 10.000 H 175.600 C 175.545 10.000 175.500 10.045 175.500 10.100 V 13.000 C 175.500 13.100 175.600 13.000 175.500 13.000 H 169.700 C 169.600 13.000 169.700 13.100 169.700 13.000 V 10.100 C 169.700 10.045 169.655 10.000 169.600 10.000 H 163.600 C 163.545 10.000 163.500 10.045 163.500 10.100 V 13.000 C 163.500 13.100 163.600 13.000 163.500 13.000 H 157.700 C 157.600 13.000 157.700 13.100 157.700 13.000 V 10.100 C 157.700 10.045 157.655 10.000 157.600 10.000 H 151.600 C 151.545 10.000 151.500 10.045 151.500 10.100 V 13.000 C 151.500 13.100 151.600 13.000 151.500 13.000 H 145.700 C 145.600 13.000 145.700 13.100 145.700 13.000 V 10.100 C 145.700 10.045 145.655 10.000 145.600 10.000 H 139.600 C 139.545 10.000 139.500 10.045 139.500 10.100 V 13.000 C 139.500 13.100 139.600 13.000 139.500 13.000 H 133.700 C 133.600 13.000 133.700 13.100 133.700 13.000 V 10.100 C 133.700 10.045 133.655 10.000 133.600 10.000 H 127.600 C 127.545 10.000 127.500 10.045 127.500 10.100 V 13.000 C 127.500 13.100 127.600 13.000 127.500 13.000 H 121.700 C 121.600 13.000 121.700 13.100 121.700 13.000 V 10.100 C 121.700 10.045 121.655 10.000 121.600 10.000 H 115.600 C 115.545 10.000 115.500 10.045 115.500 10.100 V 13.000 C 115.500 13.100 115.600 13.000 115.500 13.000 H 109.700 C 109.600 13.000 109.700 13.100 109.700 13.000 V 10.100 C 109.700 10.045 109.655 10.000 109.600 10.000 H 103.600 C 103.545 10.000 103.500 10.045 103.500 10.100 V 13.000 C 103.500 13.100 103.600 13.000 103.500 13.000 H 97.700 C 97.600 13.000 97.700 13.100 97.700 13.000 V 10.100 C 97.700 10.045 97.655 10.000 97.600 10.000 H 91.600 C 91.545 10.000 91.500 10.045 91.500 10.100 V 13.000 C 91.500 13.100 91.600 13.000 91.500 13.000 H 85.700 C 85.600 13.000 85.700 13.100 85.700 13.000 V 10.100 C 85.700 10.045 85.655 10.000 85.600 10.000 H 79.600 C 79.545 10.000 79.500 10.045 79.500 10.100 V 13.000 C 79.500 13.100 79.600 13.000 79.500 13.000 H 73.700 C 73.600 13.000 73.700 13.100 73.700 13.000 V 10.100 C 73.700 10.045 73.655 10.000 73.600 10.000 H 67.600 C 67.545 10.000 67.500 10.045 67.500 10.100 V 13.000 C 67.500 13.100 67.600 13.000 67.500 13.000 H 61.700 C 61.600 13.000 61.700 13.100 61.700 13.000 V 10.100 C 61.700 10.045 61.655 10.000 61.600 10.000 H 55.600 C 55.545 10.000 55.500 10.045 55.500 10.100 V 13.000 C 55.500 13.100 55.600 13.000 55.500 13.000 H 49.700 C 49.600 13.000 49.700 13.100 49.700 13.000 V 10.100 C 49.700 10.045 49.655 10.000 49.600 10.000 H 43.600 C 43.545 10.000 43.500 10.045 43.500 10.100 V 13.000 C 43.500 13.100 43.600 13.000 43.500 13.000 H 37.700 C 37.600 13.000 37.700 13.100 37.700 13.000 V 10.100 C 37.700 10.045 37.655 10.000 37.600 10.000 H 31.600 C 31.545 10.000 31.500 10.045 31.500 10.100 V 13.000 C 31.500 13.100 31.600 13.000 31.500 13.000 H 25.700 C 25.600 13.000 25.700 13.100 25.700 13.000 V 10.100 C 25.700 10.045 25.655 10.000 25.600 10.000 H 19.600 C 19.545 10.000 19.500 10.045 19.500 10.100 V 13.000 C 19.500 13.100 19.600 13.000 19.500 13.000 H 13.100 C 13.045 13.000 13.000 13.045 13.000 13.100 V 23.000 C 13.000 23.100 13.100 23.000 13.000 23.000 H 10.100 C 10.045 23.000 10.000 23.045 10.000 23.100 V 29.100 C 10.000 29.155 10.045 29.200 10.100 29.200 H 13.000 C 13.100 29.200 13.000 29.100 13.000 29.200 V 35.000 C 13.000 35.100 13.100 35.000 13.000 35.000 H 10.100 C 10.045 35.000 10.000 35.045 10.000 35.100 V 41.100 C 10.000 41.155 10.045 41.200 10.100 41.200 H 13.000 C 13.100 41.200 13.000 41.100 13.000 41.200 V 47.000 C 13.000 47.100 13.100 47.000 13.000 47.000 H 10.100 C 10.045 47.000 10.000 47.045 10.000 47.100 V 53.100 C 10.000 53.155 10.045 53.200 10.100 53.200 H 13.000 C 13.100 53.200 13.000 53.100 13.000 53.200 V 59.000 C 13.000 59.100 13.100 59.000 13.000 59.000 H 10.100 C 10.045 59.000 10.000 59.045 10.000 59.100 V 65.100 C 10.000 65.155 10.045 65.200 10.100 65.200 H 13.000 C 13.100 65.200 13.000 65.100 13.000 65.200 V 71.000 C 13.000 71.100 13.100 71.000 13.000 71.000 H 10.100 C 10.045 71.000 10.000 71.045 10.000 71.100 V 77.100 C 10.000 77.155 10.045 77.200 10.100 77.200 H 13.000 C 13.100 77.200 13.000 77.100 13.000 77.200 V 83.000 C 13.000 83.100 13.100 83.000 13.000 83.000 H 10.100 C 10.045 83.000 10.000 83.045 10.000 83.100 V 89.100 C 10.000 89.155 10.045 89.200 10.100 89.200 H 13.000 C 13.100 89.200 13.000 89.100 13.000 89.200 V 95.000 C 13.000 95.100 13.100 95.000 13.000 95.000 H 10.100 C 10.045 95.000 10.000 95.045 10.000 95.100 V 101.100 C 10.000 101.155 10.045 101.200 10.100 101.200 H 13.000 C 13.100 101.200 13.000 101.100 13.000 101.200 V 107.000 C 13.000 107.100 13.100 107.000 13.000 107.000 H 10.100 C 10.045 107.000 10.000 107.045 10.000 107.100 V 113.100 C 10.000 113.155 10.045 113.200 10.100 113.200 H 13.000 C 13.100 113.200 13.000 113.100 13.000 113.200 V 119.000 C 13.000 119.100 13.100 119.000 13.000 119.000 H 10.100 C 10.045 119.000 10.000 119.045 10.000 119.100 V 125.100 C 10.000 125.155 10.045 125.200 10.100 125.200 H 13.000 C 13.100 125.200 13.000 125.100 13.000 125.200 V 131.000 C 13.000 131.100 13.100 131.000 13.000 131.000 H 10.100 C 10.045 131.000 10.000 131.045 10.000 131.100 V 137.100 C 10.000 137.155 10.045 137.200 10.100 137.200 H 13.000 C 13.100 137.200 13.000 137.100 13.000 137.200 V 143.000 C 13.000 143.100 13.100 143.000 13.000 143.000 H 10.100 C 10.045 143.000 10.000 143.045 10.000 143.100 V 149.100 C 10.000 149.155 10.045 149.200 10.100 149.200 H 13.000 C 13.100 149.200 13.000 149.100 13.000 149.200 V 155.000 C 13.000 155.100 13.100 155.000 13.000 155.000 H 10.100 C 10.045 155.000 10.000 155.045 10.000 155.100 V 161.100 C 10.000 161.155 10.045 161.200 10.100 161.200 H 13.000 C 13.100 161.200 13.000 161.100 13.000 161.200 V 167.000 C 13.000 167.100 13.100 167.000 13.000 167.000 H 10.100 C 10.045 167.000 10.000 167.045 10.000 167.100 V 173.100 C 10.000 173.155 10.045 173.200 10.100 173.200 H 13.000 C 13.100 173.200 13.000 173.100 13.000 173.200 V 179.000 C 13.000 179.100 13.100 179.000 13.000 179.000 H 10.100 C 10.045 179.000 10.000 179.045 10.000 179.100 V 185.100 C 10.000 185.155 10.045 185.200 10.100 185.200 H 13.000 C 13.100 185.200 13.000 185.100 13.000 185.200 V 191.000 C 13.000 191.100 13.100 191.000 13.000 191.000 H 10.100 C 10.045 191.000 10.000 191.045 10.000 191.100 V 197.100 C 10.000 197.155 10.045 197.200 10.100 197.200 H 13.000 C 13.100 197.200 13.000 197.100 13.000 197.200 V 207.100 C 13.000 207.155 13.045 207.200 13.100 207.200 Z" stroke="rgb(0,0,0)" stroke-width="0.20" />
</g>
<g id="p-4" style="fill:none;stroke-linecap:round;stroke-linejoin:round;">
  <path d="M 292.800 270.400 H 289.900 C 289.800 270.400 289.900 270.500 289.900 270.400 V 267.600 C 289.900 267.500 289.800 267.600 289.900 267.600 H 295.700 C 295.800 267.600 295.700 267.500 295.700 267.600 V 270.400 C 295.700 270.500 295.800 270.400 295.700 270.400 H 292.800 Z" stroke="rgb(0,0,255)" stroke-width="0.20" />
  <path d="M 304.800 270.400 H 301.900 C 301.800 270.400 301.900 270.500 301.900 270.400 V 267.600 C 301.900 267.500 301.800 267.600 301.900 267.600 H 307.700 C 307.800 267.600 307.700 267.500 307.700 267.600 V 270.400 C 307.700 270.500 307.800 270.400 307.700 270.400 H 304.800 Z" stroke="rgb(0,0,255)" stroke-width="0.20" />
  <path d="M 316.800 270.400 H 313.900 C 313.800 270.400 313.900 270.500 313.900 270.400 V 267.600 C 313.900 267.500 313.800 267.600 313.900 267.600 H 319.700 C 319.800 267.600 319.700 267.500 319.700 267.600 V 270.400 C 319.700 270.500 319.800 270.400 319.700 270.400 H 316.800 Z" stroke="rgb(0,0,255)" stroke-width="0.20" />
  <path d="M 328.800 270.400 H 325.900 C 325.800 270.400 325.900 270.500 325.900 270.400 V 267.600 C 325.900 267.500 325.800 267.600 325.900 267.600 H 331.700 C 331.800 267.600 331.700 267.500 331.700 267.600 V 270.400 C 331.700 270.500 331.800 270.400 331.700 270.400 H 328.800 Z" stroke="rgb(0,0,255)" stroke-width="0.20" />
  <path d="M 340.800 270.400 H 337.900 C 337.800 270.400 337.900 270.500 337.900 270.400 V 267.600 C 337.900 267.500 337.800 267.600 337.900 267.600 H 343.700 C 343.800 267.600 343.700 267.500 343.700 267.600 V 270.400 C 343.700 270.500 343.800 270.400 343.700 270.400 H 340.800 Z" stroke="rgb(0,0,255)" stroke-width="0.20" />
  <path d="M 352.800 270.400 H 349.900 C 349.800 270.400 349.900 270.500 349.900 270.400 V 267.600 C 349.900 267.500 349.800 267.600 349.900 267.600 H 355.700 C 355.800 267.600 355.700 267.500 355.700 267.600 V 270.400 C 355.700 270.500 355.800 270.400 355.700 270.400 H 352.800 Z" stroke="rgb(0,0,255)" stroke-width="0.20" />
  <path d="M 364.800 270.400 H 361.900 C 361.800 270.400 361.900 270.500 361.900 270.400 V 267.600 C 361.900 267.500 361.800 267.600 361.900 267.600 H 367.700 C 367.800 267.600 367.700 267.500 367.700 267.600 V 270.400 C 367.700 270.500 367.800 270.400 367.700 270.400 H 364.800 Z" stroke="rgb(0,0,255)" stroke-width="0.20" />
  <path d="M 376.800 270.400 H 373.900 C 373.800 270.400 373.900 270.500 373.900 270.400 V 267.600 C 373.900 267.500 373.800 267.600 373.900 267.600 H 379.700 C 379.800 267.600 379.700 267.500 379.700 267.600 V 270.400 C 379.700 270.500 379.800 270.400 379.700 270.400 H 376.800 Z" stroke="rgb(0,0,255)" stroke-width="0.20" />
  <path d="M 388.800 270.400 H 385.900 C 385.800 270.400 385.900 270.500 385.900 270.400 V 267.600 C 385.900 267.500 385.800 267.600 385.900 267.600 H 391.700 C 391.800 267.600 391.700 267.500 391.700 267.600 V 270.400 C 391.700 270.500 391.800 270.400 391.700 270.400 H 388.800 Z" stroke="rgb(0,0,255)" stroke-width="0.20" />
  <path d="M 400.800 270.400 H 397.900 C 397.800 270.400 397.900 270.500 397.900 270.400 V 267.600 C 397.900 267.500 397.800 267.600 397.900 267.600 H 403.700 C 403.800 267.600 403.700 267.500 403.700 267.600 V 270.400 C 403.700 270.500 403.800 270.400 403.700 270.400 H 400.800 Z" stroke="rgb(0,0,255)" stroke-width="0.20" />
  <path d="M 412.800 270.400 H 409.900 C 409.800 270.400 409.900 270.500 409.900 270.400 V 267.600 C 409.900 267.500 409.800 267.600 409.900 267.600 H 415.700 C 415.800 267.600 415.700 267.500 415.700 267.600 V 270.400 C 415.700 270.500 415.800 270.400 415.700 270.400 H 412.800 Z" stroke="rgb(0,0,255)" stroke-width="0.20" />
  <path d="M 424.800 270.400 H 421.900 C 421.800 270.400 421.900 270.500 421.900 270.400 V 267.600 C 421.900 267.500 421.800 267.600 421.900 267.600 H 427.700 C 427.800 267.600 427.700 267.500 427.700 267.600 V 270.400 C 427.700 270.500 427.800 270.400 427.700 270.400 H 424.800 Z" stroke="rgb(0,0,255)" stroke-width="0.20" />
  <path d="M 436.800 270.400 H 433.900 C 433.800 270.400 433.900 270.500 433.900 270.400 V 267.600 C 433.900 267.500 433.800 267.600 433.900 267.600 H 439.700 C 439.800 267.600 439.700 267.500 439.700 267.600 V 270.400 C 439.700 270.500 439.800 270.400 439.700 270.400 H 436.800 Z" stroke="rgb(0,0,255)" stroke-width="0.20" />
  <path d="M 448.800 270.400 H 445.900 C 445.800 270.400 445.900 270.500 445.900 270.400 V 267.600 C 445.900 267.500 445.800 267.600 445.900 267.600 H 451.700 C 451.800 267.600 451.700 267.500 451.700 267.600 V 270.400 C 451.700 270.500 451.800 270.400 451.700 270.400 H 448.800 Z" stroke="rgb(0,0,255)" stroke-width="0.20" />
  <path d="M 460.800 270.400 H 457.900 C 457.800 270.400 457.900 270.500 457.900 270.400 V 267.600 C 457.900 267.500 457.800 267.600 457.900 267.600 H 463.700 C 463.800 267.600 463.700 267.500 463.700 267.600 V 270.400 C 463.700 270.500 463.800 270.400 463.700 270.400 H 460.800 Z" stroke="rgb(0,0,255)" stroke-width="0.20" />
  <path d="M 279.800 273.600 H 473.800 C 473.855 273.600 473.900 273.555 473.900 273.500 V 267.600 C 473.900 267.500 473.800 267.600 473.900 267.600 H 476.800 C 476.855 267.600 476.900 267.555 476.900 267.500 V 261.500 C 476.900 261.445 476.855 261.400 476.800 261.400 H 473.900 C 473.800 261.400 473.900 261.500 473.900 261.400 V 255.600 C 473.900 255.500 473.800 255.600 473.900 255.600 H 476.800 C 476.855 255.600 476.900 255.555 476.900 255.500 V 249.500 C 476.900 249.445 476.855 249.400 476.800 249.400 H 473.900 C 473.800 249.400 473.900 249.500 473.900 249.400 V 243.500 C 473.900 243.445 473.855 243.400 473.800 243.400 H 279.800 C 279.745 243.400 279.700 243.445 279.700 243.500 V 249.400 C 279.700 249.500 279.800 249.400 279.700 249.400 H 276.800 C 276.745 249.400 276.700 249.445 276.700 249.500 V 255.500 C 276.700 255.555 276.745 255.600 276.800 255.600 H 279.700 C 279.800 255.600 279.700 255.500 279.700 255.600 V 261.400 C 279.700 261.500 279.800 261.400 279.700 261.400 H 276.800 C 276.745 261.400 276.700 261.445 276.700 261.500 V 267.500 C 276.700 267.555 276.745 267.600 276.800 267.600 H 279.700 C 279.800 267.600 279.700 267.500 279.700 267.600 V 273.500 C 279.700 273.555 279.745 273.600 279.800 273.600 Z" stroke="rgb(0,0,0)" stroke-width="0.20" />
</g>
<g id="p-5" style="fill:none;stroke-linecap:round;stroke-linejoin:round;">
  <path d="M 292.800 238.700 H 289.900 C 289.800 238.700 289.900 238.800 289.900 238.700 V 235.900 C 289.900 235.800 289.800 235.900 289.900 235.900 H 295.700 C 295.800 235.900 295.700 235.800 295.700 235.900 V 238.700 C 295.700 238.800 295.800 238.700 295.700 238.700 H 292.800 Z" stroke="rgb(0,0,255)" stroke-width="0.20" />
  <path d="M 304.800 238.700 H 301.900 C 301.800 238.700 301.900 238.800 301.900 238.700 V 235.900 C 301.900 235.800 301.800 235.900 301.900 235.900 H 307.700 C 307.800 235.900 307.700 235.800 307.700 235.900 V 238.700 C 307.700 238.800 307.800 238.700 307.700 238.700 H 304.800 Z" stroke="rgb(0,0,255)" stroke-width="0.20" />
  <path d="M 316.800 238.700 H 313.900 C 313.800 238.700 313.900 238.800 313.900 238.700 V 235.900 C 313.900 235.800 313.800 235.900 313.900 235.900 H 319.700 C 319.800 235.900 319.700 235.800 319.700 235.900 V 238.700 C 319.700 238.800 319.800 238.700 319.700 238.700 H 316.800 Z" stroke="rgb(0,0,255)" stroke-width="0.20" />
  <path d="M 328.800 238.700 H 325.900 C 325.800 238.700 325.900 238.800 325.900 238.700 V 235.900 C 325.900 235.800 325.800 235.900 325.900 235.900 H 331.700 C 331.800 235.900 331.700 235.800 331.700 235.900 V 238.700 C 331.700 238.800 331.800 238.700 331.700 238.700 H 328.800 Z" stroke="rgb(0,0,255)" stroke-width="0.20" />
  <path d="M 340.800 238.700 H 337.900 C 337.800 238.700 337.900 238.800 337.900 238.700 V 235.900 C 337.900 235.800 337.800 235.900 337.900 235.900 H 343.700 C 343.800 235.900 343.700 235.800 343.700 235.900 V 238.700 C 343.700 238.800 343.800 238.700 343.700 238.700 H 340.800 Z" stroke="rgb(0,0,255)" stroke-width="0.20" />
  <path d="M 352.800 238.700 H 349.900 C 349.800 238.700 349.900 238.800 349.900 238.700 V 235.900 C 349.900 235.800 349.800 235.900 349.900 235.900 H 355.700 C 355.800 235.900 355.700 235.800 355.700 235.900 V 238.700 C 355.700 238.800 355.800 238.700 355.700 238.700 H 352.800 Z" stroke="rgb(0,0,255)" stroke-width="0.20" />
  <path d="M 364.800 238.700 H 361.900 C 361.800 238.700 361.900 238.800 361.900 238.700 V 235.900 C 361.900 235.800 361.800 235.900 361.900 235.900 H 367.700 C 367.800 235.900 367.700 235.800 367.700 235.900 V 238.700 C 367.700 238.800 367.800 238.700 367.700 238.700 H 364.800 Z" stroke="rgb(0,0,255)" stroke-width="0.20" />
  <path d="M 376.800 238.700 H 373.900 C 373.800 238.700 373.900 238.800 373.900 238.700 V 235.900 C 373.900 235.800 373.800 235.900 373.900 235.900 H 379.700 C 379.800 235.900 379.700 235.800 379.700 235.900 V 238.700 C 379.700 238.800 379.800 238.700 379.700 238.700 H 376.800 Z" stroke="rgb(0,0,255)" stroke-width="0.20" />
  <path d="M 388.800 238.700 H 385.900 C 385.800 238.700 385.900 238.800 385.900 238.700 V 235.900 C 385.900 235.800 385.800 235.900 385.900 235.900 H 391.700 C 391.800 235.900 391.700 235.800 391.700 235.900 V 238.700 C 391.700 238.800 391.800 238.700 391.700 238.700 H 388.800 Z" stroke="rgb(0,0,255)" stroke-width="0.20" />
  <path d="M 400.800 238.700 H 397.900 C 397.800 238.700 397.900 238.800 397.900 238.700 V 235.900 C 397.900 235.800 397.800 235.900 397.900 235.900 H 403.700 C 403.800 235.900 403.700 235.800 403.700 235.900 V 238.700 C 403.700 238.800 403.800 238.700 403.700 238.700 H 400.800 Z" stroke="rgb(0,0,255)" stroke-width="0.20" />
  <path d="M 412.800 238.700 H 409.900 C 409.800 238.700 409.900 238.800 409.900 238.700 V 235.900 C 409.900 235.800 409.800 235.900 409.900 235.900 H 415.700 C 415.800 235.900 415.700 235.800 415.700 235.900 V 238.700 C 415.700 238.800 415.800 238.700 415.700 238.700 H 412.800 Z" stroke="rgb(0,0,255)" stroke-width="0.20" />
  <path d="M 424.800 238.700 H 421.900 C 421.800 238.700 421.900 238.800 421.900 238.700 V 235.900 C 421.900 235.800 421.800 235.900 421.900 235.900 H 427.700 C 427.800 235.900 427.700 235.800 427.700 235.900 V 238.700 C 427.700 238.800 427.800 238.700 427.700 238.700 H 424.800 Z" stroke="rgb(0,0,255)" stroke-width="0.20" />
  <path d="M 436.800 238.700 H 433.900 C 433.800 238.700 433.900 238.800 433.900 238.700 V 235.900 C 433.900 235.800 433.800 235.900 433.900 235.900 H 439.700 C 439.800 235.900 439.700 235.800 439.700 235.900 V 238.700 C 439.700 238.800 439.800 238.700 439.700 238.700 H 436.800 Z" stroke="rgb(0,0,255)" stroke-width="0.20" />
  <path d="M 448.800 238.700 H 445.900 C 445.800 238.700 445.900 238.800 445.900 238.700 V 235.900 C 445.900 235.800 445.800 235.900 445.900 235.900 H 451.700 C 451.800 235.900 451.700 235.800 451.700 235.900 V 238.700 C 451.700 238.800 451.800 238.700 451.700 238.700 H 448.800 Z" stroke="rgb(0,0,255)" stroke-width="0.20" />
  <path d="M 460.800 238.700 H 457.900 C 457.800 238.700 457.900 238.800 457.900 238.700 V 235.900 C 457.900 235.800 457.800 235.900 457.900 235.900 H 463.700 C 463.800 235.900 463.700 235.800 463.700 235.900 V 238.700 C 463.700 238.800 463.800 238.700 463.700 238.700 H 460.800 Z" stroke="rgb(0,0,255)" stroke-width="0.20" />
  <path d="M 279.800 241.900 H 473.800 C 473.855 241.900 473.900 241.855 473.900 241.800 V 235.900 C 473.900 235.800 473.800 235.900 473.900 235.900 H 476.800 C 476.855 235.900 476.900 235.855 476.900 235.800 V 229.800 C 476.900 229.745 476.855 229.700 476.800 229.700 H 473.900 C 473.800 229.700 473.900 229.800 473.900 229.700 V 223.900 C 473.900 223.800 473.800 223.900 473.900 223.900 H 476.800 C 476.855 223.900 476.900 223.855 476.900 223.800 V 217.800 C 476.900 217.745 476.855 217.700 476.800 217.700 H 473.900 C 473.800 217.700 473.900 217.800 473.900 217.700 V 211.800 C 473.900 211.745 473.855 211.700 473.800 211.700 H 279.800 C 279.745 211.700 279.700 211.745 279.700 211.800 V 217.700 C 279.700 217.800 279.800 217.700 279.700 217.700 H 276.800 C 276.745 217.700 276.700 217.745 276.700 217.800 V 223.800 C 276.700 223.855 276.745 223.900 276.800 223.900 H 279.700 C 279.800 223.900 279.700 223.800 279.700 223.900 V 229.700 C 279.700 229.800 279.800 229.700 279.700 229.700 H 276.800 C 276.745 229.700 276.700 229.745 276.700 229.800 V 235.800 C 276.700 235.855 276.745 235.900 276.800 235.900 H 279.700 C 279.800 235.900 279.700 235.800 279.700 235.900 V 241.800 C 279.700 241.855 279.745 241.900 279.800 241.900 Z" stroke="rgb(0,0,0)" stroke-width="0.20" />
</g>
</svg>